<?xml version="1.0" encoding="UTF-8"?>
<!DOCTYPE svg PUBLIC "-//W3C//DTD SVG 1.1//EN" "http://www.w3.org/Graphics/SVG/1.1/DTD/svg11.dtd">
<svg xmlns="http://www.w3.org/2000/svg" version="1.1" width="3176px" height="1589px" style="shape-rendering:geometricPrecision; text-rendering:geometricPrecision; image-rendering:optimizeQuality; fill-rule:evenodd; clip-rule:evenodd" xmlns:xlink="http://www.w3.org/1999/xlink">
<g><path style="opacity:1" fill="#d57130" d="M 1657.5,107.5 C 1660.5,111.167 1663.83,114.5 1667.5,117.5C 1681.5,131.167 1695.5,144.833 1709.5,158.5C 1714.83,164.5 1720.5,170.167 1726.5,175.5C 1738.17,186.833 1749.83,198.167 1761.5,209.5C 1767.17,215.833 1773.17,221.833 1779.5,227.5C 1805.2,253.196 1831.2,278.53 1857.5,303.5C 1857.14,322.518 1856.31,341.518 1855,360.5C 1842.13,348.627 1828.96,337.127 1815.5,326C 1788.02,307.711 1757.69,299.211 1724.5,300.5C 1698.39,274.895 1672.39,249.062 1646.5,223C 1645.91,222.536 1645.24,222.369 1644.5,222.5C 1637.54,215.035 1630.37,207.702 1623,200.5C 1622.5,179.169 1622.33,157.836 1622.5,136.5C 1602.17,136.771 1581.83,137.104 1561.5,137.5C 1560.88,137.611 1560.38,137.944 1560,138.5C 1534.32,113.654 1508.82,88.6538 1483.5,63.5C 1505.16,42.6783 1526.99,22.0117 1549,1.5C 1585.04,37.0359 1621.2,72.3692 1657.5,107.5 Z"/></g>
<g><path style="opacity:0.957" fill="#413128" d="M 1548.5,-0.5 C 1548.83,-0.5 1549.17,-0.5 1549.5,-0.5C 1585.5,35.5015 1621.83,71.1682 1658.5,106.5C 1658.5,107.167 1658.17,107.5 1657.5,107.5C 1621.2,72.3692 1585.04,37.0359 1549,1.5C 1526.99,22.0117 1505.16,42.6783 1483.5,63.5C 1508.82,88.6538 1534.32,113.654 1560,138.5C 1560.38,137.944 1560.88,137.611 1561.5,137.5C 1561.57,138.959 1561.23,140.292 1560.5,141.5C 1536.8,117.797 1512.8,94.4641 1488.5,71.5C 1485.96,68.801 1483.63,65.9676 1481.5,63C 1504.01,41.9891 1526.34,20.8224 1548.5,-0.5 Z"/></g>
<g><path style="opacity:1" fill="#d57131" d="M 1559.5,200.5 C 1560.11,201.391 1560.44,202.391 1560.5,203.5C 1560.83,245.67 1560.5,287.67 1559.5,329.5C 1547.76,316.253 1535.42,303.419 1522.5,291C 1476.8,246.962 1431.46,202.629 1386.5,158C 1407.65,137.02 1429.32,116.52 1451.5,96.5C 1486.65,130.485 1521.65,164.652 1556.5,199C 1557.53,199.513 1558.53,200.013 1559.5,200.5 Z"/></g>
<g><path style="opacity:0.824" fill="#5d402e" d="M 1658.5,106.5 C 1662.17,109.5 1665.5,112.833 1668.5,116.5C 1667.83,116.5 1667.5,116.833 1667.5,117.5C 1663.83,114.5 1660.5,111.167 1657.5,107.5C 1658.17,107.5 1658.5,107.167 1658.5,106.5 Z"/></g>
<g><path style="opacity:0.957" fill="#342a25" d="M 1667.5,117.5 C 1667.5,116.833 1667.83,116.5 1668.5,116.5C 1682.5,130.167 1696.5,143.833 1710.5,157.5C 1710.5,158.167 1710.17,158.5 1709.5,158.5C 1695.5,144.833 1681.5,131.167 1667.5,117.5 Z"/></g>
<g><path style="opacity:1" fill="#0f0c0b" d="M 1644.5,222.5 C 1643.83,222.5 1643.17,222.5 1642.5,222.5C 1636.54,216.035 1630.37,209.702 1624,203.5C 1623.5,223.164 1623.33,242.831 1623.5,262.5C 1622.83,262.5 1622.5,262.833 1622.5,263.5C 1622.17,285.177 1622.5,306.844 1623.5,328.5C 1624.11,328.376 1624.44,328.043 1624.5,327.5C 1638.98,321.424 1653.31,315.091 1667.5,308.5C 1669,308.011 1670.33,307.345 1671.5,306.5C 1684.19,302.664 1697.19,300.664 1710.5,300.5C 1715.17,300.5 1719.83,300.5 1724.5,300.5C 1757.69,299.211 1788.02,307.711 1815.5,326C 1828.96,337.127 1842.13,348.627 1855,360.5C 1856.31,341.518 1857.14,322.518 1857.5,303.5C 1858.11,302.609 1858.44,301.609 1858.5,300.5C 1946.33,300.311 2033.66,300.645 2120.5,301.5C 2120.5,302.5 2120.5,303.5 2120.5,304.5C 2119.5,381.332 2119.17,458.332 2119.5,535.5C 2119.5,564.833 2119.5,594.167 2119.5,623.5C 2109.01,624.494 2098.35,624.828 2087.5,624.5C 2081.83,624.5 2076.17,624.5 2070.5,624.5C 2068.02,623.836 2065.36,623.503 2062.5,623.5C 2059.41,623.522 2056.74,624.188 2054.5,625.5C 2053.5,625.167 2052.83,624.5 2052.5,623.5C 2053.83,582.402 2053.83,541.402 2052.5,500.5C 2052.66,498.473 2052.5,496.473 2052,494.5C 2047.63,489.963 2043.13,485.63 2038.5,481.5C 2038.5,480.833 2038.83,480.5 2039.5,480.5C 2043.8,484.296 2047.96,488.296 2052,492.5C 2052.5,450.501 2052.67,408.501 2052.5,366.5C 2042.5,366.5 2032.5,366.5 2022.5,366.5C 2020.83,366.5 2019.17,366.5 2017.5,366.5C 2016.86,452.499 2016.53,538.499 2016.5,624.5C 1999.17,624.5 1981.83,624.5 1964.5,624.5C 1961.5,624.5 1958.5,624.5 1955.5,624.5C 1955.5,612.167 1955.5,599.833 1955.5,587.5C 1955.5,586.833 1955.5,586.167 1955.5,585.5C 1955.5,566.5 1955.5,547.5 1955.5,528.5C 1956.83,485.736 1956.83,443.069 1955.5,400.5C 1955.5,400.167 1955.5,399.833 1955.5,399.5C 1955.5,398.833 1955.5,398.167 1955.5,397.5C 1955.5,387.167 1955.5,376.833 1955.5,366.5C 1953.5,365.167 1951.5,365.167 1949.5,366.5C 1949.17,366.5 1948.83,366.5 1948.5,366.5C 1939.17,365.167 1929.83,365.167 1920.5,366.5C 1920.5,393.167 1920.5,419.833 1920.5,446.5C 1919.5,489.997 1919.17,533.663 1919.5,577.5C 1919.5,593.167 1919.5,608.833 1919.5,624.5C 1911.83,624.5 1904.17,624.5 1896.5,624.5C 1885.5,624.5 1874.5,624.5 1863.5,624.5C 1862.83,624.5 1862.17,624.5 1861.5,624.5C 1860.17,624.5 1858.83,624.5 1857.5,624.5C 1857.82,618.642 1857.49,612.975 1856.5,607.5C 1856.83,591.991 1856.5,576.658 1855.5,561.5C 1853.28,562.203 1851.45,563.536 1850,565.5C 1847.95,568.047 1846.11,570.714 1844.5,573.5C 1841.17,576.5 1837.83,579.5 1834.5,582.5C 1832.25,583.08 1830.58,584.413 1829.5,586.5C 1816.83,594.841 1804.16,603.174 1791.5,611.5C 1789.08,612.305 1786.75,613.305 1784.5,614.5C 1782.9,614.232 1781.57,614.566 1780.5,615.5C 1772.1,618.767 1763.43,621.1 1754.5,622.5C 1735.55,624.776 1716.55,625.109 1697.5,623.5C 1677.36,619.895 1658.36,612.895 1640.5,602.5C 1639.71,601.599 1638.71,600.932 1637.5,600.5C 1633.04,598.269 1628.37,596.602 1623.5,595.5C 1623.2,598.059 1623.53,600.393 1624.5,602.5C 1623.72,623.001 1623.72,643.335 1624.5,663.5C 1624.17,664.167 1623.83,664.833 1623.5,665.5C 1623.5,688.167 1623.5,710.833 1623.5,733.5C 1622.5,752.326 1622.17,771.326 1622.5,790.5C 1619.17,790.5 1615.83,790.5 1612.5,790.5C 1598.69,789.176 1584.69,788.509 1570.5,788.5C 1569.13,788.343 1567.79,788.51 1566.5,789C 1571.04,793.703 1575.7,798.203 1580.5,802.5C 1580.5,803.167 1580.17,803.5 1579.5,803.5C 1574.37,798.87 1569.37,794.037 1564.5,789C 1563.21,788.51 1561.87,788.343 1560.5,788.5C 1560.5,787.5 1560.5,786.5 1560.5,785.5C 1560.5,778.167 1560.5,770.833 1560.5,763.5C 1560.83,744.659 1560.5,725.993 1559.5,707.5C 1559.5,679.5 1559.5,651.5 1559.5,623.5C 1559.83,613.319 1559.49,603.319 1558.5,593.5C 1553.7,597.071 1548.7,600.405 1543.5,603.5C 1519.96,615.636 1494.96,622.636 1468.5,624.5C 1462.17,624.5 1455.83,624.5 1449.5,624.5C 1404.6,621.381 1366.6,603.714 1335.5,571.5C 1334.92,569.251 1333.59,567.585 1331.5,566.5C 1328.42,563.431 1325.76,560.097 1323.5,556.5C 1323.57,554.973 1322.91,553.973 1321.5,553.5C 1316.06,544.73 1311.06,535.73 1306.5,526.5C 1299.38,510.7 1295.38,494.034 1294.5,476.5C 1294.5,475.833 1294.5,475.167 1294.5,474.5C 1294.82,469.968 1294.48,465.634 1293.5,461.5C 1293.79,429.667 1302.46,400.333 1319.5,373.5C 1319.83,372.833 1320.17,372.167 1320.5,371.5C 1330.41,356.251 1342.75,343.251 1357.5,332.5C 1358.17,332.5 1358.5,332.167 1358.5,331.5C 1387.56,311.258 1419.89,300.592 1455.5,299.5C 1456.83,299.5 1458.17,299.5 1459.5,299.5C 1490.69,298.963 1519.36,307.129 1545.5,324C 1549.41,325.791 1553.41,327.291 1557.5,328.5C 1557.84,329.338 1558.51,329.672 1559.5,329.5C 1559.56,330.043 1559.89,330.376 1560.5,330.5C 1561.83,288.002 1561.83,245.669 1560.5,203.5C 1560.44,202.391 1560.11,201.391 1559.5,200.5C 1559.5,200.167 1559.5,199.833 1559.5,199.5C 1560.5,180.341 1560.83,161.007 1560.5,141.5C 1561.23,140.292 1561.57,138.959 1561.5,137.5C 1581.83,137.104 1602.17,136.771 1622.5,136.5C 1622.33,157.836 1622.5,179.169 1623,200.5C 1630.37,207.702 1637.54,215.035 1644.5,222.5 Z M 1732.5,364.5 C 1783.11,372.606 1811.94,401.939 1819,452.5C 1818.29,451.619 1817.46,450.953 1816.5,450.5C 1787.7,421.867 1758.7,393.367 1729.5,365C 1730.45,364.517 1731.45,364.351 1732.5,364.5 Z M 1948.5,366.5 C 1948.83,366.5 1949.17,366.5 1949.5,366.5C 1951.39,367.275 1953.39,367.275 1955.5,366.5C 1955.5,376.833 1955.5,387.167 1955.5,397.5C 1945.03,387.535 1934.7,377.369 1924.5,367C 1932.99,366.738 1940.99,366.571 1948.5,366.5 Z M 2022.5,366.5 C 2032.5,366.5 2042.5,366.5 2052.5,366.5C 2052.67,408.501 2052.5,450.501 2052,492.5C 2047.96,488.296 2043.8,484.296 2039.5,480.5C 2033.83,474.167 2027.83,468.167 2021.5,462.5C 2021.71,430.498 2022.04,398.498 2022.5,366.5 Z M 1407.5,379.5 C 1452.48,423.814 1497.82,467.814 1543.5,511.5C 1534.01,527.993 1520.67,540.326 1503.5,548.5C 1459.36,505.27 1415.03,462.27 1370.5,419.5C 1379.33,403 1391.66,389.666 1407.5,379.5 Z M 1647.5,415.5 C 1690.83,457.499 1733.83,499.832 1776.5,542.5C 1762.25,552.361 1746.42,558.028 1729,559.5C 1727.17,559.481 1725.67,558.815 1724.5,557.5C 1690.9,525.063 1657.4,492.397 1624,459.5C 1623.5,457.527 1623.34,455.527 1623.5,453.5C 1626.33,443.655 1629,433.655 1631.5,423.5C 1633.98,418.558 1636.98,413.892 1640.5,409.5C 1642.85,411.523 1645.19,413.523 1647.5,415.5 Z M 1921.5,495.5 C 1932.75,506.482 1944.08,517.482 1955.5,528.5C 1955.5,547.5 1955.5,566.5 1955.5,585.5C 1944.14,574.134 1932.47,563.134 1920.5,552.5C 1921.3,533.511 1921.64,514.511 1921.5,495.5 Z"/></g>
<g><path style="opacity:1" fill="#d8d2cb" d="M 1861.5,315.5 C 1862.48,312.375 1862.81,309.042 1862.5,305.5C 1887.5,305.5 1912.5,305.5 1937.5,305.5C 1989.83,305.5 2042.17,305.5 2094.5,305.5C 2101.31,306.491 2108.31,306.825 2115.5,306.5C 2115.5,369.5 2115.5,432.5 2115.5,495.5C 2115.5,537.167 2115.5,578.833 2115.5,620.5C 2105.83,620.5 2096.17,620.5 2086.5,620.5C 2077.01,619.506 2067.35,619.173 2057.5,619.5C 2057.83,533.665 2057.5,447.998 2056.5,362.5C 2042.32,361.31 2027.99,361.31 2013.5,362.5C 2012.52,448.485 2012.18,534.485 2012.5,620.5C 1994.83,620.5 1977.17,620.5 1959.5,620.5C 1959.5,534.167 1959.5,447.833 1959.5,361.5C 1944.92,361.176 1930.42,361.51 1916,362.5C 1915.5,448.499 1915.33,534.499 1915.5,620.5C 1897.5,620.5 1879.5,620.5 1861.5,620.5C 1860.76,598.842 1860.42,577.175 1860.5,555.5C 1855.89,555.971 1851.89,557.804 1848.5,561C 1845.26,564.821 1842.26,568.821 1839.5,573C 1827.34,582.245 1815.01,591.245 1802.5,600C 1771.86,617.748 1738.86,624.414 1703.5,620C 1676.91,615.704 1652.24,606.37 1629.5,592C 1626.17,591.39 1622.84,590.89 1619.5,590.5C 1619.5,655.5 1619.5,720.5 1619.5,785.5C 1601.16,785.535 1582.82,785.202 1564.5,784.5C 1563.86,719.166 1563.2,653.833 1562.5,588.5C 1559.83,588.933 1557.17,589.433 1554.5,590C 1542.9,599.307 1529.9,606.307 1515.5,611C 1454.61,630.952 1399.61,620.619 1350.5,580C 1304.01,534.918 1288.51,480.752 1304,417.5C 1324.49,356.35 1366.32,319.183 1429.5,306C 1471.98,298.895 1511.31,306.895 1547.5,330C 1553.3,332.546 1559.3,334.379 1565.5,335.5C 1565.5,270.833 1565.5,206.167 1565.5,141.5C 1583.16,141.052 1600.83,140.718 1618.5,140.5C 1618.5,204.833 1618.5,269.167 1618.5,333.5C 1625,331.923 1631.33,329.757 1637.5,327C 1672.2,306.562 1709.53,299.562 1749.5,306C 1774.38,308.281 1796.72,316.948 1816.5,332C 1825.17,340 1833.83,348 1842.5,356C 1847.69,360.027 1853.03,363.86 1858.5,367.5C 1859.78,350.181 1860.78,332.848 1861.5,315.5 Z M 1732.5,364.5 C 1783.11,372.606 1811.94,401.939 1819,452.5C 1818.29,451.619 1817.46,450.953 1816.5,450.5C 1787.7,421.867 1758.7,393.367 1729.5,365C 1730.45,364.517 1731.45,364.351 1732.5,364.5 Z M 1948.5,366.5 C 1948.83,366.5 1949.17,366.5 1949.5,366.5C 1951.39,367.275 1953.39,367.275 1955.5,366.5C 1955.5,376.833 1955.5,387.167 1955.5,397.5C 1945.03,387.535 1934.7,377.369 1924.5,367C 1932.99,366.738 1940.99,366.571 1948.5,366.5 Z M 2022.5,366.5 C 2032.5,366.5 2042.5,366.5 2052.5,366.5C 2052.67,408.501 2052.5,450.501 2052,492.5C 2047.96,488.296 2043.8,484.296 2039.5,480.5C 2033.83,474.167 2027.83,468.167 2021.5,462.5C 2021.71,430.498 2022.04,398.498 2022.5,366.5 Z M 1407.5,379.5 C 1452.48,423.814 1497.82,467.814 1543.5,511.5C 1534.01,527.993 1520.67,540.326 1503.5,548.5C 1459.36,505.27 1415.03,462.27 1370.5,419.5C 1379.33,403 1391.66,389.666 1407.5,379.5 Z M 1647.5,415.5 C 1690.83,457.499 1733.83,499.832 1776.5,542.5C 1762.25,552.361 1746.42,558.028 1729,559.5C 1727.17,559.481 1725.67,558.815 1724.5,557.5C 1690.9,525.063 1657.4,492.397 1624,459.5C 1623.5,457.527 1623.34,455.527 1623.5,453.5C 1626.33,443.655 1629,433.655 1631.5,423.5C 1633.98,418.558 1636.98,413.892 1640.5,409.5C 1642.85,411.523 1645.19,413.523 1647.5,415.5 Z M 1921.5,495.5 C 1932.75,506.482 1944.08,517.482 1955.5,528.5C 1955.5,547.5 1955.5,566.5 1955.5,585.5C 1944.14,574.134 1932.47,563.134 1920.5,552.5C 1921.3,533.511 1921.64,514.511 1921.5,495.5 Z"/></g>
<g><path style="opacity:0.824" fill="#5b3f2d" d="M 1710.5,157.5 C 1716.5,162.833 1722.17,168.5 1727.5,174.5C 1726.83,174.5 1726.5,174.833 1726.5,175.5C 1720.5,170.167 1714.83,164.5 1709.5,158.5C 1710.17,158.5 1710.5,158.167 1710.5,157.5 Z"/></g>
<g><path style="opacity:0.957" fill="#322925" d="M 1726.5,175.5 C 1726.5,174.833 1726.83,174.5 1727.5,174.5C 1739.17,185.833 1750.83,197.167 1762.5,208.5C 1762.5,209.167 1762.17,209.5 1761.5,209.5C 1749.83,198.167 1738.17,186.833 1726.5,175.5 Z"/></g>
<g><path style="opacity:1" fill="#d57130" d="M 1455.5,299.5 C 1419.89,300.592 1387.56,311.258 1358.5,331.5C 1334.03,307.201 1309.37,283.034 1284.5,259C 1306.35,238.316 1328.35,217.816 1350.5,197.5C 1386.16,230.822 1421.16,264.822 1455.5,299.5 Z"/></g>
<g><path style="opacity:0.824" fill="#593e2c" d="M 1762.5,208.5 C 1768.83,214.167 1774.83,220.167 1780.5,226.5C 1779.83,226.5 1779.5,226.833 1779.5,227.5C 1773.17,221.833 1767.17,215.833 1761.5,209.5C 1762.17,209.5 1762.5,209.167 1762.5,208.5 Z"/></g>
<g><path style="opacity:0.957" fill="#372b26" d="M 1779.5,227.5 C 1779.5,226.833 1779.83,226.5 1780.5,226.5C 1806.44,250.935 1831.94,275.935 1857,301.5C 1857.38,300.944 1857.88,300.611 1858.5,300.5C 1858.44,301.609 1858.11,302.609 1857.5,303.5C 1831.2,278.53 1805.2,253.196 1779.5,227.5 Z"/></g>
<g><path style="opacity:0.957" fill="#413128" d="M 1559.5,199.5 C 1559.5,199.833 1559.5,200.167 1559.5,200.5C 1558.53,200.013 1557.53,199.513 1556.5,199C 1521.65,164.652 1486.65,130.485 1451.5,96.5C 1429.32,116.52 1407.65,137.02 1386.5,158C 1431.46,202.629 1476.8,246.962 1522.5,291C 1535.42,303.419 1547.76,316.253 1559.5,329.5C 1558.51,329.672 1557.84,329.338 1557.5,328.5C 1499.37,271.869 1441.37,215.036 1383.5,158C 1406.02,136.65 1428.68,115.483 1451.5,94.5C 1488.16,128.823 1524.16,163.823 1559.5,199.5 Z"/></g>
<g><path style="opacity:0.957" fill="#403028" d="M 1459.5,299.5 C 1458.17,299.5 1456.83,299.5 1455.5,299.5C 1421.16,264.822 1386.16,230.822 1350.5,197.5C 1328.35,217.816 1306.35,238.316 1284.5,259C 1309.37,283.034 1334.03,307.201 1358.5,331.5C 1358.5,332.167 1358.17,332.5 1357.5,332.5C 1332.55,307.882 1307.55,283.215 1282.5,258.5C 1304.74,237.044 1327.41,216.044 1350.5,195.5C 1386.88,230.216 1423.21,264.883 1459.5,299.5 Z"/></g>
<g><path style="opacity:0.957" fill="#423128" d="M 1642.5,222.5 C 1643.17,222.5 1643.83,222.5 1644.5,222.5C 1645.24,222.369 1645.91,222.536 1646.5,223C 1672.39,249.062 1698.39,274.895 1724.5,300.5C 1719.83,300.5 1715.17,300.5 1710.5,300.5C 1713.98,299.677 1717.64,299.177 1721.5,299C 1695.24,273.242 1668.91,247.742 1642.5,222.5 Z"/></g>
<g><path style="opacity:0.631" fill="#473428" d="M 1622.5,263.5 C 1622.5,262.833 1622.83,262.5 1623.5,262.5C 1638.94,276.433 1653.94,290.933 1668.5,306C 1669.45,306.483 1670.45,306.649 1671.5,306.5C 1670.33,307.345 1669,308.011 1667.5,308.5C 1667.63,307.761 1667.46,307.094 1667,306.5C 1652.94,291.933 1638.44,277.933 1623.5,264.5C 1623.5,263.833 1623.17,263.5 1622.5,263.5 Z"/></g>
<g><path style="opacity:1" fill="#a25a2d" d="M 1622.5,263.5 C 1623.17,263.5 1623.5,263.833 1623.5,264.5C 1623.17,285.673 1623.5,306.673 1624.5,327.5C 1624.44,328.043 1624.11,328.376 1623.5,328.5C 1622.5,306.844 1622.17,285.177 1622.5,263.5 Z"/></g>
<g><path style="opacity:1" fill="#d47130" d="M 1623.5,264.5 C 1638.44,277.933 1652.94,291.933 1667,306.5C 1667.46,307.094 1667.63,307.761 1667.5,308.5C 1653.31,315.091 1638.98,321.424 1624.5,327.5C 1623.5,306.673 1623.17,285.673 1623.5,264.5 Z"/></g>
<g><path style="opacity:1" fill="#665347" d="M 1560.5,203.5 C 1561.83,245.669 1561.83,288.002 1560.5,330.5C 1559.89,330.376 1559.56,330.043 1559.5,329.5C 1560.5,287.67 1560.83,245.67 1560.5,203.5 Z"/></g>
<g><path style="opacity:1" fill="#d57130" d="M 1319.5,373.5 C 1302.46,400.333 1293.79,429.667 1293.5,461.5C 1293.81,465.371 1293.48,469.038 1292.5,472.5C 1253.34,434.839 1214.01,397.339 1174.5,360C 1196.35,339.316 1218.35,318.816 1240.5,298.5C 1267.06,323.276 1293.39,348.276 1319.5,373.5 Z"/></g>
<g><path style="opacity:1" fill="#6c6763" d="M 1937.5,305.5 C 1912.5,305.5 1887.5,305.5 1862.5,305.5C 1862.81,309.042 1862.48,312.375 1861.5,315.5C 1861.5,311.833 1861.5,308.167 1861.5,304.5C 1887.01,304.169 1912.34,304.502 1937.5,305.5 Z"/></g>
<g><path style="opacity:0.957" fill="#3f3028" d="M 1320.5,371.5 C 1320.17,372.167 1319.83,372.833 1319.5,373.5C 1293.39,348.276 1267.06,323.276 1240.5,298.5C 1218.35,318.816 1196.35,339.316 1174.5,360C 1214.01,397.339 1253.34,434.839 1292.5,472.5C 1292.83,473.5 1293.5,474.167 1294.5,474.5C 1294.5,475.167 1294.5,475.833 1294.5,476.5C 1253.4,438.235 1212.73,399.402 1172.5,360C 1195.02,338.65 1217.68,317.483 1240.5,296.5C 1266.95,320.786 1292.95,345.62 1318.5,371C 1319.09,371.464 1319.76,371.631 1320.5,371.5 Z"/></g>
<g><path style="opacity:1" fill="#7a7672" d="M 2094.5,305.5 C 2101.83,305.5 2109.17,305.5 2116.5,305.5C 2116.83,369.002 2116.5,432.336 2115.5,495.5C 2115.5,432.5 2115.5,369.5 2115.5,306.5C 2108.31,306.825 2101.31,306.491 2094.5,305.5 Z"/></g>
<g><path style="opacity:0.957" fill="#4a3f39" d="M 2120.5,304.5 C 2121.47,306.948 2121.81,309.615 2121.5,312.5C 2120.83,386.833 2120.17,461.167 2119.5,535.5C 2119.17,458.332 2119.5,381.332 2120.5,304.5 Z"/></g>
<g><path style="opacity:1" fill="#100d0b" d="M 1447.5,359.5 C 1487.36,357.684 1519.2,372.684 1543,404.5C 1562.94,436.526 1565.94,470.193 1552,505.5C 1536.32,536.821 1511.16,555.654 1476.5,562C 1451.39,566.11 1427.73,562.11 1405.5,550C 1392.33,539.5 1380.5,527.667 1370,514.5C 1344.53,466.507 1351.36,423.673 1390.5,386C 1407.28,372.273 1426.28,363.44 1447.5,359.5 Z M 1407.5,379.5 C 1452.48,423.814 1497.82,467.814 1543.5,511.5C 1534.01,527.993 1520.67,540.326 1503.5,548.5C 1459.36,505.27 1415.03,462.27 1370.5,419.5C 1379.33,403 1391.66,389.666 1407.5,379.5 Z"/></g>
<g><path style="opacity:1" fill="#110e0c" d="M 1711.5,359.5 C 1742.01,358.06 1769.01,366.894 1792.5,386C 1827.63,424.309 1834.13,467.143 1812,514.5C 1806.24,524.489 1798.74,532.989 1789.5,540C 1780.66,545.585 1771.66,550.919 1762.5,556C 1707.1,574.454 1663.6,559.287 1632,510.5C 1605.9,452.807 1619.73,407.307 1673.5,374C 1685.55,367.124 1698.22,362.291 1711.5,359.5 Z M 1732.5,364.5 C 1783.11,372.606 1811.94,401.939 1819,452.5C 1818.29,451.619 1817.46,450.953 1816.5,450.5C 1787.7,421.867 1758.7,393.367 1729.5,365C 1730.45,364.517 1731.45,364.351 1732.5,364.5 Z M 1647.5,415.5 C 1690.83,457.499 1733.83,499.832 1776.5,542.5C 1762.25,552.361 1746.42,558.028 1729,559.5C 1727.17,559.481 1725.67,558.815 1724.5,557.5C 1690.9,525.063 1657.4,492.397 1624,459.5C 1623.5,457.527 1623.34,455.527 1623.5,453.5C 1626.33,443.655 1629,433.655 1631.5,423.5C 1633.98,418.558 1636.98,413.892 1640.5,409.5C 1642.85,411.523 1645.19,413.523 1647.5,415.5 Z"/></g>
<g><path style="opacity:1" fill="#d57130" d="M 1726.5,363.5 C 1755.53,393.529 1785.2,422.862 1815.5,451.5C 1819.96,454.178 1821.62,458.178 1820.5,463.5C 1820.69,491.46 1810.69,514.96 1790.5,534C 1786.61,536.772 1782.61,539.272 1778.5,541.5C 1735.47,499.137 1692.14,457.137 1648.5,415.5C 1646.54,413.037 1644.37,410.703 1642,408.5C 1641.68,407.092 1642.02,405.759 1643,404.5C 1661.73,383.384 1684.9,369.884 1712.5,364C 1717.15,363.501 1721.82,363.334 1726.5,363.5 Z"/></g>
<g><path style="opacity:1" fill="#d47131" d="M 1544.5,510.5 C 1498.84,466.836 1453.5,422.836 1408.5,378.5C 1454.45,353.659 1495.61,359.992 1532,397.5C 1556.93,427.983 1562.93,461.983 1550,499.5C 1548.14,503.224 1546.3,506.891 1544.5,510.5 Z"/></g>
<g><path style="opacity:0.243" fill="#c49168" d="M 1949.5,366.5 C 1951.5,365.167 1953.5,365.167 1955.5,366.5C 1953.39,367.275 1951.39,367.275 1949.5,366.5 Z"/></g>
<g><path style="opacity:1" fill="#d6cdc4" d="M 1920.5,366.5 C 1921.83,366.5 1922.5,367.167 1922.5,368.5C 1922.12,409.668 1921.45,450.668 1920.5,491.5C 1920.5,476.5 1920.5,461.5 1920.5,446.5C 1920.5,419.833 1920.5,393.167 1920.5,366.5 Z"/></g>
<g><path style="opacity:1" fill="#cec5bc" d="M 2022.5,366.5 C 2022.04,398.498 2021.71,430.498 2021.5,462.5C 2020.66,462.842 2020.33,463.508 2020.5,464.5C 2020.09,505.397 2019.76,547.063 2019.5,589.5C 2019.5,590.5 2019.5,591.5 2019.5,592.5C 2019.5,603.5 2019.5,614.5 2019.5,625.5C 2011.57,626.537 2003.91,626.537 1996.5,625.5C 1995.83,625.5 1995.17,625.5 1994.5,625.5C 1984.09,625.347 1974.26,625.681 1965,626.5C 1964.54,625.906 1964.37,625.239 1964.5,624.5C 1981.83,624.5 1999.17,624.5 2016.5,624.5C 2016.53,538.499 2016.86,452.499 2017.5,366.5C 2019.17,366.5 2020.83,366.5 2022.5,366.5 Z"/></g>
<g><path style="opacity:0.957" fill="#3d2e27" d="M 1726.5,363.5 C 1728.74,363.205 1730.74,363.539 1732.5,364.5C 1731.45,364.351 1730.45,364.517 1729.5,365C 1758.7,393.367 1787.7,421.867 1816.5,450.5C 1815.83,450.5 1815.5,450.833 1815.5,451.5C 1785.2,422.862 1755.53,393.529 1726.5,363.5 Z"/></g>
<g><path style="opacity:1" fill="#d57231" d="M 1922.5,368.5 C 1933.8,378.467 1944.8,388.8 1955.5,399.5C 1955.5,399.833 1955.5,400.167 1955.5,400.5C 1955.67,442.501 1955.5,484.501 1955,526.5C 1943.97,515.298 1932.8,504.298 1921.5,493.5C 1921.17,492.833 1920.83,492.167 1920.5,491.5C 1921.45,450.668 1922.12,409.668 1922.5,368.5 Z"/></g>
<g><path style="opacity:0.125" fill="#3c2e27" d="M 1920.5,366.5 C 1929.83,365.167 1939.17,365.167 1948.5,366.5C 1940.99,366.571 1932.99,366.738 1924.5,367C 1934.7,377.369 1945.03,387.535 1955.5,397.5C 1955.5,398.167 1955.5,398.833 1955.5,399.5C 1944.8,388.8 1933.8,378.467 1922.5,368.5C 1922.5,367.167 1921.83,366.5 1920.5,366.5 Z"/></g>
<g><path style="opacity:0.957" fill="#403128" d="M 1408.5,378.5 C 1453.5,422.836 1498.84,466.836 1544.5,510.5C 1544.5,511.167 1544.17,511.5 1543.5,511.5C 1497.82,467.814 1452.48,423.814 1407.5,379.5C 1407.5,378.833 1407.83,378.5 1408.5,378.5 Z"/></g>
<g><path style="opacity:1" fill="#d57130" d="M 1323.5,556.5 C 1325.76,560.097 1328.42,563.431 1331.5,566.5C 1332.08,568.749 1333.41,570.415 1335.5,571.5C 1344.8,583.815 1356.14,593.815 1369.5,601.5C 1433.17,662.833 1496.83,724.167 1560.5,785.5C 1560.5,786.5 1560.5,787.5 1560.5,788.5C 1561.87,788.343 1563.21,788.51 1564.5,789C 1569.37,794.037 1574.37,798.87 1579.5,803.5C 1582.5,807.167 1585.83,810.5 1589.5,813.5C 1616.15,839.145 1642.81,864.812 1669.5,890.5C 1648,911.504 1626.16,932.171 1604,952.5C 1430.5,785.667 1257,618.833 1083.5,452C 1105.35,431.316 1127.35,410.816 1149.5,390.5C 1207.22,446.22 1265.22,501.553 1323.5,556.5 Z"/></g>
<g><path style="opacity:1" fill="#30231c" d="M 1955.5,400.5 C 1956.83,443.069 1956.83,485.736 1955.5,528.5C 1944.08,517.482 1932.75,506.482 1921.5,495.5C 1921.5,494.833 1921.5,494.167 1921.5,493.5C 1932.8,504.298 1943.97,515.298 1955,526.5C 1955.5,484.501 1955.67,442.501 1955.5,400.5 Z"/></g>
<g><path style="opacity:1" fill="#d47130" d="M 1368.5,421.5 C 1413.5,463.83 1458.16,506.496 1502.5,549.5C 1470.77,563.642 1439.43,562.808 1408.5,547C 1396.7,537.535 1385.87,527.035 1376,515.5C 1355.84,485.516 1353.34,454.183 1368.5,421.5 Z"/></g>
<g><path style="opacity:0.439" fill="#cab7a6" d="M 1631.5,423.5 C 1629,433.655 1626.33,443.655 1623.5,453.5C 1623.69,442.742 1626.35,432.742 1631.5,423.5 Z"/></g>
<g><path style="opacity:0.957" fill="#3d2e27" d="M 1370.5,419.5 C 1415.03,462.27 1459.36,505.27 1503.5,548.5C 1503.5,549.167 1503.17,549.5 1502.5,549.5C 1458.16,506.496 1413.5,463.83 1368.5,421.5C 1368.83,420.5 1369.5,419.833 1370.5,419.5 Z"/></g>
<g><path style="opacity:1" fill="#d47130" d="M 1723.5,558.5 C 1724.04,558.56 1724.38,558.893 1724.5,559.5C 1686.23,559.449 1657.07,543.116 1637,510.5C 1629.17,497.191 1624.67,482.858 1623.5,467.5C 1623.21,465.712 1623.55,464.045 1624.5,462.5C 1657.52,494.521 1690.52,526.521 1723.5,558.5 Z"/></g>
<g><path style="opacity:1" fill="#d57231" d="M 2020.5,464.5 C 2026.5,470.167 2032.5,475.833 2038.5,481.5C 2043.13,485.63 2047.63,489.963 2052,494.5C 2052.5,496.473 2052.66,498.473 2052.5,500.5C 2052.67,540.835 2052.5,581.168 2052,621.5C 2041.3,610.631 2030.47,599.965 2019.5,589.5C 2019.76,547.063 2020.09,505.397 2020.5,464.5 Z"/></g>
<g><path style="opacity:0.992" fill="#7e4a2a" d="M 1293.5,461.5 C 1294.48,465.634 1294.82,469.968 1294.5,474.5C 1293.5,474.167 1292.83,473.5 1292.5,472.5C 1293.48,469.038 1293.81,465.371 1293.5,461.5 Z"/></g>
<g><path style="opacity:0.125" fill="#583d2d" d="M 2021.5,462.5 C 2027.83,468.167 2033.83,474.167 2039.5,480.5C 2038.83,480.5 2038.5,480.833 2038.5,481.5C 2032.5,475.833 2026.5,470.167 2020.5,464.5C 2020.33,463.508 2020.66,462.842 2021.5,462.5 Z"/></g>
<g><path style="opacity:1" fill="#796a5e" d="M 1920.5,446.5 C 1920.5,461.5 1920.5,476.5 1920.5,491.5C 1920.83,492.167 1921.17,492.833 1921.5,493.5C 1921.5,494.167 1921.5,494.833 1921.5,495.5C 1921.64,514.511 1921.3,533.511 1920.5,552.5C 1920.5,553.167 1920.5,553.833 1920.5,554.5C 1920.83,562.352 1920.49,570.018 1919.5,577.5C 1919.17,533.663 1919.5,489.997 1920.5,446.5 Z"/></g>
<g><path style="opacity:1" fill="#8b8783" d="M 2056.5,362.5 C 2057.5,447.998 2057.83,533.665 2057.5,619.5C 2067.35,619.173 2077.01,619.506 2086.5,620.5C 2076.5,620.5 2066.5,620.5 2056.5,620.5C 2056.5,534.5 2056.5,448.5 2056.5,362.5 Z"/></g>
<g><path style="opacity:1" fill="#31241c" d="M 2052.5,500.5 C 2053.83,541.402 2053.83,582.402 2052.5,623.5C 2041.78,612.772 2030.78,602.439 2019.5,592.5C 2019.5,591.5 2019.5,590.5 2019.5,589.5C 2030.47,599.965 2041.3,610.631 2052,621.5C 2052.5,581.168 2052.67,540.835 2052.5,500.5 Z"/></g>
<g><path style="opacity:0.957" fill="#403028" d="M 1647.5,415.5 C 1647.83,415.5 1648.17,415.5 1648.5,415.5C 1692.14,457.137 1735.47,499.137 1778.5,541.5C 1778.16,542.338 1777.49,542.672 1776.5,542.5C 1733.83,499.832 1690.83,457.499 1647.5,415.5 Z"/></g>
<g><path style="opacity:0.957" fill="#3f3028" d="M 1623.5,453.5 C 1623.34,455.527 1623.5,457.527 1624,459.5C 1657.4,492.397 1690.9,525.063 1724.5,557.5C 1723.83,557.5 1723.5,557.833 1723.5,558.5C 1690.52,526.521 1657.52,494.521 1624.5,462.5C 1623.55,464.045 1623.21,465.712 1623.5,467.5C 1622.17,462.833 1622.17,458.167 1623.5,453.5 Z"/></g>
<g><path style="opacity:1" fill="#c5b6a8" d="M 1306.5,526.5 C 1311.06,535.73 1316.06,544.73 1321.5,553.5C 1319.14,551.806 1317.14,549.806 1315.5,547.5C 1315.5,546.833 1315.17,546.5 1314.5,546.5C 1314.5,545.833 1314.17,545.5 1313.5,545.5C 1309.41,539.921 1307.08,533.588 1306.5,526.5 Z"/></g>
<g><path style="opacity:1" fill="#b3a598" d="M 2121.5,312.5 C 2121.5,395.5 2121.5,478.5 2121.5,561.5C 2121.5,562.167 2121.5,562.833 2121.5,563.5C 2122.15,583.861 2121.49,603.861 2119.5,623.5C 2119.5,594.167 2119.5,564.833 2119.5,535.5C 2120.17,461.167 2120.83,386.833 2121.5,312.5 Z"/></g>
<g><path style="opacity:0.957" fill="#443229" d="M 1920.5,552.5 C 1932.47,563.134 1944.14,574.134 1955.5,585.5C 1955.5,586.167 1955.5,586.833 1955.5,587.5C 1944.14,576.134 1932.47,565.134 1920.5,554.5C 1920.5,553.833 1920.5,553.167 1920.5,552.5 Z"/></g>
<g><path style="opacity:1" fill="#d57131" d="M 1920.5,554.5 C 1932.47,565.134 1944.14,576.134 1955.5,587.5C 1955.5,599.833 1955.5,612.167 1955.5,624.5C 1958.5,624.5 1961.5,624.5 1964.5,624.5C 1964.37,625.239 1964.54,625.906 1965,626.5C 1974.26,625.681 1984.09,625.347 1994.5,625.5C 2085.97,715.466 2177.63,805.299 2269.5,895C 2247.83,915.333 2226.17,935.667 2204.5,956C 2203.83,956.667 2203.17,956.667 2202.5,956C 2197.96,951.297 2193.3,946.797 2188.5,942.5C 2080.83,837.167 1973.17,731.833 1865.5,626.5C 1875.7,625.963 1886.04,625.296 1896.5,624.5C 1904.17,624.5 1911.83,624.5 1919.5,624.5C 1919.5,608.833 1919.5,593.167 1919.5,577.5C 1920.49,570.018 1920.83,562.352 1920.5,554.5 Z"/></g>
<g><path style="opacity:1" fill="#cac3bc" d="M 1855.5,561.5 C 1855.5,563.833 1855.5,566.167 1855.5,568.5C 1851.62,569.711 1847.96,571.378 1844.5,573.5C 1846.11,570.714 1847.95,568.047 1850,565.5C 1851.45,563.536 1853.28,562.203 1855.5,561.5 Z"/></g>
<g><path style="opacity:0.976" fill="#573c2c" d="M 2121.5,561.5 C 2129.47,567.798 2136.8,574.798 2143.5,582.5C 2142.83,582.5 2142.5,582.833 2142.5,583.5C 2135.5,576.833 2128.5,570.167 2121.5,563.5C 2121.5,562.833 2121.5,562.167 2121.5,561.5 Z"/></g>
<g><path style="opacity:1" fill="#d57130" d="M 2121.5,563.5 C 2128.5,570.167 2135.5,576.833 2142.5,583.5C 2187.83,627.833 2233.17,672.167 2278.5,716.5C 2284.5,723.167 2290.83,729.5 2297.5,735.5C 2308.5,746.167 2319.5,756.833 2330.5,767.5C 2333.5,771.167 2336.83,774.5 2340.5,777.5C 2354.5,791.167 2368.5,804.833 2382.5,818.5C 2388.5,825.167 2394.83,831.5 2401.5,837.5C 2421.66,857.493 2441.99,877.327 2462.5,897C 2440.83,917.333 2419.17,937.667 2397.5,958C 2396.83,958.667 2396.17,958.667 2395.5,958C 2282.47,846.638 2169.14,735.638 2055.5,625C 2057.13,624.506 2058.8,624.34 2060.5,624.5C 2060.81,625.478 2061.48,626.145 2062.5,626.5C 2070.69,625.926 2079.02,625.259 2087.5,624.5C 2098.35,624.828 2109.01,624.494 2119.5,623.5C 2121.49,603.861 2122.15,583.861 2121.5,563.5 Z"/></g>
<g><path style="opacity:1" fill="#af896c" d="M 1331.5,566.5 C 1333.59,567.585 1334.92,569.251 1335.5,571.5C 1333.41,570.415 1332.08,568.749 1331.5,566.5 Z"/></g>
<g><path style="opacity:1" fill="#d37232" d="M 1855.5,561.5 C 1856.5,576.658 1856.83,591.991 1856.5,607.5C 1856.67,610.85 1856.5,614.183 1856,617.5C 1846.63,607.964 1837.13,598.631 1827.5,589.5C 1828.17,588.5 1828.83,587.5 1829.5,586.5C 1831.75,585.92 1833.42,584.587 1834.5,582.5C 1837.83,579.5 1841.17,576.5 1844.5,573.5C 1847.96,571.378 1851.62,569.711 1855.5,568.5C 1855.5,566.167 1855.5,563.833 1855.5,561.5 Z"/></g>
<g><path style="opacity:0.957" fill="#3f3028" d="M 1045.5,488.5 C 1049.61,491.429 1053.61,494.596 1057.5,498C 1197.02,630.349 1336.68,762.516 1476.5,894.5C 1454.34,915.822 1432.01,936.988 1409.5,958C 1408.83,958.667 1408.17,958.667 1407.5,958C 1264.28,823.116 1121.28,687.782 978.5,552C 1000.91,530.817 1023.24,509.651 1045.5,488.5 Z"/></g>
<g><path style="opacity:1" fill="#d57130" d="M 1045.5,490.5 C 1051.61,495.434 1057.61,500.601 1063.5,506C 1200.5,635.667 1337.5,765.333 1474.5,895C 1452.03,915.132 1429.87,935.632 1408,956.5C 1265.79,821.32 1123.29,686.486 980.5,552C 1002.36,531.633 1024.03,511.133 1045.5,490.5 Z"/></g>
<g><path style="opacity:1" fill="#cabbac" d="M 1335.5,571.5 C 1366.6,603.714 1404.6,621.381 1449.5,624.5C 1449.83,625.167 1450.17,625.833 1450.5,626.5C 1446.54,626.177 1442.71,626.177 1439,626.5C 1428.68,624.228 1417.85,621.728 1406.5,619C 1396.8,614.933 1387.14,610.766 1377.5,606.5C 1377.5,605.833 1377.17,605.5 1376.5,605.5C 1374.15,604.139 1371.82,602.806 1369.5,601.5C 1356.14,593.815 1344.8,583.815 1335.5,571.5 Z"/></g>
<g><path style="opacity:1" fill="#cabcaf" d="M 1834.5,582.5 C 1833.42,584.587 1831.75,585.92 1829.5,586.5C 1830.58,584.413 1832.25,583.08 1834.5,582.5 Z"/></g>
<g><path style="opacity:1" fill="#cec0b3" d="M 1829.5,586.5 C 1828.83,587.5 1828.17,588.5 1827.5,589.5C 1826.66,589.842 1826.33,590.508 1826.5,591.5C 1816.77,600.711 1805.61,607.711 1793,612.5C 1792.62,611.944 1792.12,611.611 1791.5,611.5C 1804.16,603.174 1816.83,594.841 1829.5,586.5 Z"/></g>
<g><path style="opacity:1" fill="#cfc6bd" d="M 1558.5,593.5 C 1559.01,596.388 1558.34,598.721 1556.5,600.5C 1551.91,600.474 1547.58,601.474 1543.5,603.5C 1548.7,600.405 1553.7,597.071 1558.5,593.5 Z"/></g>
<g><path style="opacity:1" fill="#d7cabd" d="M 1637.5,600.5 C 1637.5,601.167 1637.17,601.5 1636.5,601.5C 1632.87,600.689 1629.37,600.356 1626,600.5C 1624.97,600.836 1624.47,601.503 1624.5,602.5C 1623.53,600.393 1623.2,598.059 1623.5,595.5C 1628.37,596.602 1633.04,598.269 1637.5,600.5 Z"/></g>
<g><path style="opacity:0.957" fill="#403028" d="M 944.5,589.5 C 945.552,589.351 946.552,589.517 947.5,590C 1057.5,694 1167.5,798 1277.5,902C 1255.17,923 1232.83,944 1210.5,965C 1209.36,965.749 1208.36,965.583 1207.5,964.5C 1098.18,860.678 988.677,757.012 879,653.5C 879.195,651.255 880.362,649.422 882.5,648C 903.364,628.633 924.031,609.133 944.5,589.5 Z"/></g>
<g><path style="opacity:1" fill="#d57130" d="M 945.5,591.5 C 1055.91,694.407 1165.91,797.907 1275.5,902C 1253.83,922.333 1232.17,942.667 1210.5,963C 1209.83,963.667 1209.17,963.667 1208.5,963C 1099.33,859.833 990.167,756.667 881,653.5C 880.383,652.551 880.549,651.718 881.5,651C 902.729,630.933 924.063,611.1 945.5,591.5 Z"/></g>
<g><path style="opacity:1" fill="#d47131" d="M 1556.5,600.5 C 1556.78,601.289 1557.28,601.956 1558,602.5C 1558.17,609.679 1558.67,616.679 1559.5,623.5C 1559.5,651.5 1559.5,679.5 1559.5,707.5C 1559.82,714.687 1559.49,721.687 1558.5,728.5C 1523.5,694.164 1488.16,660.164 1452.5,626.5C 1457.83,625.833 1463.17,625.167 1468.5,624.5C 1494.96,622.636 1519.96,615.636 1543.5,603.5C 1547.58,601.474 1551.91,600.474 1556.5,600.5 Z"/></g>
<g><path style="opacity:1" fill="#33231a" d="M 1558.5,593.5 C 1559.49,603.319 1559.83,613.319 1559.5,623.5C 1558.67,616.679 1558.17,609.679 1558,602.5C 1557.28,601.956 1556.78,601.289 1556.5,600.5C 1558.34,598.721 1559.01,596.388 1558.5,593.5 Z"/></g>
<g><path style="opacity:1" fill="#d57131" d="M 1640.5,602.5 C 1658.36,612.895 1677.36,619.895 1697.5,623.5C 1716.63,629.047 1735.63,628.714 1754.5,622.5C 1763.43,621.1 1772.1,618.767 1780.5,615.5C 1783.6,617.423 1786.6,619.59 1789.5,622C 1885.01,715.015 1980.68,807.848 2076.5,900.5C 2055.13,921.369 2033.3,941.702 2011,961.5C 2009.78,961.138 2008.61,960.638 2007.5,960C 1885.14,840.637 1762.47,721.637 1639.5,603C 1639.73,602.601 1640.06,602.435 1640.5,602.5 Z"/></g>
<g><path style="opacity:0.957" fill="#433127" d="M 1827.5,589.5 C 1837.13,598.631 1846.63,607.964 1856,617.5C 1856.5,614.183 1856.67,610.85 1856.5,607.5C 1857.49,612.975 1857.82,618.642 1857.5,624.5C 1856.75,622.067 1855.58,619.734 1854,617.5C 1845.27,608.263 1836.1,599.596 1826.5,591.5C 1826.33,590.508 1826.66,589.842 1827.5,589.5 Z"/></g>
<g><path style="opacity:1" fill="#6a6663" d="M 1449.5,624.5 C 1455.83,624.5 1462.17,624.5 1468.5,624.5C 1463.17,625.167 1457.83,625.833 1452.5,626.5C 1452.17,626.5 1451.83,626.5 1451.5,626.5C 1451.17,626.5 1450.83,626.5 1450.5,626.5C 1450.17,625.833 1449.83,625.167 1449.5,624.5 Z"/></g>
<g><path style="opacity:1" fill="#d6c9bd" d="M 1863.5,624.5 C 1874.5,624.5 1885.5,624.5 1896.5,624.5C 1886.04,625.296 1875.7,625.963 1865.5,626.5C 1864.5,626.167 1863.83,625.5 1863.5,624.5 Z"/></g>
<g><path style="opacity:1" fill="#d6cdc3" d="M 2060.5,624.5 C 2063.83,624.5 2067.17,624.5 2070.5,624.5C 2076.17,624.5 2081.83,624.5 2087.5,624.5C 2079.02,625.259 2070.69,625.926 2062.5,626.5C 2061.48,626.145 2060.81,625.478 2060.5,624.5 Z"/></g>
<g><path style="opacity:0.957" fill="#3f3028" d="M 1637.5,600.5 C 1638.71,600.932 1639.71,601.599 1640.5,602.5C 1640.06,602.435 1639.73,602.601 1639.5,603C 1762.47,721.637 1885.14,840.637 2007.5,960C 2008.61,960.638 2009.78,961.138 2011,961.5C 2033.3,941.702 2055.13,921.369 2076.5,900.5C 1980.68,807.848 1885.01,715.015 1789.5,622C 1786.6,619.59 1783.6,617.423 1780.5,615.5C 1781.57,614.566 1782.9,614.232 1784.5,614.5C 1881.83,709.996 1979.66,804.996 2078,899.5C 2076.42,903.114 2073.92,906.281 2070.5,909C 2050.65,927.684 2030.65,946.184 2010.5,964.5C 1885.84,843.506 1761.17,722.506 1636.5,601.5C 1637.17,601.5 1637.5,601.167 1637.5,600.5 Z"/></g>
<g><path style="opacity:1" fill="#c1b7ae" d="M 1754.5,622.5 C 1735.63,628.714 1716.63,629.047 1697.5,623.5C 1716.55,625.109 1735.55,624.776 1754.5,622.5 Z"/></g>
<g><path style="opacity:0.957" fill="#3b2d26" d="M 2142.5,583.5 C 2142.5,582.833 2142.83,582.5 2143.5,582.5C 2189.17,626.832 2234.5,671.499 2279.5,716.5C 2279.17,716.5 2278.83,716.5 2278.5,716.5C 2233.17,672.167 2187.83,627.833 2142.5,583.5 Z"/></g>
<g><path style="opacity:1" fill="#d57130" d="M 1623.5,665.5 C 1707.37,745.271 1791.03,825.271 1874.5,905.5C 1852.84,926.322 1831.01,946.988 1809,967.5C 1747.33,908.5 1685.67,849.5 1624,790.5C 1623.5,771.503 1623.33,752.503 1623.5,733.5C 1623.5,710.833 1623.5,688.167 1623.5,665.5 Z"/></g>
<g><path style="opacity:0.957" fill="#403028" d="M 847.5,682.5 C 924.496,754.662 1001.66,826.662 1079,898.5C 1079.67,899.5 1079.67,900.5 1079,901.5C 1056.67,922.5 1034.33,943.5 1012,964.5C 934.677,891.678 857.177,819.011 779.5,746.5C 802.199,725.16 824.866,703.826 847.5,682.5 Z"/></g>
<g><path style="opacity:1" fill="#d57130" d="M 847.5,684.5 C 924.13,755.962 1000.63,827.628 1077,899.5C 1076.11,902.436 1074.27,904.936 1071.5,907C 1052.17,925 1032.83,943 1013.5,961C 1012.5,961.667 1011.5,961.667 1010.5,961C 934.667,889.833 858.833,818.667 783,747.5C 782.333,746.833 782.333,746.167 783,745.5C 804.698,725.3 826.198,704.967 847.5,684.5 Z"/></g>
<g><path style="opacity:0.125" fill="#3e2f27" d="M 1994.5,625.5 C 1995.17,625.5 1995.83,625.5 1996.5,625.5C 2087.97,715.466 2179.63,805.299 2271.5,895C 2249.17,916 2226.83,937 2204.5,958C 2203.45,958.492 2202.45,958.326 2201.5,957.5C 2197.12,952.452 2192.45,947.785 2187.5,943.5C 2187.5,942.833 2187.83,942.5 2188.5,942.5C 2193.3,946.797 2197.96,951.297 2202.5,956C 2203.17,956.667 2203.83,956.667 2204.5,956C 2226.17,935.667 2247.83,915.333 2269.5,895C 2177.63,805.299 2085.97,715.466 1994.5,625.5 Z"/></g>
<g><path style="opacity:0.957" fill="#3f3028" d="M 1451.5,626.5 C 1451.83,626.5 1452.17,626.5 1452.5,626.5C 1488.16,660.164 1523.5,694.164 1558.5,728.5C 1558.5,728.833 1558.5,729.167 1558.5,729.5C 1522.48,695.476 1486.81,661.142 1451.5,626.5 Z"/></g>
<g><path style="opacity:1" fill="#605852" d="M 1559.5,707.5 C 1560.5,725.993 1560.83,744.659 1560.5,763.5C 1560.17,763.5 1559.83,763.5 1559.5,763.5C 1559.63,760.43 1559.3,757.43 1558.5,754.5C 1559.83,746.167 1559.83,737.833 1558.5,729.5C 1558.5,729.167 1558.5,728.833 1558.5,728.5C 1559.49,721.687 1559.82,714.687 1559.5,707.5 Z"/></g>
<g><path style="opacity:0.957" fill="#423128" d="M 2070.5,624.5 C 2067.17,624.5 2063.83,624.5 2060.5,624.5C 2058.8,624.34 2057.13,624.506 2055.5,625C 2169.14,735.638 2282.47,846.638 2395.5,958C 2396.17,958.667 2396.83,958.667 2397.5,958C 2419.17,937.667 2440.83,917.333 2462.5,897C 2441.99,877.327 2421.66,857.493 2401.5,837.5C 2401.5,836.833 2401.83,836.5 2402.5,836.5C 2422.99,856.827 2443.66,876.993 2464.5,897C 2442.17,918 2419.83,939 2397.5,960C 2396.83,960.667 2396.17,960.667 2395.5,960C 2281.38,849.049 2167.72,737.549 2054.5,625.5C 2056.74,624.188 2059.41,623.522 2062.5,623.5C 2065.36,623.503 2068.02,623.836 2070.5,624.5 Z"/></g>
<g><path style="opacity:0.125" fill="#573c2b" d="M 2278.5,716.5 C 2278.83,716.5 2279.17,716.5 2279.5,716.5C 2286.44,721.775 2292.78,727.775 2298.5,734.5C 2297.83,734.5 2297.5,734.833 2297.5,735.5C 2290.83,729.5 2284.5,723.167 2278.5,716.5 Z"/></g>
<g><path style="opacity:0.227" fill="#302824" d="M 2297.5,735.5 C 2297.5,734.833 2297.83,734.5 2298.5,734.5C 2309.5,745.167 2320.5,755.833 2331.5,766.5C 2331.5,767.167 2331.17,767.5 2330.5,767.5C 2319.5,756.833 2308.5,746.167 2297.5,735.5 Z"/></g>
<g><path style="opacity:0.957" fill="#3e2f27" d="M 1369.5,601.5 C 1371.82,602.806 1374.15,604.139 1376.5,605.5C 1377.17,605.5 1377.5,605.833 1377.5,606.5C 1437.5,665.33 1498,723.664 1559,781.5C 1559.5,775.509 1559.67,769.509 1559.5,763.5C 1559.83,763.5 1560.17,763.5 1560.5,763.5C 1560.5,770.833 1560.5,778.167 1560.5,785.5C 1496.83,724.167 1433.17,662.833 1369.5,601.5 Z"/></g>
<g><path style="opacity:0.439" fill="#dcc9b6" d="M 1558.5,729.5 C 1559.83,737.833 1559.83,746.167 1558.5,754.5C 1557.71,746.56 1557.71,738.227 1558.5,729.5 Z"/></g>
<g><path style="opacity:0.957" fill="#413128" d="M 1313.5,545.5 C 1314.17,545.5 1314.5,545.833 1314.5,546.5C 1315.17,546.5 1315.5,546.833 1315.5,547.5C 1317.14,549.806 1319.14,551.806 1321.5,553.5C 1322.91,553.973 1323.57,554.973 1323.5,556.5C 1265.22,501.553 1207.22,446.22 1149.5,390.5C 1127.35,410.816 1105.35,431.316 1083.5,452C 1257,618.833 1430.5,785.667 1604,952.5C 1626.16,932.171 1648,911.504 1669.5,890.5C 1642.81,864.812 1616.15,839.145 1589.5,813.5C 1589.5,812.833 1589.83,812.5 1590.5,812.5C 1617.7,838.531 1644.7,864.698 1671.5,891C 1649.87,912.297 1627.87,933.297 1605.5,954C 1604.5,954.667 1603.5,954.667 1602.5,954C 1428.89,786.722 1255.22,619.388 1081.5,452C 1104.02,430.65 1126.68,409.483 1149.5,388.5C 1204.19,440.855 1258.85,493.188 1313.5,545.5 Z"/></g>
<g><path style="opacity:0.824" fill="#5d402e" d="M 2331.5,766.5 C 2335.17,769.5 2338.5,772.833 2341.5,776.5C 2340.83,776.5 2340.5,776.833 2340.5,777.5C 2336.83,774.5 2333.5,771.167 2330.5,767.5C 2331.17,767.5 2331.5,767.167 2331.5,766.5 Z"/></g>
<g><path style="opacity:0.957" fill="#342a25" d="M 2340.5,777.5 C 2340.5,776.833 2340.83,776.5 2341.5,776.5C 2355.5,790.167 2369.5,803.833 2383.5,817.5C 2383.5,818.167 2383.17,818.5 2382.5,818.5C 2368.5,804.833 2354.5,791.167 2340.5,777.5 Z"/></g>
<g><path style="opacity:1" fill="#d0c7bd" d="M 1570.5,788.5 C 1584.69,788.509 1598.69,789.176 1612.5,790.5C 1610.57,792.474 1608.24,793.974 1605.5,795C 1594.47,798.427 1583.81,797.427 1573.5,792C 1572.29,790.961 1571.29,789.794 1570.5,788.5 Z"/></g>
<g><path style="opacity:0.125" fill="#573c2b" d="M 1580.5,802.5 C 1584.17,805.5 1587.5,808.833 1590.5,812.5C 1589.83,812.5 1589.5,812.833 1589.5,813.5C 1585.83,810.5 1582.5,807.167 1579.5,803.5C 1580.17,803.5 1580.5,803.167 1580.5,802.5 Z"/></g>
<g><path style="opacity:0.957" fill="#3e2f27" d="M 1624.5,663.5 C 1708.81,743.809 1792.81,824.475 1876.5,905.5C 1854.18,926.988 1831.68,948.322 1809,969.5C 1746.61,909.939 1684.44,850.272 1622.5,790.5C 1622.17,771.326 1622.5,752.326 1623.5,733.5C 1623.33,752.503 1623.5,771.503 1624,790.5C 1685.67,849.5 1747.33,908.5 1809,967.5C 1831.01,946.988 1852.84,926.322 1874.5,905.5C 1791.03,825.271 1707.37,745.271 1623.5,665.5C 1623.83,664.833 1624.17,664.167 1624.5,663.5 Z"/></g>
<g><path style="opacity:0.824" fill="#5b3e2c" d="M 2383.5,817.5 C 2390.17,823.5 2396.5,829.833 2402.5,836.5C 2401.83,836.5 2401.5,836.833 2401.5,837.5C 2394.83,831.5 2388.5,825.167 2382.5,818.5C 2383.17,818.5 2383.5,818.167 2383.5,817.5 Z"/></g>
<g><path style="opacity:0.125" fill="#48352a" d="M 1861.5,624.5 C 1862.17,624.5 1862.83,624.5 1863.5,624.5C 1863.83,625.5 1864.5,626.167 1865.5,626.5C 1973.17,731.833 2080.83,837.167 2188.5,942.5C 2187.83,942.5 2187.5,942.833 2187.5,943.5C 2078.81,837.139 1970.14,730.806 1861.5,624.5 Z"/></g>
<g><path style="opacity:0.957" fill="#3f3028" d="M 745.5,780.5 C 748.938,782.759 752.271,785.259 755.5,788C 797.667,827.5 839.833,867 882,906.5C 878.098,912.429 873.265,917.929 867.5,923C 849.983,939.351 832.317,955.518 814.5,971.5C 769.193,929.195 723.859,886.861 678.5,844.5C 700.854,823.145 723.187,801.812 745.5,780.5 Z"/></g>
<g><path style="opacity:1" fill="#d57130" d="M 745.5,782.5 C 750.274,786.098 754.94,789.931 759.5,794C 800.01,831.678 840.344,869.511 880.5,907.5C 858.844,928.322 837.011,948.988 815,969.5C 769.881,928.015 725.048,886.181 680.5,844C 702.365,823.633 724.031,803.133 745.5,782.5 Z"/></g>
<g><path style="opacity:1" fill="#9c8f87" d="M 2078.5,1119.5 C 2079.51,1116.68 2080.34,1113.68 2081,1110.5C 2081.5,1102.17 2081.67,1093.84 2081.5,1085.5C 2044.5,1085.5 2007.5,1085.5 1970.5,1085.5C 1970.72,1096.5 1971.06,1107.5 1971.5,1118.5C 1967.07,1116.32 1965.41,1112.66 1966.5,1107.5C 1967,1100.5 1967.5,1093.5 1968,1086.5C 1968.77,1085.15 1969.94,1084.32 1971.5,1084C 2008.83,1080.85 2046.16,1080.69 2083.5,1083.5C 2086,1094.45 2086.16,1105.45 2084,1116.5C 2083.17,1118 2082,1119.17 2080.5,1120C 2079.56,1120.69 2078.9,1120.53 2078.5,1119.5 Z"/></g>
<g><path style="opacity:1" fill="#0d0c0e" d="M 1430.5,1082.5 C 1451.52,1082.16 1472.52,1082.66 1493.5,1084C 1510.97,1085.45 1527.3,1090.45 1542.5,1099C 1559.72,1112.13 1567.39,1129.63 1565.5,1151.5C 1565.61,1186.52 1549.27,1209.68 1516.5,1221C 1508,1223.5 1499.33,1225.17 1490.5,1226C 1479.59,1226.53 1468.75,1227.36 1458,1228.5C 1457.01,1232.44 1456.34,1236.44 1456,1240.5C 1455.92,1257.86 1455.75,1275.19 1455.5,1292.5C 1437.7,1295.08 1419.7,1295.08 1401.5,1292.5C 1402.26,1223.17 1402.59,1153.84 1402.5,1084.5C 1412.01,1084.2 1421.34,1083.53 1430.5,1082.5 Z"/></g>
<g><path style="opacity:1" fill="#0e0d0e" d="M 2700.5,1082.5 C 2712.17,1083.06 2723.84,1083.72 2735.5,1084.5C 2736.36,1141.16 2736.7,1197.83 2736.5,1254.5C 2765.83,1254.5 2795.17,1254.5 2824.5,1254.5C 2825.35,1267.15 2825.68,1279.81 2825.5,1292.5C 2779.11,1293.27 2732.45,1293.6 2685.5,1293.5C 2684.38,1225.51 2684.21,1157.51 2685,1089.5C 2685.78,1087.71 2686.95,1086.21 2688.5,1085C 2692.64,1084.16 2696.64,1083.33 2700.5,1082.5 Z"/></g>
<g><path style="opacity:1" fill="#0e0d0e" d="M -0.5,1198.5 C -0.5,1172.5 -0.5,1146.5 -0.5,1120.5C 0.167766,1108.62 1.16777,1096.62 2.5,1084.5C 28.8167,1083.39 55.1501,1083.22 81.5,1084C 96.5467,1084.08 111.213,1086.41 125.5,1091C 150.729,1102.74 163.729,1122.58 164.5,1150.5C 162.532,1190.1 142.532,1214.43 104.5,1223.5C 88.524,1226.66 72.524,1228.16 56.5,1228C 55.5838,1228.37 54.7504,1228.87 54,1229.5C 52.5336,1250.77 52.0336,1272.1 52.5,1293.5C 39.9541,1293.34 27.7875,1294.01 16,1295.5C 11.4136,1294.62 6.9136,1294.29 2.5,1294.5C 1.21574,1262.35 0.215741,1230.35 -0.5,1198.5 Z"/></g>
<g><path style="opacity:1" fill="#0e0c0e" d="M 320.5,1083.5 C 331.023,1083.92 341.19,1084.25 351,1084.5C 351.667,1098.17 351.667,1111.83 351,1125.5C 330.042,1125.52 308.875,1125.52 287.5,1125.5C 287.604,1181.5 287.271,1237.5 286.5,1293.5C 269.067,1294.37 251.734,1294.37 234.5,1293.5C 234.667,1238.83 234.5,1184.17 234,1129.5C 233.228,1128.15 232.061,1127.32 230.5,1127C 210.61,1126.67 190.944,1125.84 171.5,1124.5C 171.285,1111.14 171.618,1097.81 172.5,1084.5C 222.003,1084.83 271.336,1084.5 320.5,1083.5 Z"/></g>
<g><path style="opacity:1" fill="#0e0c0e" d="M 1024.5,1154.5 C 1024.44,1153.96 1024.11,1153.62 1023.5,1153.5C 1022.5,1199.5 1022.17,1245.5 1022.5,1291.5C 1021.21,1291.26 1020.21,1291.6 1019.5,1292.5C 1004.53,1295.07 989.526,1295.07 974.5,1292.5C 973.999,1223.17 973.665,1153.83 973.5,1084.5C 996.186,1084.22 1018.85,1084.72 1041.5,1086C 1063.3,1123.09 1084.47,1160.59 1105,1198.5C 1106.15,1199.74 1107.49,1200.74 1109,1201.5C 1109.48,1176 1109.31,1150.5 1108.5,1125C 1108.34,1111.45 1109.01,1097.95 1110.5,1084.5C 1126.09,1084.3 1141.59,1084.3 1157,1084.5C 1159.01,1108.95 1160.18,1133.45 1160.5,1158C 1160.05,1203.21 1158.71,1248.37 1156.5,1293.5C 1140.98,1293.21 1125.48,1293.54 1110,1294.5C 1108.17,1294.33 1106.33,1294.17 1104.5,1294C 1080.76,1249.06 1055.93,1204.23 1030,1159.5C 1028.27,1157.6 1026.44,1155.93 1024.5,1154.5 Z"/></g>
<g><path style="opacity:1" fill="#0d0c0e" d="M 1269.5,1082.5 C 1281.28,1081.98 1292.95,1082.81 1304.5,1085C 1306,1085.58 1307.33,1086.42 1308.5,1087.5C 1329.69,1144.9 1350.19,1202.57 1370,1260.5C 1374.09,1271.26 1377.25,1282.26 1379.5,1293.5C 1364.85,1294.56 1350.18,1294.73 1335.5,1294C 1329.56,1293.92 1325.06,1291.42 1322,1286.5C 1320.55,1279.11 1318.88,1271.78 1317,1264.5C 1315.13,1259.92 1312.63,1255.75 1309.5,1252C 1287.83,1252.03 1266.16,1252.53 1244.5,1253.5C 1240.52,1266.75 1236.85,1280.08 1233.5,1293.5C 1224.06,1293.61 1214.89,1293.94 1206,1294.5C 1197.58,1293.68 1189.08,1293.18 1180.5,1293C 1182.56,1286.26 1184.39,1279.43 1186,1272.5C 1207.87,1210.05 1229.04,1147.38 1249.5,1084.5C 1256.32,1084 1262.99,1083.33 1269.5,1082.5 Z"/></g>
<g><path style="opacity:0.998" fill="#0b0b0b" d="M 1772.5,1288.5 C 1772.42,1289.93 1772.75,1291.26 1773.5,1292.5C 1771.26,1293.47 1768.92,1293.81 1766.5,1293.5C 1750.83,1293.67 1735.16,1293.5 1719.5,1293C 1714.61,1279.65 1710.11,1266.15 1706,1252.5C 1697.91,1251.84 1689.74,1251.51 1681.5,1251.5C 1667.69,1251.91 1654.02,1252.07 1640.5,1252C 1637.07,1262.96 1633.24,1273.79 1629,1284.5C 1628.3,1287.48 1627.8,1290.48 1627.5,1293.5C 1624.88,1293.23 1622.38,1293.56 1620,1294.5C 1603.9,1293.84 1587.73,1293.17 1571.5,1292.5C 1596.9,1223.28 1621.9,1153.95 1646.5,1084.5C 1664.17,1084.33 1681.84,1084.5 1699.5,1085C 1701.55,1085.93 1703.05,1087.43 1704,1089.5C 1708.44,1097.5 1712.11,1105.83 1715,1114.5C 1730.87,1164.11 1747.54,1213.44 1765,1262.5C 1767.41,1271.21 1769.91,1279.88 1772.5,1288.5 Z"/></g>
<g><path style="opacity:0.994" fill="#0b0b0b" d="M 1775.5,1084.5 C 1834.5,1084.5 1893.5,1084.5 1952.5,1084.5C 1952.5,1098.5 1952.5,1112.5 1952.5,1126.5C 1931.83,1126.5 1911.17,1126.5 1890.5,1126.5C 1891.37,1182.16 1891.7,1237.83 1891.5,1293.5C 1873.69,1293.75 1856.02,1293.75 1838.5,1293.5C 1838.5,1238.17 1838.5,1182.83 1838.5,1127.5C 1818.12,1126.85 1797.45,1126.35 1776.5,1126C 1774.08,1119.42 1773.08,1112.59 1773.5,1105.5C 1773.42,1098.41 1774.09,1091.41 1775.5,1084.5 Z"/></g>
<g><path style="opacity:1" fill="#0e0c0e" d="M 2609.5,1083.5 C 2618.54,1083.34 2627.54,1083.84 2636.5,1085C 2638.94,1085.77 2640.77,1087.27 2642,1089.5C 2642.31,1125.5 2642.81,1161.5 2643.5,1197.5C 2643.93,1215.09 2642.1,1232.42 2638,1249.5C 2630.62,1269.88 2616.78,1284.05 2596.5,1292C 2557.8,1309 2521.8,1304.66 2488.5,1279C 2473.89,1266.72 2466.06,1250.55 2465,1230.5C 2464.08,1220.85 2463.41,1211.19 2463,1201.5C 2462.97,1162.5 2463.13,1123.5 2463.5,1084.5C 2481.83,1084.5 2500.17,1084.5 2518.5,1084.5C 2518.79,1131.49 2518.95,1178.49 2519,1225.5C 2520.35,1247.52 2532.02,1258.52 2554,1258.5C 2574.62,1258.35 2586.29,1248.01 2589,1227.5C 2589.96,1219.7 2590.46,1211.86 2590.5,1204C 2590.76,1178.14 2590.43,1152.14 2589.5,1126C 2589.53,1112.13 2590.19,1098.3 2591.5,1084.5C 2597.69,1084.82 2603.69,1084.49 2609.5,1083.5 Z"/></g>
<g><path style="opacity:1" fill="#0e0c0e" d="M 3175.5,1292.5 C 3175.5,1293.17 3175.5,1293.83 3175.5,1294.5C 3157.23,1293.8 3139.4,1293.8 3122,1294.5C 3118.71,1291.94 3116.37,1288.61 3115,1284.5C 3111.42,1273.75 3108.25,1262.92 3105.5,1252C 3083.17,1251.5 3060.84,1251.33 3038.5,1251.5C 3036.25,1266.33 3031.92,1280.5 3025.5,1294C 3010.38,1293.74 2995.21,1293.91 2980,1294.5C 2977.2,1293.87 2974.37,1293.21 2971.5,1292.5C 2993.16,1232.7 3014.32,1172.7 3035,1112.5C 3038.22,1103.34 3040.72,1094.01 3042.5,1084.5C 3060.49,1083.52 3078.49,1083.36 3096.5,1084C 3099.03,1084.52 3101.2,1085.68 3103,1087.5C 3124.46,1147.2 3145.12,1207.2 3165,1267.5C 3168.43,1275.97 3171.93,1284.31 3175.5,1292.5 Z"/></g>
<g><path style="opacity:1" fill="#0d0c0e" d="M 2078.5,1119.5 C 2072.87,1119.4 2067.37,1120.07 2062,1121.5C 2059.26,1121.73 2056.42,1121.39 2053.5,1120.5C 2049.35,1166.55 2049.69,1212.55 2054.5,1258.5C 2063.85,1258.46 2073.18,1258.13 2082.5,1257.5C 2082.5,1269.5 2082.5,1281.5 2082.5,1293.5C 2077.83,1293.5 2073.17,1293.5 2068.5,1293.5C 2062.02,1292.51 2055.35,1292.18 2048.5,1292.5C 2022.33,1292.94 1996,1292.94 1969.5,1292.5C 1969.5,1281.17 1969.5,1269.83 1969.5,1258.5C 1979.17,1258.36 1988.84,1258.03 1998.5,1257.5C 1998.76,1211.82 1998.43,1166.16 1997.5,1120.5C 1988.68,1119.99 1980.01,1119.32 1971.5,1118.5C 1971.06,1107.5 1970.72,1096.5 1970.5,1085.5C 2007.5,1085.5 2044.5,1085.5 2081.5,1085.5C 2081.67,1093.84 2081.5,1102.17 2081,1110.5C 2080.34,1113.68 2079.51,1116.68 2078.5,1119.5 Z"/></g>
<g><path style="opacity:1" fill="#0e0d0e" d="M 2203.5,1084.5 C 2224.84,1084.17 2246.18,1084.5 2267.5,1085.5C 2282.67,1118.5 2297.83,1151.5 2313,1184.5C 2318.34,1177.83 2322.67,1170.49 2326,1162.5C 2336.49,1136.54 2347.65,1110.88 2359.5,1085.5C 2380.49,1084.5 2401.49,1084.17 2422.5,1084.5C 2422.68,1154.5 2422.35,1224.5 2421.5,1294.5C 2408.93,1293.65 2396.43,1293.65 2384,1294.5C 2378.96,1293.14 2373.79,1292.47 2368.5,1292.5C 2368.74,1283.64 2368.41,1275.14 2367.5,1267C 2368.39,1233.22 2368.89,1199.39 2369,1165.5C 2366.67,1166.5 2365,1168.17 2364,1170.5C 2354.51,1189.81 2345.84,1209.48 2338,1229.5C 2335.63,1235.19 2332.46,1240.36 2328.5,1245C 2318.58,1245.48 2308.75,1246.32 2299,1247.5C 2295.7,1245.53 2293.03,1242.87 2291,1239.5C 2281.5,1217.38 2272.33,1195.55 2263.5,1174C 2260.79,1169.42 2257.96,1164.92 2255,1160.5C 2254.5,1204.83 2254.33,1249.17 2254.5,1293.5C 2238.15,1293.68 2221.82,1293.35 2205.5,1292.5C 2204.77,1223.17 2204.1,1153.84 2203.5,1084.5 Z"/></g>
<g><path style="opacity:1" fill="#0d0c0e" d="M 2940.5,1293.5 C 2916.83,1293.5 2893.17,1293.5 2869.5,1293.5C 2860.83,1293.5 2852.17,1293.5 2843.5,1293.5C 2843.53,1281.48 2844.03,1269.48 2845,1257.5C 2853.09,1258.65 2861.25,1258.81 2869.5,1258C 2872.09,1256.66 2873.59,1254.49 2874,1251.5C 2874.35,1207.83 2874.18,1164.17 2873.5,1120.5C 2863.51,1119.89 2853.51,1119.55 2843.5,1119.5C 2843.32,1107.99 2843.32,1096.32 2843.5,1084.5C 2882.17,1084.5 2920.83,1084.5 2959.5,1084.5C 2959.81,1095.88 2959.48,1107.22 2958.5,1118.5C 2949.52,1119.5 2940.52,1119.83 2931.5,1119.5C 2930.84,1124.47 2930.34,1129.47 2930,1134.5C 2929.83,1152.5 2929.67,1170.5 2929.5,1188.5C 2929.4,1209.86 2929.9,1231.19 2931,1252.5C 2931.4,1255.23 2932.9,1257.07 2935.5,1258C 2943.52,1258.17 2951.52,1258.67 2959.5,1259.5C 2958.74,1270.47 2958.07,1281.47 2957.5,1292.5C 2951.86,1293.22 2946.2,1293.55 2940.5,1293.5 Z"/></g>
<g><path style="opacity:1" fill="#0e0c0e" d="M 551.5,1083.5 C 578.502,1083.33 605.502,1083.5 632.5,1084C 695.256,1085.26 731.423,1116.76 741,1178.5C 743.74,1215.63 731.573,1246.8 704.5,1272C 689.475,1282.01 673.142,1289.01 655.5,1293C 643.961,1293.89 632.128,1294.39 620,1294.5C 597.261,1294.1 574.595,1293.43 552,1292.5C 551.5,1222.83 551.333,1153.17 551.5,1083.5 Z"/></g>
<g><path style="opacity:1" fill="#0d0c0e" d="M 821.5,1084.5 C 840.17,1084.33 858.836,1084.5 877.5,1085C 879.764,1085.24 881.931,1085.74 884,1086.5C 888.558,1104.4 893.891,1122.06 900,1139.5C 913.728,1177.35 927.061,1215.35 940,1253.5C 944.329,1266.48 947.829,1279.65 950.5,1293C 939.185,1294.06 927.852,1294.89 916.5,1295.5C 904.731,1296.87 896.564,1292.21 892,1281.5C 888.824,1271.97 885.658,1262.47 882.5,1253C 864.518,1250.79 846.518,1250.46 828.5,1252C 821.168,1251.57 816.335,1254.74 814,1261.5C 812.404,1273.3 807.904,1283.8 800.5,1293C 784.563,1294.67 768.563,1294.17 752.5,1291.5C 754.727,1279.93 757.894,1268.59 762,1257.5C 782.733,1200.14 802.566,1142.47 821.5,1084.5 Z"/></g>
<g><path style="opacity:1" fill="#fdfdf9" d="M 604.5,1124.5 C 614.839,1124.33 625.172,1124.5 635.5,1125C 661.623,1127.79 677.79,1141.96 684,1167.5C 689.861,1192.31 685.861,1215.31 672,1236.5C 660.588,1248.76 646.421,1255.26 629.5,1256C 622.5,1256.67 615.5,1256.67 608.5,1256C 607.069,1255.53 605.903,1254.7 605,1253.5C 603.849,1231.73 603.349,1209.89 603.5,1188C 603.505,1166.76 603.839,1145.6 604.5,1124.5 Z"/></g>
<g><path style="opacity:1" fill="#fbfbf8" d="M 1456.5,1124.5 C 1466.51,1124.33 1476.51,1124.5 1486.5,1125C 1503.45,1127.23 1511.45,1136.89 1510.5,1154C 1511.56,1170.9 1503.89,1181.23 1487.5,1185C 1477.54,1186.26 1467.54,1186.76 1457.5,1186.5C 1456.68,1165.84 1456.34,1145.18 1456.5,1124.5 Z"/></g>
<g><path style="opacity:1" fill="#fbfbf8" d="M 55.5,1125.5 C 65.8387,1125.33 76.172,1125.5 86.5,1126C 104.603,1130.02 111.77,1141.19 108,1159.5C 103.626,1178.79 91.4597,1188.12 71.5,1187.5C 65.0927,1187.58 59.2593,1185.91 54,1182.5C 52.0421,1175.67 51.2088,1168.67 51.5,1161.5C 51.7923,1151.82 52.2923,1142.16 53,1132.5C 53.1534,1129.85 53.9867,1127.52 55.5,1125.5 Z"/></g>
<g><path style="opacity:1" fill="#fafaf6" d="M 1276.5,1148.5 C 1277.79,1149.29 1278.96,1150.29 1280,1151.5C 1289.57,1171.13 1295.74,1191.79 1298.5,1213.5C 1284.83,1213.5 1271.17,1213.5 1257.5,1213.5C 1263.37,1191.69 1269.7,1170.02 1276.5,1148.5 Z"/></g>
<g><path style="opacity:1" fill="#fbfaf7" d="M 1674.5,1147.5 C 1681.61,1168.9 1688.27,1190.57 1694.5,1212.5C 1680.5,1213.83 1666.5,1213.83 1652.5,1212.5C 1655.54,1191.21 1661.71,1170.87 1671,1151.5C 1672.38,1150.29 1673.54,1148.96 1674.5,1147.5 Z"/></g>
<g><path style="opacity:1" fill="#f9f9f5" d="M 3071.5,1148.5 C 3072.5,1148.41 3073.33,1148.75 3074,1149.5C 3080.79,1170.67 3086.96,1192.01 3092.5,1213.5C 3079.17,1213.5 3065.83,1213.5 3052.5,1213.5C 3056.22,1191.06 3062.56,1169.39 3071.5,1148.5 Z"/></g>
<g><path style="opacity:1" fill="#fcfbf8" d="M 849.5,1152.5 C 854.357,1157.22 857.857,1162.89 860,1169.5C 864.911,1183.23 868.744,1197.23 871.5,1211.5C 857.85,1212.5 844.183,1212.83 830.5,1212.5C 833.749,1191.5 840.083,1171.5 849.5,1152.5 Z"/></g>
<g><path style="opacity:0.493" fill="#241e1c" d="M 1024.5,1154.5 C 1023.5,1200.33 1023.17,1246.33 1023.5,1292.5C 1022.17,1292.5 1020.83,1292.5 1019.5,1292.5C 1020.21,1291.6 1021.21,1291.26 1022.5,1291.5C 1022.17,1245.5 1022.5,1199.5 1023.5,1153.5C 1024.11,1153.62 1024.44,1153.96 1024.5,1154.5 Z"/></g>
<g><path style="opacity:1" fill="#96867c" d="M 420.5,1241.5 C 404.902,1241.76 389.569,1241.43 374.5,1240.5C 373.711,1258.73 373.044,1276.4 372.5,1293.5C 370.787,1292.36 370.12,1290.7 370.5,1288.5C 370.821,1282.97 370.488,1277.64 369.5,1272.5C 369.218,1261.43 369.884,1250.43 371.5,1239.5C 388.033,1239.13 404.366,1239.8 420.5,1241.5 Z"/></g>
<g><path style="opacity:1" fill="#070708" d="M 420.5,1241.5 C 421.37,1258.33 422.036,1275.33 422.5,1292.5C 407.153,1292.9 391.82,1293.56 376.5,1294.5C 374.955,1294.49 373.622,1294.16 372.5,1293.5C 373.044,1276.4 373.711,1258.73 374.5,1240.5C 389.569,1241.43 404.902,1241.76 420.5,1241.5 Z"/></g>
<g><path style="opacity:0.243" fill="#cb8953" d="M 369.5,1272.5 C 370.488,1277.64 370.821,1282.97 370.5,1288.5C 369.711,1288.22 369.044,1287.72 368.5,1287C 369.469,1282.26 369.803,1277.43 369.5,1272.5 Z"/></g>
<g><path style="opacity:1" fill="#937b6a" d="M 1772.5,1288.5 C 1773.5,1288.5 1774.5,1288.5 1775.5,1288.5C 1776.01,1291.18 1776.17,1293.84 1776,1296.5C 1772.85,1296.04 1769.68,1295.04 1766.5,1293.5C 1768.92,1293.81 1771.26,1293.47 1773.5,1292.5C 1772.75,1291.26 1772.42,1289.93 1772.5,1288.5 Z"/></g>
<g><path style="opacity:0.125" fill="#553d2a" d="M 2048.5,1292.5 C 2055.35,1292.18 2062.02,1292.51 2068.5,1293.5C 2067.5,1293.41 2066.67,1293.75 2066,1294.5C 2060.07,1293.85 2054.23,1293.19 2048.5,1292.5 Z"/></g>
<g><path style="opacity:0.438" fill="#2a221e" d="M 2869.5,1293.5 C 2893.17,1293.5 2916.83,1293.5 2940.5,1293.5C 2938.78,1294.22 2936.95,1294.89 2935,1295.5C 2913.07,1294.84 2891.24,1294.17 2869.5,1293.5 Z"/></g>
<g><path style="opacity:1" fill="#d3823d" d="M 2571.5,1400.5 C 2575.56,1400.85 2579.56,1401.51 2583.5,1402.5C 2583.44,1453.5 2583.78,1504.5 2584.5,1555.5C 2575.99,1557.78 2568.66,1555.78 2562.5,1549.5C 2554.17,1553.83 2545.51,1557.33 2536.5,1560C 2515.45,1561.55 2501.29,1552.39 2494,1532.5C 2485.74,1507.72 2487.41,1483.72 2499,1460.5C 2509.75,1448.02 2523.42,1441.69 2540,1441.5C 2547.62,1442.29 2555.12,1443.45 2562.5,1445C 2563.49,1430.91 2563.82,1416.75 2563.5,1402.5C 2566.43,1402.43 2569.09,1401.77 2571.5,1400.5 Z"/></g>
<g><path style="opacity:1" fill="#d28952" d="M 2163.5,1401.5 C 2170.85,1401.48 2178.19,1401.81 2185.5,1402.5C 2185.5,1453.17 2185.5,1503.83 2185.5,1554.5C 2180.84,1554.31 2176.34,1554.98 2172,1556.5C 2168.45,1556.85 2164.95,1556.35 2161.5,1555C 2162.53,1503.63 2163.2,1452.46 2163.5,1401.5 Z"/></g>
<g><path style="opacity:1" fill="#c68755" d="M 811.5,1402.5 C 819.167,1402.5 826.833,1402.5 834.5,1402.5C 834.915,1446.69 835.582,1490.86 836.5,1535C 835.746,1539.79 835.246,1544.63 835,1549.5C 833.113,1553.24 830.113,1555.58 826,1556.5C 823.282,1556.97 820.282,1556.3 817,1554.5C 814.922,1555.52 813.255,1554.85 812,1552.5C 811.828,1526.59 811.328,1500.76 810.5,1475C 811.335,1452.2 811.668,1428.04 811.5,1402.5 Z"/></g>
<g><path style="opacity:0.993" fill="#d18343" d="M 976.5,1404.5 C 995.868,1402.8 1013.7,1407.13 1030,1417.5C 1030.72,1424.84 1031.05,1432.17 1031,1439.5C 1021,1434.6 1010.16,1430.77 998.5,1428C 990.204,1426.69 982.204,1426.19 974.5,1426.5C 961.292,1428.57 951.792,1435.91 946,1448.5C 938.696,1470.82 938.696,1493.15 946,1515.5C 955.352,1535.93 971.185,1543.76 993.5,1539C 1005.77,1536.52 1017.44,1532.35 1028.5,1526.5C 1029.96,1531.39 1030.96,1536.39 1031.5,1541.5C 1031.61,1543.37 1030.94,1544.87 1029.5,1546C 1012.38,1556.96 994.216,1561.8 975,1560.5C 946.983,1553.98 928.649,1536.98 920,1509.5C 917.634,1498.74 916.134,1487.9 915.5,1477C 916.696,1453.95 925.696,1434.61 942.5,1419C 952.703,1411.33 964.036,1406.49 976.5,1404.5 Z"/></g>
<g><path style="opacity:0.996" fill="#d68849" d="M 2021.5,1403.5 C 2056.59,1401.75 2080.09,1417.42 2092,1450.5C 2101.62,1480.62 2097.95,1508.96 2081,1535.5C 2067.8,1551.42 2051.13,1560.76 2031,1563.5C 2006.87,1562.39 1988.2,1551.05 1975,1529.5C 1952.72,1488.95 1957.22,1451.78 1988.5,1418C 1998.25,1410.15 2009.25,1405.31 2021.5,1403.5 Z"/></g>
<g><path style="opacity:0.992" fill="#da9a62" d="M 2785.5,1438.5 C 2785.72,1428.86 2782.39,1420.7 2775.5,1414C 2772.02,1414.44 2768.52,1413.94 2765,1412.5C 2762.45,1413.04 2759.95,1413.38 2757.5,1413.5C 2756.35,1413.18 2755.52,1412.52 2755,1411.5C 2753.15,1413.78 2751.48,1413.78 2750,1411.5C 2745.78,1412.12 2741.45,1412.46 2737,1412.5C 2736.33,1411.83 2735.67,1411.17 2735,1410.5C 2731.67,1410.5 2728.33,1410.5 2725,1410.5C 2723.56,1412.01 2722.06,1412.35 2720.5,1411.5C 2717.06,1413.29 2713.9,1413.62 2711,1412.5C 2709.32,1414.55 2707.49,1414.89 2705.5,1413.5C 2712.73,1407.7 2721.06,1404.53 2730.5,1404C 2748.05,1402.26 2764.72,1405.26 2780.5,1413C 2789.71,1418.78 2792.71,1426.95 2789.5,1437.5C 2788.04,1437.43 2786.71,1437.77 2785.5,1438.5 Z"/></g>
<g><path style="opacity:0.993" fill="#d18343" d="M 280.5,1438.5 C 277.801,1438.47 275.301,1439.13 273,1440.5C 271.471,1439.27 270.304,1437.77 269.5,1436C 267.482,1435.5 265.482,1435 263.5,1434.5C 250.022,1427.36 235.355,1424.53 219.5,1426C 198.055,1431.14 185.889,1444.97 183,1467.5C 182.333,1477.83 182.333,1488.17 183,1498.5C 184.71,1522.54 197.543,1535.71 221.5,1538C 233.193,1538.69 244.86,1538.36 256.5,1537C 257.96,1525.25 258.96,1513.42 259.5,1501.5C 258.178,1501.33 257.011,1501.66 256,1502.5C 245.54,1500.91 235.04,1499.24 224.5,1497.5C 223.588,1493.87 223.421,1490.2 224,1486.5C 225.48,1483.34 227.98,1481.5 231.5,1481C 246.9,1479.17 262.233,1479.67 277.5,1482.5C 279.095,1503.48 279.428,1524.48 278.5,1545.5C 251.839,1563.5 224.339,1566.16 196,1553.5C 181.104,1546.29 170.437,1534.63 164,1518.5C 152.512,1487.35 155.845,1458.01 174,1430.5C 193.769,1408.1 218.269,1400.26 247.5,1407C 258.381,1410.35 269.048,1414.18 279.5,1418.5C 279.833,1425.17 280.167,1431.83 280.5,1438.5 Z"/></g>
<g><path style="opacity:0.992" fill="#dbaa7f" d="M 2126.5,1406.5 C 2125.39,1409.5 2125.23,1412.5 2126,1415.5C 2123.82,1415.51 2121.82,1414.51 2120,1412.5C 2119.67,1416.67 2118.5,1420.34 2116.5,1423.5C 2115.07,1422.17 2113.73,1420.67 2112.5,1419C 2113.37,1415.23 2114.03,1411.4 2114.5,1407.5C 2118.45,1406.73 2122.45,1406.39 2126.5,1406.5 Z"/></g>
<g><path style="opacity:1" fill="#d2813d" d="M 2785.5,1438.5 C 2783.46,1438.15 2781.63,1438.15 2780,1438.5C 2762.1,1426.59 2742.6,1422.75 2721.5,1427C 2707.18,1432.46 2698.01,1442.63 2694,1457.5C 2687.85,1480.28 2689.85,1502.28 2700,1523.5C 2705.84,1533 2714.34,1537.67 2725.5,1537.5C 2725.5,1537.83 2725.5,1538.17 2725.5,1538.5C 2724.94,1539.79 2723.94,1540.62 2722.5,1541C 2725.02,1542.15 2727.68,1542.98 2730.5,1543.5C 2731.24,1544.99 2731.91,1546.49 2732.5,1548C 2727.7,1549.29 2722.87,1550.46 2718,1551.5C 2713.54,1550.66 2709.04,1550.32 2704.5,1550.5C 2693.61,1547.79 2685.45,1541.46 2680,1531.5C 2664.54,1501.28 2663.54,1470.62 2677,1439.5C 2683.85,1427.81 2693.35,1419.15 2705.5,1413.5C 2707.49,1414.89 2709.32,1414.55 2711,1412.5C 2713.9,1413.62 2717.06,1413.29 2720.5,1411.5C 2722.06,1412.35 2723.56,1412.01 2725,1410.5C 2728.33,1410.5 2731.67,1410.5 2735,1410.5C 2735.67,1411.17 2736.33,1411.83 2737,1412.5C 2741.45,1412.46 2745.78,1412.12 2750,1411.5C 2751.48,1413.78 2753.15,1413.78 2755,1411.5C 2755.52,1412.52 2756.35,1413.18 2757.5,1413.5C 2759.95,1413.38 2762.45,1413.04 2765,1412.5C 2768.52,1413.94 2772.02,1414.44 2775.5,1414C 2782.39,1420.7 2785.72,1428.86 2785.5,1438.5 Z"/></g>
<g><path style="opacity:0.994" fill="#d28443" d="M 1636.5,1414.5 C 1636.26,1424.07 1636.93,1433.73 1638.5,1443.5C 1642.38,1444.71 1646.21,1444.71 1650,1443.5C 1652.43,1446.52 1655.43,1447.18 1659,1445.5C 1662.15,1447.36 1665.65,1448.03 1669.5,1447.5C 1670.48,1451.63 1670.82,1455.97 1670.5,1460.5C 1664.51,1460.15 1658.67,1460.82 1653,1462.5C 1648.93,1461.54 1644.77,1461.2 1640.5,1461.5C 1638.11,1482.86 1637.61,1504.19 1639,1525.5C 1639.26,1530.01 1640.26,1534.34 1642,1538.5C 1651.87,1539 1661.7,1540.17 1671.5,1542C 1673.28,1543.07 1673.78,1544.57 1673,1546.5C 1669.25,1555.47 1662.42,1559.47 1652.5,1558.5C 1642.85,1558.84 1634.18,1556.17 1626.5,1550.5C 1623.1,1546.37 1620.77,1541.7 1619.5,1536.5C 1618.99,1512.17 1618.32,1487.83 1617.5,1463.5C 1614.25,1461.39 1611.25,1459.06 1608.5,1456.5C 1609.98,1456.76 1611.31,1456.43 1612.5,1455.5C 1611.41,1452.98 1610.07,1450.64 1608.5,1448.5C 1611.1,1446.86 1613.77,1445.19 1616.5,1443.5C 1616.99,1434.04 1618.15,1424.71 1620,1415.5C 1624.48,1411.06 1629.64,1410.23 1635.5,1413C 1636.06,1413.38 1636.39,1413.88 1636.5,1414.5 Z"/></g>
<g><path style="opacity:1" fill="#d38952" d="M 1271.5,1464.5 C 1273.99,1461.43 1276.82,1458.43 1280,1455.5C 1282.47,1452 1283.3,1448.33 1282.5,1444.5C 1279.45,1444.09 1276.45,1443.42 1273.5,1442.5C 1272.58,1443.13 1271.58,1443.46 1270.5,1443.5C 1270.78,1442.71 1271.28,1442.04 1272,1441.5C 1272.58,1432.83 1273.08,1424.17 1273.5,1415.5C 1280.8,1414.65 1288.13,1414.32 1295.5,1414.5C 1296.35,1423.85 1297.35,1433.19 1298.5,1442.5C 1308.21,1442.21 1317.88,1442.71 1327.5,1444C 1333.23,1453.3 1331.06,1459.8 1321,1463.5C 1318.01,1462.15 1314.84,1461.48 1311.5,1461.5C 1308.32,1461.96 1305.32,1462.13 1302.5,1462C 1300.19,1463.64 1298.69,1465.8 1298,1468.5C 1294.41,1491.76 1295.74,1514.76 1302,1537.5C 1309.13,1538.24 1316.29,1539.08 1323.5,1540C 1326.66,1540.74 1329.32,1542.24 1331.5,1544.5C 1325.22,1558.8 1314.56,1563.64 1299.5,1559C 1282.57,1552.38 1273.73,1539.88 1273,1521.5C 1272.78,1502.48 1272.28,1483.48 1271.5,1464.5 Z"/></g>
<g><path style="opacity:1" fill="#ddc3aa" d="M 1636.5,1414.5 C 1638.98,1416.12 1640.48,1418.45 1641,1421.5C 1641.35,1427.86 1641.85,1434.19 1642.5,1440.5C 1650.82,1441.31 1659.15,1442.14 1667.5,1443C 1668.58,1444.33 1669.25,1445.83 1669.5,1447.5C 1665.65,1448.03 1662.15,1447.36 1659,1445.5C 1655.43,1447.18 1652.43,1446.52 1650,1443.5C 1646.21,1444.71 1642.38,1444.71 1638.5,1443.5C 1636.93,1433.73 1636.26,1424.07 1636.5,1414.5 Z"/></g>
<g><path style="opacity:1" fill="#ce9566" d="M 2126.5,1406.5 C 2129.9,1406.18 2133.23,1406.51 2136.5,1407.5C 2138.31,1413.68 2138.98,1420.01 2138.5,1426.5C 2131.19,1427.52 2123.86,1427.68 2116.5,1427C 2117.68,1425.85 2117.68,1424.69 2116.5,1423.5C 2118.5,1420.34 2119.67,1416.67 2120,1412.5C 2121.82,1414.51 2123.82,1415.51 2126,1415.5C 2125.23,1412.5 2125.39,1409.5 2126.5,1406.5 Z"/></g>
<g><path style="opacity:1" fill="#fefdf8" d="M 2024.5,1424.5 C 2047.42,1422.29 2062.42,1432.12 2069.5,1454C 2074.11,1474.73 2073.27,1495.23 2067,1515.5C 2057.68,1536.24 2041.85,1544.41 2019.5,1540C 1999.65,1531.8 1988.48,1516.97 1986,1495.5C 1982.94,1477.71 1985.27,1460.71 1993,1444.5C 2001.08,1433.91 2011.58,1427.24 2024.5,1424.5 Z"/></g>
<g><path style="opacity:1" fill="#f6ebd5" d="M 263.5,1434.5 C 265.482,1435 267.482,1435.5 269.5,1436C 270.304,1437.77 271.471,1439.27 273,1440.5C 275.301,1439.13 277.801,1438.47 280.5,1438.5C 279.793,1441.79 279.46,1445.12 279.5,1448.5C 267.911,1450.73 262.578,1446.06 263.5,1434.5 Z"/></g>
<g><path style="opacity:0.995" fill="#d18343" d="M 597.5,1557.5 C 579.627,1562.04 561.96,1560.54 544.5,1553C 529.342,1543.31 520.842,1529.81 519,1512.5C 516.023,1493.95 519.69,1476.95 530,1461.5C 548.51,1441.08 570.343,1436.24 595.5,1447C 605.644,1454.78 612.144,1464.94 615,1477.5C 616.822,1486.07 617.655,1494.74 617.5,1503.5C 590.821,1503.88 564.487,1503.88 538.5,1503.5C 535.798,1522.63 543.798,1534.13 562.5,1538C 579.233,1539.66 595.566,1537.82 611.5,1532.5C 613.339,1544.49 608.672,1552.82 597.5,1557.5 Z"/></g>
<g><path style="opacity:0.997" fill="#d28443" d="M 1088.5,1440.5 C 1114.63,1440.79 1131.46,1453.46 1139,1478.5C 1143.74,1495.71 1143.08,1512.71 1137,1529.5C 1127.96,1548.32 1113.29,1558.98 1093,1561.5C 1056.49,1556.75 1038.32,1536.09 1038.5,1499.5C 1039.09,1465.9 1055.75,1446.24 1088.5,1440.5 Z"/></g>
<g><path style="opacity:0.997" fill="#d58849" d="M 1449.5,1440.5 C 1478.83,1438.01 1494.33,1451.35 1496,1480.5C 1498.64,1505.33 1497.81,1530 1493.5,1554.5C 1486.29,1555.58 1479.29,1554.58 1472.5,1551.5C 1463.73,1554.39 1455.06,1557.55 1446.5,1561C 1428.81,1562.07 1416.31,1554.57 1409,1538.5C 1403.36,1524.96 1404.69,1511.96 1413,1499.5C 1417.35,1494.83 1422.51,1491.33 1428.5,1489C 1441.41,1486.43 1454.41,1484.43 1467.5,1483C 1469.29,1482.22 1470.79,1481.05 1472,1479.5C 1472.91,1473.82 1471.91,1468.48 1469,1463.5C 1467.33,1462.17 1465.67,1462.17 1464,1463.5C 1463.5,1463 1463,1462.5 1462.5,1462C 1455.53,1460.75 1448.53,1460.41 1441.5,1461C 1433.54,1462.77 1425.7,1464.93 1418,1467.5C 1416.46,1459.85 1416.29,1452.19 1417.5,1444.5C 1428.24,1442.66 1438.9,1441.32 1449.5,1440.5 Z"/></g>
<g><path style="opacity:1" fill="#d2813c" d="M 338.5,1441.5 C 371.262,1438.45 389.428,1453.12 393,1485.5C 393.499,1491.16 393.666,1496.82 393.5,1502.5C 383.248,1502.68 373.081,1503.35 363,1504.5C 347.765,1503.96 332.599,1503.8 317.5,1504C 315.067,1521.13 322.067,1532.46 338.5,1538C 349.904,1540.13 361.237,1539.8 372.5,1537C 376.609,1535.2 380.442,1533.03 384,1530.5C 386.381,1531.44 388.881,1531.77 391.5,1531.5C 392.975,1543.19 388.308,1551.36 377.5,1556C 373.58,1557.31 369.58,1558.31 365.5,1559C 356.522,1559.42 347.689,1559.58 339,1559.5C 313.606,1553.38 298.939,1536.72 295,1509.5C 292.726,1486.98 299.559,1467.82 315.5,1452C 322.506,1446.83 330.173,1443.33 338.5,1441.5 Z"/></g>
<g><path style="opacity:0.992" fill="#d18343" d="M 457.5,1441.5 C 468.982,1440.79 479.648,1443.29 489.5,1449C 495.166,1454.98 498.333,1462.14 499,1470.5C 500.033,1481.15 500.866,1491.82 501.5,1502.5C 500.557,1519.48 500.224,1536.48 500.5,1553.5C 494.185,1554.11 487.851,1554.44 481.5,1554.5C 479.316,1537.23 478.983,1519.9 480.5,1502.5C 481.741,1489.32 479.241,1476.98 473,1465.5C 465.67,1460.03 457.837,1458.86 449.5,1462C 441.572,1464.93 436.406,1470.43 434,1478.5C 432.142,1485.37 431.308,1492.37 431.5,1499.5C 432.741,1517.83 432.741,1536.17 431.5,1554.5C 425.167,1554.5 418.833,1554.5 412.5,1554.5C 409.872,1517.81 410.206,1481.15 413.5,1444.5C 418.267,1444.19 422.934,1444.69 427.5,1446C 429.733,1448.23 431.9,1450.4 434,1452.5C 439.343,1450.48 444.176,1447.65 448.5,1444C 451.678,1443.34 454.678,1442.51 457.5,1441.5 Z"/></g>
<g><path style="opacity:0.998" fill="#d58849" d="M 1228.5,1555.5 C 1229.66,1535.34 1229.83,1515 1229,1494.5C 1228.19,1483.09 1225.35,1472.26 1220.5,1462C 1211.99,1459.22 1203.99,1459.22 1196.5,1462C 1193.58,1464.42 1191.24,1467.25 1189.5,1470.5C 1184.3,1472.18 1181.47,1475.85 1181,1481.5C 1180.83,1505.84 1180.33,1530.17 1179.5,1554.5C 1174.67,1554.28 1169.5,1554.95 1164,1556.5C 1162.64,1555.62 1161.14,1555.29 1159.5,1555.5C 1157.32,1523.18 1157.16,1490.84 1159,1458.5C 1159.38,1453.79 1160.04,1449.12 1161,1444.5C 1169.32,1442.89 1176.48,1445.22 1182.5,1451.5C 1192.63,1445.85 1203.46,1442.51 1215,1441.5C 1229,1441.5 1239,1447.84 1245,1460.5C 1249.11,1474.68 1250.95,1489.18 1250.5,1504C 1250.25,1520.89 1249.41,1537.72 1248,1554.5C 1242.39,1555.26 1236.73,1555.93 1231,1556.5C 1229.93,1556.47 1229.1,1556.14 1228.5,1555.5 Z"/></g>
<g><path style="opacity:1" fill="#d2813d" d="M 1597.5,1451.5 C 1597.41,1456.54 1597.75,1461.54 1598.5,1466.5C 1591.09,1466.97 1584.09,1465.47 1577.5,1462C 1567.18,1458.09 1557.34,1458.92 1548,1464.5C 1546.88,1466.41 1546.04,1468.41 1545.5,1470.5C 1541.76,1473.63 1539.26,1477.63 1538,1482.5C 1532.92,1498.67 1534.25,1514.33 1542,1529.5C 1551.93,1539.41 1563.76,1542.58 1577.5,1539C 1581.63,1538.14 1585.63,1536.97 1589.5,1535.5C 1591.51,1537.37 1593.85,1539.03 1596.5,1540.5C 1596.69,1542.07 1596.69,1543.57 1596.5,1545C 1597.45,1545.48 1598.45,1545.65 1599.5,1545.5C 1596.75,1548.07 1594.09,1550.9 1591.5,1554C 1573.27,1562.96 1555.27,1562.62 1537.5,1553C 1517.74,1534.71 1510.57,1512.21 1516,1485.5C 1525.17,1448.49 1548.34,1434.99 1585.5,1445C 1590.01,1446.42 1594.01,1448.58 1597.5,1451.5 Z"/></g>
<g><path style="opacity:1" fill="#d3823d" d="M 1721.5,1441.5 C 1753.52,1439.77 1772.02,1454.77 1777,1486.5C 1779.7,1503.89 1777.36,1520.56 1770,1536.5C 1753.97,1559.28 1732.81,1565.78 1706.5,1556C 1689.37,1547.33 1679.7,1533.67 1677.5,1515C 1672.37,1490.72 1678.7,1470.06 1696.5,1453C 1704.17,1447.49 1712.5,1443.66 1721.5,1441.5 Z"/></g>
<g><path style="opacity:0.997" fill="#d28443" d="M 2271.5,1543.5 C 2259.36,1516.96 2267.03,1499.12 2294.5,1490C 2307.96,1485.88 2321.62,1482.71 2335.5,1480.5C 2334.02,1462.73 2324.36,1455.56 2306.5,1459C 2296.96,1461.51 2287.46,1464.01 2278,1466.5C 2277.67,1461.5 2277.33,1456.5 2277,1451.5C 2276.72,1450.58 2276.22,1449.92 2275.5,1449.5C 2277.12,1447.88 2279.12,1446.72 2281.5,1446C 2295.33,1442.75 2309.33,1441.75 2323.5,1443C 2341.72,1444.89 2352.55,1454.72 2356,1472.5C 2359.48,1499.87 2359.31,1527.21 2355.5,1554.5C 2352.45,1554.36 2349.45,1554.7 2346.5,1555.5C 2340.05,1552.9 2333.38,1552.07 2326.5,1553C 2318.97,1555.67 2311.47,1559.17 2304,1563.5C 2296.69,1562.49 2289.85,1559.66 2283.5,1555C 2279.6,1550.94 2275.6,1547.1 2271.5,1543.5 Z"/></g>
<g><path style="opacity:0.998" fill="#d58849" d="M 2806.5,1533.5 C 2807.83,1524.36 2808.16,1515.36 2807.5,1506.5C 2812.11,1499.06 2818.45,1493.56 2826.5,1490C 2842.09,1486.39 2857.76,1483.06 2873.5,1480C 2873.07,1471.63 2869.24,1465.46 2862,1461.5C 2861.09,1462.65 2860.25,1462.49 2859.5,1461C 2854.83,1460.33 2850.17,1460.33 2845.5,1461C 2834.89,1462.58 2824.22,1464.08 2813.5,1465.5C 2813.78,1462.55 2813.44,1459.72 2812.5,1457C 2813.21,1454.2 2813.88,1451.37 2814.5,1448.5C 2820.77,1445.43 2827.44,1443.6 2834.5,1443C 2851.24,1439.62 2867.24,1441.62 2882.5,1449C 2889.01,1453.85 2892.51,1460.35 2893,1468.5C 2895.83,1495.47 2896.16,1522.47 2894,1549.5C 2894.12,1554.93 2891.45,1556.93 2886,1555.5C 2880.03,1555.6 2874.86,1553.6 2870.5,1549.5C 2861.12,1556.22 2850.95,1560.22 2840,1561.5C 2823.25,1558.92 2812.08,1549.59 2806.5,1533.5 Z"/></g>
<g><path style="opacity:0.997" fill="#d28443" d="M 727.5,1486.5 C 740.539,1486.16 753.539,1484.16 766.5,1480.5C 768.002,1471.5 764.669,1465 756.5,1461C 747.528,1459.73 738.528,1459.39 729.5,1460C 722.409,1461.53 715.409,1463.36 708.5,1465.5C 708.5,1458.5 708.5,1451.5 708.5,1444.5C 726.135,1443.37 743.802,1443.21 761.5,1444C 772.957,1446.12 780.791,1452.62 785,1463.5C 790.582,1489.32 791.582,1515.32 788,1541.5C 787.294,1546.29 785.794,1550.79 783.5,1555C 777.875,1556.82 772.875,1556.16 768.5,1553C 765.5,1552.33 762.5,1552.33 759.5,1553C 749.886,1556.65 740.053,1559.48 730,1561.5C 711.972,1558.81 700.972,1548.48 697,1530.5C 694.672,1517.15 698.505,1505.98 708.5,1497C 714.571,1492.97 720.904,1489.47 727.5,1486.5 Z"/></g>
<g><path style="opacity:0.994" fill="#d08343" d="M 2990.5,1453.5 C 2989.68,1457.31 2989.18,1461.31 2989,1465.5C 2984.91,1464.31 2980.75,1463.31 2976.5,1462.5C 2975.58,1462.54 2974.92,1462.88 2974.5,1463.5C 2967.8,1462.56 2961.14,1461.56 2954.5,1460.5C 2948.1,1460.2 2942.6,1462.2 2938,1466.5C 2934.18,1477.7 2938.02,1485.2 2949.5,1489C 2960.74,1491.25 2971.74,1494.25 2982.5,1498C 2999.22,1512.36 3000.72,1528.19 2987,1545.5C 2975.42,1555.87 2962.09,1560.87 2947,1560.5C 2939.45,1559.04 2931.95,1557.21 2924.5,1555C 2920.84,1554 2917.67,1552.16 2915,1549.5C 2913.47,1543.59 2913.14,1537.59 2914,1531.5C 2914.41,1531.04 2914.91,1530.71 2915.5,1530.5C 2928.96,1535.71 2942.8,1539.38 2957,1541.5C 2967.66,1542.51 2972.82,1537.68 2972.5,1527C 2972.4,1524.7 2971.73,1522.7 2970.5,1521C 2971.06,1519.43 2970.39,1518.1 2968.5,1517C 2957.47,1512.41 2946.14,1508.74 2934.5,1506C 2920.68,1499.95 2913.35,1489.62 2912.5,1475C 2913.97,1460.37 2921.64,1450.71 2935.5,1446C 2951.97,1441.27 2968.3,1441.6 2984.5,1447C 2987.3,1448.45 2989.3,1450.62 2990.5,1453.5 Z"/></g>
<g><path style="opacity:1" fill="#f8eace" d="M 708.5,1444.5 C 708.5,1451.5 708.5,1458.5 708.5,1465.5C 715.409,1463.36 722.409,1461.53 729.5,1460C 738.528,1459.39 747.528,1459.73 756.5,1461C 764.669,1465 768.002,1471.5 766.5,1480.5C 753.539,1484.16 740.539,1486.16 727.5,1486.5C 728.457,1483.83 730.457,1482.33 733.5,1482C 742.334,1480.36 751.001,1478.2 759.5,1475.5C 758.167,1473.17 756.833,1470.83 755.5,1468.5C 748.185,1467.64 740.851,1466.97 733.5,1466.5C 723.758,1467.42 714.091,1468.75 704.5,1470.5C 702.573,1462.94 701.739,1455.27 702,1447.5C 703.465,1445.09 705.632,1444.09 708.5,1444.5 Z"/></g>
<g><path style="opacity:1" fill="#d47d3b" d="M 1271.5,1464.5 C 1271.65,1463.45 1271.48,1462.45 1271,1461.5C 1267.81,1458.31 1264.64,1455.14 1261.5,1452C 1264.3,1449.03 1267.3,1446.2 1270.5,1443.5C 1271.58,1443.46 1272.58,1443.13 1273.5,1442.5C 1276.45,1443.42 1279.45,1444.09 1282.5,1444.5C 1283.3,1448.33 1282.47,1452 1280,1455.5C 1276.82,1458.43 1273.99,1461.43 1271.5,1464.5 Z"/></g>
<g><path style="opacity:0.984" fill="#cb8448" d="M 1346.5,1443.5 C 1356.19,1440.76 1362.36,1444.1 1365,1453.5C 1365.56,1454.02 1366.23,1454.36 1367,1454.5C 1372.41,1452.08 1377.58,1449.25 1382.5,1446C 1389.13,1444.95 1395.79,1444.45 1402.5,1444.5C 1402.5,1451.83 1402.5,1459.17 1402.5,1466.5C 1394.14,1467.42 1385.81,1468.59 1377.5,1470C 1372.61,1471.11 1368.28,1473.28 1364.5,1476.5C 1364.06,1496.16 1363.9,1515.82 1364,1535.5C 1363.54,1542.31 1362.37,1548.98 1360.5,1555.5C 1355.13,1555.83 1349.79,1555.49 1344.5,1554.5C 1343.38,1553.4 1343.38,1552.23 1344.5,1551C 1344.04,1545.52 1343.04,1540.19 1341.5,1535C 1342.67,1520.49 1342.67,1505.83 1341.5,1491C 1342.61,1475.14 1344.27,1459.31 1346.5,1443.5 Z"/></g>
<g><path style="opacity:0.993" fill="#d18343" d="M 693.5,1446.5 C 692.51,1452.64 692.177,1458.98 692.5,1465.5C 690.517,1465.16 689.183,1465.82 688.5,1467.5C 677.894,1468.83 667.227,1470.83 656.5,1473.5C 656.361,1495.81 656.195,1518.14 656,1540.5C 655.675,1544.62 654.841,1548.62 653.5,1552.5C 648.488,1555.24 643.154,1556.07 637.5,1555C 635.354,1552.21 634.187,1549.04 634,1545.5C 633.816,1537.92 633.316,1530.42 632.5,1523C 633.185,1498.39 633.852,1473.72 634.5,1449C 634.755,1447.67 635.422,1446.67 636.5,1446C 640.5,1445.33 644.5,1445.33 648.5,1446C 652.685,1448.2 656.851,1450.36 661,1452.5C 666.886,1450.47 672.719,1448.31 678.5,1446C 683.684,1445.18 688.684,1445.35 693.5,1446.5 Z"/></g>
<g><path style="opacity:1" fill="#cfbaa7" d="M 693.5,1446.5 C 694.5,1446.5 695.5,1446.5 696.5,1446.5C 698.075,1453.29 697.575,1459.96 695,1466.5C 692.777,1467.78 690.61,1468.12 688.5,1467.5C 689.183,1465.82 690.517,1465.16 692.5,1465.5C 692.177,1458.98 692.51,1452.64 693.5,1446.5 Z"/></g>
<g><path style="opacity:1" fill="#ca823a" d="M 1819.5,1452.5 C 1817.83,1452.5 1816.17,1452.5 1814.5,1452.5C 1813.79,1456.73 1815.45,1459.39 1819.5,1460.5C 1824.01,1460.3 1826.35,1457.63 1826.5,1452.5C 1835.38,1447.13 1845.05,1444.8 1855.5,1445.5C 1856.75,1451.22 1856.58,1456.89 1855,1462.5C 1854.17,1463.5 1853.33,1464.5 1852.5,1465.5C 1844.68,1467.76 1836.68,1469.26 1828.5,1470C 1825.24,1470.97 1822.07,1472.14 1819,1473.5C 1818.53,1500.18 1817.7,1526.85 1816.5,1553.5C 1814.29,1554.11 1812.12,1554.77 1810,1555.5C 1806.28,1554.69 1802.61,1554.36 1799,1554.5C 1798.55,1533.92 1798.05,1513.42 1797.5,1493C 1798.79,1477.25 1799.45,1461.42 1799.5,1445.5C 1803.51,1445.33 1807.51,1445.5 1811.5,1446C 1812.87,1447.24 1813.87,1448.74 1814.5,1450.5C 1816.29,1451.17 1817.96,1451.84 1819.5,1452.5 Z"/></g>
<g><path style="opacity:1" fill="#d48952" d="M 2115.5,1445.5 C 2122.83,1445.5 2130.17,1445.5 2137.5,1445.5C 2138.45,1481.82 2138.79,1518.15 2138.5,1554.5C 2130.52,1555.28 2122.52,1555.61 2114.5,1555.5C 2115.35,1518.67 2115.68,1482.01 2115.5,1445.5 Z"/></g>
<g><path style="opacity:1" fill="#d37c3a" d="M 2426.5,1442.5 C 2451.53,1439.03 2466.36,1449.7 2471,1474.5C 2474.78,1500.13 2473.94,1525.63 2468.5,1551C 2468.25,1552.33 2467.58,1553.33 2466.5,1554C 2461.24,1554.79 2456.24,1555.29 2451.5,1555.5C 2452.48,1534.51 2452.64,1513.51 2452,1492.5C 2451.97,1489.63 2451.14,1487.13 2449.5,1485C 2449.77,1475.21 2445.77,1467.54 2437.5,1462C 2426.64,1459.17 2417.14,1461.01 2409,1467.5C 2407.41,1469.67 2406.08,1472 2405,1474.5C 2403.43,1481.41 2402.59,1488.41 2402.5,1495.5C 2403.75,1515.19 2403.75,1534.86 2402.5,1554.5C 2397.55,1554.56 2392.71,1555.23 2388,1556.5C 2385.62,1555.56 2383.12,1555.23 2380.5,1555.5C 2380.78,1552.55 2380.44,1549.72 2379.5,1547C 2381.22,1513.1 2381.89,1479.26 2381.5,1445.5C 2386.88,1444.01 2392.21,1444.17 2397.5,1446C 2400.43,1448.76 2403.76,1450.92 2407.5,1452.5C 2413.8,1448.85 2420.13,1445.52 2426.5,1442.5 Z"/></g>
<g><path style="opacity:0.992" fill="#915834" d="M 1608.5,1448.5 C 1610.07,1450.64 1611.41,1452.98 1612.5,1455.5C 1611.31,1456.43 1609.98,1456.76 1608.5,1456.5C 1607.29,1457.23 1605.96,1457.57 1604.5,1457.5C 1604.63,1455.71 1604.3,1454.04 1603.5,1452.5C 1605.57,1451.7 1607.24,1450.37 1608.5,1448.5 Z"/></g>
<g><path style="opacity:1" fill="#d47b38" d="M 1294.5,1446.5 C 1299.45,1447.23 1304.45,1447.73 1309.5,1448C 1311.52,1448.45 1313.35,1449.28 1315,1450.5C 1317.04,1449.99 1319.04,1449.66 1321,1449.5C 1321.95,1449.91 1322.61,1450.57 1323,1451.5C 1328.41,1449.9 1329.41,1451.24 1326,1455.5C 1324.67,1455.5 1323.33,1455.5 1322,1455.5C 1320.62,1454.45 1319.62,1453.12 1319,1451.5C 1318.33,1456.83 1317.67,1456.83 1317,1451.5C 1316.58,1455.85 1315.91,1456.19 1315,1452.5C 1314.33,1456.5 1313.67,1456.5 1313,1452.5C 1312.33,1456.5 1311.67,1456.5 1311,1452.5C 1310.52,1453.45 1310.35,1454.45 1310.5,1455.5C 1306.3,1455.6 1302.46,1455.27 1299,1454.5C 1298.31,1455.36 1297.48,1456.02 1296.5,1456.5C 1294.82,1453.4 1294.15,1450.06 1294.5,1446.5 Z"/></g>
<g><path style="opacity:1" fill="#faecd1" d="M 1597.5,1451.5 C 1599.5,1451.83 1601.5,1452.17 1603.5,1452.5C 1604.3,1454.04 1604.63,1455.71 1604.5,1457.5C 1605.96,1457.57 1607.29,1457.23 1608.5,1456.5C 1611.25,1459.06 1614.25,1461.39 1617.5,1463.5C 1618.32,1487.83 1618.99,1512.17 1619.5,1536.5C 1616.02,1534.59 1612.69,1532.43 1609.5,1530C 1613.16,1511.94 1613.49,1493.77 1610.5,1475.5C 1589.12,1469.97 1567.45,1468.3 1545.5,1470.5C 1546.04,1468.41 1546.88,1466.41 1548,1464.5C 1557.34,1458.92 1567.18,1458.09 1577.5,1462C 1584.09,1465.47 1591.09,1466.97 1598.5,1466.5C 1597.75,1461.54 1597.41,1456.54 1597.5,1451.5 Z"/></g>
<g><path style="opacity:0.992" fill="#dd9e67" d="M 1819.5,1452.5 C 1821.83,1452.5 1824.17,1452.5 1826.5,1452.5C 1826.35,1457.63 1824.01,1460.3 1819.5,1460.5C 1815.45,1459.39 1813.79,1456.73 1814.5,1452.5C 1816.17,1452.5 1817.83,1452.5 1819.5,1452.5 Z"/></g>
<g><path style="opacity:1" fill="#fcf5e1" d="M 2275.5,1449.5 C 2276.22,1449.92 2276.72,1450.58 2277,1451.5C 2277.33,1456.5 2277.67,1461.5 2278,1466.5C 2287.46,1464.01 2296.96,1461.51 2306.5,1459C 2324.36,1455.56 2334.02,1462.73 2335.5,1480.5C 2321.62,1482.71 2307.96,1485.88 2294.5,1490C 2267.03,1499.12 2259.36,1516.96 2271.5,1543.5C 2263.07,1544.22 2260.07,1540.39 2262.5,1532C 2262.65,1525.8 2263.15,1519.64 2264,1513.5C 2267.8,1502.59 2271.3,1491.59 2274.5,1480.5C 2271.61,1471.61 2271.11,1462.61 2273,1453.5C 2273.66,1452.02 2274.5,1450.68 2275.5,1449.5 Z"/></g>
<g><path style="opacity:0.992" fill="#d69b68" d="M 2990.5,1453.5 C 2995.59,1457.53 2996.26,1462.03 2992.5,1467C 2985.77,1469.59 2979.77,1468.42 2974.5,1463.5C 2974.92,1462.88 2975.58,1462.54 2976.5,1462.5C 2980.75,1463.31 2984.91,1464.31 2989,1465.5C 2989.18,1461.31 2989.68,1457.31 2990.5,1453.5 Z"/></g>
<g><path style="opacity:1" fill="#fdfaeb" d="M 328.5,1488.5 C 325.038,1487.52 321.371,1487.19 317.5,1487.5C 317.5,1486.17 317.5,1484.83 317.5,1483.5C 317.97,1470.39 324.637,1462.56 337.5,1460C 361.435,1454.79 373.768,1464.29 374.5,1488.5C 359.167,1488.5 343.833,1488.5 328.5,1488.5 Z"/></g>
<g><path style="opacity:1" fill="#fdfdf8" d="M 1083.5,1459.5 C 1108.31,1459.48 1120.65,1471.98 1120.5,1497C 1121.05,1510.59 1117.21,1522.76 1109,1533.5C 1098.43,1542.82 1086.93,1543.98 1074.5,1537C 1069.07,1532.3 1065.57,1526.47 1064,1519.5C 1062.03,1507.16 1062.03,1494.83 1064,1482.5C 1066.79,1471.55 1073.29,1463.88 1083.5,1459.5 Z"/></g>
<g><path style="opacity:1" fill="#fdfdf8" d="M 1720.5,1458.5 C 1740.92,1459.08 1753.42,1469.41 1758,1489.5C 1760.04,1503.95 1757.71,1517.62 1751,1530.5C 1737.69,1546.27 1723.36,1547.27 1708,1533.5C 1700.02,1520.99 1697.02,1507.32 1699,1492.5C 1699.18,1480.87 1703.35,1471.04 1711.5,1463C 1714.59,1461.45 1717.59,1459.95 1720.5,1458.5 Z"/></g>
<g><path style="opacity:1" fill="#fef9e7" d="M 560.5,1459.5 C 583.653,1455.7 594.987,1465.37 594.5,1488.5C 576.892,1487.83 558.225,1487.49 538.5,1487.5C 539.586,1473.1 546.92,1463.76 560.5,1459.5 Z"/></g>
<g><path style="opacity:1" fill="#f9ebcf" d="M 1228.5,1555.5 C 1224.81,1552.45 1222.98,1548.45 1223,1543.5C 1223.98,1520.44 1223.14,1497.44 1220.5,1474.5C 1215.29,1474.19 1210.29,1473.02 1205.5,1471C 1200.18,1470.5 1194.84,1470.33 1189.5,1470.5C 1191.24,1467.25 1193.58,1464.42 1196.5,1462C 1203.99,1459.22 1211.99,1459.22 1220.5,1462C 1225.35,1472.26 1228.19,1483.09 1229,1494.5C 1229.83,1515 1229.66,1535.34 1228.5,1555.5 Z"/></g>
<g><path style="opacity:1" fill="#fdfcf7" d="M 2533.5,1460.5 C 2539.51,1460.33 2545.51,1460.5 2551.5,1461C 2555.8,1461.9 2559.63,1463.73 2563,1466.5C 2565.35,1475.99 2566.52,1485.65 2566.5,1495.5C 2566.09,1507.2 2565.25,1518.86 2564,1530.5C 2529.82,1550.33 2511.66,1540.67 2509.5,1501.5C 2509.77,1492.63 2511.27,1483.96 2514,1475.5C 2519.23,1468.76 2525.73,1463.76 2533.5,1460.5 Z"/></g>
<g><path style="opacity:0.995" fill="#d58849" d="M 2789.5,1484.5 C 2788.37,1504.95 2788.37,1525.28 2789.5,1545.5C 2766.87,1559.93 2742.7,1564.6 2717,1559.5C 2715.54,1557.58 2713.87,1556.91 2712,1557.5C 2709.18,1555.51 2706.68,1553.17 2704.5,1550.5C 2709.04,1550.32 2713.54,1550.66 2718,1551.5C 2722.87,1550.46 2727.7,1549.29 2732.5,1548C 2731.91,1546.49 2731.24,1544.99 2730.5,1543.5C 2727.68,1542.98 2725.02,1542.15 2722.5,1541C 2723.94,1540.62 2724.94,1539.79 2725.5,1538.5C 2738.72,1540.91 2752.05,1541.08 2765.5,1539C 2768.73,1532.39 2770.07,1525.39 2769.5,1518C 2769.44,1512.13 2768.94,1506.29 2768,1500.5C 2757.25,1499.51 2746.41,1499.18 2735.5,1499.5C 2734.12,1493.31 2733.78,1487.14 2734.5,1481C 2749.18,1479.44 2763.85,1479.44 2778.5,1481C 2782.49,1481.5 2786.16,1482.67 2789.5,1484.5 Z"/></g>
<g><path style="opacity:1" fill="#faeed5" d="M 2789.5,1484.5 C 2791.39,1484.3 2792.89,1484.96 2794,1486.5C 2794.33,1493.5 2794.67,1500.5 2795,1507.5C 2795.13,1510.53 2796.13,1513.19 2798,1515.5C 2801.69,1512.97 2804.86,1509.97 2807.5,1506.5C 2808.16,1515.36 2807.83,1524.36 2806.5,1533.5C 2804.14,1532.42 2801.81,1532.42 2799.5,1533.5C 2797.8,1536.04 2796.3,1538.71 2795,1541.5C 2793.55,1543.46 2791.72,1544.8 2789.5,1545.5C 2788.37,1525.28 2788.37,1504.95 2789.5,1484.5 Z"/></g>
<g><path style="opacity:0.788" fill="#e5b68b" d="M 317.5,1483.5 C 317.5,1484.83 317.5,1486.17 317.5,1487.5C 321.371,1487.19 325.038,1487.52 328.5,1488.5C 324.5,1488.5 320.5,1488.5 316.5,1488.5C 316.216,1486.59 316.549,1484.92 317.5,1483.5 Z"/></g>
<g><path style="opacity:1" fill="#f9ebd1" d="M 763.5,1527.5 C 762.957,1527.44 762.624,1527.11 762.5,1526.5C 764.283,1520.54 764.949,1514.54 764.5,1508.5C 763.655,1506.24 762.322,1505.57 760.5,1506.5C 759.086,1505.38 757.586,1504.38 756,1503.5C 754.704,1504.07 753.204,1504.07 751.5,1503.5C 745.606,1505.02 739.606,1506.02 733.5,1506.5C 745.017,1495.88 756.517,1495.88 768,1506.5C 771.417,1514.51 769.917,1521.51 763.5,1527.5 Z"/></g>
<g><path style="opacity:1" fill="#f8ead0" d="M 2735.5,1499.5 C 2746.41,1499.18 2757.25,1499.51 2768,1500.5C 2768.94,1506.29 2769.44,1512.13 2769.5,1518C 2770.07,1525.39 2768.73,1532.39 2765.5,1539C 2752.05,1541.08 2738.72,1540.91 2725.5,1538.5C 2725.5,1538.17 2725.5,1537.83 2725.5,1537.5C 2737.55,1537.2 2749.55,1536.53 2761.5,1535.5C 2762.28,1534.27 2762.78,1532.94 2763,1531.5C 2763.73,1523.51 2764.23,1515.51 2764.5,1507.5C 2765.4,1506.79 2765.74,1505.79 2765.5,1504.5C 2757.17,1504.5 2748.83,1504.5 2740.5,1504.5C 2738.15,1503.99 2736.15,1502.82 2734.5,1501C 2735.06,1500.62 2735.39,1500.12 2735.5,1499.5 Z"/></g>
<g><path style="opacity:1" fill="#fef9e7" d="M 2322.5,1499.5 C 2326.86,1499.59 2331.19,1499.92 2335.5,1500.5C 2335.67,1506.84 2335.5,1513.18 2335,1519.5C 2330.21,1537.16 2318.71,1543.99 2300.5,1540C 2286.41,1535.65 2282.24,1526.82 2288,1513.5C 2291.04,1510.07 2294.54,1507.23 2298.5,1505C 2306.35,1501.87 2314.35,1500.03 2322.5,1499.5 Z"/></g>
<g><path style="opacity:1" fill="#fdfcf3" d="M 2853.5,1500.5 C 2859.83,1500.5 2866.17,1500.5 2872.5,1500.5C 2873.02,1510.88 2873.52,1521.22 2874,1531.5C 2861.32,1540.72 2847.48,1542.89 2832.5,1538C 2821.49,1523.36 2824.16,1512.03 2840.5,1504C 2844.93,1502.68 2849.26,1501.52 2853.5,1500.5 Z"/></g>
<g><path style="opacity:1" fill="#fdfcf3" d="M 763.5,1527.5 C 763.896,1530.04 763.229,1532.21 761.5,1534C 750.255,1540.53 738.255,1542.2 725.5,1539C 719.511,1531.54 717.344,1523.04 719,1513.5C 722.566,1508.63 727.399,1506.3 733.5,1506.5C 739.606,1506.02 745.606,1505.02 751.5,1503.5C 753.204,1504.07 754.704,1504.07 756,1503.5C 757.586,1504.38 759.086,1505.38 760.5,1506.5C 762.322,1505.57 763.655,1506.24 764.5,1508.5C 764.949,1514.54 764.283,1520.54 762.5,1526.5C 762.624,1527.11 762.957,1527.44 763.5,1527.5 Z"/></g>
<g><path style="opacity:0.059" fill="#714e32" d="M 2740.5,1504.5 C 2748.83,1504.5 2757.17,1504.5 2765.5,1504.5C 2765.74,1505.79 2765.4,1506.79 2764.5,1507.5C 2756.72,1505.85 2748.72,1504.85 2740.5,1504.5 Z"/></g>
<g><path style="opacity:1" fill="#fefcf4" d="M 1456.5,1499.5 C 1461.84,1499.69 1467.18,1500.02 1472.5,1500.5C 1473.11,1510.55 1473.61,1520.55 1474,1530.5C 1463.02,1539.28 1450.85,1541.78 1437.5,1538C 1426.84,1531.3 1424.68,1522.47 1431,1511.5C 1438.01,1504.12 1446.51,1500.12 1456.5,1499.5 Z"/></g>
<g><path style="opacity:1" fill="#ca823a" d="M 1856.5,1588.5 C 1851.17,1588.5 1845.83,1588.5 1840.5,1588.5C 1843.61,1567.39 1848.61,1546.72 1855.5,1526.5C 1863.5,1525.39 1871.5,1525.39 1879.5,1526.5C 1879.28,1532.03 1878.12,1537.36 1876,1542.5C 1867.55,1557.07 1861.05,1572.4 1856.5,1588.5 Z"/></g>
<g><path style="opacity:0.992" fill="#da9e6a" d="M 1599.5,1545.5 C 1598.45,1545.65 1597.45,1545.48 1596.5,1545C 1596.69,1543.57 1596.69,1542.07 1596.5,1540.5C 1593.85,1539.03 1591.51,1537.37 1589.5,1535.5C 1591.85,1530.21 1595.18,1529.38 1599.5,1533C 1601.96,1537.43 1601.96,1541.6 1599.5,1545.5 Z"/></g>
<g><path style="opacity:0.059" fill="#724f32" d="M 597.5,1557.5 C 598.833,1558.17 598.833,1558.17 597.5,1557.5 Z"/></g>
</svg>
