<?xml version="1.0" encoding="UTF-8"?>
<!DOCTYPE svg PUBLIC "-//W3C//DTD SVG 1.1//EN" "http://www.w3.org/Graphics/SVG/1.1/DTD/svg11.dtd">
<svg xmlns="http://www.w3.org/2000/svg" version="1.1" width="3176px" height="1589px" style="shape-rendering:geometricPrecision; text-rendering:geometricPrecision; image-rendering:optimizeQuality; fill-rule:evenodd; clip-rule:evenodd" xmlns:xlink="http://www.w3.org/1999/xlink">
<g><path style="opacity:0.996" fill="#b5b5b6" d="M 882.5,-0.5 C 882.833,-0.5 883.167,-0.5 883.5,-0.5C 884.167,0.833333 884.833,0.833333 885.5,-0.5C 885.833,-0.5 886.167,-0.5 886.5,-0.5C 887.167,0.833333 887.833,0.833333 888.5,-0.5C 888.833,-0.5 889.167,-0.5 889.5,-0.5C 890.167,0.833333 890.833,0.833333 891.5,-0.5C 891.833,-0.5 892.167,-0.5 892.5,-0.5C 893.167,0.833333 893.833,0.833333 894.5,-0.5C 894.833,-0.5 895.167,-0.5 895.5,-0.5C 896.167,0.833333 896.833,0.833333 897.5,-0.5C 897.833,-0.5 898.167,-0.5 898.5,-0.5C 899.167,0.833333 899.833,0.833333 900.5,-0.5C 900.833,-0.5 901.167,-0.5 901.5,-0.5C 902.167,0.833333 902.833,0.833333 903.5,-0.5C 903.833,-0.5 904.167,-0.5 904.5,-0.5C 905.167,0.833333 905.833,0.833333 906.5,-0.5C 906.833,-0.5 907.167,-0.5 907.5,-0.5C 908.167,0.833333 908.833,0.833333 909.5,-0.5C 909.833,-0.5 910.167,-0.5 910.5,-0.5C 911.167,0.833333 911.833,0.833333 912.5,-0.5C 912.833,-0.5 913.167,-0.5 913.5,-0.5C 914.167,0.833333 914.833,0.833333 915.5,-0.5C 915.833,-0.5 916.167,-0.5 916.5,-0.5C 917.167,0.833333 917.833,0.833333 918.5,-0.5C 918.833,-0.5 919.167,-0.5 919.5,-0.5C 921.323,52.2846 922.156,105.285 922,158.5C 927.84,144.351 936.34,132.185 947.5,122C 961.888,113.193 975.888,113.86 989.5,124C 999.672,133.504 1007.5,144.67 1013,157.5C 1022.62,181.923 1028.29,207.256 1030,233.5C 1033.04,265.797 1033.04,298.131 1030,330.5C 1028.16,357.678 1022.5,384.012 1013,409.5C 1007.34,423.992 998.844,436.492 987.5,447C 974.121,456.805 960.788,456.805 947.5,447C 934.084,434.344 924.584,419.177 919,401.5C 918.5,416.496 918.333,431.496 918.5,446.5C 905.5,446.5 892.5,446.5 879.5,446.5C 879.5,297.833 879.5,149.167 879.5,0.5C 880.791,0.737305 881.791,0.403972 882.5,-0.5 Z M 953.5,181.5 C 961.283,181.809 967.45,185.142 972,191.5C 979.648,204.109 984.314,217.776 986,232.5C 991.083,272.554 990.083,312.221 983,351.5C 980.124,363.763 974.29,374.263 965.5,383C 955.892,387.589 947.725,385.756 941,377.5C 929.907,359.478 923.907,339.811 923,318.5C 921.04,293.497 921.04,268.497 923,243.5C 924.046,223.962 929.713,205.962 940,189.5C 943.897,185.641 948.397,182.975 953.5,181.5 Z"/></g>
<g><path style="opacity:0.995" fill="#b5b5b6" d="M 1351.5,-0.5 C 1351.83,-0.5 1352.17,-0.5 1352.5,-0.5C 1353.17,0.833333 1353.83,0.833333 1354.5,-0.5C 1354.83,-0.5 1355.17,-0.5 1355.5,-0.5C 1356.17,0.833333 1356.83,0.833333 1357.5,-0.5C 1357.83,-0.5 1358.17,-0.5 1358.5,-0.5C 1359.17,0.833333 1359.83,0.833333 1360.5,-0.5C 1360.83,-0.5 1361.17,-0.5 1361.5,-0.5C 1362.17,0.833333 1362.83,0.833333 1363.5,-0.5C 1363.83,-0.5 1364.17,-0.5 1364.5,-0.5C 1365.17,0.833333 1365.83,0.833333 1366.5,-0.5C 1366.83,-0.5 1367.17,-0.5 1367.5,-0.5C 1368.17,0.833333 1368.83,0.833333 1369.5,-0.5C 1369.83,-0.5 1370.17,-0.5 1370.5,-0.5C 1371.17,0.833333 1371.83,0.833333 1372.5,-0.5C 1372.83,-0.5 1373.17,-0.5 1373.5,-0.5C 1374.17,0.833333 1374.83,0.833333 1375.5,-0.5C 1375.83,-0.5 1376.17,-0.5 1376.5,-0.5C 1377.17,0.833333 1377.83,0.833333 1378.5,-0.5C 1378.83,-0.5 1379.17,-0.5 1379.5,-0.5C 1380.17,0.833333 1380.83,0.833333 1381.5,-0.5C 1381.83,-0.5 1382.17,-0.5 1382.5,-0.5C 1383.17,0.833333 1383.83,0.833333 1384.5,-0.5C 1384.83,-0.5 1385.17,-0.5 1385.5,-0.5C 1386.17,0.833333 1386.83,0.833333 1387.5,-0.5C 1387.83,-0.5 1388.17,-0.5 1388.5,-0.5C 1390.33,77.621 1391.16,155.954 1391,234.5C 1406.6,197.874 1422.1,161.207 1437.5,124.5C 1438.24,123.713 1439.08,123.047 1440,122.5C 1455.67,123.833 1471.33,123.833 1487,122.5C 1487.87,123.108 1488.37,123.941 1488.5,125C 1470.61,163.777 1453.28,202.777 1436.5,242C 1455.41,310.124 1474.07,378.29 1492.5,446.5C 1477.5,446.5 1462.5,446.5 1447.5,446.5C 1435.45,398.629 1422.62,350.963 1409,303.5C 1402.73,316.38 1396.73,329.38 1391,342.5C 1390.5,377.165 1390.33,411.832 1390.5,446.5C 1376.5,446.5 1362.5,446.5 1348.5,446.5C 1348.5,297.833 1348.5,149.167 1348.5,0.5C 1349.79,0.737305 1350.79,0.403972 1351.5,-0.5 Z"/></g>
<g><path style="opacity:0.998" fill="#e52129" d="M 687.5,1588.5 C 482.833,1588.5 278.167,1588.5 73.5,1588.5C 56.1435,1585.01 42.6435,1575.68 33,1560.5C 15.4445,1531.31 5.11118,1499.64 2,1465.5C 1.12157,1454.35 0.288235,1443.35 -0.5,1432.5C -0.5,1010.17 -0.5,587.833 -0.5,165.5C -0.0400109,129.698 6.79332,95.0316 20,61.5C 27.0831,44.1535 37.9164,29.6535 52.5,18C 57.3849,14.7027 62.7183,12.3694 68.5,11C 276.167,10.3333 483.833,10.3333 691.5,11C 706.463,15.6283 718.296,24.4616 727,37.5C 742.929,63.28 752.929,91.28 757,121.5C 758.366,131.464 759.366,141.464 760,151.5C 760.667,583.167 760.667,1014.83 760,1446.5C 758.663,1483.52 749.663,1518.52 733,1551.5C 725.167,1566 714,1577.17 699.5,1585C 695.457,1586.49 691.457,1587.66 687.5,1588.5 Z"/></g>
<g><path style="opacity:1" fill="#fdfdfd" d="M 371.5,79.5 C 422.918,77.2525 468.918,91.7525 509.5,123C 553.992,159.816 589.159,203.983 615,255.5C 652.561,331.182 679.561,410.516 696,493.5C 715.102,589.916 726.269,687.25 729.5,785.5C 724.5,785.5 719.5,785.5 714.5,785.5C 710.297,676.668 693.131,570.001 663,465.5C 649.372,421.582 631.372,379.582 609,339.5C 591.689,309.17 570.189,282.003 544.5,258C 474.557,200.514 403.223,198.847 330.5,253C 291.784,286.039 260.951,325.206 238,370.5C 201.265,445.323 176.599,523.989 164,606.5C 154.478,665.783 149.311,725.45 148.5,785.5C 111.167,785.5 73.8333,785.5 36.5,785.5C 37.2427,679.893 49.0761,575.56 72,472.5C 89.6177,395.306 117.284,321.972 155,252.5C 177.92,211.225 206.753,174.392 241.5,142C 278.48,108.01 321.813,87.177 371.5,79.5 Z"/></g>
<g><path style="opacity:0.996" fill="#b5b5b6" d="M 1096.5,115.5 C 1112.18,114.294 1126.85,117.461 1140.5,125C 1156.11,139.389 1164.94,157.222 1167,178.5C 1167.89,186.815 1168.55,195.149 1169,203.5C 1169.33,261.833 1169.67,320.167 1170,378.5C 1170.64,401.454 1173.47,424.121 1178.5,446.5C 1164.83,446.5 1151.17,446.5 1137.5,446.5C 1135.62,435.186 1133.79,423.852 1132,412.5C 1125.83,426.668 1116.66,438.501 1104.5,448C 1085.5,457.972 1068.66,455.138 1054,439.5C 1042.38,422.322 1035.72,403.322 1034,382.5C 1030.52,355.303 1032.85,328.637 1041,302.5C 1046.08,286.77 1055.58,274.604 1069.5,266C 1085.02,258.41 1100.68,251.076 1116.5,244C 1120.3,241.695 1123.97,239.195 1127.5,236.5C 1129.26,222.994 1128.43,209.66 1125,196.5C 1120.56,186.356 1112.73,181.356 1101.5,181.5C 1091.04,182.152 1084.2,187.485 1081,197.5C 1078.2,205.721 1075.86,214.054 1074,222.5C 1061.55,217.404 1049.05,212.404 1036.5,207.5C 1039.56,185.256 1045.73,163.923 1055,143.5C 1064.43,127.543 1078.26,118.21 1096.5,115.5 Z M 1127.5,292.5 C 1128.66,308.995 1128.83,325.662 1128,342.5C 1127.65,359.578 1121.81,374.412 1110.5,387C 1101.39,395.51 1092.56,395.343 1084,386.5C 1073.82,367.687 1071.82,348.02 1078,327.5C 1080.33,320.838 1084.5,315.671 1090.5,312C 1103.07,305.768 1115.41,299.268 1127.5,292.5 Z"/></g>
<g><path style="opacity:0.994" fill="#b5b5b6" d="M 1274.5,115.5 C 1289.39,115.527 1301.22,121.527 1310,133.5C 1319.31,147.383 1324.98,162.717 1327,179.5C 1328.7,191.776 1329.7,204.109 1330,216.5C 1330.5,293.166 1330.67,369.833 1330.5,446.5C 1316.5,446.5 1302.5,446.5 1288.5,446.5C 1288.95,371.819 1288.45,297.152 1287,222.5C 1286.49,211.122 1283.49,200.456 1278,190.5C 1269.92,180.52 1260.76,179.353 1250.5,187C 1243.46,194.566 1238.63,203.399 1236,213.5C 1234.13,221.072 1232.79,228.738 1232,236.5C 1230.56,306.486 1230.06,376.486 1230.5,446.5C 1216.5,446.5 1202.5,446.5 1188.5,446.5C 1188.33,338.833 1188.5,231.166 1189,123.5C 1201.57,122.36 1214.07,122.36 1226.5,123.5C 1227.33,138.155 1227.83,152.822 1228,167.5C 1233.86,150.273 1243.36,135.439 1256.5,123C 1262.17,119.397 1268.17,116.897 1274.5,115.5 Z"/></g>
<g><path style="opacity:1" fill="#fdfdfd" d="M 419.5,239.5 C 457.32,236.703 491.653,246.203 522.5,268C 560.718,297.221 590.551,333.387 612,376.5C 641.696,436.252 663.029,498.919 676,564.5C 690.662,637.459 699.162,711.126 701.5,785.5C 697.167,785.5 692.833,785.5 688.5,785.5C 684.968,702.568 671.802,621.235 649,541.5C 636.704,500.913 619.037,462.913 596,427.5C 577.831,400.326 554.331,379.16 525.5,364C 488.087,348.655 452.421,351.988 418.5,374C 390.409,394.423 367.576,419.59 350,449.5C 318.464,506.44 297.464,567.106 287,631.5C 278.17,682.458 273.337,733.792 272.5,785.5C 235.833,785.5 199.167,785.5 162.5,785.5C 162.629,685.429 176.796,587.429 205,491.5C 221.4,437.575 245.067,387.242 276,340.5C 297.967,308.199 325.467,281.699 358.5,261C 377.555,249.787 397.888,242.62 419.5,239.5 Z"/></g>
<g><path style="opacity:1" fill="#fdfdfd" d="M 471.5,385.5 C 499.56,384.022 524.893,391.522 547.5,408C 573.483,428.315 593.983,453.149 609,482.5C 630.298,524.393 645.631,568.393 655,614.5C 666.364,671.278 672.864,728.611 674.5,786.5C 669.5,786.5 664.5,786.5 659.5,786.5C 658.749,729.907 651.249,674.241 637,619.5C 627.53,584.565 612.197,552.565 591,523.5C 579.84,510.002 566.34,499.502 550.5,492C 531.672,484.41 513.005,484.743 494.5,493C 475.67,502.157 460.17,515.324 448,532.5C 430.142,558.702 416.475,587.035 407,617.5C 391.511,672.725 383.344,729.058 382.5,786.5C 350.833,786.5 319.167,786.5 287.5,786.5C 286.796,714.205 295.962,643.205 315,573.5C 328.371,524.091 350.704,479.424 382,439.5C 400.238,417.926 422.405,401.759 448.5,391C 456.194,388.7 463.86,386.866 471.5,385.5 Z"/></g>
<g><path style="opacity:1" fill="#332b2a" d="M 1188.5,561.5 C 1214.23,562.104 1239.89,562.437 1265.5,562.5C 1266.5,613.496 1266.83,664.496 1266.5,715.5C 1239.83,715.5 1213.17,715.5 1186.5,715.5C 1185.84,663.95 1186.51,612.617 1188.5,561.5 Z"/></g>
<g><path style="opacity:1" fill="#332b2a" d="M 993.5,785.5 C 1052.69,782.899 1092.52,809.233 1113,864.5C 1122.99,892.456 1130.16,921.123 1134.5,950.5C 1109.92,961.255 1084.92,971.255 1059.5,980.5C 1057.12,967.989 1053.96,955.656 1050,943.5C 1038.31,910.477 1015.48,898.643 981.5,908C 963.099,913.743 952.599,926.243 950,945.5C 947.609,960.021 949.942,973.688 957,986.5C 960.167,991 964,994.833 968.5,998C 993.046,1013.78 1018.71,1027.78 1045.5,1040C 1072.74,1053.88 1095.57,1073.04 1114,1097.5C 1128.76,1121.44 1137.76,1147.44 1141,1175.5C 1146.83,1220.45 1145.17,1265.12 1136,1309.5C 1128.91,1339.68 1116.91,1367.68 1100,1393.5C 1077.46,1424.31 1046.96,1439.65 1008.5,1439.5C 973.186,1439.42 943.686,1426.42 920,1400.5C 895.027,1367.87 878.694,1331.2 871,1290.5C 867.942,1276.42 865.442,1262.26 863.5,1248C 869.75,1244.58 876.417,1241.91 883.5,1240C 903.768,1233.52 924.101,1227.35 944.5,1221.5C 946.026,1243.27 950.86,1264.27 959,1284.5C 976.187,1318.68 1002.35,1327.84 1037.5,1312C 1052.8,1301.24 1061.3,1286.41 1063,1267.5C 1065.2,1251.53 1063.54,1235.86 1058,1220.5C 1051.25,1210.86 1042.42,1203.69 1031.5,1199C 994.075,1183.21 959.408,1162.88 927.5,1138C 910.361,1121.57 897.861,1102.07 890,1079.5C 879.056,1046.23 873.889,1012.06 874.5,977C 873.868,934.829 881.701,894.329 898,855.5C 906.694,834.818 919.861,817.651 937.5,804C 954.631,792.901 973.297,786.734 993.5,785.5 Z"/></g>
<g><path style="opacity:1" fill="#332c2a" d="M 1485.5,785.5 C 1501.77,784.485 1516.77,788.318 1530.5,797C 1546.29,808.12 1558.46,822.287 1567,839.5C 1576.69,860.903 1583.36,883.236 1587,906.5C 1592.09,947.899 1594.59,989.399 1594.5,1031C 1594.66,1161.96 1594.5,1293.13 1594,1424.5C 1567.24,1425.49 1540.41,1425.83 1513.5,1425.5C 1513.67,1296.5 1513.5,1167.5 1513,1038.5C 1513.06,1012.6 1510.73,986.935 1506,961.5C 1502.43,944.843 1494.59,930.677 1482.5,919C 1470.4,911.034 1458.07,911.034 1445.5,919C 1431.82,930.025 1421.99,943.858 1416,960.5C 1411.26,973.138 1407.92,986.138 1406,999.5C 1403.12,1024.08 1401.46,1048.75 1401,1073.5C 1400.67,1190.5 1400.33,1307.5 1400,1424.5C 1373.24,1425.49 1346.41,1425.83 1319.5,1425.5C 1319.33,1217.17 1319.5,1008.83 1320,800.5C 1344.76,799.506 1369.59,799.172 1394.5,799.5C 1394.33,829.169 1394.5,858.835 1395,888.5C 1404.3,862.893 1416.97,839.226 1433,817.5C 1443.21,805.614 1455.37,796.447 1469.5,790C 1474.87,788.16 1480.21,786.66 1485.5,785.5 Z"/></g>
<g><path style="opacity:1" fill="#332b2a" d="M 1755.5,785.5 C 1777.18,784.336 1798.18,787.503 1818.5,795C 1838.56,805.061 1854.06,819.894 1865,839.5C 1878.09,864.194 1885.42,890.527 1887,918.5C 1889.91,959.11 1891.41,999.776 1891.5,1040.5C 1890.02,1128.95 1890.19,1217.95 1892,1307.5C 1893.59,1347.06 1899.09,1386.06 1908.5,1424.5C 1882.17,1425.67 1855.84,1425.83 1829.5,1425C 1825.17,1403.01 1821.67,1380.84 1819,1358.5C 1807.41,1383.09 1791.58,1404.59 1771.5,1423C 1742.87,1443.84 1713.54,1444.84 1683.5,1426C 1666.37,1411.51 1653.87,1393.68 1646,1372.5C 1634.81,1343.2 1628.47,1312.86 1627,1281.5C 1623.32,1233.98 1628.99,1187.65 1644,1142.5C 1653.77,1114.4 1671.27,1092.57 1696.5,1077C 1718.09,1065.13 1740.42,1054.8 1763.5,1046C 1780.74,1038.14 1796.9,1028.64 1812,1017.5C 1812.99,995.357 1811.66,973.357 1808,951.5C 1802.43,925.436 1786.26,912.436 1759.5,912.5C 1740.89,913.224 1728.06,922.224 1721,939.5C 1714.46,956.307 1709.8,973.64 1707,991.5C 1683.59,982.475 1660.09,973.642 1636.5,965C 1635.42,964.326 1634.75,963.326 1634.5,962C 1639.06,924.176 1648.56,887.676 1663,852.5C 1680.62,811.688 1711.45,789.355 1755.5,785.5 Z M 1810.5,1126.5 C 1811.83,1137.31 1812.5,1148.48 1812.5,1160C 1812.65,1186.9 1811.48,1213.73 1809,1240.5C 1805.81,1269.04 1793.98,1293.21 1773.5,1313C 1752.98,1327.83 1735.81,1324.66 1722,1303.5C 1706.4,1272.31 1702.4,1239.65 1710,1205.5C 1714.1,1188.43 1723.26,1174.93 1737.5,1165C 1757.19,1154.49 1777.19,1144.49 1797.5,1135C 1802.24,1132.64 1806.57,1129.81 1810.5,1126.5 Z"/></g>
<g><path style="opacity:1" fill="#332b2a" d="M 2012.5,800.5 C 2012.33,829.169 2012.5,857.835 2013,886.5C 2013.51,885.473 2014.01,884.473 2014.5,883.5C 2021.03,860.107 2029.53,837.441 2040,815.5C 2060.62,781.139 2086.79,776.306 2118.5,801C 2124.68,806.167 2129.68,812.167 2133.5,819C 2125.43,866.559 2117.1,914.059 2108.5,961.5C 2102.01,952.841 2094.34,945.341 2085.5,939C 2075.28,932.965 2065.28,933.298 2055.5,940C 2044.35,950.132 2037.18,962.632 2034,977.5C 2028.39,1000.52 2024.72,1023.86 2023,1047.5C 2020.64,1090.7 2019.14,1133.87 2018.5,1177C 2018.51,1259.63 2018.51,1342.46 2018.5,1425.5C 1991.83,1425.5 1965.17,1425.5 1938.5,1425.5C 1938.5,1216.83 1938.5,1008.17 1938.5,799.5C 1963.34,799.169 1988.01,799.502 2012.5,800.5 Z"/></g>
<g><path style="opacity:1" fill="#332b2a" d="M 2294.5,785.5 C 2317.81,784.405 2336.97,792.738 2352,810.5C 2368.12,832.476 2379.45,856.809 2386,883.5C 2395.42,859.994 2407.42,837.994 2422,817.5C 2433.16,802.508 2447.66,792.342 2465.5,787C 2492.81,782.737 2515.31,791.237 2533,812.5C 2550.86,837.391 2562.53,865.058 2568,895.5C 2573.43,932.187 2576.26,969.021 2576.5,1006C 2576.5,1145.63 2576.5,1285.46 2576.5,1425.5C 2549.83,1425.5 2523.17,1425.5 2496.5,1425.5C 2496.67,1304.17 2496.5,1182.83 2496,1061.5C 2495.7,1037.82 2495.03,1014.16 2494,990.5C 2493.41,973.056 2490.41,956.056 2485,939.5C 2481.55,930.413 2476.05,922.913 2468.5,917C 2456.47,910.887 2445.13,912.22 2434.5,921C 2420.49,935.854 2411.32,953.354 2407,973.5C 2403.59,987.32 2401.25,1001.32 2400,1015.5C 2397.55,1045.68 2396.05,1075.85 2395.5,1106C 2395.5,1212.29 2395.5,1318.79 2395.5,1425.5C 2368.83,1425.5 2342.17,1425.5 2315.5,1425.5C 2315.67,1291.83 2315.5,1158.17 2315,1024.5C 2314.59,1009.49 2313.93,994.488 2313,979.5C 2312.23,960.766 2307.57,943.099 2299,926.5C 2289.84,914.16 2278.01,910.326 2263.5,915C 2252.06,920.11 2243.56,928.276 2238,939.5C 2226.18,963.779 2219.51,989.445 2218,1016.5C 2216.38,1036.8 2215.38,1057.14 2215,1077.5C 2214.5,1193.5 2214.33,1309.5 2214.5,1425.5C 2187.83,1425.5 2161.17,1425.5 2134.5,1425.5C 2134.5,1216.83 2134.5,1008.17 2134.5,799.5C 2159.17,799.5 2183.83,799.5 2208.5,799.5C 2208.33,826.835 2208.5,854.169 2209,881.5C 2218.18,858.126 2230.18,836.459 2245,816.5C 2255.21,804.614 2267.37,795.447 2281.5,789C 2286,787.961 2290.33,786.794 2294.5,785.5 Z"/></g>
<g><path style="opacity:1" fill="#332b2a" d="M 2736.5,785.5 C 2789.8,780.549 2827.96,801.882 2851,849.5C 2859.61,868.954 2864.95,889.288 2867,910.5C 2870.5,949.921 2872.34,989.421 2872.5,1029C 2871.86,1072.77 2871.53,1117.11 2871.5,1162C 2871.41,1211.84 2871.91,1261.68 2873,1311.5C 2874.81,1349.72 2880.31,1387.38 2889.5,1424.5C 2862.84,1425.5 2836.17,1425.83 2809.5,1425.5C 2806.41,1403.35 2802.91,1381.35 2799,1359.5C 2787.87,1383.26 2772.7,1404.09 2753.5,1422C 2726.18,1442.98 2697.51,1444.98 2667.5,1428C 2650.19,1414.68 2637.36,1397.84 2629,1377.5C 2613.53,1338.01 2606.03,1297.01 2606.5,1254.5C 2606.56,1220.15 2611.39,1186.48 2621,1153.5C 2630.02,1120.58 2648.85,1095.08 2677.5,1077C 2684.83,1073 2692.17,1069 2699.5,1065C 2722.19,1055.82 2744.52,1045.82 2766.5,1035C 2775.76,1029.79 2784.6,1023.95 2793,1017.5C 2793.76,995.7 2792.43,974.034 2789,952.5C 2783.72,925.396 2767.22,912.063 2739.5,912.5C 2727.01,912.83 2716.84,917.83 2709,927.5C 2704.28,934.276 2700.61,941.609 2698,949.5C 2693.69,963.403 2690.02,977.403 2687,991.5C 2664.01,982.279 2640.84,973.445 2617.5,965C 2616.38,964.161 2615.71,962.994 2615.5,961.5C 2619.82,924.551 2628.99,888.884 2643,854.5C 2660.5,812.815 2691.67,789.815 2736.5,785.5 Z M 2792.5,1125.5 C 2793.87,1160.36 2793.37,1195.36 2791,1230.5C 2789.12,1258.14 2779.79,1282.81 2763,1304.5C 2754.66,1315.01 2743.83,1321.01 2730.5,1322.5C 2718.87,1321.27 2710.04,1315.6 2704,1305.5C 2689.96,1279.25 2684.63,1251.25 2688,1221.5C 2689.42,1205.89 2694.42,1191.56 2703,1178.5C 2707.58,1173.25 2712.74,1168.75 2718.5,1165C 2737.52,1154.82 2756.86,1145.15 2776.5,1136C 2782.41,1133.22 2787.75,1129.72 2792.5,1125.5 Z"/></g>
<g><path style="opacity:1" fill="#332b2a" d="M 3175.5,1204.5 C 3175.5,1220.83 3175.5,1237.17 3175.5,1253.5C 3172.94,1296.73 3161.77,1337.73 3142,1376.5C 3110.02,1431.05 3063.19,1450.22 3001.5,1434C 2979.89,1426.79 2962.06,1414.29 2948,1396.5C 2924.78,1364.38 2909.45,1328.71 2902,1289.5C 2899.12,1275.35 2896.62,1261.19 2894.5,1247C 2921.36,1237.99 2948.36,1229.49 2975.5,1221.5C 2977.32,1246.8 2983.82,1270.8 2995,1293.5C 3010.98,1317.27 3032.81,1324.77 3060.5,1316C 3080.5,1306.98 3091.67,1291.48 3094,1269.5C 3096.74,1253.15 3095.4,1237.15 3090,1221.5C 3086.55,1215.71 3082.05,1210.88 3076.5,1207C 3052.04,1194.6 3027.71,1181.94 3003.5,1169C 2979.38,1156.22 2958.55,1139.38 2941,1118.5C 2922.03,1088.26 2911.03,1055.26 2908,1019.5C 2903.18,974.215 2906.51,929.549 2918,885.5C 2924.4,864.377 2933.73,844.71 2946,826.5C 2967.99,798.339 2996.99,784.673 3033,785.5C 3061.14,784.881 3086.31,793.048 3108.5,810C 3124.8,826.092 3136.97,844.925 3145,866.5C 3154.81,893.414 3161.65,921.08 3165.5,949.5C 3165.41,951.425 3164.41,952.592 3162.5,953C 3138.17,962.275 3113.84,971.442 3089.5,980.5C 3087.98,960.451 3082.15,941.785 3072,924.5C 3062.47,911.233 3049.47,904.9 3033,905.5C 2994.37,906.807 2977.04,926.807 2981,965.5C 2982.83,980.327 2989.99,991.827 3002.5,1000C 3011.57,1006.06 3020.9,1011.73 3030.5,1017C 3052.64,1027.57 3074.31,1038.9 3095.5,1051C 3137.16,1076.79 3161.99,1113.96 3170,1162.5C 3172.47,1176.57 3174.3,1190.57 3175.5,1204.5 Z"/></g>
<g><path style="opacity:1" fill="#332b2a" d="M 1186.5,799.5 C 1213.17,799.5 1239.83,799.5 1266.5,799.5C 1266.5,1008.17 1266.5,1216.83 1266.5,1425.5C 1239.83,1425.5 1213.17,1425.5 1186.5,1425.5C 1186.5,1216.83 1186.5,1008.17 1186.5,799.5 Z"/></g>
<g><path style="opacity:0.173" fill="#5b2a2a" d="M 2012.5,800.5 C 2013.17,828.167 2013.83,855.833 2014.5,883.5C 2014.01,884.473 2013.51,885.473 2013,886.5C 2012.5,857.835 2012.33,829.169 2012.5,800.5 Z"/></g>
<g><path style="opacity:1" fill="#fdfdfd" d="M 36.5,815.5 C 41.5,815.5 46.5,815.5 51.5,815.5C 56.1288,915.403 70.9621,1013.74 96,1110.5C 113.165,1175.71 140.165,1236.37 177,1292.5C 196.167,1319.67 219.333,1342.83 246.5,1362C 299.93,1394.52 354.263,1395.85 409.5,1366C 438.586,1348.02 463.752,1325.52 485,1298.5C 518.199,1254.45 543.866,1206.12 562,1153.5C 592.24,1064.3 609.906,972.634 615,878.5C 616.282,857.516 617.115,836.516 617.5,815.5C 654.833,815.5 692.167,815.5 729.5,815.5C 729.141,922.896 716.975,1028.9 693,1133.5C 675.438,1208.42 648.438,1279.76 612,1347.5C 587.523,1391.24 556.689,1430.07 519.5,1464C 487.993,1491.59 451.66,1509.92 410.5,1519C 366.207,1526.45 324.54,1519.12 285.5,1497C 252.344,1477.3 223.844,1452.14 200,1421.5C 170.318,1382.5 145.984,1340.16 127,1294.5C 93.2142,1210.36 69.8808,1123.36 57,1033.5C 46.6512,961.163 39.8179,888.496 36.5,815.5 Z"/></g>
<g><path style="opacity:1" fill="#fdfdfd" d="M 64.5,815.5 C 69.1667,815.5 73.8333,815.5 78.5,815.5C 81.4396,900.248 94.9396,983.248 119,1064.5C 133.562,1112.63 156.229,1156.3 187,1195.5C 204.213,1215.72 225.047,1230.89 249.5,1241C 283.823,1251.43 316.156,1247.1 346.5,1228C 361.867,1217.64 375.7,1205.47 388,1191.5C 420.574,1150.36 444.241,1104.36 459,1053.5C 481.549,975.822 493.049,896.489 493.5,815.5C 530.502,815.333 567.502,815.5 604.5,816C 603.211,909.021 590.711,1000.52 567,1090.5C 549.797,1155.23 522.13,1214.89 484,1269.5C 462.579,1298.26 436.746,1322.09 406.5,1341C 354.737,1370.17 303.403,1369.5 252.5,1339C 225.39,1320.56 202.223,1298.06 183,1271.5C 155.526,1230.55 133.859,1186.55 118,1139.5C 92.2075,1057.43 75.8741,973.425 69,887.5C 66.9873,863.528 65.4873,839.528 64.5,815.5 Z"/></g>
<g><path style="opacity:1" fill="#fdfdfd" d="M 91.5,815.5 C 96.5,815.5 101.5,815.5 106.5,815.5C 107.749,868.578 114.582,920.912 127,972.5C 134.706,1003.63 146.706,1032.96 163,1060.5C 174.888,1079.05 190.055,1094.22 208.5,1106C 239.08,1119.85 267.414,1116.18 293.5,1095C 313.825,1076.87 329.659,1055.37 341,1030.5C 361.132,984.192 373.799,935.859 379,885.5C 381.274,862.21 382.774,838.877 383.5,815.5C 415.167,815.5 446.833,815.5 478.5,815.5C 479.561,893.575 468.727,969.908 446,1044.5C 432.465,1088.92 411.132,1128.92 382,1164.5C 361.891,1187.95 337.058,1204.11 307.5,1213C 270.976,1219.79 238.643,1211.12 210.5,1187C 185.689,1163.89 165.856,1137.06 151,1106.5C 133.603,1068.97 120.603,1029.97 112,989.5C 100.232,932.087 93.3985,874.087 91.5,815.5 Z"/></g>
</svg>
