<?xml version="1.0" encoding="UTF-8"?>
<!DOCTYPE svg PUBLIC "-//W3C//DTD SVG 1.1//EN" "http://www.w3.org/Graphics/SVG/1.1/DTD/svg11.dtd">
<svg xmlns="http://www.w3.org/2000/svg" version="1.1" width="3176px" height="1588px" style="shape-rendering:geometricPrecision; text-rendering:geometricPrecision; image-rendering:optimizeQuality; fill-rule:evenodd; clip-rule:evenodd" xmlns:xlink="http://www.w3.org/1999/xlink">
<g><path style="opacity:1" fill="#273270" d="M 1015.5,-0.5 C 1386.17,-0.5 1756.83,-0.5 2127.5,-0.5C 2128.67,283.431 2128.83,567.431 2128,851.5C 1942.9,852.166 1757.74,852.5 1572.5,852.5C 1386.79,852.165 1201.29,852.165 1016,852.5C 1015.5,568.167 1015.33,283.834 1015.5,-0.5 Z"/></g>
<g><path style="opacity:1" fill="#b2902a" d="M 1038.5,17.5 C 1038.5,189.833 1038.5,362.167 1038.5,534.5C 1094.17,534.5 1149.83,534.5 1205.5,534.5C 1149.67,535.499 1093.67,535.832 1037.5,535.5C 1037.17,362.666 1037.5,189.999 1038.5,17.5 Z"/></g>
<g><path style="opacity:1" fill="#f1ba0b" d="M 1038.5,17.5 C 1091.17,17.5 1143.83,17.5 1196.5,17.5C 1196.5,36.1667 1196.5,54.8333 1196.5,73.5C 1273.18,73.2317 1346.18,91.065 1415.5,127C 1457.02,149.52 1490.52,180.687 1516,220.5C 1551.22,286.487 1546.56,349.487 1502,409.5C 1470.39,448.093 1431.55,477.259 1385.5,497C 1327.05,521.979 1267.05,534.479 1205.5,534.5C 1149.83,534.5 1094.17,534.5 1038.5,534.5C 1038.5,362.167 1038.5,189.833 1038.5,17.5 Z"/></g>
<g><path style="opacity:1" fill="#f1ba0b" d="M 2105.5,534.5 C 2087.33,534.17 2069.33,534.503 2051.5,535.5C 2049.16,588.346 2027.83,632.18 1987.5,667C 1929.92,712.224 1865.25,729.224 1793.5,718C 1728.82,706.946 1678.32,674.446 1642,620.5C 1627.59,596.266 1619.42,570.099 1617.5,542C 1617.5,367.374 1617.5,192.541 1617.5,17.5C 1780.17,17.5 1942.83,17.5 2105.5,17.5C 2105.5,189.833 2105.5,362.167 2105.5,534.5 Z"/></g>
<g><path style="opacity:1" fill="#5f5953" d="M 2051.5,535.5 C 2069.33,534.503 2087.33,534.17 2105.5,534.5C 2105.22,535.289 2104.72,535.956 2104,536.5C 2086.39,536.279 2068.89,535.945 2051.5,535.5 Z"/></g>
<g><path style="opacity:1" fill="#f1ba0b" d="M 1332.5,649.5 C 1397.59,646.948 1457.59,663.782 1512.5,700C 1560.08,733.286 1592.41,777.786 1609.5,833.5C 1435.17,834.833 1260.83,834.833 1086.5,833.5C 1107.56,767.18 1148.56,717.347 1209.5,684C 1248.21,663.908 1289.21,652.408 1332.5,649.5 Z"/></g>
<g><path style="opacity:0.999" fill="#322b2b" d="M 625.5,978.5 C 638.833,978.5 652.167,978.5 665.5,978.5C 665.333,999.836 665.5,1021.17 666,1042.5C 691.777,1021.69 717.277,1000.52 742.5,979C 760.167,978.333 777.833,978.333 795.5,979C 771.788,998.381 747.788,1017.38 723.5,1036C 748.833,1066 774.167,1096 799.5,1126C 782.5,1126.67 765.5,1126.67 748.5,1126C 731,1103.17 713.5,1080.33 696,1057.5C 686,1065.5 676,1073.5 666,1081.5C 665.5,1096.5 665.333,1111.5 665.5,1126.5C 652.167,1126.5 638.833,1126.5 625.5,1126.5C 625.5,1077.17 625.5,1027.83 625.5,978.5 Z"/></g>
<g><path style="opacity:1" fill="#322b2b" d="M 818.5,978.5 C 866.167,978.5 913.833,978.5 961.5,978.5C 961.5,987.167 961.5,995.833 961.5,1004.5C 927.167,1004.5 892.833,1004.5 858.5,1004.5C 858.5,1015.17 858.5,1025.83 858.5,1036.5C 890.5,1036.5 922.5,1036.5 954.5,1036.5C 954.5,1044.83 954.5,1053.17 954.5,1061.5C 922.5,1061.5 890.5,1061.5 858.5,1061.5C 858.5,1074.5 858.5,1087.5 858.5,1100.5C 894.167,1100.5 929.833,1100.5 965.5,1100.5C 965.5,1109.17 965.5,1117.83 965.5,1126.5C 916.5,1126.5 867.5,1126.5 818.5,1126.5C 818.5,1077.17 818.5,1027.83 818.5,978.5 Z"/></g>
<g><path style="opacity:0.998" fill="#322b2b" d="M 997.5,978.5 C 1017.08,978.174 1036.58,978.507 1056,979.5C 1067.33,1012.17 1078.67,1044.83 1090,1077.5C 1101.33,1044.83 1112.67,1012.17 1124,979.5C 1143.43,978.341 1162.93,978.174 1182.5,979C 1183.12,1027.09 1183.45,1075.26 1183.5,1123.5C 1183.17,1124.17 1182.83,1124.83 1182.5,1125.5C 1170.52,1126.5 1158.52,1126.83 1146.5,1126.5C 1146.67,1088.83 1146.5,1051.17 1146,1013.5C 1133.87,1050.9 1121.53,1088.23 1109,1125.5C 1096.25,1126.49 1083.41,1126.82 1070.5,1126.5C 1058.64,1088.76 1046.48,1051.09 1034,1013.5C 1033.5,1051.17 1033.33,1088.83 1033.5,1126.5C 1021.08,1127.13 1008.92,1126.47 997,1124.5C 996.172,1075.76 996.339,1027.1 997.5,978.5 Z"/></g>
<g><path style="opacity:1" fill="#322b2b" d="M 1220.5,978.5 C 1268.17,978.5 1315.83,978.5 1363.5,978.5C 1363.5,987.167 1363.5,995.833 1363.5,1004.5C 1329.17,1004.5 1294.83,1004.5 1260.5,1004.5C 1260.5,1015.17 1260.5,1025.83 1260.5,1036.5C 1292.5,1036.5 1324.5,1036.5 1356.5,1036.5C 1356.5,1044.83 1356.5,1053.17 1356.5,1061.5C 1324.5,1061.5 1292.5,1061.5 1260.5,1061.5C 1260.5,1074.5 1260.5,1087.5 1260.5,1100.5C 1296.17,1100.5 1331.83,1100.5 1367.5,1100.5C 1367.5,1109.17 1367.5,1117.83 1367.5,1126.5C 1318.5,1126.5 1269.5,1126.5 1220.5,1126.5C 1220.5,1077.17 1220.5,1027.83 1220.5,978.5 Z"/></g>
<g><path style="opacity:0.998" fill="#322b2b" d="M 1399.5,978.5 C 1412.5,978.333 1425.5,978.5 1438.5,979C 1463.88,1010.92 1489.38,1042.76 1515,1074.5C 1515.33,1042.83 1515.67,1011.17 1516,979.5C 1528.09,978.512 1540.25,978.178 1552.5,978.5C 1552.5,1027.83 1552.5,1077.17 1552.5,1126.5C 1539.5,1126.67 1526.5,1126.5 1513.5,1126C 1487.88,1094.59 1462.38,1063.09 1437,1031.5C 1436.5,1063.16 1436.33,1094.83 1436.5,1126.5C 1424.17,1126.5 1411.83,1126.5 1399.5,1126.5C 1399.5,1077.17 1399.5,1027.83 1399.5,978.5 Z"/></g>
<g><path style="opacity:1" fill="#322b2b" d="M 1579.5,978.5 C 1630.5,978.5 1681.5,978.5 1732.5,978.5C 1732.5,987.167 1732.5,995.833 1732.5,1004.5C 1713.5,1004.5 1694.5,1004.5 1675.5,1004.5C 1675.5,1045.17 1675.5,1085.83 1675.5,1126.5C 1662.5,1126.5 1649.5,1126.5 1636.5,1126.5C 1636.5,1085.83 1636.5,1045.17 1636.5,1004.5C 1617.5,1004.5 1598.5,1004.5 1579.5,1004.5C 1579.5,995.833 1579.5,987.167 1579.5,978.5 Z"/></g>
<g><path style="opacity:1" fill="#322b2b" d="M 1756.5,978.5 C 1804.17,978.5 1851.83,978.5 1899.5,978.5C 1899.5,987.167 1899.5,995.833 1899.5,1004.5C 1865.17,1004.5 1830.83,1004.5 1796.5,1004.5C 1796.5,1015.17 1796.5,1025.83 1796.5,1036.5C 1828.5,1036.5 1860.5,1036.5 1892.5,1036.5C 1892.5,1044.83 1892.5,1053.17 1892.5,1061.5C 1860.5,1061.5 1828.5,1061.5 1796.5,1061.5C 1796.5,1074.5 1796.5,1087.5 1796.5,1100.5C 1832.17,1100.5 1867.83,1100.5 1903.5,1100.5C 1903.5,1109.17 1903.5,1117.83 1903.5,1126.5C 1854.5,1126.5 1805.5,1126.5 1756.5,1126.5C 1756.5,1077.17 1756.5,1027.83 1756.5,978.5 Z"/></g>
<g><path style="opacity:0.999" fill="#322b2b" d="M 1935.5,978.5 C 1968.5,978.333 2001.5,978.5 2034.5,979C 2051.32,978.423 2066.65,982.756 2080.5,992C 2097.76,1010.73 2097.76,1029.39 2080.5,1048C 2069.55,1055.43 2057.55,1060.09 2044.5,1062C 2051.67,1065.17 2058.34,1069.17 2064.5,1074C 2079.76,1090.7 2094.43,1107.87 2108.5,1125.5C 2092.84,1126.67 2077.18,1126.83 2061.5,1126C 2046.22,1107.05 2029.88,1089.05 2012.5,1072C 2008.56,1069.2 2004.22,1067.2 1999.5,1066C 1991.49,1065.56 1983.49,1065.06 1975.5,1064.5C 1975.04,1084.86 1975.04,1105.03 1975.5,1125C 1962.33,1126.48 1948.99,1126.98 1935.5,1126.5C 1935.5,1077.17 1935.5,1027.83 1935.5,978.5 Z M 1975.5,1004.5 C 1996.55,1004.05 2017.55,1004.55 2038.5,1006C 2051.79,1010.18 2055.62,1018.68 2050,1031.5C 2046.73,1034.88 2042.9,1037.38 2038.5,1039C 2017.2,1040.57 1995.86,1040.9 1974.5,1040C 1975.34,1028.26 1975.67,1016.42 1975.5,1004.5 Z"/></g>
<g><path style="opacity:1" fill="#322b2b" d="M 2127.5,978.5 C 2140.83,978.5 2154.17,978.5 2167.5,978.5C 2167.5,1027.83 2167.5,1077.17 2167.5,1126.5C 2154.17,1126.5 2140.83,1126.5 2127.5,1126.5C 2127.5,1077.17 2127.5,1027.83 2127.5,978.5 Z"/></g>
<g><path style="opacity:0.999" fill="#322b2b" d="M 2258.5,978.5 C 2272.52,978.167 2286.52,978.501 2300.5,979.5C 2326.65,1028.13 2351.98,1077.13 2376.5,1126.5C 2362.5,1126.67 2348.5,1126.5 2334.5,1126C 2328.83,1115 2323.17,1104 2317.5,1093C 2292.17,1092.33 2266.83,1092.33 2241.5,1093C 2236.15,1104.03 2230.82,1115.03 2225.5,1126C 2211.84,1126.5 2198.17,1126.67 2184.5,1126.5C 2209.15,1077.21 2233.81,1027.88 2258.5,978.5 Z M 2278.5,1014.5 C 2287.66,1031.49 2296.33,1048.83 2304.5,1066.5C 2287.51,1067.67 2270.51,1067.83 2253.5,1067C 2262.26,1049.64 2270.6,1032.14 2278.5,1014.5 Z"/></g>
<g><path style="opacity:1" fill="#322b2b" d="M 2397.5,978.5 C 2410.17,978.333 2422.84,978.5 2435.5,979C 2461.71,1010.88 2487.55,1043.04 2513,1075.5C 2513.5,1043.17 2513.67,1010.84 2513.5,978.5C 2525.83,978.5 2538.17,978.5 2550.5,978.5C 2550.5,1027.83 2550.5,1077.17 2550.5,1126.5C 2537.16,1126.67 2523.83,1126.5 2510.5,1126C 2485.33,1094.83 2460.17,1063.67 2435,1032.5C 2434.5,1063.83 2434.33,1095.16 2434.5,1126.5C 2422.17,1126.5 2409.83,1126.5 2397.5,1126.5C 2397.5,1077.17 2397.5,1027.83 2397.5,978.5 Z"/></g>
<g><path style="opacity:1" fill="#322b2b" d="M -0.5,1355.5 C -0.5,1306.5 -0.5,1257.5 -0.5,1208.5C 35.476,1206.91 71.476,1207.41 107.5,1210C 138.079,1216.35 150.912,1234.85 146,1265.5C 139.685,1282.6 127.519,1293.1 109.5,1297C 86.2704,1299.9 62.9371,1301.07 39.5,1300.5C 39.5,1318.83 39.5,1337.17 39.5,1355.5C 26.1667,1355.5 12.8333,1355.5 -0.5,1355.5 Z M 39.5,1233.5 C 55.8686,1233.13 72.202,1233.63 88.5,1235C 104.365,1238.9 109.531,1248.4 104,1263.5C 96.8422,1270.99 88.0089,1274.49 77.5,1274C 64.8377,1274.5 52.1711,1274.67 39.5,1274.5C 39.5,1260.83 39.5,1247.17 39.5,1233.5 Z"/></g>
<g><path style="opacity:1" fill="#322b2b" d="M 178.5,1207.5 C 226.167,1207.5 273.833,1207.5 321.5,1207.5C 321.5,1216.17 321.5,1224.83 321.5,1233.5C 287.167,1233.5 252.833,1233.5 218.5,1233.5C 218.5,1244.17 218.5,1254.83 218.5,1265.5C 250.5,1265.5 282.5,1265.5 314.5,1265.5C 314.5,1273.83 314.5,1282.17 314.5,1290.5C 282.5,1290.5 250.5,1290.5 218.5,1290.5C 218.5,1303.5 218.5,1316.5 218.5,1329.5C 254.167,1329.5 289.833,1329.5 325.5,1329.5C 325.5,1338.17 325.5,1346.83 325.5,1355.5C 276.5,1355.5 227.5,1355.5 178.5,1355.5C 178.5,1306.17 178.5,1256.83 178.5,1207.5 Z"/></g>
<g><path style="opacity:0.999" fill="#322b2b" d="M 358.5,1207.5 C 371.5,1207.5 384.5,1207.5 397.5,1207.5C 397.333,1229.17 397.5,1250.84 398,1272.5C 423.541,1250.62 449.375,1229.12 475.5,1208C 492.843,1207.17 510.176,1207.33 527.5,1208.5C 503.339,1227.17 479.672,1246.34 456.5,1266C 481.487,1295.66 506.487,1325.32 531.5,1355C 514.5,1355.67 497.5,1355.67 480.5,1355C 463,1332.17 445.5,1309.33 428,1286.5C 418,1294.5 408,1302.5 398,1310.5C 397.5,1325.5 397.333,1340.5 397.5,1355.5C 384.167,1355.5 370.833,1355.5 357.5,1355.5C 357.172,1306.09 357.505,1256.76 358.5,1207.5 Z"/></g>
<g><path style="opacity:1" fill="#322b2b" d="M 590.5,1329.5 C 625.663,1330.5 660.996,1330.83 696.5,1330.5C 696.5,1338.5 696.5,1346.5 696.5,1354.5C 648.167,1354.5 599.833,1354.5 551.5,1354.5C 551.5,1305.83 551.5,1257.17 551.5,1208.5C 598.664,1207.5 645.997,1207.17 693.5,1207.5C 693.5,1216.17 693.5,1224.83 693.5,1233.5C 659.167,1233.5 624.833,1233.5 590.5,1233.5C 590.5,1244.17 590.5,1254.83 590.5,1265.5C 622.5,1265.5 654.5,1265.5 686.5,1265.5C 686.5,1273.83 686.5,1282.17 686.5,1290.5C 654.5,1290.5 622.5,1290.5 590.5,1290.5C 590.5,1303.5 590.5,1316.5 590.5,1329.5 Z"/></g>
<g><path style="opacity:0.999" fill="#322b2b" d="M 730.5,1207.5 C 760.835,1207.33 791.168,1207.5 821.5,1208C 835.508,1207.79 849.175,1209.79 862.5,1214C 886.9,1226.87 893.067,1245.7 881,1270.5C 876.308,1276.53 870.475,1281.03 863.5,1284C 855.388,1287.11 847.054,1289.44 838.5,1291C 850.694,1296.52 861.194,1304.36 870,1314.5C 880.644,1327.98 891.477,1341.31 902.5,1354.5C 886.844,1355.67 871.177,1355.83 855.5,1355C 840.218,1336.05 823.885,1318.05 806.5,1301C 802.065,1297.63 797.065,1295.63 791.5,1295C 784.174,1294.5 776.841,1294.33 769.5,1294.5C 769.5,1314.83 769.5,1335.17 769.5,1355.5C 756.167,1355.5 742.833,1355.5 729.5,1355.5C 729.172,1306.09 729.505,1256.76 730.5,1207.5 Z M 769.5,1233.5 C 790.545,1233.06 811.545,1233.56 832.5,1235C 846.216,1239.65 849.883,1248.48 843.5,1261.5C 840.461,1264.69 836.794,1266.85 832.5,1268C 811.545,1269.44 790.545,1269.94 769.5,1269.5C 769.5,1257.5 769.5,1245.5 769.5,1233.5 Z"/></g>
<g><path style="opacity:0.998" fill="#322b2b" d="M 992.5,1207.5 C 1005.5,1207.5 1018.5,1207.5 1031.5,1207.5C 1031.67,1243.17 1031.5,1278.83 1031,1314.5C 1029.04,1333.8 1018.87,1346.63 1000.5,1353C 984.779,1357.26 968.779,1358.59 952.5,1357C 924.05,1353.72 909.383,1337.89 908.5,1309.5C 920.803,1308.2 933.137,1307.2 945.5,1306.5C 945.386,1322.72 953.386,1331.05 969.5,1331.5C 983.605,1332.89 991.105,1326.56 992,1312.5C 992.5,1277.5 992.667,1242.5 992.5,1207.5 Z"/></g>
<g><path style="opacity:0.999" fill="#322b2b" d="M 1127.5,1207.5 C 1141.52,1207.17 1155.52,1207.5 1169.5,1208.5C 1194.83,1257.17 1220.17,1305.83 1245.5,1354.5C 1231.18,1355.5 1216.85,1355.83 1202.5,1355.5C 1198.11,1344.22 1192.78,1333.39 1186.5,1323C 1160.84,1322.5 1135.17,1322.33 1109.5,1322.5C 1104.92,1333.5 1099.92,1344.33 1094.5,1355C 1080.84,1355.5 1067.17,1355.67 1053.5,1355.5C 1077.63,1305.9 1102.3,1256.57 1127.5,1207.5 Z M 1147.5,1243.5 C 1156.23,1260.8 1164.9,1278.3 1173.5,1296C 1156.5,1296.67 1139.5,1296.67 1122.5,1296C 1131.23,1278.71 1139.56,1261.21 1147.5,1243.5 Z"/></g>
<g><path style="opacity:0.999" fill="#322b2b" d="M 1321.5,1207.5 C 1335.41,1207.18 1349.25,1207.51 1363,1208.5C 1388.37,1257.41 1413.87,1306.25 1439.5,1355C 1425.17,1355.67 1410.83,1355.67 1396.5,1355C 1391.27,1344.47 1385.93,1333.97 1380.5,1323.5C 1354.84,1322.33 1329.17,1322.17 1303.5,1323C 1298.36,1333.45 1293.36,1343.95 1288.5,1354.5C 1274.5,1355.83 1260.5,1355.83 1246.5,1354.5C 1271.26,1305.32 1296.26,1256.32 1321.5,1207.5 Z M 1340.5,1244.5 C 1341.38,1244.37 1342.04,1244.7 1342.5,1245.5C 1350.53,1262.23 1358.53,1278.9 1366.5,1295.5C 1349.83,1296.83 1333.17,1296.83 1316.5,1295.5C 1324.8,1278.57 1332.8,1261.57 1340.5,1244.5 Z"/></g>
<g><path style="opacity:1" fill="#322b2b" d="M 1459.5,1207.5 C 1472.17,1207.33 1484.84,1207.5 1497.5,1208C 1523.71,1239.88 1549.55,1272.04 1575,1304.5C 1575.33,1272.5 1575.67,1240.5 1576,1208.5C 1588.09,1207.51 1600.25,1207.18 1612.5,1207.5C 1612.5,1256.83 1612.5,1306.17 1612.5,1355.5C 1599.16,1355.67 1585.83,1355.5 1572.5,1355C 1547.45,1323.74 1522.29,1292.58 1497,1261.5C 1496.5,1292.83 1496.33,1324.16 1496.5,1355.5C 1484.17,1355.5 1471.83,1355.5 1459.5,1355.5C 1459.5,1306.17 1459.5,1256.83 1459.5,1207.5 Z"/></g>
<g><path style="opacity:0.998" fill="#322b2b" d="M 1727.5,1207.5 C 1740.5,1207.5 1753.5,1207.5 1766.5,1207.5C 1766.06,1242.53 1766.56,1277.53 1768,1312.5C 1771.48,1322.17 1778.31,1328 1788.5,1330C 1800.91,1332.21 1813.24,1331.88 1825.5,1329C 1837.85,1323.13 1843.02,1313.3 1841,1299.5C 1841.5,1268.84 1841.67,1238.17 1841.5,1207.5C 1854.5,1207.5 1867.5,1207.5 1880.5,1207.5C 1880.67,1240.83 1880.5,1274.17 1880,1307.5C 1879.64,1328.51 1869.8,1343.01 1850.5,1351C 1835.82,1356.47 1820.65,1358.64 1805,1357.5C 1783.08,1359.52 1762.91,1354.69 1744.5,1343C 1735.81,1335.79 1730.65,1326.62 1729,1315.5C 1727.96,1307.87 1727.29,1300.2 1727,1292.5C 1726.18,1264.09 1726.34,1235.76 1727.5,1207.5 Z"/></g>
<g><path style="opacity:0.999" fill="#322b2b" d="M 1920.5,1207.5 C 1940.08,1207.17 1959.58,1207.51 1979,1208.5C 1990.33,1241.17 2001.67,1273.83 2013,1306.5C 2024.98,1274.06 2036.48,1241.39 2047.5,1208.5C 2067.16,1207.5 2086.82,1207.17 2106.5,1207.5C 2106.5,1256.83 2106.5,1306.17 2106.5,1355.5C 2094.17,1355.5 2081.83,1355.5 2069.5,1355.5C 2069.67,1318.17 2069.5,1280.83 2069,1243.5C 2056.73,1280.82 2044.56,1318.15 2032.5,1355.5C 2019.59,1355.82 2006.75,1355.49 1994,1354.5C 1982,1317.83 1970,1281.17 1958,1244.5C 1957.69,1245.77 1957.19,1246.93 1956.5,1248C 1956.83,1283 1957.17,1318 1957.5,1353C 1957.04,1353.41 1956.71,1353.91 1956.5,1354.5C 1944.52,1355.5 1932.52,1355.83 1920.5,1355.5C 1920.5,1306.17 1920.5,1256.83 1920.5,1207.5 Z"/></g>
<g><path style="opacity:1" fill="#322b2b" d="M 2144.5,1207.5 C 2157.5,1207.5 2170.5,1207.5 2183.5,1207.5C 2183.04,1242.87 2183.54,1278.2 2185,1313.5C 2188.23,1321.06 2193.73,1326.23 2201.5,1329C 2216.75,1332.87 2231.75,1332.21 2246.5,1327C 2251.14,1324.36 2254.31,1320.53 2256,1315.5C 2256.99,1307.97 2257.82,1300.47 2258.5,1293C 2257.34,1264.91 2257.17,1236.74 2258,1208.5C 2271.09,1207.51 2284.25,1207.18 2297.5,1207.5C 2297.67,1239.84 2297.5,1272.17 2297,1304.5C 2297.42,1328.19 2286.59,1344.02 2264.5,1352C 2250.55,1356.68 2236.21,1358.52 2221.5,1357.5C 2200.25,1359.55 2180.59,1355.05 2162.5,1344C 2148.71,1332.08 2142.54,1316.91 2144,1298.5C 2143.18,1268.09 2143.34,1237.76 2144.5,1207.5 Z"/></g>
<g><path style="opacity:0.999" fill="#322b2b" d="M 2337.5,1207.5 C 2357.08,1207.17 2376.58,1207.51 2396,1208.5C 2407.33,1241.17 2418.67,1273.83 2430,1306.5C 2441.73,1273.98 2453.06,1241.32 2464,1208.5C 2483.43,1207.34 2502.93,1207.17 2522.5,1208C 2522.83,1256.33 2523.17,1304.67 2523.5,1353C 2523.04,1353.41 2522.71,1353.91 2522.5,1354.5C 2510.52,1355.5 2498.52,1355.83 2486.5,1355.5C 2486.67,1317.83 2486.5,1280.17 2486,1242.5C 2473.52,1280.09 2461.36,1317.76 2449.5,1355.5C 2436.5,1355.5 2423.5,1355.5 2410.5,1355.5C 2398.64,1317.76 2386.48,1280.09 2374,1242.5C 2373.5,1280.17 2373.33,1317.83 2373.5,1355.5C 2361.16,1355.67 2348.83,1355.5 2336.5,1355C 2336.17,1305.97 2336.51,1256.8 2337.5,1207.5 Z"/></g>
<g><path style="opacity:0.999" fill="#322b2b" d="M 2635.5,1207.5 C 2667.52,1207.15 2699.52,1207.65 2731.5,1209C 2765.39,1212.57 2786.56,1230.74 2795,1263.5C 2801.4,1292.43 2794.23,1317.27 2773.5,1338C 2758.68,1348.88 2742.01,1354.54 2723.5,1355C 2694.17,1355.5 2664.84,1355.67 2635.5,1355.5C 2635.5,1306.17 2635.5,1256.83 2635.5,1207.5 Z M 2674.5,1233.5 C 2691.2,1233.15 2707.87,1233.65 2724.5,1235C 2742.7,1238.87 2752.87,1250.04 2755,1268.5C 2755.67,1277.5 2755.67,1286.5 2755,1295.5C 2753.41,1315.09 2742.91,1326.26 2723.5,1329C 2707.17,1329.5 2690.84,1329.67 2674.5,1329.5C 2674.5,1297.5 2674.5,1265.5 2674.5,1233.5 Z"/></g>
<g><path style="opacity:0.999" fill="#322b2b" d="M 2884.5,1207.5 C 2898.41,1207.18 2912.25,1207.51 2926,1208.5C 2951.37,1257.41 2976.87,1306.25 3002.5,1355C 2988.17,1355.67 2973.83,1355.67 2959.5,1355C 2954.27,1344.47 2948.93,1333.97 2943.5,1323.5C 2917.84,1322.33 2892.17,1322.17 2866.5,1323C 2861.36,1333.45 2856.36,1343.95 2851.5,1354.5C 2837.5,1355.83 2823.5,1355.83 2809.5,1354.5C 2834.77,1305.63 2859.77,1256.63 2884.5,1207.5 Z M 2903.5,1244.5 C 2904.38,1244.37 2905.04,1244.7 2905.5,1245.5C 2913.53,1262.23 2921.53,1278.9 2929.5,1295.5C 2912.83,1296.83 2896.17,1296.83 2879.5,1295.5C 2887.8,1278.57 2895.8,1261.57 2903.5,1244.5 Z"/></g>
<g><path style="opacity:1" fill="#322b2b" d="M 3175.5,1207.5 C 3175.5,1256.83 3175.5,1306.17 3175.5,1355.5C 3162.16,1355.67 3148.83,1355.5 3135.5,1355C 3110.45,1323.74 3085.29,1292.58 3060,1261.5C 3059.5,1292.83 3059.33,1324.16 3059.5,1355.5C 3047.17,1355.5 3034.83,1355.5 3022.5,1355.5C 3022.5,1306.17 3022.5,1256.83 3022.5,1207.5C 3035.17,1207.33 3047.84,1207.5 3060.5,1208C 3086.71,1239.88 3112.55,1272.04 3138,1304.5C 3138.33,1272.5 3138.67,1240.5 3139,1208.5C 3151.09,1207.51 3163.25,1207.18 3175.5,1207.5 Z"/></g>
<g><path style="opacity:0.478" fill="#302a32" d="M 551.5,1208.5 C 551.5,1257.17 551.5,1305.83 551.5,1354.5C 599.833,1354.5 648.167,1354.5 696.5,1354.5C 696.5,1346.5 696.5,1338.5 696.5,1330.5C 660.996,1330.83 625.663,1330.5 590.5,1329.5C 626.167,1329.5 661.833,1329.5 697.5,1329.5C 697.5,1338.17 697.5,1346.83 697.5,1355.5C 648.5,1355.5 599.5,1355.5 550.5,1355.5C 550.168,1306.33 550.501,1257.33 551.5,1208.5 Z"/></g>
<g><path style="opacity:1" fill="#322b2b" d="M 163.5,1437.5 C 199.191,1437.07 234.857,1437.57 270.5,1439C 300.867,1445.35 314.033,1463.85 310,1494.5C 304.612,1509.55 294.279,1519.55 279,1524.5C 273.617,1526.22 268.117,1527.39 262.5,1528C 242.855,1529.27 223.188,1529.77 203.5,1529.5C 203.5,1547.83 203.5,1566.17 203.5,1584.5C 190.167,1584.5 176.833,1584.5 163.5,1584.5C 163.5,1535.5 163.5,1486.5 163.5,1437.5 Z M 203.5,1462.5 C 220.913,1461.99 238.246,1462.83 255.5,1465C 269.332,1469.84 273.499,1479.01 268,1492.5C 261.484,1499.68 253.317,1503.18 243.5,1503C 230.171,1503.5 216.837,1503.67 203.5,1503.5C 203.5,1489.83 203.5,1476.17 203.5,1462.5 Z"/></g>
<g><path style="opacity:1" fill="#322b2b" d="M 342.5,1437.5 C 390.167,1437.5 437.833,1437.5 485.5,1437.5C 485.5,1445.83 485.5,1454.17 485.5,1462.5C 450.833,1462.5 416.167,1462.5 381.5,1462.5C 381.5,1473.17 381.5,1483.83 381.5,1494.5C 413.833,1494.5 446.167,1494.5 478.5,1494.5C 478.817,1503.09 478.483,1511.59 477.5,1520C 445.502,1520.5 413.502,1520.67 381.5,1520.5C 381.5,1533.5 381.5,1546.5 381.5,1559.5C 417.506,1559.17 453.506,1559.5 489.5,1560.5C 489.628,1568.49 489.295,1576.33 488.5,1584C 439.834,1584.5 391.168,1584.67 342.5,1584.5C 342.5,1535.5 342.5,1486.5 342.5,1437.5 Z"/></g>
<g><path style="opacity:0.997" fill="#322b2b" d="M 521.5,1437.5 C 557.168,1437.33 592.835,1437.5 628.5,1438C 646.776,1437.74 661.609,1444.58 673,1458.5C 684.399,1482.3 678.566,1500.47 655.5,1513C 647.112,1516.35 638.445,1518.68 629.5,1520C 642.733,1525.71 653.9,1534.21 663,1545.5C 673.122,1558.62 683.622,1571.46 694.5,1584C 678.49,1584.83 662.49,1584.67 646.5,1583.5C 631.389,1565.55 615.723,1548.05 599.5,1531C 595.557,1528.2 591.223,1526.2 586.5,1525C 577.886,1523.7 569.219,1523.2 560.5,1523.5C 560.5,1543.83 560.5,1564.17 560.5,1584.5C 547.5,1584.5 534.5,1584.5 521.5,1584.5C 521.5,1535.5 521.5,1486.5 521.5,1437.5 Z M 560.5,1462.5 C 581.203,1462.09 601.869,1462.59 622.5,1464C 636.632,1467.45 641.132,1475.95 636,1489.5C 631.931,1494.29 626.764,1497.12 620.5,1498C 600.523,1499.3 580.523,1499.8 560.5,1499.5C 560.5,1487.17 560.5,1474.83 560.5,1462.5 Z"/></g>
<g><path style="opacity:0.999" fill="#322b2b" d="M 804.5,1587.5 C 797.167,1587.5 789.833,1587.5 782.5,1587.5C 766.727,1587.17 751.727,1583.34 737.5,1576C 722.02,1566.21 714.52,1552.05 715,1533.5C 714.5,1501.5 714.333,1469.5 714.5,1437.5C 727.5,1437.5 740.5,1437.5 753.5,1437.5C 753.552,1467.7 753.552,1497.53 753.5,1527C 752.622,1545.6 761.289,1556.6 779.5,1560C 792.569,1562.33 805.236,1560.99 817.5,1556C 822.231,1553.04 825.398,1548.88 827,1543.5C 828.445,1508.19 828.945,1472.86 828.5,1437.5C 841.833,1437.5 855.167,1437.5 868.5,1437.5C 868.48,1467.01 868.48,1496.34 868.5,1525.5C 868.109,1536.4 866.275,1547.07 863,1557.5C 855.906,1571.15 844.739,1579.65 829.5,1583C 821.14,1585.17 812.806,1586.67 804.5,1587.5 Z"/></g>
<g><path style="opacity:0.998" fill="#322b2b" d="M 1057.5,1582.5 C 1057.67,1545.17 1057.5,1507.83 1057,1470.5C 1056.59,1471.9 1056.09,1473.23 1055.5,1474.5C 1043.77,1510.85 1031.94,1547.18 1020,1583.5C 1013.58,1584.16 1007.08,1584.49 1000.5,1584.5C 993.76,1584.48 987.26,1583.81 981,1582.5C 969,1545.83 957,1509.17 945,1472.5C 944.5,1509.83 944.333,1547.17 944.5,1584.5C 932.167,1584.5 919.833,1584.5 907.5,1584.5C 907.5,1535.5 907.5,1486.5 907.5,1437.5C 927.178,1437.17 946.845,1437.5 966.5,1438.5C 977.715,1470.98 989.215,1503.31 1001,1535.5C 1012.27,1503.2 1023.43,1470.87 1034.5,1438.5C 1054.16,1437.5 1073.82,1437.17 1093.5,1437.5C 1093.5,1486.5 1093.5,1535.5 1093.5,1584.5C 1081.16,1584.67 1068.83,1584.5 1056.5,1584C 1057.06,1583.62 1057.39,1583.12 1057.5,1582.5 Z"/></g>
<g><path style="opacity:0.999" fill="#322b2b" d="M 1186.5,1437.5 C 1200.75,1437.18 1214.91,1437.51 1229,1438.5C 1254.17,1486.83 1279.33,1535.17 1304.5,1583.5C 1290.18,1584.5 1275.85,1584.83 1261.5,1584.5C 1256.26,1573.68 1251.26,1562.68 1246.5,1551.5C 1220.83,1551.33 1195.16,1551.5 1169.5,1552C 1164.1,1562.64 1159.1,1573.47 1154.5,1584.5C 1140.48,1584.83 1126.48,1584.5 1112.5,1583.5C 1137.18,1534.81 1161.85,1486.14 1186.5,1437.5 Z M 1206.5,1472.5 C 1215.28,1489.89 1223.95,1507.39 1232.5,1525C 1215.82,1525.83 1199.16,1525.67 1182.5,1524.5C 1190.53,1507.11 1198.53,1489.78 1206.5,1472.5 Z"/></g>
<g><path style="opacity:1" fill="#322b2b" d="M 1325.5,1437.5 C 1338.5,1437.5 1351.5,1437.5 1364.5,1437.5C 1364.5,1456.5 1364.5,1475.5 1364.5,1494.5C 1389.5,1494.5 1414.5,1494.5 1439.5,1494.5C 1439.5,1475.5 1439.5,1456.5 1439.5,1437.5C 1452.83,1437.5 1466.17,1437.5 1479.5,1437.5C 1479.5,1486.5 1479.5,1535.5 1479.5,1584.5C 1466.17,1584.5 1452.83,1584.5 1439.5,1584.5C 1439.5,1563.17 1439.5,1541.83 1439.5,1520.5C 1414.5,1520.5 1389.5,1520.5 1364.5,1520.5C 1364.5,1541.83 1364.5,1563.17 1364.5,1584.5C 1351.5,1584.5 1338.5,1584.5 1325.5,1584.5C 1325.5,1535.5 1325.5,1486.5 1325.5,1437.5 Z"/></g>
<g><path style="opacity:0.999" fill="#322b2b" d="M 1573.5,1437.5 C 1587.75,1437.18 1601.91,1437.51 1616,1438.5C 1641.47,1487.11 1666.63,1535.77 1691.5,1584.5C 1677.5,1584.67 1663.5,1584.5 1649.5,1584C 1644.04,1573.58 1638.71,1563.08 1633.5,1552.5C 1607.84,1551.33 1582.17,1551.17 1556.5,1552C 1551.1,1562.64 1546.1,1573.47 1541.5,1584.5C 1527.48,1584.83 1513.48,1584.5 1499.5,1583.5C 1524.18,1534.81 1548.85,1486.14 1573.5,1437.5 Z M 1593.5,1472.5 C 1602.26,1489.86 1610.93,1507.36 1619.5,1525C 1602.82,1525.83 1586.16,1525.67 1569.5,1524.5C 1578.06,1507.37 1586.06,1490.04 1593.5,1472.5 Z"/></g>
<g><path style="opacity:1" fill="#322b2b" d="M 1712.5,1437.5 C 1725.5,1437.33 1738.5,1437.5 1751.5,1438C 1776.88,1469.92 1802.38,1501.76 1828,1533.5C 1828.5,1501.5 1828.67,1469.5 1828.5,1437.5C 1840.83,1437.5 1853.17,1437.5 1865.5,1437.5C 1865.5,1486.5 1865.5,1535.5 1865.5,1584.5C 1852.16,1584.67 1838.83,1584.5 1825.5,1584C 1800.33,1552.83 1775.17,1521.67 1750,1490.5C 1749.5,1521.83 1749.33,1553.16 1749.5,1584.5C 1737.17,1584.5 1724.83,1584.5 1712.5,1584.5C 1712.5,1535.5 1712.5,1486.5 1712.5,1437.5 Z"/></g>
<g><path style="opacity:0.999" fill="#322b2b" d="M 1980.5,1437.5 C 2016.17,1437.33 2051.83,1437.5 2087.5,1438C 2101.67,1438.17 2114.34,1442.5 2125.5,1451C 2138.03,1463.92 2140.87,1478.75 2134,1495.5C 2129.39,1503.44 2122.89,1509.27 2114.5,1513C 2106.1,1516.27 2097.43,1518.6 2088.5,1520C 2101.03,1525.86 2111.87,1534.03 2121,1544.5C 2131.31,1557.64 2141.81,1570.64 2152.5,1583.5C 2136.84,1584.67 2121.18,1584.83 2105.5,1584C 2090.87,1566.1 2075.54,1548.77 2059.5,1532C 2055.61,1528.89 2051.28,1526.56 2046.5,1525C 2037.55,1523.74 2028.55,1523.24 2019.5,1523.5C 2019.5,1543.83 2019.5,1564.17 2019.5,1584.5C 2006.5,1584.5 1993.5,1584.5 1980.5,1584.5C 1980.5,1535.5 1980.5,1486.5 1980.5,1437.5 Z M 2019.5,1462.5 C 2040.2,1462.09 2060.87,1462.59 2081.5,1464C 2095.36,1467.56 2099.86,1476.06 2095,1489.5C 2090.93,1494.29 2085.76,1497.12 2079.5,1498C 2059.52,1499.3 2039.52,1499.8 2019.5,1499.5C 2019.5,1487.17 2019.5,1474.83 2019.5,1462.5 Z"/></g>
<g><path style="opacity:0.999" fill="#322b2b" d="M 2228.5,1437.5 C 2242.75,1437.18 2256.91,1437.51 2271,1438.5C 2296.47,1487.11 2321.63,1535.77 2346.5,1584.5C 2332.5,1584.67 2318.5,1584.5 2304.5,1584C 2299.04,1573.58 2293.71,1563.08 2288.5,1552.5C 2262.84,1551.33 2237.17,1551.17 2211.5,1552C 2206.37,1562.42 2201.37,1572.92 2196.5,1583.5C 2182.5,1584.83 2168.5,1584.83 2154.5,1583.5C 2179.18,1534.81 2203.85,1486.14 2228.5,1437.5 Z M 2248.5,1472.5 C 2257.26,1489.86 2265.93,1507.36 2274.5,1525C 2257.82,1525.83 2241.16,1525.67 2224.5,1524.5C 2233.05,1507.4 2241.05,1490.07 2248.5,1472.5 Z"/></g>
<g><path style="opacity:0.999" fill="#322b2b" d="M 2367.5,1437.5 C 2380.85,1437.17 2394.18,1437.5 2407.5,1438.5C 2407.45,1458.93 2407.11,1479.43 2406.5,1500C 2407,1500.5 2407.5,1501 2408,1501.5C 2433.17,1480.33 2458.33,1459.17 2483.5,1438C 2501.17,1437.33 2518.83,1437.33 2536.5,1438C 2512.83,1457 2489.17,1476 2465.5,1495C 2490.38,1524.59 2515.38,1554.09 2540.5,1583.5C 2523.5,1584.83 2506.5,1584.83 2489.5,1583.5C 2472.88,1560.59 2455.55,1538.25 2437.5,1516.5C 2427.52,1523.98 2417.69,1531.64 2408,1539.5C 2407.73,1541.1 2407.23,1542.6 2406.5,1544C 2406.39,1557.45 2406.73,1570.79 2407.5,1584C 2394.17,1584.5 2380.84,1584.67 2367.5,1584.5C 2367.5,1535.5 2367.5,1486.5 2367.5,1437.5 Z"/></g>
<g><path style="opacity:0.999" fill="#322b2b" d="M 2540.5,1438.5 C 2555.99,1437.34 2571.66,1437.17 2587.5,1438C 2602.05,1456.92 2616.71,1475.76 2631.5,1494.5C 2645.94,1475.55 2660.61,1456.71 2675.5,1438C 2690.5,1437.33 2705.5,1437.33 2720.5,1438C 2697.33,1465.83 2674.17,1493.67 2651,1521.5C 2650.5,1542.5 2650.33,1563.5 2650.5,1584.5C 2637.16,1584.67 2623.83,1584.5 2610.5,1584C 2610.83,1583.67 2611.17,1583.33 2611.5,1583C 2610.67,1562.57 2610.17,1542.07 2610,1521.5C 2586.97,1493.64 2563.8,1465.98 2540.5,1438.5 Z"/></g>
<g><path style="opacity:0.999" fill="#322b2b" d="M 2769.5,1437.5 C 2783.5,1437.33 2797.5,1437.5 2811.5,1438C 2837.42,1486.51 2863.09,1535.18 2888.5,1584C 2874.17,1584.67 2859.83,1584.67 2845.5,1584C 2840.04,1573.58 2834.71,1563.08 2829.5,1552.5C 2803.83,1551.17 2778.17,1551.17 2752.5,1552.5C 2747.24,1562.68 2742.24,1573.01 2737.5,1583.5C 2723.5,1584.83 2709.5,1584.83 2695.5,1583.5C 2720.7,1535.09 2745.37,1486.42 2769.5,1437.5 Z M 2789.5,1473.5 C 2798.87,1489.9 2807.54,1506.9 2815.5,1524.5C 2798.83,1525.83 2782.17,1525.83 2765.5,1524.5C 2773.77,1507.63 2781.77,1490.63 2789.5,1473.5 Z"/></g>
<g><path style="opacity:1" fill="#322b2b" d="M 2874.5,1437.5 C 2925.5,1437.5 2976.5,1437.5 3027.5,1437.5C 3027.5,1445.83 3027.5,1454.17 3027.5,1462.5C 3008.83,1462.5 2990.17,1462.5 2971.5,1462.5C 2971,1502.75 2971,1542.92 2971.5,1583C 2958.33,1584.48 2944.99,1584.98 2931.5,1584.5C 2931.5,1543.83 2931.5,1503.17 2931.5,1462.5C 2912.5,1462.5 2893.5,1462.5 2874.5,1462.5C 2874.5,1454.17 2874.5,1445.83 2874.5,1437.5 Z"/></g>
<g><path style="opacity:0.224" fill="#2d2b3b" d="M 1057.5,1582.5 C 1056.83,1546.5 1056.17,1510.5 1055.5,1474.5C 1056.09,1473.23 1056.59,1471.9 1057,1470.5C 1057.5,1507.83 1057.67,1545.17 1057.5,1582.5 Z"/></g>
</svg>
