<?xml version="1.0" encoding="UTF-8"?>
<!DOCTYPE svg PUBLIC "-//W3C//DTD SVG 1.1//EN" "http://www.w3.org/Graphics/SVG/1.1/DTD/svg11.dtd">
<svg xmlns="http://www.w3.org/2000/svg" version="1.1" width="3176px" height="1589px" style="shape-rendering:geometricPrecision; text-rendering:geometricPrecision; image-rendering:optimizeQuality; fill-rule:evenodd; clip-rule:evenodd" xmlns:xlink="http://www.w3.org/1999/xlink">
<g><path style="opacity:0.997" fill="#98bd3d" d="M 1998.5,452.5 C 1904.57,510.582 1810.74,568.915 1717,627.5C 1716.63,626.584 1716.13,625.75 1715.5,625C 1726.06,414.261 1645.73,246.095 1474.5,120.5C 1432.45,88.6257 1388.45,59.459 1342.5,33C 1323.17,22.3333 1303.83,11.6667 1284.5,1C 1461.72,21.4667 1629.05,73.4667 1786.5,157C 1880.65,207.778 1964.48,272.278 2038,350.5C 2052.21,367.042 2066.04,383.876 2079.5,401C 2052.44,418.191 2025.44,435.358 1998.5,452.5 Z"/></g>
<g><path style="opacity:0.999" fill="#173665" d="M 1474.5,120.5 C 1645.73,246.095 1726.06,414.261 1715.5,625C 1716.13,625.75 1716.63,626.584 1717,627.5C 1810.74,568.915 1904.57,510.582 1998.5,452.5C 2037.88,506.107 2066.22,565.273 2083.5,630C 2083.36,630.772 2083.02,631.439 2082.5,632C 1821.6,720.024 1560.26,807.857 1298.5,895.5C 1354.82,854.684 1401.65,805.018 1439,746.5C 1504.46,635.822 1518.46,518.822 1481,395.5C 1456.65,322.087 1418.98,256.754 1368,199.5C 1320.09,146.538 1266.26,101.038 1206.5,63C 1297.37,74.8835 1386.7,94.0502 1474.5,120.5 Z"/></g>
<g><path style="opacity:0.122" fill="#1e3238" d="M 1298.5,895.5 C 1297.83,896.167 1297.83,896.167 1298.5,895.5 Z"/></g>
<g><path style="opacity:0.995" fill="#163664" d="M 1789.5,958.5 C 1807.99,958.014 1826.32,958.514 1844.5,960C 1820.28,1045.03 1796.45,1130.19 1773,1215.5C 1754.91,1216.49 1736.74,1216.83 1718.5,1216.5C 1741.85,1130.42 1765.52,1044.42 1789.5,958.5 Z"/></g>
<g><path style="opacity:0.995" fill="#163664" d="M 2390.5,958.5 C 2408.5,958.5 2426.5,958.5 2444.5,958.5C 2421.47,1044.26 2397.97,1129.93 2374,1215.5C 2355.91,1216.49 2337.74,1216.83 2319.5,1216.5C 2342.85,1130.42 2366.52,1044.42 2390.5,958.5 Z"/></g>
<g><path style="opacity:0.986" fill="#98bd3d" d="M 928.5,966.5 C 944.847,966.167 961.18,966.501 977.5,967.5C 976.691,969.071 976.357,970.738 976.5,972.5C 978.167,972.5 979.833,972.5 981.5,972.5C 971.158,1014.2 960.991,1055.87 951,1097.5C 979.833,1078 1008.67,1058.5 1037.5,1039C 1043.41,1039.23 1048.91,1038.06 1054,1035.5C 1073,1036.83 1092,1036.83 1111,1035.5C 1111.75,1036.13 1112.58,1036.63 1113.5,1037C 1113.17,1037.33 1112.83,1037.67 1112.5,1038C 1116.5,1038.33 1120.5,1038.67 1124.5,1039C 1087.83,1063.67 1051.17,1088.33 1014.5,1113C 1036.94,1148.12 1058.61,1183.29 1079.5,1218.5C 1054.51,1219.67 1029.51,1219.83 1004.5,1219C 989.958,1196.08 975.291,1173.25 960.5,1150.5C 951.248,1156.38 942.081,1162.38 933,1168.5C 928.501,1185.16 924.001,1201.83 919.5,1218.5C 898.174,1219.67 876.841,1219.83 855.5,1219C 876.712,1136.98 897.379,1054.82 917.5,972.5C 920.833,972.5 924.167,972.5 927.5,972.5C 927.833,970.5 928.167,968.5 928.5,966.5 Z"/></g>
<g><path style="opacity:0.995" fill="#163664" d="M 2515.5,966.5 C 2532.83,966.5 2550.17,966.5 2567.5,966.5C 2559.8,997.313 2551.46,1027.98 2542.5,1058.5C 2542.83,1058.83 2543.17,1059.17 2543.5,1059.5C 2581.35,1031.42 2622.35,1025.92 2666.5,1043C 2700.26,1060.36 2712.43,1087.53 2703,1124.5C 2694.46,1155.08 2676.63,1178.58 2649.5,1195C 2620.22,1213.99 2588.22,1221.65 2553.5,1218C 2534.93,1215.22 2518.93,1207.38 2505.5,1194.5C 2502.93,1201.6 2500.6,1208.76 2498.5,1216C 2480.83,1216.67 2463.17,1216.67 2445.5,1216C 2468.91,1132.85 2492.25,1049.68 2515.5,966.5 Z M 2588.5,1071.5 C 2601.07,1070.62 2613.4,1071.79 2625.5,1075C 2650.42,1087.75 2657.59,1107.25 2647,1133.5C 2638.38,1152.12 2624.55,1165.29 2605.5,1173C 2585.16,1181.71 2564.5,1182.71 2543.5,1176C 2527.13,1167.95 2519.63,1154.78 2521,1136.5C 2526.52,1107.63 2543.02,1087.8 2570.5,1077C 2576.53,1074.83 2582.53,1073 2588.5,1071.5 Z"/></g>
<g><path style="opacity:0.988" fill="#98bd3d" d="M -0.5,1219.5 C -0.5,1218.5 -0.5,1217.5 -0.5,1216.5C 20.1396,1135.94 40.8063,1055.28 61.5,974.5C 104.829,973.333 148.163,973.167 191.5,974C 216.409,973.381 240.075,978.381 262.5,989C 284.114,1003.5 291.28,1023.33 284,1048.5C 276.736,1068.1 263.569,1082.27 244.5,1091C 277.906,1108.43 285.739,1133.93 268,1167.5C 254.038,1188.07 235.205,1202.24 211.5,1210C 197.747,1213.95 183.747,1216.62 169.5,1218C 112.848,1219.43 56.181,1219.93 -0.5,1219.5 Z M 118.5,1024.5 C 138.169,1024.33 157.836,1024.5 177.5,1025C 187.047,1024.92 196.38,1026.26 205.5,1029C 212.666,1031.83 215.166,1037 213,1044.5C 209.793,1056.04 202.293,1063.2 190.5,1066C 183.93,1067.65 177.264,1068.65 170.5,1069C 149.503,1069.5 128.503,1069.67 107.5,1069.5C 110.7,1054.37 114.367,1039.37 118.5,1024.5 Z M 93.5,1120.5 C 120.502,1120.33 147.502,1120.5 174.5,1121C 185.218,1121.02 195.052,1123.85 204,1129.5C 208.156,1141.71 204.99,1151.88 194.5,1160C 181.792,1165.63 168.458,1168.29 154.5,1168C 130.502,1168.5 106.502,1168.67 82.5,1168.5C 86.1667,1152.5 89.8333,1136.5 93.5,1120.5 Z"/></g>
<g><path style="opacity:0.995" fill="#163665" d="M 1303.5,975.5 C 1336.55,973.245 1368.22,978.745 1398.5,992C 1405.58,995.913 1412.24,1000.41 1418.5,1005.5C 1405.83,1016.67 1392.99,1027.67 1380,1038.5C 1364.54,1026.78 1347.04,1019.95 1327.5,1018C 1305.79,1014.23 1285.12,1017.23 1265.5,1027C 1254.78,1035.21 1251.94,1045.37 1257,1057.5C 1264.31,1063.07 1272.47,1066.9 1281.5,1069C 1298.47,1073.13 1315.47,1077.13 1332.5,1081C 1351.04,1085.19 1367.21,1093.69 1381,1106.5C 1386.43,1113.95 1388.93,1122.28 1388.5,1131.5C 1387.79,1152.08 1380.13,1169.58 1365.5,1184C 1335.48,1208.34 1300.98,1220.18 1262,1219.5C 1223.33,1220.05 1188.17,1209.55 1156.5,1188C 1152.87,1185.37 1149.53,1182.37 1146.5,1179C 1160.69,1167.97 1175.02,1157.14 1189.5,1146.5C 1221.53,1173.84 1258.2,1183.01 1299.5,1174C 1310.49,1171.27 1319.32,1165.43 1326,1156.5C 1331.48,1147.29 1330.32,1139.13 1322.5,1132C 1316.15,1128.55 1309.49,1125.88 1302.5,1124C 1277.51,1118.92 1252.84,1112.58 1228.5,1105C 1195.94,1091.64 1186.44,1068.14 1200,1034.5C 1207.62,1017.74 1219.45,1004.9 1235.5,996C 1256.88,984.494 1279.55,977.661 1303.5,975.5 Z"/></g>
<g><path style="opacity:0.986" fill="#98bd3d" d="M 432.5,1026.5 C 455.688,1024.64 478.355,1027.14 500.5,1034C 531.654,1045.8 543.154,1067.97 535,1100.5C 525,1139.83 515,1179.17 505,1218.5C 484.242,1219.49 463.409,1219.83 442.5,1219.5C 442.846,1216.11 443.512,1212.78 444.5,1209.5C 444.167,1208.83 443.833,1208.17 443.5,1207.5C 408.071,1223.16 371.737,1225.66 334.5,1215C 296.925,1197.87 288.425,1171.37 309,1135.5C 323.127,1119.01 340.961,1108.51 362.5,1104C 370.437,1102.29 378.437,1100.96 386.5,1100C 414.051,1098.93 441.551,1098.1 469,1097.5C 472.005,1082.5 465.838,1074.33 450.5,1073C 428.471,1071 407.138,1074 386.5,1082C 378.383,1085.23 370.383,1088.73 362.5,1092.5C 354.42,1081.34 346.587,1070.01 339,1058.5C 338.251,1057.36 338.417,1056.36 339.5,1055.5C 368.679,1039.55 399.679,1029.88 432.5,1026.5 Z M 399.5,1139.5 C 418.833,1139.5 438.167,1139.5 457.5,1139.5C 455.659,1151.51 449.325,1160.35 438.5,1166C 417.902,1175.91 396.568,1177.91 374.5,1172C 365.42,1167.51 363.586,1161.01 369,1152.5C 371.205,1149.96 373.705,1147.79 376.5,1146C 383.983,1142.75 391.65,1140.58 399.5,1139.5 Z"/></g>
<g><path style="opacity:0.985" fill="#98bd3d" d="M 730.5,1026.5 C 755.788,1023.86 779.454,1028.69 801.5,1041C 817.29,1053.07 824.957,1068.57 824.5,1087.5C 814.939,1131.41 804.272,1175.08 792.5,1218.5C 770.177,1219.5 747.843,1219.83 725.5,1219.5C 734.329,1184.19 743.162,1148.85 752,1113.5C 759.162,1087.2 748.995,1074.2 721.5,1074.5C 703.386,1074.93 687.052,1080.43 672.5,1091C 664.961,1097.24 659.794,1105.07 657,1114.5C 648.165,1149.17 639.332,1183.84 630.5,1218.5C 608.177,1219.5 585.843,1219.83 563.5,1219.5C 579.185,1156.1 595.185,1092.76 611.5,1029.5C 633.823,1028.5 656.157,1028.17 678.5,1028.5C 677.156,1034.2 675.989,1039.87 675,1045.5C 692.311,1035.45 710.811,1029.12 730.5,1026.5 Z"/></g>
<g><path style="opacity:0.995" fill="#163664" d="M 1960.5,1033.5 C 1991.66,1030.71 2020.66,1037.21 2047.5,1053C 2038.36,1063.98 2028.69,1074.48 2018.5,1084.5C 1995.04,1071.03 1970.04,1066.87 1943.5,1072C 1933.19,1073.82 1926.52,1079.66 1923.5,1089.5C 1925.03,1093.2 1927.7,1095.7 1931.5,1097C 1944.76,1100.59 1958.1,1103.92 1971.5,1107C 1989.03,1111.01 2004.53,1118.85 2018,1130.5C 2024.94,1143.55 2025.28,1156.89 2019,1170.5C 2012.27,1184.56 2002.11,1195.39 1988.5,1203C 1959.1,1218.01 1928.1,1222.68 1895.5,1217C 1870.91,1214.03 1848.91,1205.03 1829.5,1190C 1841,1179.17 1852.5,1168.33 1864,1157.5C 1891.64,1179.45 1922.47,1185.95 1956.5,1177C 1961.67,1174.5 1965.5,1170.67 1968,1165.5C 1969.42,1159.56 1967.25,1155.39 1961.5,1153C 1955.99,1150.28 1950.33,1147.94 1944.5,1146C 1931.77,1142.54 1919.11,1138.87 1906.5,1135C 1868.04,1121.28 1860.87,1098.12 1885,1065.5C 1900.37,1050.91 1918.54,1041.41 1939.5,1037C 1946.64,1035.81 1953.64,1034.64 1960.5,1033.5 Z"/></g>
<g><path style="opacity:0.996" fill="#173664" d="M 2193.5,1033.5 C 2219.81,1031.11 2244.81,1035.61 2268.5,1047C 2295.17,1062.52 2304.67,1085.35 2297,1115.5C 2294.49,1125.21 2291.82,1134.88 2289,1144.5C 2231.57,1145.5 2174.07,1145.83 2116.5,1145.5C 2115.6,1156.31 2119.6,1164.81 2128.5,1171C 2147.61,1181.32 2167.94,1184.65 2189.5,1181C 2207.93,1178.28 2224.59,1171.45 2239.5,1160.5C 2246.15,1168.32 2252.98,1175.98 2260,1183.5C 2261.29,1185.05 2261.96,1186.72 2262,1188.5C 2219.16,1216.2 2172.66,1225.03 2122.5,1215C 2069.54,1197.57 2053.38,1162.74 2074,1110.5C 2088.79,1080.71 2111.63,1059.54 2142.5,1047C 2159,1040.13 2176,1035.63 2193.5,1033.5 Z M 2245.5,1110.5 C 2205.66,1110.83 2166,1110.5 2126.5,1109.5C 2131.56,1097.61 2139.89,1088.77 2151.5,1083C 2173.64,1071.2 2196.97,1067.87 2221.5,1073C 2240.76,1078.36 2248.76,1090.86 2245.5,1110.5 Z"/></g>
<g><path style="opacity:0.993" fill="#163665" d="M 2863.5,1033.5 C 2886.62,1031.51 2908.96,1034.68 2930.5,1043C 2946.77,1050.7 2955.1,1063.54 2955.5,1081.5C 2955.42,1089.33 2954.25,1097 2952,1104.5C 2941.67,1141.5 2931.33,1178.5 2921,1215.5C 2904.91,1216.49 2888.74,1216.82 2872.5,1216.5C 2873.8,1210.46 2874.97,1204.46 2876,1198.5C 2847.5,1215.78 2816.67,1222.28 2783.5,1218C 2764.48,1216.08 2749.32,1207.58 2738,1192.5C 2728.65,1159.24 2739.49,1134.74 2770.5,1119C 2788.04,1111.37 2806.37,1107.03 2825.5,1106C 2850.16,1105.5 2874.83,1105.33 2899.5,1105.5C 2906.39,1083.57 2898.39,1071.73 2875.5,1070C 2858.11,1068.63 2841.11,1070.63 2824.5,1076C 2814.5,1079.42 2804.67,1083.25 2795,1087.5C 2789.04,1079.6 2783.54,1071.27 2778.5,1062.5C 2777.41,1061.39 2777.41,1060.39 2778.5,1059.5C 2805.23,1045.14 2833.57,1036.47 2863.5,1033.5 Z M 2829.5,1136.5 C 2849.5,1136.5 2869.5,1136.5 2889.5,1136.5C 2888.13,1149.42 2882.46,1159.92 2872.5,1168C 2847.49,1184.03 2821.16,1186.7 2793.5,1176C 2787.96,1172.18 2786.13,1167.01 2788,1160.5C 2791.77,1149.17 2799.61,1142.34 2811.5,1140C 2817.58,1138.5 2823.58,1137.34 2829.5,1136.5 Z"/></g>
<g><path style="opacity:0.994" fill="#173664" d="M 3175.5,1033.5 C 3175.5,1033.83 3175.5,1034.17 3175.5,1034.5C 3171.39,1047.94 3167.72,1061.6 3164.5,1075.5C 3123.14,1073.91 3094.31,1091.91 3078,1129.5C 3069.36,1158.39 3061.2,1187.39 3053.5,1216.5C 3035.83,1216.5 3018.17,1216.5 3000.5,1216.5C 3016.85,1156.42 3033.52,1096.42 3050.5,1036.5C 3068.17,1035.17 3085.83,1035.17 3103.5,1036.5C 3101.09,1044.64 3098.76,1052.81 3096.5,1061C 3096.83,1061.5 3097.17,1062 3097.5,1062.5C 3120.08,1043.75 3146.08,1034.08 3175.5,1033.5 Z"/></g>
<g><path style="opacity:0.122" fill="#1d3138" d="M 1635.5,1036.5 C 1652.99,1035.5 1670.66,1035.17 1688.5,1035.5C 1688.74,1036.79 1688.4,1037.79 1687.5,1038.5C 1670.53,1036.51 1653.2,1035.85 1635.5,1036.5 Z"/></g>
<g><path style="opacity:0.995" fill="#173664" d="M 1635.5,1036.5 C 1653.2,1035.85 1670.53,1036.51 1687.5,1038.5C 1671.64,1097.62 1655.3,1156.62 1638.5,1215.5C 1620.83,1216.83 1603.17,1216.83 1585.5,1215.5C 1588.08,1207.94 1589.91,1200.27 1591,1192.5C 1558.78,1217.01 1522.95,1224.51 1483.5,1215C 1455.86,1206.7 1443.36,1188.2 1446,1159.5C 1456.22,1118.3 1467.22,1077.3 1479,1036.5C 1496.42,1035.51 1513.92,1035.17 1531.5,1035.5C 1523.3,1068.31 1514.46,1100.97 1505,1133.5C 1495.05,1164.18 1506.05,1179.85 1538,1180.5C 1561.75,1180.29 1581.75,1171.62 1598,1154.5C 1603,1147.5 1606.66,1139.84 1609,1131.5C 1617.74,1099.79 1626.57,1068.12 1635.5,1036.5 Z"/></g>
<g><path style="opacity:0.267" fill="#0b1d38" d="M 2126.5,1109.5 C 2166,1110.5 2205.66,1110.83 2245.5,1110.5C 2205.66,1111.83 2165.66,1111.83 2125.5,1110.5C 2125.62,1109.89 2125.96,1109.56 2126.5,1109.5 Z"/></g>
<g><path style="opacity:0.992" fill="#000102" d="M -0.5,1471.5 C -0.5,1470.17 -0.5,1468.83 -0.5,1467.5C 1.69749,1454.44 4.03082,1441.28 6.5,1428C 5.43928,1421.86 5.27261,1415.69 6,1409.5C 8.6547,1395.74 10.8214,1381.91 12.5,1368C 11.634,1363.18 11.4674,1358.35 12,1353.5C 14.8156,1342.9 17.3156,1332.24 19.5,1321.5C 18.6227,1313.79 19.1227,1306.12 21,1298.5C 22.5292,1297.27 23.6959,1295.77 24.5,1294C 22.2738,1292.38 20.9404,1290.21 20.5,1287.5C 21.6784,1280.1 23.1784,1272.76 25,1265.5C 36.836,1255.16 50.336,1247.83 65.5,1243.5C 70.4033,1245.11 72.7366,1248.61 72.5,1254C 64.8679,1288.68 70.3679,1321.18 89,1351.5C 96.2222,1363.03 106.389,1367.2 119.5,1364C 133.059,1357.06 145.393,1348.39 156.5,1338C 171.101,1324.4 184.601,1309.9 197,1294.5C 207.346,1282.1 220.179,1273.94 235.5,1270C 237.815,1271.11 239.315,1272.94 240,1275.5C 241.618,1294.15 239.618,1312.48 234,1330.5C 228.928,1346.72 223.261,1362.72 217,1378.5C 215.793,1384.2 214.46,1389.87 213,1395.5C 205.919,1407.15 201.919,1419.82 201,1433.5C 198.115,1444.38 194.615,1455.04 190.5,1465.5C 188.176,1466.66 185.842,1467.83 183.5,1469C 162.986,1488.33 157.82,1484.83 168,1458.5C 173.904,1418.65 182.237,1379.31 193,1340.5C 193.946,1338.04 193.446,1336.04 191.5,1334.5C 182.087,1341.41 173.42,1349.24 165.5,1358C 158.167,1364 150.833,1370 143.5,1376C 134.164,1380.33 125.498,1385.66 117.5,1392C 105.125,1397.92 92.7922,1397.92 80.5,1392C 74.4071,1387.91 68.9071,1383.08 64,1377.5C 60.5465,1371.58 56.3798,1366.25 51.5,1361.5C 48.0773,1370.52 45.5773,1379.85 44,1389.5C 38.4318,1419.25 32.7651,1448.92 27,1478.5C 25.5806,1479.46 24.0806,1480.29 22.5,1481C 16.1654,1482.17 9.83204,1483.33 3.5,1484.5C 2.55805,1484.39 1.72472,1484.06 1,1483.5C 0.437504,1481.13 0.60417,1478.8 1.5,1476.5C 1.19921,1474.58 0.532541,1472.91 -0.5,1471.5 Z"/></g>
<g><path style="opacity:0.991" fill="#010102" d="M 1542.5,1244.5 C 1556.67,1245.2 1561.84,1252.53 1558,1266.5C 1557.35,1270.64 1555.52,1274.14 1552.5,1277C 1540.33,1284.59 1528,1291.92 1515.5,1299C 1509.4,1302.25 1503.07,1304.92 1496.5,1307C 1484.75,1308.45 1482.41,1304.45 1489.5,1295C 1494.26,1292.2 1498.76,1289.04 1503,1285.5C 1503.43,1284.4 1502.93,1283.73 1501.5,1283.5C 1486.43,1291.08 1473.59,1301.41 1463,1314.5C 1459.79,1321.11 1459.79,1327.78 1463,1334.5C 1465.94,1339.77 1469.27,1344.77 1473,1349.5C 1491.7,1367.87 1510.7,1385.87 1530,1403.5C 1533.39,1407.61 1535.72,1412.28 1537,1417.5C 1537.53,1424.93 1538.7,1432.09 1540.5,1439C 1542.17,1439.67 1543.83,1439.67 1545.5,1439C 1550.76,1432.9 1556.76,1427.73 1563.5,1423.5C 1565.88,1405.74 1572.88,1390.08 1584.5,1376.5C 1591.35,1369.82 1598.35,1363.32 1605.5,1357C 1616.26,1350.61 1627.59,1349.27 1639.5,1353C 1644.79,1358.42 1647.79,1364.92 1648.5,1372.5C 1645.71,1381.04 1641.88,1389.04 1637,1396.5C 1625.62,1408.88 1613.29,1420.22 1600,1430.5C 1597.67,1438.34 1600.51,1443.5 1608.5,1446C 1624.4,1449.16 1639.4,1446.49 1653.5,1438C 1661.73,1429.1 1670.57,1420.93 1680,1413.5C 1681.41,1410.34 1683.08,1407.34 1685,1404.5C 1702.74,1384.42 1717.74,1362.42 1730,1338.5C 1732.54,1335.63 1735.37,1333.13 1738.5,1331C 1746.31,1329.59 1750.31,1332.92 1750.5,1341C 1749.75,1344.52 1748.91,1348.02 1748,1351.5C 1735.61,1381.34 1723.61,1411.34 1712,1441.5C 1704.26,1466.56 1697.92,1491.9 1693,1517.5C 1697.04,1509.69 1699.37,1501.36 1700,1492.5C 1708.22,1474.73 1715.88,1456.73 1723,1438.5C 1729.63,1427.42 1736.13,1416.25 1742.5,1405C 1756.67,1395.04 1769.17,1396.87 1780,1410.5C 1784.63,1419.6 1790.13,1428.1 1796.5,1436C 1800.34,1438.39 1803,1437.39 1804.5,1433C 1808.4,1429.47 1812.56,1426.3 1817,1423.5C 1819.8,1406.43 1826.46,1391.1 1837,1377.5C 1844.14,1371.37 1850.97,1364.87 1857.5,1358C 1869.23,1350.21 1881.56,1348.87 1894.5,1354C 1902.52,1363.94 1903.35,1374.44 1897,1385.5C 1894.73,1390.1 1892.06,1394.43 1889,1398.5C 1877.3,1409.87 1865.3,1420.87 1853,1431.5C 1851.53,1436.73 1853.03,1440.9 1857.5,1444C 1867.23,1449.02 1877.23,1449.69 1887.5,1446C 1893.74,1444.25 1899.74,1441.92 1905.5,1439C 1928.17,1419.33 1950.83,1399.67 1973.5,1380C 1983.97,1372.97 1994.97,1371.8 2006.5,1376.5C 2009.51,1379.7 2010.85,1383.54 2010.5,1388C 2006.95,1406.92 2000.45,1424.76 1991,1441.5C 1990.23,1443.4 1990.56,1445.07 1992,1446.5C 2004.92,1434.57 2018.09,1423.07 2031.5,1412C 2040.33,1406.22 2050,1402.72 2060.5,1401.5C 2067.19,1401.78 2073.02,1404.12 2078,1408.5C 2082.78,1418.83 2087.95,1428.99 2093.5,1439C 2097.35,1441.64 2101.35,1441.97 2105.5,1440C 2127.45,1420.72 2148.11,1400.05 2167.5,1378C 2174.01,1375.33 2180.68,1373.16 2187.5,1371.5C 2191.32,1372.15 2193.65,1374.32 2194.5,1378C 2188.58,1393.68 2183.08,1409.52 2178,1425.5C 2175.86,1435.91 2176.02,1446.25 2178.5,1456.5C 2179,1456.83 2179.5,1457.17 2180,1457.5C 2184.11,1455.53 2188.27,1453.7 2192.5,1452C 2199.03,1445.13 2205.86,1438.63 2213,1432.5C 2222.19,1423.31 2230.69,1413.47 2238.5,1403C 2246.29,1399.41 2253.79,1399.91 2261,1404.5C 2262.15,1412.84 2263.49,1421.18 2265,1429.5C 2265.26,1436.1 2268.6,1439.43 2275,1439.5C 2277.9,1439.36 2280.73,1438.86 2283.5,1438C 2290.24,1433.93 2296.41,1429.1 2302,1423.5C 2309.85,1396.15 2320.18,1369.82 2333,1344.5C 2339.91,1335.01 2346.58,1325.34 2353,1315.5C 2369.95,1293.55 2389.79,1274.71 2412.5,1259C 2417.86,1255.81 2423.52,1253.31 2429.5,1251.5C 2432.28,1252.06 2434.62,1253.39 2436.5,1255.5C 2442.01,1254.18 2445.85,1256.18 2448,1261.5C 2448.27,1264.22 2448.77,1266.89 2449.5,1269.5C 2446.75,1277.08 2444.25,1284.75 2442,1292.5C 2430.34,1315.16 2416.67,1336.49 2401,1356.5C 2397.03,1359.46 2393.37,1362.8 2390,1366.5C 2373.73,1386.1 2356.07,1404.43 2337,1421.5C 2331.5,1435.67 2328.83,1450.34 2329,1465.5C 2329.72,1466.45 2330.55,1466.62 2331.5,1466C 2335.63,1462.87 2339.47,1459.37 2343,1455.5C 2351.92,1442 2360.58,1428.34 2369,1414.5C 2374.95,1407.18 2382.62,1402.85 2392,1401.5C 2394.87,1402.36 2397.2,1404.03 2399,1406.5C 2402.06,1413.68 2404.73,1421.01 2407,1428.5C 2410.04,1435.54 2415.38,1439.54 2423,1440.5C 2428.07,1439.68 2433.07,1438.68 2438,1437.5C 2441.42,1442.67 2444.59,1448 2447.5,1453.5C 2432.76,1464.85 2416.09,1469.35 2397.5,1467C 2393.83,1466.44 2390.49,1465.11 2387.5,1463C 2382.93,1457.99 2378.26,1453.15 2373.5,1448.5C 2364.73,1455.76 2357.23,1464.1 2351,1473.5C 2343.67,1482.17 2335.17,1489.34 2325.5,1495C 2320.2,1496.61 2314.87,1496.61 2309.5,1495C 2306.97,1494.48 2304.8,1493.32 2303,1491.5C 2298.72,1479.84 2297.06,1467.84 2298,1455.5C 2300.04,1450.87 2299.21,1450.04 2295.5,1453C 2285.49,1458.11 2275.16,1462.45 2264.5,1466C 2246.86,1468.6 2235.36,1461.43 2230,1444.5C 2229,1443.5 2228,1442.5 2227,1441.5C 2214.8,1453.37 2202.3,1464.87 2189.5,1476C 2178.5,1484.2 2166.5,1486.2 2153.5,1482C 2146.8,1478.1 2142.96,1472.27 2142,1464.5C 2140.58,1455.59 2139.08,1446.75 2137.5,1438C 2136.5,1437.33 2135.5,1437.33 2134.5,1438C 2131.17,1440.67 2127.83,1443.33 2124.5,1446C 2115.85,1455.84 2105.51,1463.5 2093.5,1469C 2077.42,1472.38 2065.92,1466.54 2059,1451.5C 2053.55,1445.37 2047.55,1440.04 2041,1435.5C 2037.34,1436.58 2033.84,1438.08 2030.5,1440C 2024,1445.09 2017,1449.42 2009.5,1453C 1996.75,1466.09 1983.08,1478.09 1968.5,1489C 1960.49,1493.35 1952.49,1493.52 1944.5,1489.5C 1943.62,1486.22 1942.95,1482.89 1942.5,1479.5C 1949.4,1460.98 1956.4,1442.48 1963.5,1424C 1963.36,1423.23 1963.02,1422.56 1962.5,1422C 1957.58,1421.29 1953.25,1422.62 1949.5,1426C 1941.07,1433.76 1932.07,1440.76 1922.5,1447C 1903.03,1468.56 1878.7,1478.22 1849.5,1476C 1841.62,1474.98 1835.12,1471.48 1830,1465.5C 1827.21,1460.08 1824.04,1454.92 1820.5,1450C 1818.83,1449.33 1817.17,1449.33 1815.5,1450C 1807.67,1455.24 1799,1457.57 1789.5,1457C 1776.31,1454.91 1765.31,1448.91 1756.5,1439C 1755,1438.5 1753.5,1438 1752,1437.5C 1747.42,1440.64 1743.76,1444.64 1741,1449.5C 1736.04,1459.72 1730.71,1469.72 1725,1479.5C 1724.31,1483.58 1723.31,1487.58 1722,1491.5C 1716.88,1502.18 1712.55,1513.18 1709,1524.5C 1706.59,1529.66 1703.92,1534.66 1701,1539.5C 1698.59,1553.5 1691.76,1564.67 1680.5,1573C 1671.68,1574.84 1666.51,1571.34 1665,1562.5C 1663.95,1540.63 1665.62,1518.97 1670,1497.5C 1673.67,1480.83 1677.33,1464.16 1681,1447.5C 1681.67,1444.5 1681.67,1441.5 1681,1438.5C 1674.04,1443.41 1667.54,1448.91 1661.5,1455C 1642.72,1470.76 1621.05,1477.76 1596.5,1476C 1589.5,1474.92 1583.34,1472.08 1578,1467.5C 1574.83,1463.16 1572.16,1458.49 1570,1453.5C 1568.5,1451.32 1566.5,1449.99 1564,1449.5C 1559.85,1451.64 1555.68,1453.8 1551.5,1456C 1539.9,1457.87 1528.23,1459.21 1516.5,1460C 1492.22,1480.55 1464.39,1494.05 1433,1500.5C 1425.35,1499.39 1418.18,1496.89 1411.5,1493C 1406.11,1489.29 1405.28,1484.79 1409,1479.5C 1412.55,1476.28 1416.39,1473.45 1420.5,1471C 1437.83,1464.33 1455.17,1457.67 1472.5,1451C 1476.55,1448.93 1480.38,1449.09 1484,1451.5C 1484.76,1454.5 1483.92,1457 1481.5,1459C 1476.91,1460.96 1472.58,1463.3 1468.5,1466C 1472.11,1466.21 1475.45,1465.21 1478.5,1463C 1483.43,1460.04 1487.76,1456.37 1491.5,1452C 1490.45,1450.61 1490.28,1449.11 1491,1447.5C 1495.56,1444.61 1499.06,1440.77 1501.5,1436C 1499.06,1428.96 1495.23,1422.79 1490,1417.5C 1476.88,1403.87 1462.38,1392.04 1446.5,1382C 1442.58,1378.75 1439.41,1374.92 1437,1370.5C 1432.52,1365.93 1427.86,1361.6 1423,1357.5C 1416.18,1343.77 1416.18,1330.1 1423,1316.5C 1433.55,1298.62 1448.05,1284.79 1466.5,1275C 1476.96,1269.94 1487.29,1264.6 1497.5,1259C 1512.53,1253.82 1527.53,1248.99 1542.5,1244.5 Z M 2420.5,1283.5 C 2422,1283.41 2423,1284.08 2423.5,1285.5C 2406.22,1323.03 2381.88,1355.36 2350.5,1382.5C 2350.17,1382.17 2349.83,1381.83 2349.5,1381.5C 2356.22,1368.06 2362.39,1354.39 2368,1340.5C 2379.24,1327.69 2390.24,1314.69 2401,1301.5C 2407.1,1294.9 2413.6,1288.9 2420.5,1283.5 Z M 1612.5,1384.5 C 1614.14,1384.29 1615.64,1384.62 1617,1385.5C 1617.55,1388.42 1616.88,1391.09 1615,1393.5C 1609.6,1398.78 1604.1,1403.95 1598.5,1409C 1596.68,1409.78 1595.35,1409.28 1594.5,1407.5C 1598.35,1398.13 1604.35,1390.46 1612.5,1384.5 Z M 1865.5,1384.5 C 1870.07,1384.08 1871.57,1386.08 1870,1390.5C 1869.33,1391.83 1868.67,1393.17 1868,1394.5C 1862.84,1398.66 1858.01,1403.16 1853.5,1408C 1851.98,1409.01 1850.31,1409.51 1848.5,1409.5C 1851.35,1399.3 1857.02,1390.97 1865.5,1384.5 Z"/></g>
<g><path style="opacity:0.99" fill="#010102" d="M 654.5,1588.5 C 651.5,1588.5 648.5,1588.5 645.5,1588.5C 644.152,1587.4 642.652,1586.4 641,1585.5C 640.333,1582.83 640.333,1580.17 641,1577.5C 664.431,1548.06 690.764,1521.06 720,1496.5C 725.667,1485.83 731.333,1475.17 737,1464.5C 740.777,1455.46 742.277,1446.13 741.5,1436.5C 736.84,1438.49 732.506,1440.99 728.5,1444C 719.335,1453.67 708.669,1461.17 696.5,1466.5C 686.797,1478.45 674.464,1482.95 659.5,1480C 652.685,1476.87 650.685,1471.71 653.5,1464.5C 652.976,1462.62 652.309,1460.78 651.5,1459C 652.579,1454.54 652.746,1450.04 652,1445.5C 651.311,1444.64 650.478,1443.98 649.5,1443.5C 635.816,1451.36 622.816,1460.19 610.5,1470C 596.252,1478.19 581.918,1478.52 567.5,1471C 564.567,1468.74 562.4,1465.9 561,1462.5C 559.376,1456.72 557.543,1451.05 555.5,1445.5C 548.338,1450.58 541.005,1455.42 533.5,1460C 521.36,1471.79 507.36,1480.79 491.5,1487C 482.488,1491.66 473.488,1491.66 464.5,1487C 456.764,1475.91 458.264,1466.08 469,1457.5C 469.667,1456.5 469.667,1455.5 469,1454.5C 458.401,1463.89 446.568,1471.39 433.5,1477C 420.196,1478.78 406.863,1478.78 393.5,1477C 386.977,1475.15 381.477,1471.65 377,1466.5C 373.348,1459.88 370.682,1452.88 369,1445.5C 368,1444.5 367,1443.5 366,1442.5C 354.332,1452.5 341.832,1461.33 328.5,1469C 314.628,1474.29 300.295,1476.63 285.5,1476C 279.695,1475.18 274.361,1473.18 269.5,1470C 264.587,1463.51 259.92,1456.84 255.5,1450C 251.048,1449.14 247.548,1450.64 245,1454.5C 242.099,1449.03 238.932,1443.7 235.5,1438.5C 240.226,1432.61 245.726,1427.61 252,1423.5C 254.922,1405.99 261.922,1390.32 273,1376.5C 280.167,1370 287.333,1363.5 294.5,1357C 305.721,1349.97 317.387,1348.97 329.5,1354C 337.123,1363.03 338.289,1372.86 333,1383.5C 330.839,1388.49 328.172,1393.16 325,1397.5C 319.167,1403.33 313.333,1409.17 307.5,1415C 301.041,1419.79 294.874,1424.96 289,1430.5C 286.48,1436.94 288.313,1441.77 294.5,1445C 310.541,1449.53 325.874,1447.53 340.5,1439C 347.65,1430.86 355.816,1424.02 365,1418.5C 364.911,1407.95 366.744,1397.78 370.5,1388C 369.409,1385.94 369.242,1383.77 370,1381.5C 375.346,1363.79 381.679,1346.46 389,1329.5C 397,1315.5 405,1301.5 413,1287.5C 421.658,1274.7 431.825,1263.2 443.5,1253C 451.459,1249.77 459.459,1249.77 467.5,1253C 470.467,1255.1 472.3,1257.93 473,1261.5C 473.719,1276.94 471.219,1291.77 465.5,1306C 465.957,1306.41 466.291,1306.91 466.5,1307.5C 460.41,1320.02 454.576,1332.68 449,1345.5C 443.75,1350.99 439.75,1357.32 437,1364.5C 431.224,1370.94 426.224,1377.94 422,1385.5C 411.911,1396.25 402.578,1407.58 394,1419.5C 393.15,1440.32 403.15,1451.32 424,1452.5C 441.66,1451.46 456.16,1444.29 467.5,1431C 473.675,1427.41 480.009,1424.08 486.5,1421C 489.538,1418.3 492.205,1415.3 494.5,1412C 501.699,1408.14 508.365,1403.47 514.5,1398C 527.345,1390.75 539.678,1382.75 551.5,1374C 562.305,1367.26 573.971,1362.76 586.5,1360.5C 597.327,1360.88 600.494,1365.88 596,1375.5C 579.449,1388.39 562.615,1400.89 545.5,1413C 537.726,1422.11 528.726,1429.77 518.5,1436C 512.801,1441.36 507.467,1447.03 502.5,1453C 506.443,1453.24 510.11,1452.24 513.5,1450C 531.026,1437.41 548.693,1425.08 566.5,1413C 573.219,1409.38 580.219,1408.38 587.5,1410C 590.699,1413.12 592.366,1416.95 592.5,1421.5C 590.803,1429.35 591.303,1437.02 594,1444.5C 597.883,1449.01 602.716,1450.51 608.5,1449C 621.741,1437.77 636.074,1428.1 651.5,1420C 660.591,1411.57 670.258,1403.91 680.5,1397C 696.207,1391.4 702.374,1396.56 699,1412.5C 696.197,1420.58 693.197,1428.58 690,1436.5C 688.805,1440.75 688.305,1445.08 688.5,1449.5C 692.105,1449.2 695.439,1448.03 698.5,1446C 703.833,1442.67 709.167,1439.33 714.5,1436C 733.5,1421 752.5,1406 771.5,1391C 780.018,1386.9 788.518,1386.73 797,1390.5C 797.61,1394.24 797.277,1397.9 796,1401.5C 788.119,1421.76 779.286,1441.59 769.5,1461C 770,1461.5 770.5,1462 771,1462.5C 786.166,1453.49 799.999,1442.83 812.5,1430.5C 819.324,1427.25 825.991,1423.75 832.5,1420C 834.795,1416.7 837.462,1413.7 840.5,1411C 857.351,1400.74 873.685,1389.74 889.5,1378C 902.234,1369.13 916.234,1363.3 931.5,1360.5C 942.354,1361.53 945.187,1366.86 940,1376.5C 931.878,1381.14 924.378,1386.64 917.5,1393C 908.553,1398.95 899.886,1405.28 891.5,1412C 882.376,1421.46 872.376,1429.8 861.5,1437C 856.268,1442.14 851.268,1447.48 846.5,1453C 847,1453.5 847.5,1454 848,1454.5C 860.952,1447.88 873.119,1440.05 884.5,1431C 887.167,1429.67 889.833,1428.33 892.5,1427C 901.673,1416.91 913.006,1410.75 926.5,1408.5C 931.761,1409.26 934.927,1412.26 936,1417.5C 936.058,1426.27 936.725,1434.94 938,1443.5C 941.509,1448.84 946.342,1450.67 952.5,1449C 979.83,1427.3 1006.5,1404.64 1032.5,1381C 1043.02,1373.3 1054.35,1371.63 1066.5,1376C 1069.92,1379.24 1071.58,1383.24 1071.5,1388C 1067.58,1406.75 1061.08,1424.59 1052,1441.5C 1051.2,1443.26 1051.37,1444.93 1052.5,1446.5C 1065.06,1435.19 1077.73,1424.02 1090.5,1413C 1099.79,1406.79 1109.95,1402.96 1121,1401.5C 1129.39,1401.41 1136.06,1404.74 1141,1411.5C 1144.39,1419.95 1148.06,1428.28 1152,1436.5C 1155.97,1441.36 1160.81,1442.53 1166.5,1440C 1178.26,1428.58 1190.92,1418.25 1204.5,1409C 1212.98,1396.6 1223.65,1394.27 1236.5,1402C 1237.79,1403.41 1238.95,1404.91 1240,1406.5C 1242.47,1414.72 1244.47,1423.05 1246,1431.5C 1248.11,1437.84 1250.61,1444.01 1253.5,1450C 1258.79,1451.87 1264.12,1451.87 1269.5,1450C 1276.23,1446.55 1282.73,1442.72 1289,1438.5C 1293.58,1442.99 1296.58,1448.32 1298,1454.5C 1284.59,1464.29 1270.09,1472.12 1254.5,1478C 1245.31,1478.73 1236.31,1477.73 1227.5,1475C 1225.33,1473.5 1223.5,1471.67 1222,1469.5C 1216.93,1457.94 1209.77,1447.94 1200.5,1439.5C 1191.9,1443.27 1184.23,1448.43 1177.5,1455C 1170,1459.92 1162.33,1464.58 1154.5,1469C 1137.81,1472.24 1125.98,1466.07 1119,1450.5C 1113.88,1444.71 1108.22,1439.71 1102,1435.5C 1099.46,1436.19 1096.96,1437.02 1094.5,1438C 1086.17,1443.83 1077.5,1449.17 1068.5,1454C 1055.85,1467.16 1042.19,1479.16 1027.5,1490C 1021.37,1492.34 1015.04,1493.01 1008.5,1492C 1006.67,1491.5 1005.5,1490.33 1005,1488.5C 1003.68,1484.57 1003.34,1480.57 1004,1476.5C 1011.67,1458.51 1018.17,1440.18 1023.5,1421.5C 1018.58,1421.29 1014.25,1422.79 1010.5,1426C 992.187,1439.98 974.187,1454.32 956.5,1469C 941.82,1478.11 926.82,1478.77 911.5,1471C 905.62,1464.7 902.453,1457.2 902,1448.5C 901.581,1447.33 900.915,1446.33 900,1445.5C 892.424,1451.04 884.59,1456.21 876.5,1461C 862.544,1474.49 846.211,1484.15 827.5,1490C 814.223,1493.04 806.223,1488.04 803.5,1475C 804.081,1467.75 807.248,1461.92 813,1457.5C 813.667,1456.83 813.667,1456.17 813,1455.5C 793.722,1466.89 775.222,1479.39 757.5,1493C 752.667,1497.83 747.833,1502.67 743,1507.5C 726.949,1530.06 709.116,1551.22 689.5,1571C 679.099,1579.53 667.433,1585.37 654.5,1588.5 Z M 440.5,1306.5 C 441.239,1306.37 441.906,1306.54 442.5,1307C 439.037,1322.72 433.203,1337.55 425,1351.5C 417.611,1361.22 410.611,1371.22 404,1381.5C 402.587,1383.41 400.753,1384.75 398.5,1385.5C 398.167,1384.83 397.833,1384.17 397.5,1383.5C 401.087,1369.22 407.253,1356.22 416,1344.5C 417.561,1338.79 419.228,1333.12 421,1327.5C 426.66,1319.68 433.16,1312.68 440.5,1306.5 Z M 301.5,1384.5 C 302.833,1384.5 304.167,1384.5 305.5,1384.5C 305.998,1388.22 305.164,1391.55 303,1394.5C 297.322,1399.51 291.655,1404.51 286,1409.5C 284.5,1409.33 283.667,1408.5 283.5,1407C 287.543,1397.81 293.543,1390.31 301.5,1384.5 Z"/></g>
<g><path style="opacity:0.991" fill="#010102" d="M 2764.5,1253.5 C 2767.04,1253.1 2769.21,1253.77 2771,1255.5C 2772.28,1258.71 2773.11,1262.04 2773.5,1265.5C 2771.81,1278.95 2769.48,1292.28 2766.5,1305.5C 2767.35,1309.22 2768.35,1312.88 2769.5,1316.5C 2764.18,1333.45 2759.01,1350.45 2754,1367.5C 2751.84,1379.62 2749.18,1391.62 2746,1403.5C 2734.8,1433.76 2724.8,1464.43 2716,1495.5C 2713.97,1502.08 2710.14,1507.25 2704.5,1511C 2701.01,1512 2697.84,1511.5 2695,1509.5C 2692.21,1500.14 2693.05,1491.14 2697.5,1482.5C 2696.28,1476.17 2696.44,1469.83 2698,1463.5C 2703.36,1437.06 2709.19,1410.73 2715.5,1384.5C 2715.57,1382.73 2714.73,1381.73 2713,1381.5C 2709.2,1382.21 2705.36,1382.37 2701.5,1382C 2698.12,1385.22 2694.12,1386.72 2689.5,1386.5C 2681.51,1385.44 2673.51,1384.94 2665.5,1385C 2659.68,1386.25 2654.34,1388.58 2649.5,1392C 2635.45,1393.4 2622.78,1398.24 2611.5,1406.5C 2609.98,1408.55 2609.15,1410.88 2609,1413.5C 2607.35,1426.7 2607.68,1439.7 2610,1452.5C 2612.15,1455.93 2614.98,1456.43 2618.5,1454C 2621.13,1452.37 2623.46,1450.37 2625.5,1448C 2628.28,1447.08 2630.28,1447.91 2631.5,1450.5C 2625.18,1461.66 2617.51,1471.83 2608.5,1481C 2601.51,1486.22 2593.84,1487.88 2585.5,1486C 2581.6,1481.26 2579.43,1475.76 2579,1469.5C 2578.09,1452.79 2576.76,1436.13 2575,1419.5C 2572.53,1413.22 2569.53,1407.22 2566,1401.5C 2564.99,1396.89 2565.66,1392.56 2568,1388.5C 2571.04,1385.8 2573.7,1382.8 2576,1379.5C 2582.31,1360.35 2585.65,1340.69 2586,1320.5C 2587.19,1313.39 2588.86,1306.39 2591,1299.5C 2590.41,1289.02 2591.58,1278.68 2594.5,1268.5C 2603.95,1259.07 2615.28,1255.57 2628.5,1258C 2631,1259.17 2632.83,1261 2634,1263.5C 2634.67,1266.83 2634.67,1270.17 2634,1273.5C 2631.26,1280.37 2628.93,1287.37 2627,1294.5C 2623.41,1317.4 2618.74,1340.06 2613,1362.5C 2612.23,1365.1 2612.4,1367.6 2613.5,1370C 2624.06,1370.56 2634.39,1369.22 2644.5,1366C 2656.01,1365.73 2667.51,1365.23 2679,1364.5C 2692.97,1367.55 2706.81,1367.05 2720.5,1363C 2722.46,1358.91 2724.3,1354.74 2726,1350.5C 2728.85,1331.42 2732.02,1312.42 2735.5,1293.5C 2734.06,1290.44 2732.06,1287.77 2729.5,1285.5C 2737.41,1270.59 2749.08,1259.92 2764.5,1253.5 Z"/></g>
<g><path style="opacity:0.991" fill="#010102" d="M 3175.5,1453.5 C 3175.5,1453.83 3175.5,1454.17 3175.5,1454.5C 3163.34,1462.42 3150.68,1469.58 3137.5,1476C 3125.6,1479.48 3113.94,1478.81 3102.5,1474C 3097.19,1467.88 3093.02,1461.05 3090,1453.5C 3085.98,1448.48 3081.64,1443.81 3077,1439.5C 3067.45,1443.7 3058.95,1449.53 3051.5,1457C 3036.74,1465.42 3023.4,1475.75 3011.5,1488C 3003.8,1494.28 2995.14,1496.28 2985.5,1494C 2979.14,1492.3 2975.64,1488.13 2975,1481.5C 2974.38,1473.13 2974.71,1464.8 2976,1456.5C 2979.29,1445.33 2981.96,1434 2984,1422.5C 2985.38,1419.57 2986.88,1416.74 2988.5,1414C 2988.17,1413.5 2987.83,1413 2987.5,1412.5C 2974.05,1424.39 2960.05,1435.55 2945.5,1446C 2934.03,1458.81 2920.37,1468.47 2904.5,1475C 2894.12,1477.59 2884.12,1476.59 2874.5,1472C 2872.23,1469.97 2870.06,1467.81 2868,1465.5C 2865.54,1458.82 2863.21,1452.15 2861,1445.5C 2846.66,1454.17 2833.16,1464.01 2820.5,1475C 2810.35,1481.08 2799.68,1486.08 2788.5,1490C 2774.99,1492.93 2766.99,1487.76 2764.5,1474.5C 2765.11,1470.97 2766.27,1467.64 2768,1464.5C 2770.73,1461.28 2773.23,1457.95 2775.5,1454.5C 2772.97,1449.28 2770.3,1444.11 2767.5,1439C 2768.9,1435.76 2770.9,1432.93 2773.5,1430.5C 2780.32,1427.25 2786.99,1423.75 2793.5,1420C 2796.17,1417 2798.83,1414 2801.5,1411C 2821.68,1398.75 2841.35,1385.75 2860.5,1372C 2870.35,1365.88 2881.02,1362.05 2892.5,1360.5C 2903.77,1361.22 2906.61,1366.55 2901,1376.5C 2895.58,1380.12 2890.08,1383.62 2884.5,1387C 2882.17,1389.33 2879.83,1391.67 2877.5,1394C 2864.3,1402.86 2851.96,1412.86 2840.5,1424C 2834.78,1428.72 2828.78,1433.05 2822.5,1437C 2817.82,1442.34 2813.15,1447.68 2808.5,1453C 2808.67,1453.5 2808.83,1454 2809,1454.5C 2812.88,1452.81 2816.71,1450.98 2820.5,1449C 2836.89,1436.94 2853.56,1425.28 2870.5,1414C 2875.8,1411.02 2881.47,1409.18 2887.5,1408.5C 2892.82,1408.73 2895.98,1411.39 2897,1416.5C 2897.06,1425.6 2897.72,1434.6 2899,1443.5C 2902.82,1449.04 2907.99,1450.87 2914.5,1449C 2935.18,1432 2955.01,1413.83 2974,1394.5C 2984.44,1381.78 2994.28,1368.61 3003.5,1355C 3002.57,1354.01 3001.4,1353.51 3000,1353.5C 2984.85,1354.63 2969.69,1354.79 2954.5,1354C 2950.49,1352.89 2946.66,1351.39 2943,1349.5C 2941.38,1341.79 2942.55,1334.46 2946.5,1327.5C 2947.67,1326.42 2949,1325.58 2950.5,1325C 2953.5,1324.83 2956.5,1324.67 2959.5,1324.5C 2977.35,1324.54 2995.19,1324.87 3013,1325.5C 3017.32,1325.18 3020.66,1323.18 3023,1319.5C 3026.67,1313.5 3030.33,1307.5 3034,1301.5C 3039.73,1293.69 3046.9,1291.86 3055.5,1296C 3057.09,1298.43 3058.09,1301.1 3058.5,1304C 3056.8,1310.26 3054.8,1316.42 3052.5,1322.5C 3053.32,1324.69 3054.82,1326.35 3057,1327.5C 3057.67,1334.17 3057.67,1340.83 3057,1347.5C 3056.46,1349.63 3055.62,1351.63 3054.5,1353.5C 3049.59,1354.68 3044.76,1356.01 3040,1357.5C 3027.47,1385.45 3018.14,1415.12 3012,1446.5C 3011.33,1449.5 3011.33,1452.5 3012,1455.5C 3013,1456.17 3014,1456.83 3015,1457.5C 3029.57,1450.25 3042.4,1440.75 3053.5,1429C 3066.03,1420.81 3077.7,1411.47 3088.5,1401C 3098.08,1396.04 3106.91,1397.21 3115,1404.5C 3119,1417.81 3123,1431.14 3127,1444.5C 3128.57,1449.7 3132.07,1452.04 3137.5,1451.5C 3140.57,1451.39 3143.57,1450.89 3146.5,1450C 3153.01,1446.15 3159.51,1442.32 3166,1438.5C 3169.68,1443.2 3172.85,1448.2 3175.5,1453.5 Z"/></g>
<g><path style="opacity:0.987" fill="#010203" d="M 1250.5,1305.5 C 1254.51,1305.33 1258.51,1305.5 1262.5,1306C 1264.29,1306.78 1265.79,1307.95 1267,1309.5C 1266.87,1330.95 1256.71,1345.11 1236.5,1352C 1230.05,1352.32 1223.72,1351.66 1217.5,1350C 1212.76,1343.24 1212.59,1336.41 1217,1329.5C 1221.82,1323 1227.98,1318.5 1235.5,1316C 1239.35,1310.62 1244.35,1307.12 1250.5,1305.5 Z"/></g>
<g><path style="opacity:0.988" fill="#010203" d="M 3126.5,1305.5 C 3131.6,1305.17 3136.6,1305.67 3141.5,1307C 3142.97,1308.55 3143.97,1310.39 3144.5,1312.5C 3142.04,1322.42 3138.2,1331.76 3133,1340.5C 3126.86,1345.49 3120.03,1349.32 3112.5,1352C 3106.83,1352.13 3101.16,1351.8 3095.5,1351C 3090.8,1346.12 3089.3,1340.28 3091,1333.5C 3095.7,1325.13 3102.53,1319.3 3111.5,1316C 3115.9,1311.4 3120.9,1307.9 3126.5,1305.5 Z"/></g>
</svg>
