<?xml version="1.0" encoding="UTF-8"?>
<!DOCTYPE svg PUBLIC "-//W3C//DTD SVG 1.1//EN" "http://www.w3.org/Graphics/SVG/1.1/DTD/svg11.dtd">
<svg xmlns="http://www.w3.org/2000/svg" version="1.1" width="3176px" height="1588px" style="shape-rendering:geometricPrecision; text-rendering:geometricPrecision; image-rendering:optimizeQuality; fill-rule:evenodd; clip-rule:evenodd" xmlns:xlink="http://www.w3.org/1999/xlink">
<g><path style="opacity:0.983" fill="#0167aa" d="M 530.5,-0.5 C 536.833,-0.5 543.167,-0.5 549.5,-0.5C 549.535,21.8501 549.369,44.1834 549,66.5C 559.914,57.7477 572.414,52.9144 586.5,52C 607.55,49.0979 626.883,53.4313 644.5,65C 658.033,80.2703 663.533,98.1036 661,118.5C 658.172,145.66 643.338,161.493 616.5,166C 598.827,168.884 581.494,167.551 564.5,162C 559.135,159.8 554.135,156.966 549.5,153.5C 548.726,157.792 548.726,162.125 549.5,166.5C 543.167,166.5 536.833,166.5 530.5,166.5C 530.5,110.833 530.5,55.1667 530.5,-0.5 Z M 596.5,62.5 C 627.093,62.9259 642.426,78.4259 642.5,109C 642.708,119.395 640.541,129.228 636,138.5C 628.774,148.533 618.941,154.033 606.5,155C 592.202,157.066 578.535,155.066 565.5,149C 556.867,141.913 551.701,132.746 550,121.5C 548.498,108.513 549.831,95.8459 554,83.5C 559.228,73.6249 567.394,67.4583 578.5,65C 584.634,64.0882 590.634,63.2549 596.5,62.5 Z"/></g>
<g><path style="opacity:0.979" fill="#0066aa" d="M 1053.5,-0.5 C 1059.83,-0.5 1066.17,-0.5 1072.5,-0.5C 1072.17,38.1724 1072.5,76.8391 1073.5,115.5C 1074.11,115.376 1074.44,115.043 1074.5,114.5C 1100.92,93.7779 1127.58,73.2779 1154.5,53C 1161.61,52.7575 1169.28,53.0908 1177.5,54C 1159.78,68.0505 1141.78,81.7172 1123.5,95C 1145.68,118.349 1167.68,141.849 1189.5,165.5C 1182.19,166.665 1174.86,166.831 1167.5,166C 1147.9,146.071 1128.73,125.905 1110,105.5C 1097.91,114.131 1086.08,123.131 1074.5,132.5C 1073.5,143.48 1073.17,154.48 1073.5,165.5C 1066.84,165.954 1060.17,166.287 1053.5,166.5C 1053.5,110.833 1053.5,55.1667 1053.5,-0.5 Z"/></g>
<g><path style="opacity:0.392" fill="#0e79b8" d="M 1072.5,-0.5 C 1072.83,-0.5 1073.17,-0.5 1073.5,-0.5C 1073.17,38.0036 1073.5,76.337 1074.5,114.5C 1074.44,115.043 1074.11,115.376 1073.5,115.5C 1072.5,76.8391 1072.17,38.1724 1072.5,-0.5 Z"/></g>
<g><path style="opacity:0.984" fill="#0167aa" d="M 740.5,51.5 C 759.493,50.2136 778.159,52.0469 796.5,57C 809.096,61.262 817.262,69.762 821,82.5C 821.183,90.7453 821.683,98.912 822.5,107C 821.234,126.141 821.234,145.475 822.5,165C 816.012,166.458 809.345,166.958 802.5,166.5C 802.665,163.15 802.498,159.817 802,156.5C 786.144,164.439 769.311,168.105 751.5,167.5C 740.041,167.542 728.708,166.375 717.5,164C 703.928,161.327 695.095,153.494 691,140.5C 689.523,124.959 696.023,114.126 710.5,108C 722.542,104.286 734.875,102.286 747.5,102C 768.034,102.078 786.2,102.245 802,102.5C 802.58,94.7241 801.914,87.0574 800,79.5C 797.438,73.9389 793.272,70.1055 787.5,68C 765.729,60.7277 744.062,61.0611 722.5,69C 717.733,71.438 713.233,74.2713 709,77.5C 704.416,74.7917 699.916,71.9584 695.5,69C 708.838,58.7551 723.838,52.9217 740.5,51.5 Z M 747.5,112.5 C 766.589,112.838 784.922,112.838 802.5,112.5C 802.762,120.22 802.262,127.887 801,135.5C 797.638,145.182 790.805,151.015 780.5,153C 763.574,155.975 746.574,156.308 729.5,154C 715.06,151.914 708.56,143.748 710,129.5C 712.584,122.618 717.417,118.118 724.5,116C 732.27,114.574 739.937,113.407 747.5,112.5 Z"/></g>
<g><path style="opacity:0.987" fill="#0067aa" d="M 930.5,51.5 C 950.412,49.6492 969.078,53.4825 986.5,63C 997.13,70.7584 1002.63,81.2584 1003,94.5C 1003.67,118.167 1003.67,141.833 1003,165.5C 996.667,166.833 990.333,166.833 984,165.5C 983.667,140.5 983.333,115.5 983,90.5C 979.789,76.2914 970.956,67.7914 956.5,65C 937.96,61.1703 920.293,63.5036 903.5,72C 897.905,76.5909 894.405,82.4243 893,89.5C 892.5,114.831 892.333,140.164 892.5,165.5C 886.178,166.014 879.845,166.347 873.5,166.5C 873.5,128.833 873.5,91.1667 873.5,53.5C 879.833,53.5 886.167,53.5 892.5,53.5C 892.218,57.2964 892.218,60.9631 892.5,64.5C 904.44,57.7431 917.106,53.4098 930.5,51.5 Z"/></g>
<g><path style="opacity:0.998" fill="#0066aa" d="M 1930.5,216.5 C 1948.16,216.621 1965.33,216.621 1982,216.5C 1990.09,217.317 1998.25,217.817 2006.5,218C 2012.26,218.958 2016.76,221.791 2020,226.5C 2020.17,246.073 2020.67,265.573 2021.5,285C 2020.76,351.688 2020.43,423.354 2020.5,500C 2021.22,526.05 2021.89,551.883 2022.5,577.5C 2022.39,585.23 2019.05,591.063 2012.5,595C 2006.43,596.85 2000.26,598.016 1994,598.5C 1964.01,598.965 1933.84,598.465 1903.5,597C 1890.71,594.129 1885.71,586.129 1888.5,573C 1889.21,566.836 1889.38,560.669 1889,554.5C 1870.82,569.677 1850.32,580.844 1827.5,588C 1762.71,607.945 1699.71,602.945 1638.5,573C 1578.23,536.238 1554.73,483.072 1568,413.5C 1580.2,368.643 1607.03,335.809 1648.5,315C 1693.69,294.733 1741.02,286.733 1790.5,291C 1820.43,292.899 1848.77,300.566 1875.5,314C 1880.25,316.458 1884.75,319.292 1889,322.5C 1889.09,303.392 1888.92,283.725 1888.5,263.5C 1888.36,251.1 1888.86,238.766 1890,226.5C 1893.04,222.139 1897.21,219.306 1902.5,218C 1912.01,217.83 1921.34,217.33 1930.5,216.5 Z M 1790.5,347.5 C 1819.39,345.362 1846.05,351.862 1870.5,367C 1875.7,371.865 1880.53,377.032 1885,382.5C 1888.88,391.574 1890.38,401.074 1889.5,411C 1889.54,436.62 1889.04,462.786 1888,489.5C 1872.29,516.52 1849.12,533.686 1818.5,541C 1791.43,547.686 1765.43,543.686 1740.5,529C 1724.37,516.948 1713.54,501.115 1708,481.5C 1700.13,453.529 1701.13,425.863 1711,398.5C 1724.29,372.228 1745.46,356.062 1774.5,350C 1779.99,349.226 1785.32,348.393 1790.5,347.5 Z"/></g>
<g><path style="opacity:0.997" fill="#0066aa" d="M 1297.5,287.5 C 1341.52,284.669 1384.18,290.836 1425.5,306C 1446.79,314.218 1464.29,327.385 1478,345.5C 1484.94,357.586 1488.94,370.586 1490,384.5C 1490.67,451.167 1490.67,517.833 1490,584.5C 1486.27,592.28 1480.11,596.447 1471.5,597C 1437.83,597.667 1404.17,597.667 1370.5,597C 1354.52,593.383 1348.86,583.716 1353.5,568C 1352.67,511.57 1352.17,455.07 1352,398.5C 1350.7,370.871 1336.53,354.371 1309.5,349C 1282.54,343.924 1255.88,345.591 1229.5,354C 1208.94,362.583 1197.77,378.083 1196,400.5C 1195.83,457.737 1195.33,514.904 1194.5,572C 1195.35,587.824 1187.69,596.157 1171.5,597C 1138.5,597.667 1105.5,597.667 1072.5,597C 1064.33,596.511 1058.5,592.678 1055,585.5C 1054.01,490.777 1054.34,396.11 1056,301.5C 1059.42,297.743 1063.59,295.243 1068.5,294C 1104.46,292.283 1141.46,292.283 1179.5,294C 1185.93,295.427 1190.09,299.26 1192,305.5C 1192.17,310.864 1192.67,316.198 1193.5,321.5C 1215.94,305.288 1240.94,295.121 1268.5,291C 1278.29,289.568 1287.95,288.401 1297.5,287.5 Z"/></g>
<g><path style="opacity:0.994" fill="#0066aa" d="M 2131.5,291.5 C 2164.63,291.352 2197.96,291.519 2231.5,292C 2238.96,293.14 2244.46,296.973 2248,303.5C 2248.67,397.833 2248.67,492.167 2248,586.5C 2244.24,592.635 2238.74,596.135 2231.5,597C 2196.5,597.667 2161.5,597.667 2126.5,597C 2119.27,596.141 2113.77,592.641 2110,586.5C 2109.33,492.167 2109.33,397.833 2110,303.5C 2111.03,300.461 2112.86,297.961 2115.5,296C 2120.65,293.392 2125.99,291.892 2131.5,291.5 Z"/></g>
<g><path style="opacity:0.996" fill="#0066aa" d="M 546.5,292.5 C 581.168,292.333 615.835,292.5 650.5,293C 657.038,293.352 662.205,296.185 666,301.5C 667.494,364.052 668.494,426.386 669,488.5C 671.252,519.754 688.086,536.921 719.5,540C 744.456,543.714 768.79,541.38 792.5,533C 806.423,527.411 815.923,517.577 821,503.5C 823.825,494.374 825.492,485.041 826,475.5C 826.333,420.5 826.667,365.5 827,310.5C 828.358,299.573 834.524,293.74 845.5,293C 879.833,292.333 914.167,292.333 948.5,293C 957.427,292.938 963.261,297.105 966,305.5C 966.667,398.833 966.667,492.167 966,585.5C 962.958,592.113 957.791,595.946 950.5,597C 915.5,597.667 880.5,597.667 845.5,597C 836.714,596.203 830.881,591.703 828,583.5C 827.426,577.423 827.426,571.423 828,565.5C 811.931,578.787 793.764,588.287 773.5,594C 722.896,607.199 672.563,607.199 622.5,594C 595.216,587.279 571.383,574.446 551,555.5C 539.231,540.204 532.565,522.871 531,503.5C 530.333,437.167 530.333,370.833 531,304.5C 534.594,298.399 539.761,294.399 546.5,292.5 Z"/></g>
<g><path style="opacity:0.996" fill="#0066aa" d="M -0.5,679.5 C -0.5,554.833 -0.5,430.167 -0.5,305.5C 2.46914,299.706 7.13581,295.873 13.5,294C 19.0829,293.809 24.5829,293.309 30,292.5C 54.3663,292.678 78.6996,292.678 103,292.5C 111.733,292.123 119.899,293.957 127.5,298C 129.049,299.214 130.215,300.714 131,302.5C 132.24,313.442 132.907,324.442 133,335.5C 153.472,318.847 176.639,307.347 202.5,301C 259.043,287.103 314.376,290.77 368.5,312C 433.451,342.046 462.618,392.879 456,464.5C 446.799,514.686 419.632,551.519 374.5,575C 342.616,590.388 308.949,598.721 273.5,600C 230.326,603.5 188.992,596.5 149.5,579C 143.833,575.5 138.167,572 132.5,568.5C 132.654,605.559 132.488,642.892 132,680.5C 127.945,688.284 121.445,692.118 112.5,692C 81.8333,692.667 51.1667,692.667 20.5,692C 10.9354,691.893 3.93538,687.727 -0.5,679.5 Z M 221.5,348.5 C 278.201,347.704 310.368,375.371 318,431.5C 322.728,464.457 314.228,493.291 292.5,518C 279.134,530.182 263.468,537.849 245.5,541C 218.388,545.876 192.055,543.21 166.5,533C 151.42,526.072 140.253,515.238 133,500.5C 132.821,471.637 132.321,442.804 131.5,414C 133.616,398.105 140.95,385.105 153.5,375C 173.699,359.73 196.366,350.897 221.5,348.5 Z"/></g>
<g><path style="opacity:0.996" fill="#87d3e1" d="M 1720.5,893.5 C 1810.68,893.348 1901.35,893.514 1992.5,894C 2003.15,895.575 2011.99,900.409 2019,908.5C 2020.28,910.717 2021.28,913.051 2022,915.5C 2022.67,969.167 2022.67,1022.83 2022,1076.5C 2021.02,1087.29 2015.52,1094.79 2005.5,1099C 1999.71,1101.28 1993.71,1102.61 1987.5,1103C 1900.17,1103.67 1812.83,1103.67 1725.5,1103C 1712.77,1102.77 1702.27,1097.93 1694,1088.5C 1692.72,1086.28 1691.72,1083.95 1691,1081.5C 1690.33,1025.83 1690.33,970.167 1691,914.5C 1692.58,908.914 1695.75,904.414 1700.5,901C 1706.89,897.377 1713.55,894.877 1720.5,893.5 Z"/></g>
<g><path style="opacity:1" fill="#00a4e2" d="M 2382.5,893.5 C 2470.02,893.348 2558.02,893.515 2646.5,894C 2658.25,894.466 2668.09,898.966 2676,907.5C 2677.28,909.717 2678.28,912.051 2679,914.5C 2679.67,969.833 2679.67,1025.17 2679,1080.5C 2677.87,1087.26 2674.37,1092.42 2668.5,1096C 2661.61,1099.74 2654.28,1102.07 2646.5,1103C 2559.83,1103.67 2473.17,1103.67 2386.5,1103C 2373.33,1103.33 2362.16,1098.83 2353,1089.5C 2352,1087.5 2351,1085.5 2350,1083.5C 2349.33,1026.83 2349.33,970.167 2350,913.5C 2354.52,903.331 2362.35,897.165 2373.5,895C 2376.69,894.819 2379.69,894.319 2382.5,893.5 Z"/></g>
<g><path style="opacity:0.998" fill="#87d3e1" d="M 2184.5,1466.5 C 2102.86,1480.24 2021.03,1488.57 1939,1491.5C 1796.7,1498.35 1653.7,1493.35 1510,1476.5C 1504.07,1476.51 1498.24,1476.51 1492.5,1476.5C 1425.35,1451.1 1362.02,1418.6 1302.5,1379C 1266.57,1354.74 1234.74,1325.91 1207,1292.5C 1203.67,1287.83 1200.33,1283.17 1197,1278.5C 1193.82,1271.15 1195.66,1265.32 1202.5,1261C 1297.29,1232.4 1392.29,1204.4 1487.5,1177C 1500.34,1174.01 1512.68,1175.35 1524.5,1181C 1579.62,1229.76 1639.95,1271.09 1705.5,1305C 1856.73,1383.69 2016.39,1437.52 2184.5,1466.5 Z"/></g>
<g><path style="opacity:1" fill="#00a4e2" d="M 2881.5,1475.5 C 2876.31,1475.13 2871.14,1475.13 2866,1475.5C 2823.94,1481.21 2781.61,1485.21 2739,1487.5C 2717.08,1488.7 2695.08,1490.37 2673,1492.5C 2672,1492.17 2671,1491.83 2670,1491.5C 2532.64,1498.43 2395.48,1493.93 2258.5,1478C 2237.09,1475.66 2216.09,1471.82 2195.5,1466.5C 2357.88,1436.1 2512.55,1383.26 2659.5,1308C 2727.65,1273.15 2790.31,1230.49 2847.5,1180C 2861.67,1174.35 2876,1174.02 2890.5,1179C 2978.41,1204.98 3066.41,1230.64 3154.5,1256C 3160.56,1257.86 3166.23,1260.53 3171.5,1264C 3175.28,1269.38 3175.44,1274.88 3172,1280.5C 3150.58,1309.26 3125.74,1334.76 3097.5,1357C 3044.36,1396.92 2987.03,1430.26 2925.5,1457C 2910.69,1462.91 2896.03,1469.07 2881.5,1475.5 Z"/></g>
<g><path style="opacity:0.997" fill="#0066aa" d="M 2184.5,1466.5 C 2188.17,1466.5 2191.83,1466.5 2195.5,1466.5C 2216.09,1471.82 2237.09,1475.66 2258.5,1478C 2395.48,1493.93 2532.64,1498.43 2670,1491.5C 2671,1491.83 2672,1492.17 2673,1492.5C 2695.08,1490.37 2717.08,1488.7 2739,1487.5C 2781.61,1485.21 2823.94,1481.21 2866,1475.5C 2871.14,1475.13 2876.31,1475.13 2881.5,1475.5C 2819.03,1501.38 2754.7,1521.54 2688.5,1536C 2581.02,1559.52 2472.36,1574.52 2362.5,1581C 2319.36,1583.51 2276.36,1585.67 2233.5,1587.5C 2203.17,1587.5 2172.83,1587.5 2142.5,1587.5C 2020.53,1584.85 1898.86,1574.02 1777.5,1555C 1688.38,1540.3 1601.38,1517.64 1516.5,1487C 1508.29,1483.72 1500.29,1480.22 1492.5,1476.5C 1498.24,1476.51 1504.07,1476.51 1510,1476.5C 1653.7,1493.35 1796.7,1498.35 1939,1491.5C 2021.03,1488.57 2102.86,1480.24 2184.5,1466.5 Z"/></g>
</svg>
