<?xml version="1.0" encoding="UTF-8"?>
<!DOCTYPE svg PUBLIC "-//W3C//DTD SVG 1.1//EN" "http://www.w3.org/Graphics/SVG/1.1/DTD/svg11.dtd">
<svg xmlns="http://www.w3.org/2000/svg" version="1.1" width="3176px" height="1589px" style="shape-rendering:geometricPrecision; text-rendering:geometricPrecision; image-rendering:optimizeQuality; fill-rule:evenodd; clip-rule:evenodd" xmlns:xlink="http://www.w3.org/1999/xlink">
<g><path style="opacity:0.996" fill="#feca05" d="M 2371.5,125.5 C 2407.46,122.848 2441.46,129.682 2473.5,146C 2481.18,150.506 2488.51,155.506 2495.5,161C 2521.83,189.333 2548.17,217.667 2574.5,246C 2601.22,265.787 2631.22,273.787 2664.5,270C 2674.03,268.95 2683.37,266.95 2692.5,264C 2741.61,242.445 2789.61,218.778 2836.5,193C 2857.64,182.454 2879.97,176.288 2903.5,174.5C 2924.36,174.728 2942.69,181.561 2958.5,195C 2987.14,223.636 3014.31,253.469 3040,284.5C 3041.29,286.055 3041.96,287.721 3042,289.5C 2959.25,332.461 2876.41,375.294 2793.5,418C 2750.93,437.397 2712.59,431.731 2678.5,401C 2659.26,382.092 2641.09,362.259 2624,341.5C 2584.91,300.194 2537.07,281.027 2480.5,284C 2434.57,287.744 2390.9,300.411 2349.5,322C 2277.99,359.255 2206.32,396.255 2134.5,433C 2112.82,442.341 2090.32,445.841 2067,443.5C 2058.91,440.529 2050.75,436.696 2042.5,432C 2022.09,411.016 2002.26,389.516 1983,367.5C 1967.64,351.13 1950.81,336.63 1932.5,324C 1903.51,305.292 1871.68,296.458 1837,297.5C 1800.92,297.917 1766.08,304.75 1732.5,318C 1713.14,325.845 1694.14,334.511 1675.5,344C 1610.66,377.922 1545.66,411.589 1480.5,445C 1435.33,463.612 1392,459.612 1350.5,433C 1343.37,427.541 1336.54,421.708 1330,415.5C 1309.34,393.008 1288.84,370.342 1268.5,347.5C 1392.93,283.17 1517.93,219.67 1643.5,157C 1687.38,140.578 1732.38,136.245 1778.5,144C 1803.68,149.921 1825.68,161.588 1844.5,179C 1863.04,199.203 1881.2,219.703 1899,240.5C 1923.49,270.083 1954.83,284.75 1993,284.5C 2009.72,284.023 2025.88,280.857 2041.5,275C 2126.28,231.442 2211.28,188.108 2296.5,145C 2320.69,134.87 2345.69,128.37 2371.5,125.5 Z"/></g>
<g><path style="opacity:0.999" fill="#00583c" d="M 1737.5,415.5 C 1768.5,415.5 1799.5,415.5 1830.5,415.5C 1830.33,551.5 1830.5,687.5 1831,823.5C 1831.4,839.536 1832.23,855.536 1833.5,871.5C 1805.83,871.5 1778.17,871.5 1750.5,871.5C 1749.19,854.488 1747.69,837.488 1746,820.5C 1726.86,848.343 1700.7,866.176 1667.5,874C 1614.57,886.016 1566.9,875.183 1524.5,841.5C 1493.56,811.93 1476.06,775.264 1472,731.5C 1467.57,685.904 1477.57,643.904 1502,605.5C 1540.77,555.382 1591.94,533.548 1655.5,540C 1679.74,542.632 1701.74,550.965 1721.5,565C 1727.03,570.198 1732.2,575.698 1737,581.5C 1737.5,526.168 1737.67,470.834 1737.5,415.5 Z M 1655.5,602.5 C 1683.06,602.868 1705.56,613.535 1723,634.5C 1731.01,645.535 1735.68,657.869 1737,671.5C 1737.17,683.167 1737.33,694.833 1737.5,706.5C 1737.61,720.205 1737.11,733.872 1736,747.5C 1728.64,781.19 1708.14,802.023 1674.5,810C 1641.1,816.367 1612.6,807.534 1589,783.5C 1572.62,761.845 1564.79,737.345 1565.5,710C 1564.9,681.802 1572.73,656.302 1589,633.5C 1606.76,613.536 1628.92,603.203 1655.5,602.5 Z"/></g>
<g><path style="opacity:0.999" fill="#00583c" d="M 339.5,538.5 C 376.414,536.077 407.914,547.743 434,573.5C 440.482,581.156 445.982,589.489 450.5,598.5C 489.766,548.46 540.766,529.96 603.5,543C 645.396,555.23 672.23,582.397 684,624.5C 688.546,641.871 690.88,659.538 691,677.5C 691.5,742.166 691.667,806.832 691.5,871.5C 661.167,871.5 630.833,871.5 600.5,871.5C 600.667,806.499 600.5,741.499 600,676.5C 599.044,661.301 595.044,646.968 588,633.5C 573.246,611.898 552.746,603.065 526.5,607C 500.122,611.773 481.955,626.606 472,651.5C 470.524,656.406 469.524,661.406 469,666.5C 468.667,734.5 468.333,802.5 468,870.5C 437.907,871.495 407.74,871.829 377.5,871.5C 377.667,804.833 377.5,738.166 377,671.5C 371.527,619.682 343.36,599.182 292.5,610C 263.599,622.284 247.765,644.118 245,675.5C 244.5,740.832 244.333,806.166 244.5,871.5C 214.5,871.5 184.5,871.5 154.5,871.5C 154.667,781.833 154.5,692.166 154,602.5C 153.628,583.808 152.795,565.141 151.5,546.5C 178.167,546.5 204.833,546.5 231.5,546.5C 232.417,562.599 233.917,578.599 236,594.5C 261.544,559.475 296.044,540.808 339.5,538.5 Z"/></g>
<g><path style="opacity:0.999" fill="#00583c" d="M 880.5,538.5 C 909.28,537.604 937.28,541.771 964.5,551C 1003.24,566.951 1027.07,595.451 1036,636.5C 1037.33,643.454 1038.33,650.454 1039,657.5C 1039.15,716.174 1039.82,774.841 1041,833.5C 1041.61,846.154 1043.11,858.654 1045.5,871C 1017.5,871.5 989.502,871.667 961.5,871.5C 959.807,859.337 957.474,847.337 954.5,835.5C 919.889,868.61 878.555,882.777 830.5,878C 795.441,875.217 767.274,859.717 746,831.5C 727.393,798.592 726.726,765.259 744,731.5C 760.764,705.663 783.931,687.829 813.5,678C 839.423,668.882 866.09,663.215 893.5,661C 911.748,659.503 929.748,658.669 947.5,658.5C 947.813,628.265 933.48,609.098 904.5,601C 859.604,593.724 816.937,600.557 776.5,621.5C 769.977,603.932 763.643,586.265 757.5,568.5C 764.576,563.632 772.242,559.798 780.5,557C 813.029,545.763 846.362,539.596 880.5,538.5 Z M 937.5,712.5 C 941.019,712.955 945.019,712.955 949.5,712.5C 949.667,729.17 949.5,745.837 949,762.5C 946.979,778.839 939.479,792.005 926.5,802C 902.596,819.387 876.596,823.387 848.5,814C 831.674,805.867 823.341,792.367 823.5,773.5C 823.687,756.958 830.354,743.792 843.5,734C 859.102,724.242 876.102,718.242 894.5,716C 908.953,714.414 923.286,713.247 937.5,712.5 Z"/></g>
<g><path style="opacity:0.999" fill="#00583c" d="M 1293.5,538.5 C 1380.79,539.29 1426.96,583.29 1432,670.5C 1432.5,737.499 1432.67,804.499 1432.5,871.5C 1401.5,871.5 1370.5,871.5 1339.5,871.5C 1339.67,805.499 1339.5,739.499 1339,673.5C 1331.87,620.724 1302.04,599.224 1249.5,609C 1224.16,617.071 1207,633.571 1198,658.5C 1197,663.453 1196.34,668.453 1196,673.5C 1195.5,739.499 1195.33,805.499 1195.5,871.5C 1164.5,871.5 1133.5,871.5 1102.5,871.5C 1102.67,781.833 1102.5,692.166 1102,602.5C 1101.63,583.807 1100.79,565.141 1099.5,546.5C 1126.51,546.167 1153.51,546.5 1180.5,547.5C 1182.33,562.109 1183.83,576.776 1185,591.5C 1185.25,592.624 1185.75,593.624 1186.5,594.5C 1204.52,570.136 1228.19,553.636 1257.5,545C 1269.46,541.841 1281.46,539.674 1293.5,538.5 Z"/></g>
<g><path style="opacity:0.996" fill="#00573c" d="M 1894.5,546.5 C 1925.5,546.5 1956.5,546.5 1987.5,546.5C 1987.5,654.833 1987.5,763.167 1987.5,871.5C 1956.5,871.5 1925.5,871.5 1894.5,871.5C 1894.5,763.167 1894.5,654.833 1894.5,546.5 Z"/></g>
<g><path style="opacity:1" fill="#00583c" d="M 2235.5,545.5 C 2242.23,545.205 2248.89,545.538 2255.5,546.5C 2256.5,570.491 2256.83,594.491 2256.5,618.5C 2243.22,616.694 2229.89,616.194 2216.5,617C 2173.04,624.13 2149.2,649.63 2145,693.5C 2144.5,752.832 2144.33,812.166 2144.5,871.5C 2113.5,871.5 2082.5,871.5 2051.5,871.5C 2051.67,778.499 2051.5,685.499 2051,592.5C 2050.61,577.13 2049.77,561.797 2048.5,546.5C 2075.5,546.5 2102.5,546.5 2129.5,546.5C 2130.41,566.841 2131.41,587.174 2132.5,607.5C 2133.68,607.719 2134.68,607.386 2135.5,606.5C 2148.09,576.746 2170.09,557.913 2201.5,550C 2212.86,547.51 2224.19,546.01 2235.5,545.5 Z"/></g>
<g><path style="opacity:1" fill="#01583c" d="M 2297.5,546.5 C 2328.83,546.5 2360.17,546.5 2391.5,546.5C 2391.5,654.833 2391.5,763.167 2391.5,871.5C 2360.17,871.5 2328.83,871.5 2297.5,871.5C 2297.5,763.167 2297.5,654.833 2297.5,546.5 Z"/></g>
<g><path style="opacity:0.999" fill="#01583c" d="M 1606.5,948.5 C 1617.83,948.5 1629.17,948.5 1640.5,948.5C 1640.33,995.168 1640.5,1041.83 1641,1088.5C 1664.95,1052.92 1698.45,1032.76 1741.5,1028C 1782.87,1023.68 1818.04,1036.18 1847,1065.5C 1862.92,1085.68 1871.92,1108.68 1874,1134.5C 1875.43,1202.49 1875.93,1270.49 1875.5,1338.5C 1863.69,1339.54 1852.02,1339.54 1840.5,1338.5C 1840.67,1273.17 1840.5,1207.83 1840,1142.5C 1838.62,1119.7 1830.96,1099.36 1817,1081.5C 1798.13,1062.31 1775.13,1053.31 1748,1054.5C 1706.35,1055.65 1674.35,1073.65 1652,1108.5C 1646.12,1119.13 1642.46,1130.46 1641,1142.5C 1640.5,1207.83 1640.33,1273.17 1640.5,1338.5C 1629.37,1338.71 1618.04,1338.71 1606.5,1338.5C 1606.5,1208.5 1606.5,1078.5 1606.5,948.5 Z"/></g>
<g><path style="opacity:0.998" fill="#01583c" d="M 231.5,1027.5 C 258.061,1025.54 283.727,1029.38 308.5,1039C 313.492,1041.16 318.159,1043.83 322.5,1047C 318.033,1055.44 313.199,1063.61 308,1071.5C 274.307,1051.64 239.14,1048.47 202.5,1062C 178.323,1077.2 170.823,1098.36 180,1125.5C 185.833,1135.33 193.667,1143.17 203.5,1149C 211.712,1153.27 220.045,1157.27 228.5,1161C 250.191,1168.45 271.191,1177.45 291.5,1188C 329.967,1211.72 342.133,1245.22 328,1288.5C 317.653,1310.51 301.153,1326.01 278.5,1335C 228.965,1351.85 180.631,1348.52 133.5,1325C 132.446,1323.61 132.28,1322.11 133,1320.5C 136.606,1313.62 139.939,1306.62 143,1299.5C 144.049,1298.48 145.216,1298.32 146.5,1299C 183.427,1319.28 222.094,1323.62 262.5,1312C 293.255,1298.99 304.755,1276.16 297,1243.5C 291.797,1230.63 283.297,1220.46 271.5,1213C 251.611,1202.26 230.945,1193.26 209.5,1186C 199.634,1181.91 190.634,1177.24 182.5,1172C 139.006,1144.52 130.506,1108.69 157,1064.5C 176.844,1042.16 201.678,1029.83 231.5,1027.5 Z"/></g>
<g><path style="opacity:0.998" fill="#01583c" d="M 769.5,1027.5 C 797.248,1025.13 823.914,1029.3 849.5,1040C 877.486,1055.7 894.319,1079.53 900,1111.5C 901.562,1119.77 902.562,1128.1 903,1136.5C 903.333,1188.83 903.667,1241.17 904,1293.5C 904.571,1308.28 906.071,1322.95 908.5,1337.5C 907.372,1338.26 906.205,1338.93 905,1339.5C 895.673,1338.83 886.173,1338.49 876.5,1338.5C 875.167,1324.17 873.833,1309.83 872.5,1295.5C 871.448,1295.35 870.448,1295.52 869.5,1296C 850.372,1319.91 825.705,1335.25 795.5,1342C 764.429,1349.06 734.429,1346.06 705.5,1333C 668.254,1310.64 654.754,1278.14 665,1235.5C 673.28,1210.89 688.78,1192.39 711.5,1180C 744.185,1163.49 778.852,1154.16 815.5,1152C 833.777,1150.97 851.777,1150.14 869.5,1149.5C 870.552,1127.25 866.052,1106.25 856,1086.5C 841.68,1065.92 821.846,1055.09 796.5,1054C 760.855,1050.93 727.689,1058.43 697,1076.5C 693.939,1069.38 690.606,1062.38 687,1055.5C 686.251,1054.36 686.417,1053.36 687.5,1052.5C 713.223,1038.57 740.557,1030.24 769.5,1027.5 Z M 839.5,1176.5 C 848.443,1176.95 856.776,1176.95 864.5,1176.5C 866.167,1176.5 867.833,1176.5 869.5,1176.5C 869.907,1201.2 869.407,1225.86 868,1250.5C 856.347,1285.48 832.513,1307.31 796.5,1316C 774.845,1321.37 753.512,1320.37 732.5,1313C 709.331,1301.53 697.664,1282.7 697.5,1256.5C 698.351,1231.62 709.351,1212.78 730.5,1200C 755.127,1187.09 781.127,1179.76 808.5,1178C 818.822,1177.21 829.155,1176.71 839.5,1176.5 Z"/></g>
<g><path style="opacity:0.996" fill="#01583c" d="M 1108.5,1027.5 C 1117.2,1027.29 1125.87,1027.62 1134.5,1028.5C 1134.5,1038.5 1134.5,1048.5 1134.5,1058.5C 1086.4,1053.76 1053.24,1073.76 1035,1118.5C 1029.41,1134.01 1026.41,1150.01 1026,1166.5C 1025.5,1223.83 1025.33,1281.17 1025.5,1338.5C 1014.27,1339.37 1002.93,1339.37 991.5,1338.5C 991.667,1256.17 991.5,1173.83 991,1091.5C 990.522,1072.48 989.689,1053.48 988.5,1034.5C 999.167,1034.5 1009.83,1034.5 1020.5,1034.5C 1021.02,1054.85 1021.85,1075.18 1023,1095.5C 1039.03,1056.93 1067.53,1034.26 1108.5,1027.5 Z"/></g>
<g><path style="opacity:0.998" fill="#02583c" d="M 1384.5,1027.5 C 1406.56,1025.95 1428.23,1028.12 1449.5,1034C 1479.27,1044.1 1499.43,1063.93 1510,1093.5C 1513.36,1104.28 1515.69,1115.28 1517,1126.5C 1518.25,1183.82 1518.91,1241.16 1519,1298.5C 1519.7,1310.54 1520.87,1322.54 1522.5,1334.5C 1522.4,1336.62 1521.57,1338.29 1520,1339.5C 1510.67,1338.83 1501.17,1338.49 1491.5,1338.5C 1490.04,1324.84 1488.54,1311.17 1487,1297.5C 1486.69,1296.69 1486.19,1296.03 1485.5,1295.5C 1457.01,1328.57 1420.67,1345.24 1376.5,1345.5C 1351.22,1345.93 1328.22,1339.1 1307.5,1325C 1279.72,1301.07 1270.55,1271.24 1280,1235.5C 1287.87,1210.63 1303.37,1192.13 1326.5,1180C 1359.19,1163.49 1393.85,1154.16 1430.5,1152C 1448.45,1150.99 1466.12,1150.16 1483.5,1149.5C 1485.99,1123.41 1479.82,1099.75 1465,1078.5C 1450.41,1063.46 1432.58,1055.29 1411.5,1054C 1375.86,1050.93 1342.69,1058.43 1312,1076.5C 1308.47,1069.59 1305.14,1062.59 1302,1055.5C 1301.25,1054.36 1301.42,1053.36 1302.5,1052.5C 1328.19,1038.49 1355.52,1030.16 1384.5,1027.5 Z M 1454.5,1176.5 C 1463.44,1176.95 1471.78,1176.95 1479.5,1176.5C 1480.83,1176.5 1482.17,1176.5 1483.5,1176.5C 1483.67,1200.5 1483.5,1224.5 1483,1248.5C 1475.18,1277.65 1457.35,1298.15 1429.5,1310C 1402.48,1321.15 1375.14,1322.15 1347.5,1313C 1324.08,1301.87 1312.41,1283.2 1312.5,1257C 1313.77,1227.73 1327.77,1207.06 1354.5,1195C 1386.53,1182.05 1419.86,1175.88 1454.5,1176.5 Z"/></g>
<g><path style="opacity:0.997" fill="#01583c" d="M 351.5,1034.5 C 364.08,1034.18 376.58,1034.51 389,1035.5C 418.333,1100.83 447.667,1166.17 477,1231.5C 486.189,1253.23 494.689,1275.23 502.5,1297.5C 538.263,1209.97 574.597,1122.63 611.5,1035.5C 623.833,1034.17 636.167,1034.17 648.5,1035.5C 604.608,1133.62 560.441,1231.62 516,1329.5C 500.566,1362.55 481.566,1393.22 459,1421.5C 444.282,1438.4 427.116,1452.07 407.5,1462.5C 402.797,1454.1 398.963,1445.44 396,1436.5C 432.269,1412.56 459.603,1380.9 478,1341.5C 479.576,1337.44 480.743,1333.27 481.5,1329C 478.712,1319.59 475.212,1310.42 471,1301.5C 431.064,1212.52 391.231,1123.52 351.5,1034.5 Z"/></g>
<g><path style="opacity:0.996" fill="#00573c" d="M 1179.5,1034.5 C 1190.83,1034.5 1202.17,1034.5 1213.5,1034.5C 1213.5,1135.83 1213.5,1237.17 1213.5,1338.5C 1202.17,1338.5 1190.83,1338.5 1179.5,1338.5C 1179.5,1237.17 1179.5,1135.83 1179.5,1034.5 Z"/></g>
<g><path style="opacity:0.114" fill="#456f2d" d="M 839.5,1176.5 C 847.833,1175.17 856.167,1175.17 864.5,1176.5C 856.776,1176.95 848.443,1176.95 839.5,1176.5 Z"/></g>
<g><path style="opacity:0.114" fill="#456f2d" d="M 1454.5,1176.5 C 1462.83,1175.17 1471.17,1175.17 1479.5,1176.5C 1471.78,1176.95 1463.44,1176.95 1454.5,1176.5 Z"/></g>
</svg>
