<?xml version="1.0" encoding="UTF-8"?>
<!DOCTYPE svg PUBLIC "-//W3C//DTD SVG 1.1//EN" "http://www.w3.org/Graphics/SVG/1.1/DTD/svg11.dtd">
<svg xmlns="http://www.w3.org/2000/svg" version="1.1" width="3176px" height="1588px" style="shape-rendering:geometricPrecision; text-rendering:geometricPrecision; image-rendering:optimizeQuality; fill-rule:evenodd; clip-rule:evenodd" xmlns:xlink="http://www.w3.org/1999/xlink">
<g><path style="opacity:0.999" fill="#ec1a2e" d="M 508.5,-0.5 C 581.167,-0.5 653.833,-0.5 726.5,-0.5C 743.216,0.625046 759.55,4.12505 775.5,10C 789.748,16.5791 801.248,26.4124 810,39.5C 826.071,66.0274 838.071,94.3607 846,124.5C 887.532,262.929 929.365,401.262 971.5,539.5C 891.169,540.667 810.835,540.833 730.5,540C 713.567,536.535 698.9,528.868 686.5,517C 668.1,497.389 654.933,474.556 647,448.5C 600.982,298.752 554.815,149.085 508.5,-0.5 Z"/></g>
<g><path style="opacity:0.998" fill="#006ab7" d="M 232.5,1587.5 C 232.167,1587.5 231.833,1587.5 231.5,1587.5C 230.833,1586.17 230.167,1586.17 229.5,1587.5C 152.833,1587.5 76.1667,1587.5 -0.5,1587.5C -0.5,1586.83 -0.5,1586.17 -0.5,1585.5C 78.7748,1316.09 157.608,1046.42 236,776.5C 243.459,749.419 255.125,724.419 271,701.5C 287.406,683.348 307.906,673.182 332.5,671C 341.811,670.038 351.145,669.372 360.5,669C 433.499,668.5 506.499,668.333 579.5,668.5C 561.041,705.435 545.874,743.769 534,783.5C 464.401,1024.96 394.401,1266.3 324,1507.5C 316.025,1529.96 303.191,1549.13 285.5,1565C 269.729,1577.09 252.063,1584.59 232.5,1587.5 Z"/></g>
<g><path style="opacity:0.435" fill="#b3ac2a" d="M 771.5,668.5 C 838.17,668.167 904.837,668.5 971.5,669.5C 971.376,670.107 971.043,670.44 970.5,670.5C 904.167,669.833 837.833,669.167 771.5,668.5 Z"/></g>
<g><path style="opacity:1" fill="#082313" d="M 1147.5,667.5 C 1180.83,667.333 1214.17,667.5 1247.5,668C 1273.78,669.224 1294.28,680.724 1309,702.5C 1327.31,730.467 1338.31,761.134 1342,794.5C 1344.39,836.546 1343.72,878.546 1340,920.5C 1336.45,954.421 1322.62,983.254 1298.5,1007C 1276.2,1024.99 1250.7,1033.15 1222,1031.5C 1217.41,1030.62 1212.91,1030.29 1208.5,1030.5C 1207.5,1090.16 1207.17,1149.83 1207.5,1209.5C 1187.62,1209.58 1168.12,1209.91 1149,1210.5C 1148.25,1209.87 1147.42,1209.37 1146.5,1209C 1147.5,1028.57 1147.83,848.07 1147.5,667.5 Z M 1206.5,784.5 C 1217.67,785.332 1230,785.499 1243.5,785C 1258.43,788.897 1268.93,798.397 1275,813.5C 1285.87,845.369 1283.54,876.369 1268,906.5C 1263.21,914.486 1256.38,919.986 1247.5,923C 1233.84,923.5 1220.17,923.667 1206.5,923.5C 1206.5,877.167 1206.5,830.833 1206.5,784.5 Z"/></g>
<g><path style="opacity:1" fill="#082313" d="M 1439.5,775.5 C 1438.5,775.5 1437.5,775.5 1436.5,775.5C 1436.17,808.338 1436.5,841.004 1437.5,873.5C 1470.5,873.5 1503.5,873.5 1536.5,873.5C 1536.5,912.5 1536.5,951.5 1536.5,990.5C 1503.5,990.5 1470.5,990.5 1437.5,990.5C 1437.5,1023.17 1437.5,1055.83 1437.5,1088.5C 1471.5,1088.5 1505.5,1088.5 1539.5,1088.5C 1539.99,1129.31 1539.49,1169.98 1538,1210.5C 1484.9,1210.36 1431.74,1210.03 1378.5,1209.5C 1377.5,1028.83 1377.17,848.168 1377.5,667.5C 1431.4,667.169 1485.24,667.503 1539,668.5C 1539.67,704.167 1539.67,739.833 1539,775.5C 1505.85,776.684 1472.68,776.684 1439.5,775.5 Z"/></g>
<g><path style="opacity:1" fill="#082313" d="M 1594.5,667.5 C 1629.17,667.333 1663.83,667.5 1698.5,668C 1714.66,668.501 1728.49,674.334 1740,685.5C 1756.38,704.589 1767.05,726.589 1772,751.5C 1781.71,798.507 1784.05,845.84 1779,893.5C 1775.39,924.366 1763.39,951.366 1743,974.5C 1737.77,979.402 1732.27,983.902 1726.5,988C 1752.81,1061.76 1778.81,1135.59 1804.5,1209.5C 1780.29,1210.59 1756.46,1210.59 1733,1209.5C 1708.3,1137.93 1683.46,1066.43 1658.5,995C 1656.87,994.506 1655.2,994.34 1653.5,994.5C 1653.5,1066.17 1653.5,1137.83 1653.5,1209.5C 1633.63,1210.43 1613.96,1210.43 1594.5,1209.5C 1593.17,1028.76 1593.17,848.098 1594.5,667.5 Z M 1653.5,774.5 C 1664.33,774.606 1674.99,774.772 1685.5,775C 1699.07,777.48 1708.4,784.646 1713.5,796.5C 1717.28,807.674 1719.28,819.174 1719.5,831C 1719.39,850.039 1716.22,868.539 1710,886.5C 1704.65,899.181 1695.49,907.681 1682.5,912C 1672.87,913.244 1663.21,913.744 1653.5,913.5C 1653.5,867.167 1653.5,820.833 1653.5,774.5 Z"/></g>
<g><path style="opacity:0.294" fill="#172923" d="M 1807.5,668.5 C 1807.5,707.5 1807.5,746.5 1807.5,785.5C 1829.34,785.169 1851.01,785.503 1872.5,786.5C 1850.5,786.5 1828.5,786.5 1806.5,786.5C 1806.17,746.996 1806.5,707.663 1807.5,668.5 Z"/></g>
<g><path style="opacity:1" fill="#082313" d="M 2000.5,785.5 C 1978.5,785.5 1956.5,785.5 1934.5,785.5C 1934.5,926.833 1934.5,1068.17 1934.5,1209.5C 1913.95,1209.6 1893.45,1209.93 1873,1210.5C 1872.5,1210 1872,1209.5 1871.5,1209C 1872.5,1068.24 1872.83,927.403 1872.5,786.5C 1851.01,785.503 1829.34,785.169 1807.5,785.5C 1807.5,746.5 1807.5,707.5 1807.5,668.5C 1871.66,667.501 1936,667.168 2000.5,667.5C 2000.5,706.833 2000.5,746.167 2000.5,785.5 Z"/></g>
<g><path style="opacity:1" fill="#082313" d="M 2073.5,667.5 C 2094.08,667.173 2114.58,667.507 2135,668.5C 2163.72,848.807 2192.22,1029.14 2220.5,1209.5C 2199.3,1210.43 2178.3,1210.43 2157.5,1209.5C 2151.68,1177.57 2146.18,1145.57 2141,1113.5C 2128.41,1112.84 2115.74,1112.5 2103,1112.5C 2090.26,1112.5 2077.59,1112.84 2065,1113.5C 2058.96,1146.04 2052.29,1178.38 2045,1210.5C 2026.33,1210.5 2007.67,1210.5 1989,1210.5C 1988.25,1209.87 1987.42,1209.37 1986.5,1209C 2015.36,1028.47 2044.36,847.97 2073.5,667.5 Z M 2102.5,846.5 C 2111.04,900.618 2119.04,954.951 2126.5,1009.5C 2109.83,1009.5 2093.17,1009.5 2076.5,1009.5C 2085.27,955.184 2093.94,900.85 2102.5,846.5 Z"/></g>
<g><path style="opacity:1" fill="#082313" d="M 2281.5,667.5 C 2300.74,667.174 2319.91,667.507 2339,668.5C 2354.85,767.469 2370.52,866.469 2386,965.5C 2403.11,866.519 2420.11,767.519 2437,668.5C 2456.33,667.167 2475.67,667.167 2495,668.5C 2506.38,848.846 2517.38,1029.18 2528,1209.5C 2509.24,1209.69 2490.4,1209.69 2471.5,1209.5C 2466.09,1126.72 2461.25,1043.72 2457,960.5C 2455.6,956.644 2455.43,952.644 2456.5,948.5C 2455.56,934.507 2454.72,920.507 2454,906.5C 2435.43,1007.94 2416.43,1109.28 2397,1210.5C 2389.29,1209.53 2381.45,1209.19 2373.5,1209.5C 2356.07,1107.17 2338.57,1004.83 2321,902.5C 2312.72,1004.84 2304.39,1107.17 2296,1209.5C 2276.86,1209.52 2259.52,1209.85 2244,1210.5C 2243.33,1205.17 2243.33,1199.83 2244,1194.5C 2256,1018.74 2268.5,843.07 2281.5,667.5 Z"/></g>
<g><path style="opacity:1" fill="#082313" d="M 2566.5,667.5 C 2586.5,667.5 2606.5,667.5 2626.5,667.5C 2626.67,848.5 2626.5,1029.5 2626,1210.5C 2606.33,1210.17 2586.67,1209.83 2567,1209.5C 2566.5,1028.83 2566.33,848.167 2566.5,667.5 Z"/></g>
<g><path style="opacity:1" fill="#082313" d="M 3175.5,1207.5 C 3175.5,1208.17 3175.5,1208.83 3175.5,1209.5C 3154.52,1210.79 3133.52,1210.79 3112.5,1209.5C 3106.68,1177.58 3101.18,1145.58 3096,1113.5C 3083.41,1112.84 3070.74,1112.5 3058,1112.5C 3045.26,1112.5 3032.59,1112.84 3020,1113.5C 3013.7,1145.99 3007.04,1178.32 3000,1210.5C 2981.33,1210.5 2962.67,1210.5 2944,1210.5C 2943.08,1209.95 2942.24,1209.29 2941.5,1208.5C 2970.21,1029.55 2998.71,850.551 3027,671.5C 3027.31,670.234 3027.81,669.067 3028.5,668C 3049.07,667.174 3069.57,667.341 3090,668.5C 3118.38,848.327 3146.88,1027.99 3175.5,1207.5 Z M 3057.5,845.5 C 3065.67,899.683 3073.67,954.016 3081.5,1008.5C 3064.51,1009.67 3047.51,1009.83 3030.5,1009C 3040.2,954.646 3049.2,900.146 3057.5,845.5 Z"/></g>
<g><path style="opacity:0.999" fill="#abc22a" d="M 771.5,668.5 C 837.833,669.167 904.167,669.833 970.5,670.5C 924.976,819.906 879.143,969.239 833,1118.5C 824.702,1146.77 809.868,1170.94 788.5,1191C 776.264,1201.12 762.264,1207.45 746.5,1210C 667.167,1210.67 587.833,1210.67 508.5,1210C 550.859,1070.59 593.026,931.087 635,791.5C 642.178,766.962 651.512,743.295 663,720.5C 681.358,687.72 709.525,670.887 747.5,670C 755.519,669.657 763.519,669.157 771.5,668.5 Z"/></g>
<g><path style="opacity:1" fill="#082313" d="M 2741.5,894.5 C 2740.91,893.234 2740.41,891.901 2740,890.5C 2739.5,996.833 2739.33,1103.17 2739.5,1209.5C 2720.12,1209.74 2700.62,1210.07 2681,1210.5C 2680.5,1030.5 2680.33,850.5 2680.5,670.5C 2699.51,670.167 2718.51,670.5 2737.5,671.5C 2775.1,781.118 2812.6,890.785 2850,1000.5C 2850.5,890.501 2850.67,780.501 2850.5,670.5C 2868.83,670.5 2887.17,670.5 2905.5,670.5C 2905.67,850.5 2905.5,1030.5 2905,1210.5C 2885.67,1209.17 2866.33,1209.17 2847,1210.5C 2846,1209.83 2845,1209.17 2844,1208.5C 2809.89,1104.43 2775.73,999.762 2741.5,894.5 Z"/></g>
<g><path style="opacity:0.11" fill="#27352a" d="M 1439.5,775.5 C 1437.52,807.944 1436.85,840.61 1437.5,873.5C 1436.5,841.004 1436.17,808.338 1436.5,775.5C 1437.5,775.5 1438.5,775.5 1439.5,775.5 Z"/></g>
<g><path style="opacity:0.11" fill="#27352a" d="M 2000.5,785.5 C 1979.01,786.497 1957.34,786.831 1935.5,786.5C 1935.83,927.668 1935.5,1068.67 1934.5,1209.5C 1934.5,1068.17 1934.5,926.833 1934.5,785.5C 1956.5,785.5 1978.5,785.5 2000.5,785.5 Z"/></g>
<g><path style="opacity:0.11" fill="#27342a" d="M 2741.5,894.5 C 2740.83,999.5 2740.17,1104.5 2739.5,1209.5C 2739.33,1103.17 2739.5,996.833 2740,890.5C 2740.41,891.901 2740.91,893.234 2741.5,894.5 Z"/></g>
</svg>
