<?xml version="1.0" encoding="UTF-8"?>
<!DOCTYPE svg PUBLIC "-//W3C//DTD SVG 1.1//EN" "http://www.w3.org/Graphics/SVG/1.1/DTD/svg11.dtd">
<svg xmlns="http://www.w3.org/2000/svg" version="1.1" width="1200px" height="1000px" style="shape-rendering:geometricPrecision; text-rendering:geometricPrecision; image-rendering:optimizeQuality; fill-rule:evenodd; clip-rule:evenodd" xmlns:xlink="http://www.w3.org/1999/xlink">
<g><path style="opacity:0.997" fill="#c3df14" d="M 525.5,-0.5 C 566.167,-0.5 606.833,-0.5 647.5,-0.5C 726.167,136.833 804.833,274.167 883.5,411.5C 810.833,411.5 738.167,411.5 665.5,411.5C 639.266,364.032 612.766,316.699 586,269.5C 559.059,317.059 531.892,364.392 504.5,411.5C 433.5,411.5 362.5,411.5 291.5,411.5C 290.833,411.5 290.167,411.5 289.5,411.5C 368.684,274.465 447.351,137.132 525.5,-0.5 Z"/></g>
<g><path style="opacity:1" fill="#125229" d="M 665.5,411.5 C 698.246,471.328 731.246,530.994 764.5,590.5C 733.013,590.756 706.013,591.089 683.5,591.5C 650.774,533.724 618.274,475.724 586,417.5C 553.059,475.726 519.892,533.726 486.5,591.5C 458.833,591.5 431.167,591.5 403.5,591.5C 437.167,531.5 470.833,471.5 504.5,411.5C 531.892,364.392 559.059,317.059 586,269.5C 612.766,316.699 639.266,364.032 665.5,411.5 Z"/></g>
<g><path style="opacity:1" fill="#fdfdfd" d="M 291.5,411.5 C 362.5,411.5 433.5,411.5 504.5,411.5C 470.833,471.5 437.167,531.5 403.5,591.5C 385.347,563.874 367.681,535.874 350.5,507.5C 330.321,475.806 310.654,443.806 291.5,411.5 Z"/></g>
<g><path style="opacity:1" fill="#fdfdfd" d="M 665.5,411.5 C 738.167,411.5 810.833,411.5 883.5,411.5C 884.167,411.5 884.5,411.833 884.5,412.5C 863.2,444.144 841.866,475.81 820.5,507.5C 801.8,535.19 783.134,562.856 764.5,590.5C 731.246,530.994 698.246,471.328 665.5,411.5 Z"/></g>
<g><path style="opacity:0.999" fill="#125129" d="M 884.5,412.5 C 902.765,444.032 920.765,475.698 938.5,507.5C 899.167,507.5 859.833,507.5 820.5,507.5C 841.866,475.81 863.2,444.144 884.5,412.5 Z"/></g>
<g><path style="opacity:1" fill="#fdfdfd" d="M 683.5,591.5 C 714.743,649.658 746.743,707.324 779.5,764.5C 649.667,765.001 519.667,765.001 389.5,764.5C 422.087,706.995 454.42,649.328 486.5,591.5C 519.892,533.726 553.059,475.726 586,417.5C 618.274,475.724 650.774,533.724 683.5,591.5 Z"/></g>
<g><path style="opacity:0.999" fill="#125128" d="M 289.5,411.5 C 290.167,411.5 290.833,411.5 291.5,411.5C 310.654,443.806 330.321,475.806 350.5,507.5C 311.828,507.167 273.161,507.5 234.5,508.5C 286.192,593.897 337.859,679.23 389.5,764.5C 519.667,765.001 649.667,765.001 779.5,764.5C 832.736,679.037 885.736,593.37 938.5,507.5C 977.719,574.584 1016.39,642.084 1054.5,710C 1034.97,744.232 1015.3,778.399 995.5,812.5C 723.501,814.105 451.501,814.938 179.5,815C 158.707,779.248 138.04,743.415 117.5,707.5C 174.845,608.806 232.178,510.139 289.5,411.5 Z"/></g>
<g><path style="opacity:1" fill="#c3df15" d="M 820.5,507.5 C 859.833,507.5 899.167,507.5 938.5,507.5C 885.736,593.37 832.736,679.037 779.5,764.5C 746.743,707.324 714.743,649.658 683.5,591.5C 706.013,591.089 733.013,590.756 764.5,590.5C 783.134,562.856 801.8,535.19 820.5,507.5 Z"/></g>
<g><path style="opacity:1" fill="#c3df14" d="M 350.5,507.5 C 367.681,535.874 385.347,563.874 403.5,591.5C 431.167,591.5 458.833,591.5 486.5,591.5C 454.42,649.328 422.087,706.995 389.5,764.5C 337.859,679.23 286.192,593.897 234.5,508.5C 273.161,507.5 311.828,507.167 350.5,507.5 Z"/></g>
<g><path style="opacity:1" fill="#040504" d="M 580.5,594.5 C 595.332,593.17 602.499,599.837 602,614.5C 596.4,626.395 587.9,629.228 576.5,623C 569.88,616.477 568.713,608.977 573,600.5C 575.114,597.879 577.614,595.879 580.5,594.5 Z"/></g>
<g><path style="opacity:1" fill="#020202" d="M 636.5,601.5 C 642.646,601.148 646.313,603.982 647.5,610C 647.375,611.627 646.875,613.127 646,614.5C 631.667,628.833 617.333,643.167 603,657.5C 598.391,686.303 596.391,715.303 597,744.5C 590.648,738.647 584.148,732.98 577.5,727.5C 577.453,704.352 575.619,681.352 572,658.5C 562.03,647.529 551.697,636.863 541,626.5C 539.336,617.834 542.836,614 551.5,615C 557.469,619.967 563.135,625.301 568.5,631C 569.833,631.667 571.167,632.333 572.5,633C 582.167,633.667 591.833,633.667 601.5,633C 603.246,632.529 604.913,631.862 606.5,631C 616.395,620.937 626.395,611.104 636.5,601.5 Z"/></g>
<g><path style="opacity:0.994" fill="#000301" d="M -0.5,875.5 C 3.16667,875.5 6.83333,875.5 10.5,875.5C 10.3337,882.175 10.5004,888.842 11,895.5C 16.8333,889 22.6667,882.5 28.5,876C 32.8713,875.172 37.2047,875.339 41.5,876.5C 35.5989,882.645 29.9322,888.978 24.5,895.5C 30.5,905.167 36.5,914.833 42.5,924.5C 38.2047,925.661 33.8713,925.828 29.5,925C 25.7325,917.574 21.5658,910.408 17,903.5C 15,905.5 13,907.5 11,909.5C 10.5006,914.823 10.334,920.156 10.5,925.5C 6.83333,925.5 3.16667,925.5 -0.5,925.5C -0.5,908.833 -0.5,892.167 -0.5,875.5 Z"/></g>
<g><path style="opacity:0.994" fill="#000200" d="M 47.5,875.5 C 59.1667,875.5 70.8333,875.5 82.5,875.5C 82.5,878.5 82.5,881.5 82.5,884.5C 74.1667,884.5 65.8333,884.5 57.5,884.5C 57.5,887.833 57.5,891.167 57.5,894.5C 65.1667,894.5 72.8333,894.5 80.5,894.5C 80.5,897.833 80.5,901.167 80.5,904.5C 72.8333,904.5 65.1667,904.5 57.5,904.5C 57.5,908.5 57.5,912.5 57.5,916.5C 66.1667,916.5 74.8333,916.5 83.5,916.5C 83.5,919.5 83.5,922.5 83.5,925.5C 71.5,925.5 59.5,925.5 47.5,925.5C 47.5,908.833 47.5,892.167 47.5,875.5 Z"/></g>
<g><path style="opacity:0.988" fill="#000301" d="M 90.5,875.5 C 95.544,875.173 100.544,875.506 105.5,876.5C 108.033,886.64 110.867,896.64 114,906.5C 116.661,896.189 119.161,885.856 121.5,875.5C 126.5,875.5 131.5,875.5 136.5,875.5C 136.5,892.167 136.5,908.833 136.5,925.5C 133.5,925.5 130.5,925.5 127.5,925.5C 127.667,913.829 127.5,902.162 127,890.5C 124.333,901.833 121.667,913.167 119,924.5C 115.606,925.456 112.106,925.789 108.5,925.5C 106.319,914.775 103.819,904.108 101,893.5C 100.5,904.161 100.333,914.828 100.5,925.5C 97.1667,925.5 93.8333,925.5 90.5,925.5C 90.5,908.833 90.5,892.167 90.5,875.5 Z"/></g>
<g><path style="opacity:0.977" fill="#000200" d="M 145.5,875.5 C 157.167,875.5 168.833,875.5 180.5,875.5C 180.5,878.5 180.5,881.5 180.5,884.5C 172.167,884.5 163.833,884.5 155.5,884.5C 155.5,887.833 155.5,891.167 155.5,894.5C 163.174,894.334 170.841,894.5 178.5,895C 179.833,898 179.833,901 178.5,904C 170.841,904.5 163.174,904.666 155.5,904.5C 155.5,908.5 155.5,912.5 155.5,916.5C 164.167,916.5 172.833,916.5 181.5,916.5C 181.5,919.5 181.5,922.5 181.5,925.5C 169.5,925.5 157.5,925.5 145.5,925.5C 145.5,908.833 145.5,892.167 145.5,875.5 Z"/></g>
<g><path style="opacity:0.989" fill="#000200" d="M 189.5,875.5 C 192.898,875.18 196.232,875.513 199.5,876.5C 205.586,886.336 211.419,896.336 217,906.5C 217.5,896.172 217.666,885.839 217.5,875.5C 220.833,875.5 224.167,875.5 227.5,875.5C 227.5,892.167 227.5,908.833 227.5,925.5C 223.563,925.793 219.73,925.46 216,924.5C 210.586,914.669 204.919,905.002 199,895.5C 198.5,905.494 198.334,915.494 198.5,925.5C 195.5,925.5 192.5,925.5 189.5,925.5C 189.5,908.833 189.5,892.167 189.5,875.5 Z"/></g>
<g><path style="opacity:0.993" fill="#010401" d="M 233.5,875.5 C 246.167,875.5 258.833,875.5 271.5,875.5C 271.5,878.5 271.5,881.5 271.5,884.5C 266.833,884.5 262.167,884.5 257.5,884.5C 257.5,898.167 257.5,911.833 257.5,925.5C 253.833,925.5 250.167,925.5 246.5,925.5C 246.5,911.833 246.5,898.167 246.5,884.5C 241.833,884.5 237.167,884.5 232.5,884.5C 232.264,881.391 232.597,878.391 233.5,875.5 Z"/></g>
<g><path style="opacity:0.977" fill="#000200" d="M 276.5,875.5 C 288.167,875.5 299.833,875.5 311.5,875.5C 311.5,878.5 311.5,881.5 311.5,884.5C 303.167,884.5 294.833,884.5 286.5,884.5C 286.5,887.833 286.5,891.167 286.5,894.5C 294.174,894.334 301.841,894.5 309.5,895C 310.833,898 310.833,901 309.5,904C 301.841,904.5 294.174,904.666 286.5,904.5C 286.5,908.5 286.5,912.5 286.5,916.5C 295.167,916.5 303.833,916.5 312.5,916.5C 312.5,919.5 312.5,922.5 312.5,925.5C 300.5,925.5 288.5,925.5 276.5,925.5C 276.5,908.833 276.5,892.167 276.5,875.5 Z"/></g>
<g><path style="opacity:0.992" fill="#000200" d="M 320.5,875.5 C 329.839,875.334 339.173,875.5 348.5,876C 358.19,879.716 361.357,886.549 358,896.5C 355.688,900.58 352.188,903.08 347.5,904C 350.667,905.833 353.167,908.333 355,911.5C 357.5,915.833 360,920.167 362.5,924.5C 358.541,925.66 354.541,925.827 350.5,925C 346.748,918.828 342.748,912.828 338.5,907C 335.986,905.748 333.32,905.248 330.5,905.5C 330.5,912.167 330.5,918.833 330.5,925.5C 327.167,925.5 323.833,925.5 320.5,925.5C 320.5,908.833 320.5,892.167 320.5,875.5 Z M 330.5,884.5 C 335.179,884.334 339.845,884.501 344.5,885C 348.213,886.691 349.379,889.525 348,893.5C 347.097,894.701 345.931,895.535 344.5,896C 339.845,896.499 335.179,896.666 330.5,896.5C 330.5,892.5 330.5,888.5 330.5,884.5 Z"/></g>
<g><path style="opacity:1" fill="#000301" d="M 367.5,875.5 C 370.833,875.5 374.167,875.5 377.5,875.5C 377.5,892.167 377.5,908.833 377.5,925.5C 374.167,925.5 370.833,925.5 367.5,925.5C 367.5,908.833 367.5,892.167 367.5,875.5 Z"/></g>
<g><path style="opacity:0.987" fill="#000200" d="M 398.5,875.5 C 402.437,875.207 406.27,875.54 410,876.5C 416.265,892.461 422.431,908.461 428.5,924.5C 424.878,925.659 421.211,925.825 417.5,925C 416.167,921.667 414.833,918.333 413.5,915C 407.5,914.333 401.5,914.333 395.5,915C 394.167,918.333 392.833,921.667 391.5,925C 387.833,925.667 384.167,925.667 380.5,925C 387.195,908.749 393.195,892.249 398.5,875.5 Z M 403.5,889.5 C 406.097,894.422 408.431,899.588 410.5,905C 406.5,905.667 402.5,905.667 398.5,905C 400.668,899.997 402.334,894.83 403.5,889.5 Z"/></g>
<g><path style="opacity:0.989" fill="#000300" d="M 432.5,875.5 C 436.226,875.177 439.893,875.511 443.5,876.5C 449.081,886.664 454.914,896.664 461,906.5C 461.5,896.172 461.666,885.839 461.5,875.5C 465.048,875.095 468.381,875.595 471.5,877C 471.5,893 471.5,909 471.5,925C 467.577,925.793 463.744,925.626 460,924.5C 454.333,914.833 448.667,905.167 443,895.5C 442.5,905.494 442.334,915.494 442.5,925.5C 439.167,925.5 435.833,925.5 432.5,925.5C 432.5,908.833 432.5,892.167 432.5,875.5 Z"/></g>
<g><path style="opacity:0.973" fill="#000100" d="M 498.5,875.5 C 507.173,875.334 515.84,875.5 524.5,876C 531.693,878.52 535.36,883.686 535.5,891.5C 534.702,900.797 529.702,905.964 520.5,907C 516.514,907.499 512.514,907.666 508.5,907.5C 508.5,913.5 508.5,919.5 508.5,925.5C 505.167,925.5 501.833,925.5 498.5,925.5C 498.5,908.833 498.5,892.167 498.5,875.5 Z M 508.5,884.5 C 512.182,884.335 515.848,884.501 519.5,885C 525.319,888.098 525.986,892.098 521.5,897C 517.179,897.499 512.846,897.666 508.5,897.5C 508.5,893.167 508.5,888.833 508.5,884.5 Z"/></g>
<g><path style="opacity:0.994" fill="#000200" d="M 542.5,875.5 C 554.167,875.5 565.833,875.5 577.5,875.5C 577.5,878.5 577.5,881.5 577.5,884.5C 569.167,884.5 560.833,884.5 552.5,884.5C 552.5,887.833 552.5,891.167 552.5,894.5C 560.167,894.5 567.833,894.5 575.5,894.5C 575.5,897.833 575.5,901.167 575.5,904.5C 567.833,904.5 560.167,904.5 552.5,904.5C 552.5,908.5 552.5,912.5 552.5,916.5C 561.167,916.5 569.833,916.5 578.5,916.5C 578.5,919.5 578.5,922.5 578.5,925.5C 566.5,925.5 554.5,925.5 542.5,925.5C 542.5,908.833 542.5,892.167 542.5,875.5 Z"/></g>
<g><path style="opacity:0.991" fill="#000301" d="M 585.5,875.5 C 594.839,875.334 604.173,875.5 613.5,876C 618.783,876.615 622.283,879.449 624,884.5C 626.623,894.427 623.123,900.927 613.5,904C 619.457,910.22 624.457,917.22 628.5,925C 624.5,925.667 620.5,925.667 616.5,925C 612.5,919 608.5,913 604.5,907C 601.986,905.748 599.32,905.248 596.5,905.5C 596.5,912.167 596.5,918.833 596.5,925.5C 592.833,925.5 589.167,925.5 585.5,925.5C 585.5,908.833 585.5,892.167 585.5,875.5 Z M 596.5,884.5 C 601.179,884.334 605.845,884.501 610.5,885C 615.833,888.667 615.833,892.333 610.5,896C 605.845,896.499 601.179,896.666 596.5,896.5C 596.5,892.5 596.5,888.5 596.5,884.5 Z"/></g>
<g><path style="opacity:0.993" fill="#010401" d="M 633.5,875.5 C 636.833,875.5 640.167,875.5 643.5,875.5C 643.333,887.838 643.5,900.171 644,912.5C 647.426,917.438 651.926,918.605 657.5,916C 658.333,915.167 659.167,914.333 660,913.5C 660.5,900.838 660.667,888.171 660.5,875.5C 664.167,875.5 667.833,875.5 671.5,875.5C 671.862,889.208 671.362,902.874 670,916.5C 666.532,924.237 660.532,927.57 652,926.5C 644.755,927.043 639.088,924.376 635,918.5C 632.513,904.197 632.013,889.863 633.5,875.5 Z"/></g>
<g><path style="opacity:0.988" fill="#000201" d="M 680.5,875.5 C 685.5,875.5 690.5,875.5 695.5,875.5C 697.839,885.856 700.339,896.189 703,906.5C 706.133,896.64 708.967,886.64 711.5,876.5C 716.456,875.506 721.456,875.173 726.5,875.5C 726.5,892.167 726.5,908.833 726.5,925.5C 723.167,925.5 719.833,925.5 716.5,925.5C 716.667,914.828 716.5,904.161 716,893.5C 713.181,904.108 710.681,914.775 708.5,925.5C 704.894,925.789 701.394,925.456 698,924.5C 695.333,913.167 692.667,901.833 690,890.5C 689.5,902.162 689.333,913.829 689.5,925.5C 686.5,925.5 683.5,925.5 680.5,925.5C 680.5,908.833 680.5,892.167 680.5,875.5 Z"/></g>
<g><path style="opacity:0.987" fill="#000200" d="M 748.5,875.5 C 752.226,875.177 755.893,875.511 759.5,876.5C 765.904,892.715 771.904,909.048 777.5,925.5C 773.774,925.823 770.107,925.489 766.5,924.5C 765.091,921.273 764.091,917.94 763.5,914.5C 757.132,914.17 750.798,914.504 744.5,915.5C 743.091,918.727 742.091,922.06 741.5,925.5C 737.774,925.823 734.107,925.489 730.5,924.5C 736.509,908.138 742.509,891.805 748.5,875.5 Z M 753.5,889.5 C 755.473,894.4 757.473,899.4 759.5,904.5C 755.893,905.489 752.226,905.823 748.5,905.5C 749.768,900.03 751.435,894.696 753.5,889.5 Z"/></g>
<g><path style="opacity:0.985" fill="#000100" d="M 782.5,875.5 C 785.833,875.5 789.167,875.5 792.5,875.5C 792.17,882.2 792.503,888.866 793.5,895.5C 799.07,895.306 804.57,895.306 810,895.5C 810.5,888.842 810.666,882.175 810.5,875.5C 813.833,875.5 817.167,875.5 820.5,875.5C 820.5,892.167 820.5,908.833 820.5,925.5C 817.167,925.5 813.833,925.5 810.5,925.5C 810.5,918.5 810.5,911.5 810.5,904.5C 804.5,904.5 798.5,904.5 792.5,904.5C 792.5,911.5 792.5,918.5 792.5,925.5C 789.167,925.5 785.833,925.5 782.5,925.5C 782.5,908.833 782.5,892.167 782.5,875.5 Z"/></g>
<g><path style="opacity:0.987" fill="#000200" d="M 842.5,875.5 C 846.437,875.207 850.27,875.54 854,876.5C 860.265,892.461 866.431,908.461 872.5,924.5C 868.878,925.659 865.211,925.825 861.5,925C 860.167,921.667 858.833,918.333 857.5,915C 851.5,914.333 845.5,914.333 839.5,915C 838.167,918.333 836.833,921.667 835.5,925C 831.833,925.667 828.167,925.667 824.5,925C 831.195,908.749 837.195,892.249 842.5,875.5 Z M 847.5,889.5 C 850.097,894.422 852.431,899.588 854.5,905C 850.5,905.667 846.5,905.667 842.5,905C 844.668,899.997 846.334,894.83 847.5,889.5 Z"/></g>
<g><path style="opacity:0.989" fill="#000200" d="M 876.5,875.5 C 880.226,875.177 883.893,875.511 887.5,876.5C 893.081,886.664 898.914,896.664 905,906.5C 905.5,896.172 905.666,885.839 905.5,875.5C 908.5,875.5 911.5,875.5 914.5,875.5C 914.5,892.167 914.5,908.833 914.5,925.5C 910.894,925.789 907.394,925.456 904,924.5C 898.333,914.833 892.667,905.167 887,895.5C 886.5,905.494 886.334,915.494 886.5,925.5C 883.167,925.5 879.833,925.5 876.5,925.5C 876.5,908.833 876.5,892.167 876.5,875.5 Z"/></g>
<g><path style="opacity:0.986" fill="#000200" d="M 942.5,875.5 C 951.839,875.334 961.173,875.5 970.5,876C 979.291,878.492 982.791,884.325 981,893.5C 979.526,898.974 976.026,902.474 970.5,904C 976.111,910.278 980.944,917.112 985,924.5C 991,908.5 997,892.5 1003,876.5C 1006.73,875.54 1010.56,875.207 1014.5,875.5C 1020.1,891.952 1026.1,908.285 1032.5,924.5C 1028.83,925.833 1025.17,925.833 1021.5,924.5C 1020.06,921.357 1018.73,918.19 1017.5,915C 1011.47,914.17 1005.47,914.336 999.5,915.5C 998.065,918.643 996.732,921.81 995.5,925C 987.812,925.831 980.145,925.665 972.5,924.5C 968.75,917.918 964.417,911.751 959.5,906C 957.19,905.503 954.857,905.337 952.5,905.5C 952.5,912.167 952.5,918.833 952.5,925.5C 949.167,925.5 945.833,925.5 942.5,925.5C 942.5,908.833 942.5,892.167 942.5,875.5 Z M 952.5,884.5 C 957.511,884.334 962.511,884.501 967.5,885C 969.665,886.161 970.665,887.994 970.5,890.5C 970.695,892.725 969.861,894.391 968,895.5C 962.884,896.425 957.717,896.758 952.5,896.5C 952.5,892.5 952.5,888.5 952.5,884.5 Z M 1007.5,889.5 C 1010.19,894.383 1012.52,899.55 1014.5,905C 1010.5,905.667 1006.5,905.667 1002.5,905C 1004.67,899.997 1006.33,894.83 1007.5,889.5 Z"/></g>
<g><path style="opacity:0.993" fill="#000201" d="M 1037.5,875.5 C 1040.83,875.5 1044.17,875.5 1047.5,875.5C 1047.33,882.508 1047.5,889.508 1048,896.5C 1053.46,889.373 1059.29,882.539 1065.5,876C 1069.87,875.172 1074.2,875.339 1078.5,876.5C 1073.39,883.117 1067.72,889.283 1061.5,895C 1067.63,904.75 1073.63,914.583 1079.5,924.5C 1075.17,925.833 1070.83,925.833 1066.5,924.5C 1062.75,917.337 1058.75,910.337 1054.5,903.5C 1051.81,905.356 1049.64,907.689 1048,910.5C 1047.5,915.489 1047.33,920.489 1047.5,925.5C 1044.17,925.5 1040.83,925.5 1037.5,925.5C 1037.5,908.833 1037.5,892.167 1037.5,875.5 Z"/></g>
<g><path style="opacity:0.99" fill="#000201" d="M 1079.5,875.5 C 1083.51,875.334 1087.51,875.501 1091.5,876C 1095,882.167 1098.5,888.333 1102,894.5C 1105.37,888.252 1108.87,882.085 1112.5,876C 1116.21,875.175 1119.88,875.341 1123.5,876.5C 1118.25,885.998 1112.75,895.331 1107,904.5C 1106.5,911.492 1106.33,918.492 1106.5,925.5C 1103.17,925.5 1099.83,925.5 1096.5,925.5C 1096.67,918.159 1096.5,910.826 1096,903.5C 1090.22,894.276 1084.72,884.943 1079.5,875.5 Z"/></g>
<g><path style="opacity:0.988" fill="#000200" d="M 1135.5,875.5 C 1139.23,875.177 1142.89,875.511 1146.5,876.5C 1152.9,892.715 1158.9,909.048 1164.5,925.5C 1160.77,925.823 1157.11,925.489 1153.5,924.5C 1152.09,921.273 1151.09,917.94 1150.5,914.5C 1144.13,914.17 1137.8,914.504 1131.5,915.5C 1130.09,918.727 1129.09,922.06 1128.5,925.5C 1124.77,925.823 1121.11,925.489 1117.5,924.5C 1123.51,908.138 1129.51,891.805 1135.5,875.5 Z M 1140.5,889.5 C 1142.47,894.4 1144.47,899.4 1146.5,904.5C 1142.89,905.489 1139.23,905.823 1135.5,905.5C 1136.77,900.03 1138.43,894.696 1140.5,889.5 Z"/></g>
<g><path style="opacity:0.993" fill="#010401" d="M 1199.5,875.5 C 1199.5,878.5 1199.5,881.5 1199.5,884.5C 1194.83,884.5 1190.17,884.5 1185.5,884.5C 1185.5,898.167 1185.5,911.833 1185.5,925.5C 1181.83,925.5 1178.17,925.5 1174.5,925.5C 1174.5,911.833 1174.5,898.167 1174.5,884.5C 1170.15,884.666 1165.82,884.499 1161.5,884C 1160.17,881.333 1160.17,878.667 1161.5,876C 1174.16,875.5 1186.83,875.333 1199.5,875.5 Z"/></g>
<g><path style="opacity:0.987" fill="#000301" d="M 719.5,999.5 C 716.167,999.5 712.833,999.5 709.5,999.5C 695.152,993.824 689.318,983.157 692,967.5C 695.408,951.442 705.241,944.942 721.5,948C 729.739,950.573 734.905,956.073 737,964.5C 737.839,971.567 737.506,978.567 736,985.5C 732.717,992.876 727.217,997.543 719.5,999.5 Z M 711.5,956.5 C 720.538,955.594 725.704,959.594 727,968.5C 728.034,974.527 727.034,980.194 724,985.5C 717.306,991.129 710.973,990.796 705,984.5C 702.114,977.638 701.78,970.638 704,963.5C 705.742,960.254 708.242,957.921 711.5,956.5 Z"/></g>
<g><path style="opacity:0.988" fill="#000301" d="M 858.5,999.5 C 854.833,999.5 851.167,999.5 847.5,999.5C 838.565,997.018 833.898,991.018 833.5,981.5C 836.833,981.167 840.167,980.833 843.5,980.5C 844.933,989.301 849.933,992.134 858.5,989C 861.978,986.294 862.311,983.294 859.5,980C 854.56,978.181 849.56,976.514 844.5,975C 835.184,970.242 832.684,963.075 837,953.5C 841.096,948.855 846.263,946.855 852.5,947.5C 863.875,946.878 869.875,952.212 870.5,963.5C 867.102,963.82 863.768,963.487 860.5,962.5C 858.335,956.877 854.335,955.044 848.5,957C 844.326,958.508 843.659,960.841 846.5,964C 852.489,965.998 858.489,967.998 864.5,970C 873.314,977.403 874.314,985.737 867.5,995C 864.676,997.079 861.676,998.579 858.5,999.5 Z"/></g>
<g><path style="opacity:0.995" fill="#000301" d="M 227.5,948.5 C 237.506,948.334 247.506,948.5 257.5,949C 261.573,950.072 264.407,952.572 266,956.5C 268.739,966.652 265.239,973.486 255.5,977C 257.286,977.785 258.786,978.951 260,980.5C 263.698,986.034 267.198,991.701 270.5,997.5C 266.541,998.66 262.541,998.827 258.5,998C 254.661,991.32 250.328,984.986 245.5,979C 243.26,978.023 240.927,977.523 238.5,977.5C 238.5,984.5 238.5,991.5 238.5,998.5C 234.833,998.5 231.167,998.5 227.5,998.5C 227.5,981.833 227.5,965.167 227.5,948.5 Z M 238.5,957.5 C 243.511,957.334 248.511,957.501 253.5,958C 257.5,961.333 257.5,964.667 253.5,968C 248.536,968.912 243.536,969.412 238.5,969.5C 238.5,965.5 238.5,961.5 238.5,957.5 Z"/></g>
<g><path style="opacity:0.985" fill="#000100" d="M 275.5,948.5 C 287.167,948.5 298.833,948.5 310.5,948.5C 310.5,951.5 310.5,954.5 310.5,957.5C 302.167,957.5 293.833,957.5 285.5,957.5C 285.5,960.833 285.5,964.167 285.5,967.5C 293.167,967.5 300.833,967.5 308.5,967.5C 308.5,970.5 308.5,973.5 308.5,976.5C 300.833,976.5 293.167,976.5 285.5,976.5C 285.5,980.833 285.5,985.167 285.5,989.5C 294.167,989.5 302.833,989.5 311.5,989.5C 311.5,992.5 311.5,995.5 311.5,998.5C 299.5,998.5 287.5,998.5 275.5,998.5C 275.5,981.833 275.5,965.167 275.5,948.5 Z"/></g>
<g><path style="opacity:0.993" fill="#000301" d="M 318.5,948.5 C 327.839,948.334 337.173,948.5 346.5,949C 355.717,955.155 357.884,963.321 353,973.5C 350.9,976.467 348.066,978.3 344.5,979C 339.511,979.499 334.511,979.666 329.5,979.5C 329.5,985.833 329.5,992.167 329.5,998.5C 325.833,998.5 322.167,998.5 318.5,998.5C 318.5,981.833 318.5,965.167 318.5,948.5 Z M 329.5,957.5 C 333.514,957.334 337.514,957.501 341.5,958C 344.349,960.559 345.183,963.726 344,967.5C 343.097,968.701 341.931,969.535 340.5,970C 336.848,970.499 333.182,970.665 329.5,970.5C 329.5,966.167 329.5,961.833 329.5,957.5 Z"/></g>
<g><path style="opacity:0.977" fill="#000100" d="M 387.5,999.5 C 383.833,999.5 380.167,999.5 376.5,999.5C 370.599,998.451 366.432,995.118 364,989.5C 362.573,975.893 362.073,962.226 362.5,948.5C 365.833,948.5 369.167,948.5 372.5,948.5C 372.333,960.171 372.5,971.838 373,983.5C 374.043,988.043 376.876,990.043 381.5,989.5C 386.582,989.919 389.415,987.586 390,982.5C 390.5,971.172 390.667,959.838 390.5,948.5C 393.833,948.5 397.167,948.5 400.5,948.5C 400.927,962.226 400.427,975.893 399,989.5C 396.844,994.819 393.011,998.152 387.5,999.5 Z"/></g>
<g><path style="opacity:0.993" fill="#000301" d="M 409.5,948.5 C 420.27,948.047 430.937,948.547 441.5,950C 449.072,956.835 449.405,964.001 442.5,971.5C 449.592,976.582 451.426,983.249 448,991.5C 446.833,994 445,995.833 442.5,997C 431.564,998.406 420.564,998.906 409.5,998.5C 409.5,981.833 409.5,965.167 409.5,948.5 Z M 420.5,957.5 C 425.511,957.334 430.511,957.501 435.5,958C 438.299,961.339 437.966,964.339 434.5,967C 429.845,967.499 425.179,967.666 420.5,967.5C 420.5,964.167 420.5,960.833 420.5,957.5 Z M 420.5,976.5 C 426.039,977.062 431.372,977.562 436.5,978C 440.897,982.728 440.23,986.395 434.5,989C 429.845,989.499 425.179,989.666 420.5,989.5C 420.5,985.167 420.5,980.833 420.5,976.5 Z"/></g>
<g><path style="opacity:1" fill="#010501" d="M 496.5,948.5 C 500.167,948.5 503.833,948.5 507.5,948.5C 507.5,965.167 507.5,981.833 507.5,998.5C 503.833,998.5 500.167,998.5 496.5,998.5C 496.5,981.833 496.5,965.167 496.5,948.5 Z"/></g>
<g><path style="opacity:0.973" fill="#000100" d="M 515.5,948.5 C 518.833,948.5 522.167,948.5 525.5,948.5C 525.334,955.175 525.5,961.842 526,968.5C 531.833,962 537.667,955.5 543.5,949C 548.167,948.333 552.833,948.333 557.5,949C 551.36,954.975 545.693,961.308 540.5,968C 546.242,978.149 552.242,988.149 558.5,998C 554.167,998.667 549.833,998.667 545.5,998C 541.207,990.581 537.04,983.081 533,975.5C 530.667,977.833 528.333,980.167 526,982.5C 525.501,987.823 525.334,993.156 525.5,998.5C 522.167,998.5 518.833,998.5 515.5,998.5C 515.5,981.833 515.5,965.167 515.5,948.5 Z"/></g>
<g><path style="opacity:0.981" fill="#000000" d="M 580.5,948.5 C 583.833,948.5 587.167,948.5 590.5,948.5C 590.5,965.167 590.5,981.833 590.5,998.5C 587.167,998.5 583.833,998.5 580.5,998.5C 580.5,981.833 580.5,965.167 580.5,948.5 Z"/></g>
<g><path style="opacity:0.99" fill="#000200" d="M 599.5,948.5 C 603.106,948.211 606.606,948.544 610,949.5C 615.667,959.5 621.333,969.5 627,979.5C 627.5,969.172 627.666,958.839 627.5,948.5C 630.833,948.5 634.167,948.5 637.5,948.5C 637.5,965.167 637.5,981.833 637.5,998.5C 633.563,998.793 629.73,998.46 626,997.5C 620.333,987.5 614.667,977.5 609,967.5C 608.5,977.828 608.334,988.161 608.5,998.5C 605.5,998.5 602.5,998.5 599.5,998.5C 599.5,981.833 599.5,965.167 599.5,948.5 Z"/></g>
<g><path style="opacity:0.987" fill="#000200" d="M 646.5,948.5 C 677.147,941.988 689.981,953.988 685,984.5C 683.027,992.142 678.193,996.642 670.5,998C 662.507,998.5 654.507,998.666 646.5,998.5C 646.5,981.833 646.5,965.167 646.5,948.5 Z M 656.5,957.5 C 669.987,954.709 676.321,960.043 675.5,973.5C 676.321,986.957 669.987,992.291 656.5,989.5C 656.5,978.833 656.5,968.167 656.5,957.5 Z"/></g>
<g><path style="opacity:0.986" fill="#000301" d="M 744.5,948.5 C 748.226,948.177 751.893,948.511 755.5,949.5C 761,959.167 766.5,968.833 772,978.5C 772.5,968.506 772.666,958.506 772.5,948.5C 775.833,948.5 779.167,948.5 782.5,948.5C 782.5,965.167 782.5,981.833 782.5,998.5C 779.15,998.665 775.817,998.498 772.5,998C 766.289,988.414 760.456,978.581 755,968.5C 754.5,978.494 754.334,988.494 754.5,998.5C 751.167,998.5 747.833,998.5 744.5,998.5C 744.5,981.833 744.5,965.167 744.5,948.5 Z"/></g>
<g><path style="opacity:0.986" fill="#000201" d="M 791.5,948.5 C 803.5,948.5 815.5,948.5 827.5,948.5C 827.5,951.5 827.5,954.5 827.5,957.5C 819.167,957.5 810.833,957.5 802.5,957.5C 802.5,960.833 802.5,964.167 802.5,967.5C 810.167,967.5 817.833,967.5 825.5,967.5C 825.5,970.5 825.5,973.5 825.5,976.5C 817.833,976.5 810.167,976.5 802.5,976.5C 802.5,980.833 802.5,985.167 802.5,989.5C 811.167,989.5 819.833,989.5 828.5,989.5C 828.5,992.5 828.5,995.5 828.5,998.5C 816.167,998.5 803.833,998.5 791.5,998.5C 791.5,981.833 791.5,965.167 791.5,948.5 Z"/></g>
<g><path style="opacity:1" fill="#010501" d="M 878.5,948.5 C 882.167,948.5 885.833,948.5 889.5,948.5C 889.5,965.167 889.5,981.833 889.5,998.5C 885.833,998.5 882.167,998.5 878.5,998.5C 878.5,981.833 878.5,965.167 878.5,948.5 Z"/></g>
<g><path style="opacity:0.992" fill="#000201" d="M 910.5,948.5 C 914.437,948.207 918.27,948.54 922,949.5C 928.265,965.461 934.431,981.461 940.5,997.5C 936.878,998.659 933.211,998.825 929.5,998C 928.167,994.667 926.833,991.333 925.5,988C 919.175,987.5 912.842,987.334 906.5,987.5C 905.909,990.94 904.909,994.273 903.5,997.5C 899.878,998.659 896.211,998.825 892.5,998C 898.797,981.608 904.797,965.108 910.5,948.5 Z M 915.5,961.5 C 917.91,966.876 920.243,972.376 922.5,978C 918.459,978.827 914.459,978.66 910.5,977.5C 912.575,972.276 914.242,966.942 915.5,961.5 Z"/></g>
<g><path style="opacity:0.977" fill="#000100" d="M 457.5,948.5 C 460.833,948.5 464.167,948.5 467.5,948.5C 467.5,962.167 467.5,975.833 467.5,989.5C 475.5,989.5 483.5,989.5 491.5,989.5C 491.5,992.5 491.5,995.5 491.5,998.5C 480.167,998.5 468.833,998.5 457.5,998.5C 457.5,981.833 457.5,965.167 457.5,948.5 Z"/></g>
</svg>
