<?xml version="1.0" encoding="UTF-8"?>
<!DOCTYPE svg PUBLIC "-//W3C//DTD SVG 1.1//EN" "http://www.w3.org/Graphics/SVG/1.1/DTD/svg11.dtd">
<svg xmlns="http://www.w3.org/2000/svg" version="1.1" width="300px" height="300px" style="shape-rendering:geometricPrecision; text-rendering:geometricPrecision; image-rendering:optimizeQuality; fill-rule:evenodd; clip-rule:evenodd" xmlns:xlink="http://www.w3.org/1999/xlink">
<g><path style="opacity:0.894" fill="#4e3a46" d="M 51.5,116.5 C 62.1667,116.5 72.8333,116.5 83.5,116.5C 83.8307,138.673 83.4974,160.673 82.5,182.5C 83.1335,174.097 82.4668,166.097 80.5,158.5C 80.5,158.167 80.5,157.833 80.5,157.5C 81.4956,144.344 81.8289,131.01 81.5,117.5C 71.6522,117.173 61.9856,117.506 52.5,118.5C 52.5,132.833 52.5,147.167 52.5,161.5C 51.5039,146.676 51.1706,131.676 51.5,116.5 Z"/></g>
<g><path style="opacity:0.612" fill="#634a56" d="M 26.5,116.5 C 26.5,116.833 26.5,117.167 26.5,117.5C 23.5,117.5 20.5,117.5 17.5,117.5C 17.5,131.167 17.5,144.833 17.5,158.5C 16.8333,158.5 16.1667,158.5 15.5,158.5C 15.5,144.5 15.5,130.5 15.5,116.5C 19.1667,116.5 22.8333,116.5 26.5,116.5 Z"/></g>
<g><path style="opacity:1" fill="#f0ba04" d="M 52.5,118.5 C 61.8333,118.5 71.1667,118.5 80.5,118.5C 80.5,131.5 80.5,144.5 80.5,157.5C 80.5,157.833 80.5,158.167 80.5,158.5C 78.7328,161.334 76.8995,164.334 75,167.5C 68.2606,174.112 61.5939,174.112 55,167.5C 53.4412,165.783 52.6079,163.783 52.5,161.5C 52.5,147.167 52.5,132.833 52.5,118.5 Z"/></g>
<g><path style="opacity:1" fill="#a38331" d="M 52.5,118.5 C 61.9856,117.506 71.6522,117.173 81.5,117.5C 81.8289,131.01 81.4956,144.344 80.5,157.5C 80.5,144.5 80.5,131.5 80.5,118.5C 71.1667,118.5 61.8333,118.5 52.5,118.5 Z"/></g>
<g><path style="opacity:1" fill="#ebb80d" d="M 26.5,117.5 C 26.5,118.833 26.5,120.167 26.5,121.5C 36.0141,122.334 42.8475,127 47,135.5C 47.7917,145.081 43.9584,152.247 35.5,157C 29.5771,158.304 23.5771,158.804 17.5,158.5C 17.5,144.833 17.5,131.167 17.5,117.5C 20.5,117.5 23.5,117.5 26.5,117.5 Z"/></g>
<g><path style="opacity:0.595" fill="#010103" d="M 95.5,123.5 C 96.5,123.5 97.5,123.5 98.5,123.5C 98.1349,128.421 99.1349,128.755 101.5,124.5C 106.456,123.506 111.456,123.173 116.5,123.5C 116.5,124.5 116.5,125.5 116.5,126.5C 108.5,127.167 108.5,127.833 116.5,128.5C 116.5,129.5 116.5,130.5 116.5,131.5C 108.5,131.833 108.5,132.167 116.5,132.5C 116.5,133.833 116.5,135.167 116.5,136.5C 111.821,136.666 107.155,136.499 102.5,136C 99.9986,129.962 98.6653,130.128 98.5,136.5C 96.8762,136.64 95.7096,135.973 95,134.5C 94.2446,130.745 94.4113,127.078 95.5,123.5 Z M 104.5,125.5 C 105.765,126.514 106.431,128.014 106.5,130C 106.333,131.5 106.167,133 106,134.5C 104.634,132.63 103.467,130.63 102.5,128.5C 103.193,127.482 103.859,126.482 104.5,125.5 Z"/></g>
<g><path style="opacity:0.67" fill="#010102" d="M 117.5,123.5 C 120.841,122.843 122.841,124.176 123.5,127.5C 124.429,126.311 124.762,124.978 124.5,123.5C 126.167,123.5 127.833,123.5 129.5,123.5C 129.5,127.833 129.5,132.167 129.5,136.5C 128.5,136.5 127.5,136.5 126.5,136.5C 126.549,131.461 125.882,131.295 124.5,136C 123.552,136.483 122.552,136.649 121.5,136.5C 121.167,131.167 120.833,131.167 120.5,136.5C 119.5,136.5 118.5,136.5 117.5,136.5C 117.5,132.167 117.5,127.833 117.5,123.5 Z"/></g>
<g><path style="opacity:0.596" fill="#010103" d="M 130.5,123.5 C 133.833,123.5 137.167,123.5 140.5,123.5C 140.5,124.5 140.5,125.5 140.5,126.5C 132.5,127.167 132.5,127.833 140.5,128.5C 140.5,129.5 140.5,130.5 140.5,131.5C 132.5,131.833 132.5,132.167 140.5,132.5C 140.5,133.833 140.5,135.167 140.5,136.5C 137.167,136.5 133.833,136.5 130.5,136.5C 130.5,132.167 130.5,127.833 130.5,123.5 Z"/></g>
<g><path style="opacity:0.622" fill="#010002" d="M 141.5,123.5 C 144.642,123.799 146.809,125.466 148,128.5C 148.494,126.866 148.66,125.199 148.5,123.5C 156.333,123.65 164.333,123.65 172.5,123.5C 172.5,124.5 172.5,125.5 172.5,126.5C 164.5,127.167 164.5,127.833 172.5,128.5C 172.5,129.5 172.5,130.5 172.5,131.5C 164.5,131.833 164.5,132.167 172.5,132.5C 172.5,133.833 172.5,135.167 172.5,136.5C 169.167,136.5 165.833,136.5 162.5,136.5C 162.5,133.167 162.5,129.833 162.5,126.5C 161.022,126.238 159.689,126.571 158.5,127.5C 159.562,130.103 159.728,132.77 159,135.5C 157.989,136.337 156.822,136.67 155.5,136.5C 155.5,133.167 155.5,129.833 155.5,126.5C 154.167,126.5 152.833,126.5 151.5,126.5C 151.5,129.833 151.5,133.167 151.5,136.5C 148.708,136.548 146.875,135.215 146,132.5C 145.888,135.447 144.388,136.78 141.5,136.5C 141.5,132.167 141.5,127.833 141.5,123.5 Z"/></g>
<g><path style="opacity:0.632" fill="#010103" d="M 173.5,123.5 C 176.518,123.335 179.518,123.502 182.5,124C 183.874,127.41 184.541,127.243 184.5,123.5C 185.833,123.5 187.167,123.5 188.5,123.5C 188.335,126.85 188.502,130.183 189,133.5C 192.217,120.681 195.884,120.348 200,132.5C 200.498,129.518 200.665,126.518 200.5,123.5C 204.224,123.05 206.391,124.717 207,128.5C 207.494,126.866 207.66,125.199 207.5,123.5C 208.833,123.5 210.167,123.5 211.5,123.5C 211.5,127.833 211.5,132.167 211.5,136.5C 208.137,136.487 205.97,134.821 205,131.5C 204.506,133.134 204.34,134.801 204.5,136.5C 200.558,137.143 197.224,136.143 194.5,133.5C 193.09,133.868 192.09,134.701 191.5,136C 188.167,136.667 184.833,136.667 181.5,136C 180.213,134.59 179.046,133.09 178,131.5C 178.266,134.901 176.766,136.567 173.5,136.5C 173.5,132.167 173.5,127.833 173.5,123.5 Z M 177.5,126.5 C 178.675,126.281 179.675,126.614 180.5,127.5C 178.948,128.798 177.948,128.465 177.5,126.5 Z M 183.5,128.5 C 184.613,129.946 184.78,131.613 184,133.5C 183.167,132.667 182.333,131.833 181.5,131C 182.756,130.583 183.423,129.75 183.5,128.5 Z"/></g>
<g><path style="opacity:0.584" fill="#000000" d="M 95.5,142.5 C 102.693,141.024 105.36,143.691 103.5,150.5C 101.929,151.309 100.262,151.643 98.5,151.5C 98.5,152.833 98.5,154.167 98.5,155.5C 97.1779,155.67 96.0113,155.337 95,154.5C 94.3064,150.446 94.4731,146.446 95.5,142.5 Z M 98.5,146.5 C 101.797,146.329 102.131,146.995 99.5,148.5C 98.7025,148.043 98.3691,147.376 98.5,146.5 Z"/></g>
<g><path style="opacity:0.585" fill="#010001" d="M 106.5,142.5 C 109.187,142.336 111.854,142.503 114.5,143C 115.337,144.011 115.67,145.178 115.5,146.5C 113.473,146.338 111.473,146.505 109.5,147C 117.321,148.477 117.321,149.977 109.5,151.5C 111.396,152.466 113.396,152.799 115.5,152.5C 115.5,153.5 115.5,154.5 115.5,155.5C 112.167,155.5 108.833,155.5 105.5,155.5C 105.231,151.069 105.564,146.735 106.5,142.5 Z"/></g>
<g><path style="opacity:0.634" fill="#010103" d="M 127.5,144.5 C 122.898,147.137 122.898,150.137 127.5,153.5C 127.38,154.586 126.713,155.253 125.5,155.5C 123.502,154.333 122.002,152.666 121,150.5C 120.5,151 120,151.5 119.5,152C 120.337,153.011 120.67,154.178 120.5,155.5C 119.167,155.5 117.833,155.5 116.5,155.5C 116.5,151.167 116.5,146.833 116.5,142.5C 118.911,142.137 120.411,143.137 121,145.5C 123.105,142.24 125.271,141.906 127.5,144.5 Z"/></g>
<g><path style="opacity:0.605" fill="#000001" d="M 127.5,153.5 C 127.5,150.5 127.5,147.5 127.5,144.5C 130.488,142.727 133.821,142.06 137.5,142.5C 137.5,143.833 137.5,145.167 137.5,146.5C 129.5,146.833 129.5,147.167 137.5,147.5C 137.5,148.5 137.5,149.5 137.5,150.5C 135.396,150.201 133.396,150.534 131.5,151.5C 133.686,152.221 135.853,152.887 138,153.5C 135.897,142.919 139.563,139.919 149,144.5C 149.756,146.809 149.256,148.809 147.5,150.5C 148.501,152.936 149.668,152.936 151,150.5C 151.95,151.022 152.784,151.689 153.5,152.5C 154.487,149.232 154.82,145.898 154.5,142.5C 155.5,142.5 156.5,142.5 157.5,142.5C 160.517,152.973 156.85,157.139 146.5,155C 145.213,153.59 144.046,152.09 143,150.5C 142.506,152.134 142.34,153.801 142.5,155.5C 139.392,154.386 136.225,154.386 133,155.5C 130.879,155.302 129.046,154.636 127.5,153.5 Z"/></g>
<g><path style="opacity:0.659" fill="#010102" d="M 162.5,142.5 C 164.39,142.297 165.89,142.963 167,144.5C 168,147.5 169,150.5 170,153.5C 171.309,149.901 172.809,146.401 174.5,143C 175.784,142.316 176.951,142.483 178,143.5C 179,145.833 180,148.167 181,150.5C 181.226,147.905 181.726,145.405 182.5,143C 183.5,142.333 184.5,142.333 185.5,143C 186.46,144.419 187.293,145.919 188,147.5C 187.734,144.099 189.234,142.433 192.5,142.5C 192.5,146.833 192.5,151.167 192.5,155.5C 189.137,155.487 186.97,153.821 186,150.5C 185.506,152.134 185.34,153.801 185.5,155.5C 183.076,155.808 180.743,155.474 178.5,154.5C 176.833,151.833 175.167,151.833 173.5,154.5C 171.257,155.474 168.924,155.808 166.5,155.5C 166.5,154.5 166.5,153.5 166.5,152.5C 163.677,153.217 161.01,154.217 158.5,155.5C 159.032,150.905 160.365,146.571 162.5,142.5 Z"/></g>
<g><path style="opacity:0.658" fill="#020105" d="M 198.5,142.5 C 199.5,142.5 200.5,142.5 201.5,142.5C 201.335,145.518 201.502,148.518 202,151.5C 202.414,151.957 202.914,152.291 203.5,152.5C 204.321,149.553 204.821,146.553 205,143.5C 206.011,142.663 207.178,142.33 208.5,142.5C 208.665,146.182 208.499,149.848 208,153.5C 205,156.167 202,156.167 199,153.5C 198.501,149.848 198.335,146.182 198.5,142.5 Z"/></g>
<g><path style="opacity:0.609" fill="#010001" d="M 210.5,142.5 C 214.192,142.695 216.026,144.695 216,148.5C 216.084,144.057 218.084,142.39 222,143.5C 222.499,147.486 222.666,151.486 222.5,155.5C 220.549,155.773 219.049,155.107 218,153.5C 216.667,156.167 215.333,156.167 214,153.5C 212.951,155.107 211.451,155.773 209.5,155.5C 209.231,151.069 209.564,146.735 210.5,142.5 Z"/></g>
<g><path style="opacity:0.648" fill="#000001" d="M 223.5,142.5 C 224.5,142.5 225.5,142.5 226.5,142.5C 226.335,145.518 226.502,148.518 227,151.5C 228.545,152.821 229.711,152.488 230.5,150.5C 229.217,148.156 229.217,145.49 230.5,142.5C 231.5,142.5 232.5,142.5 233.5,142.5C 233.665,146.182 233.499,149.848 233,153.5C 230,156.167 227,156.167 224,153.5C 223.501,149.848 223.335,146.182 223.5,142.5 Z"/></g>
<g><path style="opacity:0.616" fill="#010001" d="M 235.5,142.5 C 238.888,142.874 240.722,144.874 241,148.5C 241.45,146.481 242.283,144.648 243.5,143C 244.784,142.316 245.951,142.483 247,143.5C 247.499,147.486 247.666,151.486 247.5,155.5C 245.549,155.773 244.049,155.107 243,153.5C 241.667,156.167 240.333,156.167 239,153.5C 237.951,155.107 236.451,155.773 234.5,155.5C 234.231,151.069 234.564,146.735 235.5,142.5 Z"/></g>
<g><path style="opacity:0.624" fill="#010103" d="M 263.5,152.5 C 260.419,155.193 256.753,156.193 252.5,155.5C 252.203,151.233 252.536,147.066 253.5,143C 261.172,141.504 264.505,144.67 263.5,152.5 Z M 256.5,146.5 C 257.5,146.5 258.5,146.5 259.5,146.5C 259.949,148.977 259.283,150.977 257.5,152.5C 256.534,150.604 256.201,148.604 256.5,146.5 Z"/></g>
<g><path style="opacity:0.66" fill="#000001" d="M 263.5,152.5 C 267.289,139.359 271.122,139.359 275,152.5C 275.333,149.5 275.667,146.5 276,143.5C 276.718,142.549 277.551,142.383 278.5,143C 279.787,144.41 280.954,145.91 282,147.5C 282.098,145.381 282.931,143.714 284.5,142.5C 285.492,146.783 285.826,151.116 285.5,155.5C 282.708,155.548 280.875,154.215 280,151.5C 279.51,152.793 279.343,154.127 279.5,155.5C 276.833,155.5 274.167,155.5 271.5,155.5C 271.5,154.5 271.5,153.5 271.5,152.5C 270.167,152.5 268.833,152.5 267.5,152.5C 267.5,153.5 267.5,154.5 267.5,155.5C 266.167,155.5 264.833,155.5 263.5,155.5C 263.5,154.5 263.5,153.5 263.5,152.5 Z"/></g>
<g><path style="opacity:0.986" fill="#0e048f" d="M 26.5,116.5 C 34.8333,116.5 43.1667,116.5 51.5,116.5C 51.1706,131.676 51.5039,146.676 52.5,161.5C 52.6079,163.783 53.4412,165.783 55,167.5C 61.5939,174.112 68.2606,174.112 75,167.5C 76.8995,164.334 78.7328,161.334 80.5,158.5C 82.4668,166.097 83.1335,174.097 82.5,182.5C 72.1667,182.5 61.8333,182.5 51.5,182.5C 51.7373,181.209 51.404,180.209 50.5,179.5C 48.4144,171.947 43.4144,167.947 35.5,167.5C 27.537,167.796 22.537,171.796 20.5,179.5C 19.596,180.209 19.2627,181.209 19.5,182.5C 18.1667,182.5 16.8333,182.5 15.5,182.5C 15.5,174.5 15.5,166.5 15.5,158.5C 16.1667,158.5 16.8333,158.5 17.5,158.5C 23.5771,158.804 29.5771,158.304 35.5,157C 43.9584,152.247 47.7917,145.081 47,135.5C 42.8475,127 36.0141,122.334 26.5,121.5C 26.5,120.167 26.5,118.833 26.5,117.5C 26.5,117.167 26.5,116.833 26.5,116.5 Z"/></g>
<g><path style="opacity:0.627" fill="#000000" d="M 95.5,162.5 C 98.4475,162.223 101.281,162.556 104,163.5C 105.9,168.913 104.067,171.247 98.5,170.5C 98.5,171.833 98.5,173.167 98.5,174.5C 97.1779,174.67 96.0113,174.337 95,173.5C 94.2446,169.745 94.4113,166.078 95.5,162.5 Z M 98.5,165.5 C 99.675,165.281 100.675,165.614 101.5,166.5C 99.9483,167.798 98.9483,167.465 98.5,165.5 Z"/></g>
<g><path style="opacity:0.595" fill="#000000" d="M 105.5,162.5 C 108.833,162.5 112.167,162.5 115.5,162.5C 115.5,163.5 115.5,164.5 115.5,165.5C 113.473,165.338 111.473,165.505 109.5,166C 117.5,167.667 117.5,169.333 109.5,171C 111.473,171.495 113.473,171.662 115.5,171.5C 115.5,172.5 115.5,173.5 115.5,174.5C 112.167,174.5 108.833,174.5 105.5,174.5C 105.5,170.5 105.5,166.5 105.5,162.5 Z"/></g>
<g><path style="opacity:0.638" fill="#010002" d="M 116.5,162.5 C 119.518,162.335 122.518,162.502 125.5,163C 126.874,166.41 127.541,166.243 127.5,162.5C 128.833,162.5 130.167,162.5 131.5,162.5C 131.5,165.5 131.5,168.5 131.5,171.5C 132.5,171.5 133.5,171.5 134.5,171.5C 134.5,168.5 134.5,165.5 134.5,162.5C 135.833,162.5 137.167,162.5 138.5,162.5C 138.665,165.85 138.498,169.183 138,172.5C 131.072,176.597 127.405,174.597 127,166.5C 125.171,168.893 125.337,171.227 127.5,173.5C 126.277,174.614 124.944,174.781 123.5,174C 120.491,169.188 119.491,169.354 120.5,174.5C 119.167,174.5 117.833,174.5 116.5,174.5C 116.5,170.5 116.5,166.5 116.5,162.5 Z"/></g>
<g><path style="opacity:0.671" fill="#010002" d="M 139.5,162.5 C 141.167,162.5 142.833,162.5 144.5,162.5C 145.167,167.833 145.833,167.833 146.5,162.5C 148.167,162.5 149.833,162.5 151.5,162.5C 150.787,175.265 152.12,175.599 155.5,163.5C 157.045,162.548 158.712,162.215 160.5,162.5C 163.672,176.777 165.005,176.777 164.5,162.5C 165.833,162.5 167.167,162.5 168.5,162.5C 168.5,163.833 168.5,165.167 168.5,166.5C 169.5,166.5 170.5,166.5 171.5,166.5C 171.5,165.167 171.5,163.833 171.5,162.5C 172.833,162.5 174.167,162.5 175.5,162.5C 173.99,176.901 174.99,176.901 178.5,162.5C 180.288,162.215 181.955,162.548 183.5,163.5C 184.961,166.382 186.127,169.382 187,172.5C 187.498,169.183 187.665,165.85 187.5,162.5C 190.863,162.513 193.03,164.179 194,167.5C 194.494,165.866 194.66,164.199 194.5,162.5C 195.5,162.5 196.5,162.5 197.5,162.5C 197.5,166.5 197.5,170.5 197.5,174.5C 194.52,174.759 192.687,173.426 192,170.5C 191.51,171.793 191.343,173.127 191.5,174.5C 187.975,174.785 184.642,174.119 181.5,172.5C 178.358,174.119 175.025,174.785 171.5,174.5C 171.5,173.167 171.5,171.833 171.5,170.5C 170.5,170.5 169.5,170.5 168.5,170.5C 168.5,171.833 168.5,173.167 168.5,174.5C 164.839,174.71 161.339,174.044 158,172.5C 154.993,173.979 151.826,174.646 148.5,174.5C 148.167,170.5 147.833,170.5 147.5,174.5C 146.167,174.5 144.833,174.5 143.5,174.5C 143.167,170.5 142.833,170.5 142.5,174.5C 141.5,174.5 140.5,174.5 139.5,174.5C 139.5,170.5 139.5,166.5 139.5,162.5 Z"/></g>
<g><path style="opacity:0.671" fill="#010103" d="M 203.5,162.5 C 206.518,162.335 209.518,162.502 212.5,163C 215.08,165.12 215.08,167.287 212.5,169.5C 213,170.5 213.5,171.5 214,172.5C 215.52,169.618 216.853,166.618 218,163.5C 219.667,162.167 221.333,162.167 223,163.5C 225.9,175.47 227.067,175.136 226.5,162.5C 227.833,162.5 229.167,162.5 230.5,162.5C 230.443,166.133 231.443,166.3 233.5,163C 237.281,161.902 240.447,162.735 243,165.5C 244.258,162.945 246.091,162.278 248.5,163.5C 245.752,166.661 244.419,170.327 244.5,174.5C 243.5,174.5 242.5,174.5 241.5,174.5C 241.831,170.495 240.497,167.162 237.5,164.5C 236.167,165.167 235.167,166.167 234.5,167.5C 235.441,169.772 236.774,171.772 238.5,173.5C 236.833,174.833 235.167,174.833 233.5,173.5C 231.608,169.53 230.608,169.863 230.5,174.5C 226.975,174.785 223.642,174.119 220.5,172.5C 215.663,175.733 211.496,175.066 208,170.5C 207.51,171.793 207.343,173.127 207.5,174.5C 206.167,174.5 204.833,174.5 203.5,174.5C 203.5,170.5 203.5,166.5 203.5,162.5 Z"/></g>
<g><path style="opacity:0.668" fill="#010103" d="M 250.5,162.5 C 252.167,162.5 253.833,162.5 255.5,162.5C 256.137,166.578 257.47,170.411 259.5,174C 258.833,174.167 258.167,174.333 257.5,174.5C 255.833,173.833 254.167,173.167 252.5,172.5C 251.167,173.167 249.833,173.833 248.5,174.5C 247.833,174.167 247.167,173.833 246.5,173.5C 247.84,169.81 249.174,166.143 250.5,162.5 Z"/></g>
<g><path style="opacity:0.652" fill="#020104" d="M 256.5,162.5 C 260.167,162.5 263.833,162.5 267.5,162.5C 267.5,163.5 267.5,164.5 267.5,165.5C 266.127,165.343 264.793,165.51 263.5,166C 264.444,168.719 264.777,171.552 264.5,174.5C 263.167,174.5 261.833,174.5 260.5,174.5C 260.5,171.5 260.5,168.5 260.5,165.5C 258.027,165.912 256.694,164.912 256.5,162.5 Z"/></g>
<g><path style="opacity:1" fill="#eaba10" d="M 50.5,179.5 C 45.8806,180.828 40.8806,181.494 35.5,181.5C 30.1194,181.494 25.1194,180.828 20.5,179.5C 22.537,171.796 27.537,167.796 35.5,167.5C 43.4144,167.947 48.4144,171.947 50.5,179.5 Z"/></g>
<g><path style="opacity:1" fill="#6b5353" d="M 20.5,179.5 C 25.1194,180.828 30.1194,181.494 35.5,181.5C 40.8806,181.494 45.8806,180.828 50.5,179.5C 51.404,180.209 51.7373,181.209 51.5,182.5C 40.8333,182.5 30.1667,182.5 19.5,182.5C 19.2627,181.209 19.596,180.209 20.5,179.5 Z"/></g>
</svg>
