<?xml version="1.0" encoding="UTF-8"?>
<!DOCTYPE svg PUBLIC "-//W3C//DTD SVG 1.1//EN" "http://www.w3.org/Graphics/SVG/1.1/DTD/svg11.dtd">
<svg xmlns="http://www.w3.org/2000/svg" version="1.1" width="2384px" height="1276px" style="shape-rendering:geometricPrecision; text-rendering:geometricPrecision; image-rendering:optimizeQuality; fill-rule:evenodd; clip-rule:evenodd" xmlns:xlink="http://www.w3.org/1999/xlink">
<g><path style="opacity:1" fill="#d57130" d="M 1393.5,242.5 C 1393.44,257.846 1392.94,273.179 1392,288.5C 1382.17,279.333 1372.33,270.167 1362.5,261C 1341.84,246.581 1318.84,239.748 1293.5,240.5C 1268.84,213.838 1243.84,187.504 1218.5,161.5C 1218.5,144.167 1218.5,126.833 1218.5,109.5C 1202.66,109.17 1186.99,109.504 1171.5,110.5C 1151.9,90.8984 1132.57,70.8984 1113.5,50.5C 1129.32,34.1806 1145.32,18.0139 1161.5,2C 1162.17,1.33333 1162.83,1.33333 1163.5,2C 1239.67,82.6683 1316.34,162.835 1393.5,242.5 Z"/></g>
<g><path style="opacity:1" fill="#d57130" d="M 1170.5,161.5 C 1170.5,161.833 1170.5,162.167 1170.5,162.5C 1170.67,195.835 1170.5,229.168 1170,262.5C 1126.65,217.318 1083.48,171.985 1040.5,126.5C 1056.5,109.833 1072.83,93.5 1089.5,77.5C 1116.52,105.521 1143.52,133.521 1170.5,161.5 Z"/></g>
<g><path style="opacity:0.961" fill="#090807" d="M 1218.5,161.5 C 1218.5,162.167 1218.5,162.833 1218.5,163.5C 1218.5,178.833 1218.5,194.167 1218.5,209.5C 1218.5,210.5 1218.5,211.5 1218.5,212.5C 1218.5,229.167 1218.5,245.833 1218.5,262.5C 1229.96,257.937 1240.96,252.604 1251.5,246.5C 1252.17,246.5 1252.5,246.167 1252.5,245.5C 1265.19,241.552 1278.19,239.885 1291.5,240.5C 1292.17,240.5 1292.83,240.5 1293.5,240.5C 1318.84,239.748 1341.84,246.581 1362.5,261C 1372.33,270.167 1382.17,279.333 1392,288.5C 1392.94,273.179 1393.44,257.846 1393.5,242.5C 1393.5,241.833 1393.5,241.167 1393.5,240.5C 1459.84,240.276 1526.17,240.609 1592.5,241.5C 1592.5,267.5 1592.5,293.5 1592.5,319.5C 1591.5,379.664 1591.17,439.998 1591.5,500.5C 1575.68,501.496 1559.68,501.83 1543.5,501.5C 1542.51,501.328 1541.84,501.662 1541.5,502.5C 1539.95,502.179 1539.29,501.179 1539.5,499.5C 1540.17,499.5 1540.5,499.167 1540.5,498.5C 1540.5,464.833 1540.5,431.167 1540.5,397.5C 1540.17,396.167 1539.83,394.833 1539.5,393.5C 1539.5,360.5 1539.5,327.5 1539.5,294.5C 1532.5,294.5 1525.5,294.5 1518.5,294.5C 1517.17,294.5 1515.83,294.5 1514.5,294.5C 1514.5,327.167 1514.5,359.833 1514.5,392.5C 1513.5,428.663 1513.17,464.996 1513.5,501.5C 1500.5,501.5 1487.5,501.5 1474.5,501.5C 1472.17,501.5 1469.83,501.5 1467.5,501.5C 1467.5,491.5 1467.5,481.5 1467.5,471.5C 1467.44,470.391 1467.11,469.391 1466.5,468.5C 1466.5,453.5 1466.5,438.5 1466.5,423.5C 1467.34,423.158 1467.67,422.492 1467.5,421.5C 1467.5,387.833 1467.5,354.167 1467.5,320.5C 1467.27,318.938 1466.6,317.605 1465.5,316.5C 1466.49,309.352 1466.82,302.019 1466.5,294.5C 1459.31,294.175 1452.31,294.509 1445.5,295.5C 1444.83,295.167 1444.17,294.833 1443.5,294.5C 1442.17,316.323 1441.5,338.49 1441.5,361C 1441.5,383.336 1441.83,405.503 1442.5,427.5C 1442.5,432.833 1442.5,438.167 1442.5,443.5C 1441.66,443.842 1441.33,444.508 1441.5,445.5C 1441.5,464.167 1441.5,482.833 1441.5,501.5C 1434.83,501.5 1428.17,501.5 1421.5,501.5C 1414.17,501.5 1406.83,501.5 1399.5,501.5C 1398.51,501.328 1397.84,501.662 1397.5,502.5C 1393.5,503.167 1391.83,501.5 1392.5,497.5C 1393.34,497.158 1393.67,496.492 1393.5,495.5C 1393.66,482.482 1393.33,469.482 1392.5,456.5C 1392.66,454.801 1392.49,453.134 1392,451.5C 1388.83,453.853 1386.67,456.853 1385.5,460.5C 1381.81,463.862 1378.14,467.195 1374.5,470.5C 1364.49,477.507 1354.49,484.507 1344.5,491.5C 1342.95,492.441 1341.28,493.107 1339.5,493.5C 1338.21,493.263 1337.21,493.596 1336.5,494.5C 1329.35,497.106 1322.01,499.106 1314.5,500.5C 1302.57,502.769 1290.57,503.102 1278.5,501.5C 1261.71,498.937 1246.04,493.27 1231.5,484.5C 1231.17,483.5 1230.5,482.833 1229.5,482.5C 1226.3,481.099 1222.96,480.099 1219.5,479.5C 1219.5,480.5 1219.5,481.5 1219.5,482.5C 1219.18,499.577 1219.51,516.577 1220.5,533.5C 1219.51,533.328 1218.84,533.662 1218.5,534.5C 1218.5,567.833 1218.5,601.167 1218.5,634.5C 1218.5,634.833 1218.5,635.167 1218.5,635.5C 1215.83,635.5 1213.17,635.5 1210.5,635.5C 1200.01,634.49 1189.34,633.823 1178.5,633.5C 1177.83,633.5 1177.17,633.5 1176.5,633.5C 1175.83,633.5 1175.17,633.5 1174.5,633.5C 1173.17,633.5 1171.83,633.5 1170.5,633.5C 1170.5,632.167 1170.5,630.833 1170.5,629.5C 1170.5,628.833 1170.5,628.167 1170.5,627.5C 1170.62,620.471 1170.29,613.471 1169.5,606.5C 1170.49,599.352 1170.82,592.019 1170.5,584.5C 1170.83,564.326 1170.5,544.326 1169.5,524.5C 1169.5,510.5 1169.5,496.5 1169.5,482.5C 1169.66,480.473 1169.5,478.473 1169,476.5C 1167.09,478.856 1164.92,480.856 1162.5,482.5C 1143.8,493.842 1123.47,500.175 1101.5,501.5C 1096.17,501.5 1090.83,501.5 1085.5,501.5C 1078.76,501.06 1072.09,500.06 1065.5,498.5C 1064.58,498.543 1063.92,498.876 1063.5,499.5C 1062.83,499.5 1062.5,499.167 1062.5,498.5C 1060.9,496.926 1058.9,496.259 1056.5,496.5C 1055.22,495.069 1053.55,494.402 1051.5,494.5C 1050.22,493.069 1048.55,492.402 1046.5,492.5C 1044.15,490.659 1041.48,489.326 1038.5,488.5C 1037.17,488.167 1035.83,487.833 1034.5,487.5C 1034.5,487.167 1034.5,486.833 1034.5,486.5C 1032.02,483.759 1029.02,481.759 1025.5,480.5C 1024.74,478.738 1023.4,477.738 1021.5,477.5C 1020.74,475.738 1019.4,474.738 1017.5,474.5C 1013.83,470.167 1009.83,466.167 1005.5,462.5C 1001.17,457.167 996.833,451.833 992.5,446.5C 991.617,443.296 989.95,440.629 987.5,438.5C 986.008,434.182 984.008,430.182 981.5,426.5C 975.188,412.251 971.521,397.251 970.5,381.5C 971.767,378.728 971.767,376.061 970.5,373.5C 970.125,347.356 976.459,323.023 989.5,300.5C 990.404,299.791 990.737,298.791 990.5,297.5C 997.747,285.385 1007.08,275.051 1018.5,266.5C 1019.49,266.672 1020.16,266.338 1020.5,265.5C 1041.89,249.483 1065.89,240.816 1092.5,239.5C 1092.5,238.833 1092.5,238.167 1092.5,237.5C 1093.29,237.783 1093.96,238.283 1094.5,239C 1107.09,239.449 1119.43,241.449 1131.5,245C 1143.46,249.982 1155.13,255.482 1166.5,261.5C 1166.5,262.167 1166.83,262.5 1167.5,262.5C 1168.72,263.028 1169.89,263.695 1171,264.5C 1171.83,230.331 1171.66,196.331 1170.5,162.5C 1170.5,162.167 1170.5,161.833 1170.5,161.5C 1170.5,160.5 1170.5,159.5 1170.5,158.5C 1170.5,143.167 1170.5,127.833 1170.5,112.5C 1170.83,111.833 1171.17,111.167 1171.5,110.5C 1186.99,109.504 1202.66,109.17 1218.5,109.5C 1218.5,126.833 1218.5,144.167 1218.5,161.5 Z M 1299.5,293.5 C 1328.11,296.947 1347.94,311.947 1359,338.5C 1361.94,345.921 1363.77,353.588 1364.5,361.5C 1342.84,338.875 1321.18,316.209 1299.5,293.5 Z M 1445.5,295.5 C 1452.31,294.509 1459.31,294.175 1466.5,294.5C 1466.82,302.019 1466.49,309.352 1465.5,316.5C 1458.81,309.474 1452.14,302.474 1445.5,295.5 Z M 1518.5,294.5 C 1525.5,294.5 1532.5,294.5 1539.5,294.5C 1539.5,327.5 1539.5,360.5 1539.5,393.5C 1531.81,386.473 1524.47,379.14 1517.5,371.5C 1517.33,345.824 1517.66,320.157 1518.5,294.5 Z M 1057.5,306.5 C 1090.47,341.47 1123.8,376.137 1157.5,410.5C 1150.83,423.167 1141.17,432.833 1128.5,439.5C 1095.5,405.168 1062.17,371.168 1028.5,337.5C 1035.33,324.837 1044.5,314.17 1056,305.5C 1056.38,306.056 1056.88,306.389 1057.5,306.5 Z M 1231.5,329.5 C 1265.53,364.196 1299.2,399.196 1332.5,434.5C 1321.79,443.074 1309.46,447.741 1295.5,448.5C 1270.47,422.473 1245.47,396.473 1220.5,370.5C 1219.7,368.958 1219.37,367.292 1219.5,365.5C 1220.52,358.106 1221.85,350.773 1223.5,343.5C 1225.65,338.54 1228.31,333.873 1231.5,329.5 Z M 1442.5,399.5 C 1450.86,407.194 1458.86,415.194 1466.5,423.5C 1466.5,438.5 1466.5,453.5 1466.5,468.5C 1458.53,460.193 1450.53,451.86 1442.5,443.5C 1442.5,438.167 1442.5,432.833 1442.5,427.5C 1442.5,418.167 1442.5,408.833 1442.5,399.5 Z"/></g>
<g><path style="opacity:1" fill="#d7d2cb" d="M 1175.5,113.5 C 1188.5,113.5 1201.5,113.5 1214.5,113.5C 1214.17,165.171 1214.5,216.838 1215.5,268.5C 1227.9,263.467 1239.9,257.634 1251.5,251C 1278.72,242.685 1306.06,242.352 1333.5,250C 1344.95,254.219 1355.28,260.219 1364.5,268C 1373.56,277.734 1383.23,286.734 1393.5,295C 1394.45,295.483 1395.45,295.649 1396.5,295.5C 1396.54,278.826 1396.88,262.159 1397.5,245.5C 1460.83,245.5 1524.17,245.5 1587.5,245.5C 1587.5,329.5 1587.5,413.5 1587.5,497.5C 1573.17,497.5 1558.83,497.5 1544.5,497.5C 1544.5,428.167 1544.5,358.833 1544.5,289.5C 1536.32,289.174 1528.32,289.508 1520.5,290.5C 1517.17,290.5 1513.83,290.5 1510.5,290.5C 1510.5,359.5 1510.5,428.5 1510.5,497.5C 1497.5,497.5 1484.5,497.5 1471.5,497.5C 1471.5,428.167 1471.5,358.833 1471.5,289.5C 1465.83,289.5 1460.17,289.5 1454.5,289.5C 1448.83,289.5 1443.17,289.5 1437.5,289.5C 1437.5,310.167 1437.5,330.833 1437.5,351.5C 1437.5,400.167 1437.5,448.833 1437.5,497.5C 1424.17,497.5 1410.83,497.5 1397.5,497.5C 1397.34,480.162 1397.01,462.829 1396.5,445.5C 1393.98,445.755 1391.65,446.589 1389.5,448C 1385.17,453 1380.83,458 1376.5,463C 1367.45,470.385 1358.12,477.385 1348.5,484C 1323.99,497.032 1297.99,501.032 1270.5,496C 1255.58,492.206 1241.58,486.206 1228.5,478C 1223.98,475.993 1219.31,474.493 1214.5,473.5C 1214.5,525.833 1214.5,578.167 1214.5,630.5C 1201.16,630.389 1187.83,630.055 1174.5,629.5C 1174.69,577.162 1174.36,524.828 1173.5,472.5C 1171.14,472.337 1168.81,472.503 1166.5,473C 1149.99,486.624 1130.99,494.624 1109.5,497C 1052.43,500.388 1011.26,476.555 986,425.5C 965.772,374.511 972.439,327.511 1006,284.5C 1042.87,245.991 1086.7,235.158 1137.5,252C 1149.15,258.661 1161.15,264.495 1173.5,269.5C 1173.56,270.043 1173.89,270.376 1174.5,270.5C 1175.5,218.171 1175.83,165.838 1175.5,113.5 Z M 1299.5,293.5 C 1328.11,296.947 1347.94,311.947 1359,338.5C 1361.94,345.921 1363.77,353.588 1364.5,361.5C 1342.84,338.875 1321.18,316.209 1299.5,293.5 Z M 1445.5,295.5 C 1452.31,294.509 1459.31,294.175 1466.5,294.5C 1466.82,302.019 1466.49,309.352 1465.5,316.5C 1458.81,309.474 1452.14,302.474 1445.5,295.5 Z M 1518.5,294.5 C 1525.5,294.5 1532.5,294.5 1539.5,294.5C 1539.5,327.5 1539.5,360.5 1539.5,393.5C 1531.81,386.473 1524.47,379.14 1517.5,371.5C 1517.33,345.824 1517.66,320.157 1518.5,294.5 Z M 1057.5,306.5 C 1090.47,341.47 1123.8,376.137 1157.5,410.5C 1150.83,423.167 1141.17,432.833 1128.5,439.5C 1095.5,405.168 1062.17,371.168 1028.5,337.5C 1035.33,324.837 1044.5,314.17 1056,305.5C 1056.38,306.056 1056.88,306.389 1057.5,306.5 Z M 1231.5,329.5 C 1265.53,364.196 1299.2,399.196 1332.5,434.5C 1321.79,443.074 1309.46,447.741 1295.5,448.5C 1270.47,422.473 1245.47,396.473 1220.5,370.5C 1219.7,368.958 1219.37,367.292 1219.5,365.5C 1220.52,358.106 1221.85,350.773 1223.5,343.5C 1225.65,338.54 1228.31,333.873 1231.5,329.5 Z M 1442.5,399.5 C 1450.86,407.194 1458.86,415.194 1466.5,423.5C 1466.5,438.5 1466.5,453.5 1466.5,468.5C 1458.53,460.193 1450.53,451.86 1442.5,443.5C 1442.5,438.167 1442.5,432.833 1442.5,427.5C 1442.5,418.167 1442.5,408.833 1442.5,399.5 Z"/></g>
<g><path style="opacity:1" fill="#31302e" d="M 1175.5,113.5 C 1175.83,165.838 1175.5,218.171 1174.5,270.5C 1173.89,270.376 1173.56,270.043 1173.5,269.5C 1174.17,217.5 1174.83,165.5 1175.5,113.5 Z"/></g>
<g><path style="opacity:0.969" fill="#3a2e29" d="M 1161.5,-0.5 C 1162.5,-0.5 1163.5,-0.5 1164.5,-0.5C 1240.5,80.1623 1316.83,160.496 1393.5,240.5C 1393.5,241.167 1393.5,241.833 1393.5,242.5C 1316.34,162.835 1239.67,82.6683 1163.5,2C 1162.83,1.33333 1162.17,1.33333 1161.5,2C 1145.32,18.0139 1129.32,34.1806 1113.5,50.5C 1132.57,70.8984 1151.9,90.8984 1171.5,110.5C 1171.17,111.167 1170.83,111.833 1170.5,112.5C 1150.15,92.4856 1130.49,71.819 1111.5,50.5C 1128.19,33.4792 1144.85,16.4792 1161.5,-0.5 Z"/></g>
<g><path style="opacity:1" fill="#d47130" d="M 1092.5,239.5 C 1065.89,240.816 1041.89,249.483 1020.5,265.5C 1001.52,246.518 982.852,227.184 964.5,207.5C 980.5,190.833 996.833,174.5 1013.5,158.5C 1040.22,185.216 1066.55,212.216 1092.5,239.5 Z"/></g>
<g><path style="opacity:0.914" fill="#3a2e28" d="M 1218.5,161.5 C 1243.84,187.504 1268.84,213.838 1293.5,240.5C 1292.83,240.5 1292.17,240.5 1291.5,240.5C 1267.5,214.505 1243.17,188.838 1218.5,163.5C 1218.5,162.833 1218.5,162.167 1218.5,161.5 Z"/></g>
<g><path style="opacity:0.506" fill="#43332b" d="M 1170.5,158.5 C 1170.5,159.5 1170.5,160.5 1170.5,161.5C 1143.52,133.521 1116.52,105.521 1089.5,77.5C 1072.83,93.5 1056.5,109.833 1040.5,126.5C 1083.48,171.985 1126.65,217.318 1170,262.5C 1170.5,229.168 1170.67,195.835 1170.5,162.5C 1171.66,196.331 1171.83,230.331 1171,264.5C 1169.89,263.695 1168.72,263.028 1167.5,262.5C 1166.83,262.5 1166.5,262.167 1166.5,261.5C 1123.85,216.52 1081.19,171.52 1038.5,126.5C 1055.17,109.167 1072.17,92.1667 1089.5,75.5C 1116.88,102.883 1143.88,130.55 1170.5,158.5 Z"/></g>
<g><path style="opacity:0.969" fill="#3a2e2a" d="M 1092.5,237.5 C 1092.5,238.167 1092.5,238.833 1092.5,239.5C 1066.55,212.216 1040.22,185.216 1013.5,158.5C 996.833,174.5 980.5,190.833 964.5,207.5C 982.852,227.184 1001.52,246.518 1020.5,265.5C 1020.16,266.338 1019.49,266.672 1018.5,266.5C 999.855,246.854 981.188,227.187 962.5,207.5C 978.986,190.514 995.653,173.681 1012.5,157C 1013.64,156.251 1014.64,156.417 1015.5,157.5C 1041.19,184.187 1066.85,210.854 1092.5,237.5 Z"/></g>
<g><path style="opacity:1" fill="#d37030" d="M 1218.5,212.5 C 1229.47,223.807 1240.47,235.14 1251.5,246.5C 1240.96,252.604 1229.96,257.937 1218.5,262.5C 1218.5,245.833 1218.5,229.167 1218.5,212.5 Z"/></g>
<g><path style="opacity:0.969" fill="#392e28" d="M 1218.5,209.5 C 1230.17,221.172 1241.5,233.172 1252.5,245.5C 1252.5,246.167 1252.17,246.5 1251.5,246.5C 1240.47,235.14 1229.47,223.807 1218.5,212.5C 1218.5,211.5 1218.5,210.5 1218.5,209.5 Z"/></g>
<g><path style="opacity:1" fill="#d57130" d="M 989.5,300.5 C 976.459,323.023 970.125,347.356 970.5,373.5C 970.662,375.527 970.495,377.527 970,379.5C 940.5,349.333 911,319.167 881.5,289C 898,272.5 914.5,256 931,239.5C 951.454,259.116 970.954,279.45 989.5,300.5 Z"/></g>
<g><path style="opacity:0.965" fill="#0e0b09" d="M 1087.5,287.5 C 1124.39,288.025 1150.55,305.025 1166,338.5C 1176.09,368.186 1172.76,396.186 1156,422.5C 1135.19,447.343 1108.69,456.843 1076.5,451C 1061.23,447.614 1048.73,439.78 1039,427.5C 1017.05,402.632 1011.05,374.299 1021,342.5C 1033.75,312.562 1055.92,294.229 1087.5,287.5 Z M 1057.5,306.5 C 1090.47,341.47 1123.8,376.137 1157.5,410.5C 1150.83,423.167 1141.17,432.833 1128.5,439.5C 1095.5,405.168 1062.17,371.168 1028.5,337.5C 1035.33,324.837 1044.5,314.17 1056,305.5C 1056.38,306.056 1056.88,306.389 1057.5,306.5 Z"/></g>
<g><path style="opacity:0.943" fill="#0d0a08" d="M 1284.5,287.5 C 1332.03,288.204 1360.2,311.871 1369,358.5C 1374.09,399.156 1358.59,428.656 1322.5,447C 1282.19,460.896 1250.35,450.063 1227,414.5C 1206.73,377.152 1210.9,342.986 1239.5,312C 1252.86,300.657 1267.86,292.49 1284.5,287.5 Z M 1299.5,293.5 C 1328.11,296.947 1347.94,311.947 1359,338.5C 1361.94,345.921 1363.77,353.588 1364.5,361.5C 1342.84,338.875 1321.18,316.209 1299.5,293.5 Z M 1231.5,329.5 C 1265.53,364.196 1299.2,399.196 1332.5,434.5C 1321.79,443.074 1309.46,447.741 1295.5,448.5C 1270.47,422.473 1245.47,396.473 1220.5,370.5C 1219.7,368.958 1219.37,367.292 1219.5,365.5C 1220.52,358.106 1221.85,350.773 1223.5,343.5C 1225.65,338.54 1228.31,333.873 1231.5,329.5 Z"/></g>
<g><path style="opacity:1" fill="#d47130" d="M 1158.5,409.5 C 1125.17,374.17 1091.5,339.17 1057.5,304.5C 1075.93,291.806 1095.93,288.973 1117.5,296C 1154.76,313.653 1171.26,343.153 1167,384.5C 1165.44,393.359 1162.6,401.692 1158.5,409.5 Z"/></g>
<g><path style="opacity:1" fill="#d57130" d="M 1296.5,292.5 C 1318.8,317.133 1341.8,341.133 1365.5,364.5C 1367.69,390.771 1359.36,412.938 1340.5,431C 1338.61,432.394 1336.61,433.56 1334.5,434.5C 1300.11,398.782 1266.11,362.782 1232.5,326.5C 1245.14,310.667 1261.14,299.5 1280.5,293C 1285.82,292.501 1291.16,292.334 1296.5,292.5 Z"/></g>
<g><path style="opacity:0.953" fill="#d7cbc1" d="M 1518.5,294.5 C 1517.66,320.157 1517.33,345.824 1517.5,371.5C 1516.83,371.5 1516.5,371.833 1516.5,372.5C 1516.63,406.173 1516.29,439.839 1515.5,473.5C 1515.5,474.167 1515.5,474.833 1515.5,475.5C 1515.83,484.682 1515.49,493.682 1514.5,502.5C 1514.5,465.833 1514.5,429.167 1514.5,392.5C 1514.5,359.833 1514.5,327.167 1514.5,294.5C 1515.83,294.5 1517.17,294.5 1518.5,294.5 Z"/></g>
<g><path style="opacity:1" fill="#d47131" d="M 1443.5,295.5 C 1451.53,303.86 1459.53,312.193 1467.5,320.5C 1467.5,354.167 1467.5,387.833 1467.5,421.5C 1458.81,413.473 1450.47,405.14 1442.5,396.5C 1442.17,362.663 1442.5,328.996 1443.5,295.5 Z"/></g>
<g><path style="opacity:0.969" fill="#3c2e29" d="M 1443.5,294.5 C 1444.17,294.833 1444.83,295.167 1445.5,295.5C 1452.14,302.474 1458.81,309.474 1465.5,316.5C 1466.6,317.605 1467.27,318.938 1467.5,320.5C 1459.53,312.193 1451.53,303.86 1443.5,295.5C 1443.5,295.167 1443.5,294.833 1443.5,294.5 Z"/></g>
<g><path style="opacity:0.467" fill="#3b2e28" d="M 990.5,297.5 C 990.737,298.791 990.404,299.791 989.5,300.5C 970.954,279.45 951.454,259.116 931,239.5C 914.5,256 898,272.5 881.5,289C 911,319.167 940.5,349.333 970,379.5C 970.495,377.527 970.662,375.527 970.5,373.5C 971.767,376.061 971.767,378.728 970.5,381.5C 940.034,350.867 909.701,320.034 879.5,289C 896.733,271.767 913.9,254.6 931,237.5C 950.995,257.329 970.829,277.329 990.5,297.5 Z"/></g>
<g><path style="opacity:0.969" fill="#3b2e29" d="M 1296.5,292.5 C 1297.17,292.5 1297.83,292.5 1298.5,292.5C 1298.5,293.167 1298.83,293.5 1299.5,293.5C 1321.18,316.209 1342.84,338.875 1364.5,361.5C 1365.11,362.391 1365.44,363.391 1365.5,364.5C 1341.8,341.133 1318.8,317.133 1296.5,292.5 Z"/></g>
<g><path style="opacity:1" fill="#d57130" d="M 992.5,446.5 C 996.833,451.833 1001.17,457.167 1005.5,462.5C 1008.5,467.5 1012.5,471.5 1017.5,474.5C 1018.26,476.262 1019.6,477.262 1021.5,477.5C 1022.26,479.262 1023.6,480.262 1025.5,480.5C 1026.5,482.167 1027.83,483.5 1029.5,484.5C 1076.16,533.164 1123.16,581.498 1170.5,629.5C 1170.5,630.833 1170.5,632.167 1170.5,633.5C 1171.83,633.5 1173.17,633.5 1174.5,633.5C 1200.67,660.507 1226.67,687.673 1252.5,715C 1236.71,731.793 1220.54,748.293 1204,764.5C 1073.47,630.971 943.304,497.138 813.5,363C 830,346.5 846.5,330 863,313.5C 906.034,358.033 949.201,402.366 992.5,446.5 Z"/></g>
<g><path style="opacity:1" fill="#9a8b80" d="M 1443.5,294.5 C 1443.5,294.833 1443.5,295.167 1443.5,295.5C 1442.5,328.996 1442.17,362.663 1442.5,396.5C 1442.5,397.5 1442.5,398.5 1442.5,399.5C 1442.5,408.833 1442.5,418.167 1442.5,427.5C 1441.83,405.503 1441.5,383.336 1441.5,361C 1441.5,338.49 1442.17,316.323 1443.5,294.5 Z"/></g>
<g><path style="opacity:1" fill="#d47130" d="M 1027.5,338.5 C 1061.2,372.195 1094.53,406.195 1127.5,440.5C 1088.71,457.259 1057.21,448.259 1033,413.5C 1018.55,389.418 1016.72,364.418 1027.5,338.5 Z"/></g>
<g><path style="opacity:1" fill="#232221" d="M 1454.5,289.5 C 1449.36,290.488 1444.03,290.821 1438.5,290.5C 1438.83,311.007 1438.5,331.34 1437.5,351.5C 1437.5,330.833 1437.5,310.167 1437.5,289.5C 1443.17,289.5 1448.83,289.5 1454.5,289.5 Z"/></g>
<g><path style="opacity:0.11" fill="#9d9791" d="M 1223.5,343.5 C 1221.85,350.773 1220.52,358.106 1219.5,365.5C 1218.66,357.871 1220,350.538 1223.5,343.5 Z"/></g>
<g><path style="opacity:0.42" fill="#3a2e29" d="M 1057.5,304.5 C 1091.5,339.17 1125.17,374.17 1158.5,409.5C 1158.5,410.167 1158.17,410.5 1157.5,410.5C 1123.8,376.137 1090.47,341.47 1057.5,306.5C 1057.5,305.833 1057.5,305.167 1057.5,304.5 Z"/></g>
<g><path style="opacity:0.784" fill="#3a2d28" d="M 1027.5,338.5 C 1027.5,337.833 1027.83,337.5 1028.5,337.5C 1062.17,371.168 1095.5,405.168 1128.5,439.5C 1128.5,440.167 1128.17,440.5 1127.5,440.5C 1094.53,406.195 1061.2,372.195 1027.5,338.5 Z"/></g>
<g><path style="opacity:1" fill="#d27030" d="M 1218.5,371.5 C 1244.17,397.169 1269.5,423.169 1294.5,449.5C 1262.42,447.917 1239.59,432.584 1226,403.5C 1221.47,393.326 1218.97,382.659 1218.5,371.5 Z"/></g>
<g><path style="opacity:1" fill="#d57131" d="M 1516.5,372.5 C 1524.51,380.507 1532.17,388.841 1539.5,397.5C 1539.83,430.671 1539.5,463.671 1538.5,496.5C 1531.19,488.527 1523.53,480.86 1515.5,473.5C 1516.29,439.839 1516.63,406.173 1516.5,372.5 Z"/></g>
<g><path style="opacity:1" fill="#32312f" d="M 1520.5,290.5 C 1528.32,289.508 1536.32,289.174 1544.5,289.5C 1544.5,358.833 1544.5,428.167 1544.5,497.5C 1543.5,428.669 1543.17,359.669 1543.5,290.5C 1535.83,290.5 1528.17,290.5 1520.5,290.5 Z"/></g>
<g><path style="opacity:0.416" fill="#3b2e29" d="M 1232.5,326.5 C 1266.11,362.782 1300.11,398.782 1334.5,434.5C 1333.83,434.5 1333.17,434.5 1332.5,434.5C 1299.2,399.196 1265.53,364.196 1231.5,329.5C 1231.26,328.209 1231.6,327.209 1232.5,326.5 Z"/></g>
<g><path style="opacity:0.965" fill="#3b2f29" d="M 1516.5,372.5 C 1516.5,371.833 1516.83,371.5 1517.5,371.5C 1524.47,379.14 1531.81,386.473 1539.5,393.5C 1539.83,394.833 1540.17,396.167 1540.5,397.5C 1540.17,397.5 1539.83,397.5 1539.5,397.5C 1532.17,388.841 1524.51,380.507 1516.5,372.5 Z"/></g>
<g><path style="opacity:0.969" fill="#3b2e29" d="M 1218.5,371.5 C 1218.84,370.662 1219.51,370.328 1220.5,370.5C 1245.47,396.473 1270.47,422.473 1295.5,448.5C 1295.5,449.167 1295.17,449.5 1294.5,449.5C 1269.5,423.169 1244.17,397.169 1218.5,371.5 Z"/></g>
<g><path style="opacity:0.961" fill="#3a2e28" d="M 1442.5,396.5 C 1450.47,405.14 1458.81,413.473 1467.5,421.5C 1467.67,422.492 1467.34,423.158 1466.5,423.5C 1458.86,415.194 1450.86,407.194 1442.5,399.5C 1442.5,398.5 1442.5,397.5 1442.5,396.5 Z"/></g>
<g><path style="opacity:0.649" fill="#cdc6be" d="M 981.5,426.5 C 984.008,430.182 986.008,434.182 987.5,438.5C 986.167,437.833 985.167,436.833 984.5,435.5C 984.5,434.833 984.167,434.5 983.5,434.5C 983.5,433.833 983.167,433.5 982.5,433.5C 982.007,431.194 981.674,428.861 981.5,426.5 Z"/></g>
<g><path style="opacity:1" fill="#d57130" d="M 1441.5,445.5 C 1449.81,454.473 1458.47,463.14 1467.5,471.5C 1467.5,481.5 1467.5,491.5 1467.5,501.5C 1469.83,501.5 1472.17,501.5 1474.5,501.5C 1481.98,502.492 1489.65,502.825 1497.5,502.5C 1565.44,574.277 1633.61,645.944 1702,717.5C 1702.67,718.167 1702.67,718.833 1702,719.5C 1685.91,735.593 1669.91,751.593 1654,767.5C 1569.34,679.67 1484.84,591.67 1400.5,503.5C 1407.5,502.833 1414.5,502.167 1421.5,501.5C 1428.17,501.5 1434.83,501.5 1441.5,501.5C 1441.5,482.833 1441.5,464.167 1441.5,445.5 Z"/></g>
<g><path style="opacity:0.969" fill="#3b2f29" d="M 1442.5,443.5 C 1450.53,451.86 1458.53,460.193 1466.5,468.5C 1467.11,469.391 1467.44,470.391 1467.5,471.5C 1458.47,463.14 1449.81,454.473 1441.5,445.5C 1441.33,444.508 1441.66,443.842 1442.5,443.5 Z"/></g>
<g><path style="opacity:1" fill="#904c20" d="M 1539.5,397.5 C 1539.83,397.5 1540.17,397.5 1540.5,397.5C 1540.5,431.167 1540.5,464.833 1540.5,498.5C 1539.5,498.167 1538.83,497.5 1538.5,496.5C 1539.5,463.671 1539.83,430.671 1539.5,397.5 Z"/></g>
<g><path style="opacity:1" fill="#d1c3b9" d="M 1392.5,456.5 C 1389.71,457.063 1387.37,458.396 1385.5,460.5C 1386.67,456.853 1388.83,453.853 1392,451.5C 1392.49,453.134 1392.66,454.801 1392.5,456.5 Z"/></g>
<g><path style="opacity:1" fill="#d57131" d="M 1543.5,501.5 C 1559.68,501.83 1575.68,501.496 1591.5,500.5C 1592.33,484.672 1592.83,468.672 1593,452.5C 1677.44,541.691 1762.1,630.691 1847,719.5C 1847.67,720.167 1847.67,720.833 1847,721.5C 1830.99,737.681 1814.82,753.681 1798.5,769.5C 1713.5,680.176 1628.5,590.843 1543.5,501.5 Z"/></g>
<g><path style="opacity:1" fill="#ce6e30" d="M 1392.5,456.5 C 1393.33,469.482 1393.66,482.482 1393.5,495.5C 1386.53,488.193 1379.53,480.86 1372.5,473.5C 1373.17,472.5 1373.83,471.5 1374.5,470.5C 1378.14,467.195 1381.81,463.862 1385.5,460.5C 1387.37,458.396 1389.71,457.063 1392.5,456.5 Z"/></g>
<g><path style="opacity:1" fill="#b29887" d="M 1005.5,462.5 C 1009.83,466.167 1013.83,470.167 1017.5,474.5C 1012.5,471.5 1008.5,467.5 1005.5,462.5 Z"/></g>
<g><path style="opacity:0.459" fill="#3c2e29" d="M 1372.5,473.5 C 1379.53,480.86 1386.53,488.193 1393.5,495.5C 1393.67,496.492 1393.34,497.158 1392.5,497.5C 1385.13,490.133 1378.13,482.466 1371.5,474.5C 1371.5,473.833 1371.83,473.5 1372.5,473.5 Z"/></g>
<g><path style="opacity:0.302" fill="#3a2d29" d="M 1515.5,473.5 C 1523.53,480.86 1531.19,488.527 1538.5,496.5C 1538.83,497.5 1539.5,498.167 1540.5,498.5C 1540.5,499.167 1540.17,499.5 1539.5,499.5C 1531.14,491.806 1523.14,483.806 1515.5,475.5C 1515.5,474.833 1515.5,474.167 1515.5,473.5 Z"/></g>
<g><path style="opacity:1" fill="#ac988b" d="M 1017.5,474.5 C 1019.4,474.738 1020.74,475.738 1021.5,477.5C 1019.6,477.262 1018.26,476.262 1017.5,474.5 Z"/></g>
<g><path style="opacity:1" fill="#a69589" d="M 1021.5,477.5 C 1023.4,477.738 1024.74,478.738 1025.5,480.5C 1023.6,480.262 1022.26,479.262 1021.5,477.5 Z"/></g>
<g><path style="opacity:1" fill="#c3b9b0" d="M 1169.5,482.5 C 1167.17,482.5 1164.83,482.5 1162.5,482.5C 1164.92,480.856 1167.09,478.856 1169,476.5C 1169.5,478.473 1169.66,480.473 1169.5,482.5 Z"/></g>
<g><path style="opacity:1" fill="#c9bfb9" d="M 1229.5,482.5 C 1229.5,483.167 1229.17,483.5 1228.5,483.5C 1225.57,482.701 1222.57,482.368 1219.5,482.5C 1219.5,481.5 1219.5,480.5 1219.5,479.5C 1222.96,480.099 1226.3,481.099 1229.5,482.5 Z"/></g>
<g><path style="opacity:0.844" fill="#cbc3bb" d="M 1374.5,470.5 C 1373.83,471.5 1373.17,472.5 1372.5,473.5C 1371.83,473.5 1371.5,473.833 1371.5,474.5C 1363.92,482.454 1354.92,488.12 1344.5,491.5C 1354.49,484.507 1364.49,477.507 1374.5,470.5 Z"/></g>
<g><path style="opacity:1" fill="#d47130" d="M 1162.5,482.5 C 1164.83,482.5 1167.17,482.5 1169.5,482.5C 1169.5,496.5 1169.5,510.5 1169.5,524.5C 1169.83,544.007 1169.5,563.341 1168.5,582.5C 1142.37,556.2 1116.37,529.7 1090.5,503C 1094.36,502.823 1098.02,502.323 1101.5,501.5C 1123.47,500.175 1143.8,493.842 1162.5,482.5 Z"/></g>
<g><path style="opacity:0.761" fill="#897e77" d="M 1025.5,480.5 C 1029.02,481.759 1032.02,483.759 1034.5,486.5C 1034.17,486.5 1033.83,486.5 1033.5,486.5C 1032.4,485.4 1031.06,484.733 1029.5,484.5C 1027.83,483.5 1026.5,482.167 1025.5,480.5 Z"/></g>
<g><path style="opacity:1" fill="#d57131" d="M 1231.5,484.5 C 1246.04,493.27 1261.71,498.937 1278.5,501.5C 1279.26,502.268 1280.26,502.768 1281.5,503C 1290.17,503.667 1298.83,503.667 1307.5,503C 1310.1,502.61 1312.44,501.776 1314.5,500.5C 1322.01,499.106 1329.35,497.106 1336.5,494.5C 1341.74,498.233 1346.57,502.566 1351,507.5C 1420.17,579.333 1489.33,651.167 1558.5,723C 1542,739.5 1525.5,756 1509,772.5C 1416.3,676.631 1323.8,580.631 1231.5,484.5 Z"/></g>
<g><path style="opacity:0.867" fill="#847f7b" d="M 1038.5,488.5 C 1041.48,489.326 1044.15,490.659 1046.5,492.5C 1043.25,492.206 1040.58,490.873 1038.5,488.5 Z"/></g>
<g><path style="opacity:0.012" fill="#a39e9c" d="M 1046.5,492.5 C 1048.55,492.402 1050.22,493.069 1051.5,494.5C 1049.45,494.598 1047.78,493.931 1046.5,492.5 Z"/></g>
<g><path style="opacity:0.576" fill="#b6b1ab" d="M 1051.5,494.5 C 1053.55,494.402 1055.22,495.069 1056.5,496.5C 1054.45,496.598 1052.78,495.931 1051.5,494.5 Z"/></g>
<g><path style="opacity:0.012" fill="#b1aaa7" d="M 1056.5,496.5 C 1058.9,496.259 1060.9,496.926 1062.5,498.5C 1060.21,498.405 1058.21,497.738 1056.5,496.5 Z"/></g>
<g><path style="opacity:0.953" fill="#392d29" d="M 709.5,472.5 C 792.89,556.058 876.224,639.891 959.5,724C 942.5,741 925.5,758 908.5,775C 907.833,775.667 907.167,775.667 906.5,775C 823.833,691.333 741.167,607.667 658.5,524C 675.702,506.965 692.702,489.799 709.5,472.5 Z"/></g>
<g><path style="opacity:1" fill="#d57130" d="M 709.5,474.5 C 791.799,556.966 873.966,639.633 956,722.5C 956.667,723.5 956.667,724.5 956,725.5C 940.167,741.333 924.333,757.167 908.5,773C 907.668,773.688 907.002,773.521 906.5,772.5C 825.181,690.014 743.681,607.681 662,525.5C 661.333,524.5 661.333,523.5 662,522.5C 678.035,506.632 693.868,490.632 709.5,474.5 Z"/></g>
<g><path style="opacity:0.314" fill="#aea9a1" d="M 1063.5,499.5 C 1063.92,498.876 1064.58,498.543 1065.5,498.5C 1072.09,500.06 1078.76,501.06 1085.5,501.5C 1085.5,501.833 1085.5,502.167 1085.5,502.5C 1078.06,502.278 1070.72,501.278 1063.5,499.5 Z"/></g>
<g><path style="opacity:1" fill="#b19380" d="M 1399.5,501.5 C 1406.83,501.5 1414.17,501.5 1421.5,501.5C 1414.5,502.167 1407.5,502.833 1400.5,503.5C 1399.66,503.158 1399.33,502.492 1399.5,501.5 Z"/></g>
<g><path style="opacity:0.498" fill="#726b66" d="M 1514.5,392.5 C 1514.5,429.167 1514.5,465.833 1514.5,502.5C 1509.5,502.5 1504.5,502.5 1499.5,502.5C 1498.83,502.5 1498.17,502.5 1497.5,502.5C 1489.65,502.825 1481.98,502.492 1474.5,501.5C 1487.5,501.5 1500.5,501.5 1513.5,501.5C 1513.17,464.996 1513.5,428.663 1514.5,392.5 Z"/></g>
<g><path style="opacity:1" fill="#d47130" d="M 1218.5,534.5 C 1281.67,598.174 1344.34,662.341 1406.5,727C 1390.71,743.793 1374.54,760.293 1358,776.5C 1311.27,729.272 1264.77,681.938 1218.5,634.5C 1218.5,601.167 1218.5,567.833 1218.5,534.5 Z"/></g>
<g><path style="opacity:0.396" fill="#423631" d="M 1085.5,502.5 C 1085.5,502.167 1085.5,501.833 1085.5,501.5C 1090.83,501.5 1096.17,501.5 1101.5,501.5C 1098.02,502.323 1094.36,502.823 1090.5,503C 1116.37,529.7 1142.37,556.2 1168.5,582.5C 1168.83,583.5 1169.5,584.167 1170.5,584.5C 1170.82,592.019 1170.49,599.352 1169.5,606.5C 1169.67,599.492 1169.5,592.492 1169,585.5C 1142.17,558 1115.33,530.5 1088.5,503C 1087.55,502.517 1086.55,502.351 1085.5,502.5 Z"/></g>
<g><path style="opacity:1" fill="#733d1a" d="M 1169.5,524.5 C 1170.5,544.326 1170.83,564.326 1170.5,584.5C 1169.5,584.167 1168.83,583.5 1168.5,582.5C 1169.5,563.341 1169.83,544.007 1169.5,524.5 Z"/></g>
<g><path style="opacity:0.451" fill="#3b2e28" d="M 982.5,433.5 C 983.167,433.5 983.5,433.833 983.5,434.5C 984.167,434.5 984.5,434.833 984.5,435.5C 985.167,436.833 986.167,437.833 987.5,438.5C 989.95,440.629 991.617,443.296 992.5,446.5C 949.201,402.366 906.034,358.033 863,313.5C 846.5,330 830,346.5 813.5,363C 943.304,497.138 1073.47,630.971 1204,764.5C 1220.54,748.293 1236.71,731.793 1252.5,715C 1226.67,687.673 1200.67,660.507 1174.5,633.5C 1175.17,633.5 1175.83,633.5 1176.5,633.5C 1202.81,660.813 1229.15,688.146 1255.5,715.5C 1239.01,732.486 1222.35,749.319 1205.5,766C 1204.5,766.667 1203.5,766.667 1202.5,766C 1072.33,631.833 942.167,497.667 812,363.5C 811.333,362.833 811.333,362.167 812,361.5C 828.5,345 845,328.5 861.5,312C 862.5,311.333 863.5,311.333 864.5,312C 903.7,352.699 943.034,393.199 982.5,433.5 Z"/></g>
<g><path style="opacity:0.969" fill="#3b2e29" d="M 1029.5,484.5 C 1031.06,484.733 1032.4,485.4 1033.5,486.5C 1033.5,487.167 1033.83,487.5 1034.5,487.5C 1079.5,534.498 1124.83,581.164 1170.5,627.5C 1170.5,628.167 1170.5,628.833 1170.5,629.5C 1123.16,581.498 1076.16,533.164 1029.5,484.5 Z"/></g>
<g><path style="opacity:0.965" fill="#3b2e28" d="M 784.5,391.5 C 792.745,398.24 800.578,405.573 808,413.5C 908,514.833 1008,616.167 1108,717.5C 1108.67,718.167 1108.67,718.833 1108,719.5C 1091.5,736 1075,752.5 1058.5,769C 1057.5,769.667 1056.5,769.667 1055.5,769C 948.667,660.833 841.833,552.667 735,444.5C 734.333,443.5 734.333,442.5 735,441.5C 751.702,424.965 768.202,408.299 784.5,391.5 Z"/></g>
<g><path style="opacity:1" fill="#d57130" d="M 783.5,394.5 C 784.552,394.351 785.552,394.517 786.5,395C 892.305,502.472 998.472,609.639 1105,716.5C 1105.67,717.5 1105.67,718.5 1105,719.5C 1089,735.5 1073,751.5 1057,767.5C 950.695,659.528 844.028,551.861 737,444.5C 736.333,443.833 736.333,443.167 737,442.5C 752.34,426.327 767.84,410.327 783.5,394.5 Z"/></g>
<g><path style="opacity:0.969" fill="#3a2d28" d="M 1229.5,482.5 C 1230.5,482.833 1231.17,483.5 1231.5,484.5C 1323.8,580.631 1416.3,676.631 1509,772.5C 1525.5,756 1542,739.5 1558.5,723C 1489.33,651.167 1420.17,579.333 1351,507.5C 1346.57,502.566 1341.74,498.233 1336.5,494.5C 1337.21,493.596 1338.21,493.263 1339.5,493.5C 1412.8,569.965 1486.3,646.298 1560,722.5C 1560.67,723.167 1560.67,723.833 1560,724.5C 1543.29,741.541 1526.29,758.208 1509,774.5C 1415.36,677.696 1321.86,580.696 1228.5,483.5C 1229.17,483.5 1229.5,483.167 1229.5,482.5 Z"/></g>
<g><path style="opacity:1" fill="#d7beae" d="M 1314.5,500.5 C 1312.44,501.776 1310.1,502.61 1307.5,503C 1298.83,503.667 1290.17,503.667 1281.5,503C 1280.26,502.768 1279.26,502.268 1278.5,501.5C 1290.57,503.102 1302.57,502.769 1314.5,500.5 Z"/></g>
<g><path style="opacity:0.957" fill="#372c29" d="M 559.5,626.5 C 594.583,660.082 629.25,694.248 663.5,729C 646.333,746.167 629.167,763.333 612,780.5C 577.694,747.195 543.694,713.528 510,679.5C 509.333,678.5 509.333,677.5 510,676.5C 526.702,659.965 543.202,643.299 559.5,626.5 Z"/></g>
<g><path style="opacity:1" fill="#d57130" d="M 559.5,628.5 C 593.416,660.915 626.916,693.915 660,727.5C 660.667,728.5 660.667,729.5 660,730.5C 644,746.5 628,762.5 612,778.5C 578.32,744.986 544.82,711.32 511.5,677.5C 527.521,661.146 543.521,644.813 559.5,628.5 Z"/></g>
<g><path style="opacity:0.969" fill="#3a2e29" d="M 1218.5,534.5 C 1218.84,533.662 1219.51,533.328 1220.5,533.5C 1283.27,598.105 1346.27,662.605 1409.5,727C 1392.32,744.347 1374.99,761.514 1357.5,778.5C 1310.81,731.144 1264.48,683.477 1218.5,635.5C 1218.5,635.167 1218.5,634.833 1218.5,634.5C 1264.77,681.938 1311.27,729.272 1358,776.5C 1374.54,760.293 1390.71,743.793 1406.5,727C 1344.34,662.341 1281.67,598.174 1218.5,534.5 Z"/></g>
<g><path style="opacity:0.975" fill="#d4cdc6" d="M 1178.5,633.5 C 1189.34,633.823 1200.01,634.49 1210.5,635.5C 1199.25,642.672 1188.58,642.005 1178.5,633.5 Z"/></g>
<g><path style="opacity:0.451" fill="#382d28" d="M 635.5,547.5 C 694.224,605.723 752.89,664.223 811.5,723C 794.5,740 777.5,757 760.5,774C 759.833,774.667 759.167,774.667 758.5,774C 701.361,715.861 643.861,658.027 586,600.5C 585.333,599.5 585.333,598.5 586,597.5C 602.702,580.965 619.202,564.299 635.5,547.5 Z"/></g>
<g><path style="opacity:1" fill="#d57130" d="M 635.5,550.5 C 693.417,606.916 750.917,663.916 808,721.5C 808.315,722.908 807.982,724.241 807,725.5C 791.333,741.167 775.667,756.833 760,772.5C 702.667,715.167 645.333,657.833 588,600.5C 587.333,599.833 587.333,599.167 588,598.5C 604.035,582.632 619.868,566.632 635.5,550.5 Z"/></g>
<g><path style="opacity:0.969" fill="#463832" d="M 1592.5,319.5 C 1592.33,363.168 1592.5,406.835 1593,450.5C 1678.88,540.043 1764.38,629.876 1849.5,720C 1833.21,737.293 1816.54,754.293 1799.5,771C 1798.83,771.667 1798.17,771.667 1797.5,771C 1711.96,681.631 1626.63,592.131 1541.5,502.5C 1541.84,501.662 1542.51,501.328 1543.5,501.5C 1628.5,590.843 1713.5,680.176 1798.5,769.5C 1814.82,753.681 1830.99,737.681 1847,721.5C 1847.67,720.833 1847.67,720.167 1847,719.5C 1762.1,630.691 1677.44,541.691 1593,452.5C 1592.83,468.672 1592.33,484.672 1591.5,500.5C 1591.17,439.998 1591.5,379.664 1592.5,319.5 Z"/></g>
<g><path style="opacity:0.416" fill="#3c2e29" d="M 1399.5,501.5 C 1399.33,502.492 1399.66,503.158 1400.5,503.5C 1484.84,591.67 1569.34,679.67 1654,767.5C 1669.91,751.593 1685.91,735.593 1702,719.5C 1702.67,718.833 1702.67,718.167 1702,717.5C 1633.61,645.944 1565.44,574.277 1497.5,502.5C 1498.17,502.5 1498.83,502.5 1499.5,502.5C 1567.43,574.601 1635.93,646.267 1705,717.5C 1705.67,718.167 1705.67,718.833 1705,719.5C 1688,736.5 1671,753.5 1654,770.5C 1568.66,680.995 1483.16,591.661 1397.5,502.5C 1397.84,501.662 1398.51,501.328 1399.5,501.5 Z"/></g>
<g><path style="opacity:0.974" fill="#fdfdfd" d="M 1492.5,868.5 C 1512.5,868.333 1532.5,868.5 1552.5,869C 1556.21,869.175 1559.88,869.675 1563.5,870.5C 1565.95,879.431 1566.12,888.431 1564,897.5C 1563.25,898.126 1562.42,898.626 1561.5,899C 1554.84,899.5 1548.17,899.666 1541.5,899.5C 1539.54,928.795 1539.04,958.128 1540,987.5C 1540.19,995.256 1541.03,1002.92 1542.5,1010.5C 1549.54,1010.67 1556.54,1010.34 1563.5,1009.5C 1563.5,1019.17 1563.5,1028.83 1563.5,1038.5C 1534.83,1038.5 1506.17,1038.5 1477.5,1038.5C 1478.07,1029.18 1478.4,1019.84 1478.5,1010.5C 1485.85,1010.52 1493.19,1010.19 1500.5,1009.5C 1499.62,972.841 1499.29,936.175 1499.5,899.5C 1492.44,899.788 1485.44,899.288 1478.5,898C 1477.3,897.097 1476.47,895.931 1476,894.5C 1475.98,886.84 1476.31,879.174 1477,871.5C 1482.23,870.316 1487.4,869.316 1492.5,868.5 Z"/></g>
<g><path style="opacity:0.986" fill="#fdfdfd" d="M 945.5,869.5 C 955.506,869.334 965.506,869.5 975.5,870C 977.888,870.303 980.055,871.137 982,872.5C 1001.56,927.672 1019.39,983.339 1035.5,1039.5C 1023.78,1040.3 1012.11,1040.14 1000.5,1039C 996.413,1038.38 993.58,1036.22 992,1032.5C 991.227,1023.11 988.394,1014.44 983.5,1006.5C 967.143,1005.29 950.809,1005.63 934.5,1007.5C 931.345,1017.79 928.345,1028.12 925.5,1038.5C 912.517,1039.5 899.517,1039.83 886.5,1039.5C 888.21,1028.99 890.71,1018.66 894,1008.5C 909.215,962.69 923.715,916.69 937.5,870.5C 940.385,870.806 943.052,870.473 945.5,869.5 Z"/></g>
<g><path style="opacity:0.987" fill="#fdfdfd" d="M 1088.5,868.5 C 1100.83,869.195 1113.16,870.028 1125.5,871C 1165.11,876.318 1181.28,898.818 1174,938.5C 1169.18,963.32 1154.35,978.154 1129.5,983C 1117.92,984.996 1106.25,985.829 1094.5,985.5C 1093.12,993.429 1092.45,1001.43 1092.5,1009.5C 1093.46,1019.19 1093.46,1028.85 1092.5,1038.5C 1079.47,1039.95 1066.47,1039.78 1053.5,1038C 1052.48,1037.48 1051.82,1036.65 1051.5,1035.5C 1052.49,980.523 1052.83,925.523 1052.5,870.5C 1064.67,870.204 1076.67,869.538 1088.5,868.5 Z"/></g>
<g><path style="opacity:0.986" fill="#fdfdfd" d="M 2021.5,869.5 C 2032.18,869.47 2042.85,869.804 2053.5,870.5C 2053.29,915.841 2053.79,961.175 2055,1006.5C 2076.76,1007.49 2098.59,1007.83 2120.5,1007.5C 2120.33,1017.86 2120.66,1028.19 2121.5,1038.5C 2086.15,1038.21 2050.82,1038.54 2015.5,1039.5C 2014.58,984.502 2014.42,929.502 2015,874.5C 2016.27,871.508 2018.44,869.841 2021.5,869.5 Z"/></g>
<g><path style="opacity:0.987" fill="#fdfdfd" d="M -0.5,960.5 C -0.5,940.833 -0.5,921.167 -0.5,901.5C 0.394507,891.333 1.06117,881 1.5,870.5C 24.8432,869.02 48.1765,869.187 71.5,871C 103.589,873.923 121.256,891.423 124.5,923.5C 122.399,959.1 103.733,979.6 68.5,985C 60.1667,985.333 51.8333,985.667 43.5,986C 42.5838,986.374 41.7504,986.874 41,987.5C 39.8643,995.234 39.3643,1003.07 39.5,1011C 39.6088,1020.52 39.9421,1030.02 40.5,1039.5C 27.5,1039.5 14.5,1039.5 1.5,1039.5C 1.00155,1013 0.334883,986.669 -0.5,960.5 Z"/></g>
<g><path style="opacity:0.975" fill="#fdfdfd" d="M 129.5,870.5 C 174.5,870.5 219.5,870.5 264.5,870.5C 263.778,881.819 263.445,893.152 263.5,904.5C 247.5,904.5 231.5,904.5 215.5,904.5C 215.5,949.5 215.5,994.5 215.5,1039.5C 202.149,1039.67 188.815,1039.33 175.5,1038.5C 175.667,994.499 175.5,950.499 175,906.5C 174.25,905.874 173.416,905.374 172.5,905C 157.823,904.662 143.156,904.162 128.5,903.5C 128.501,892.487 128.834,881.487 129.5,870.5 Z"/></g>
<g><path style="opacity:0.989" fill="#fdfdfd" d="M 413.5,870.5 C 437.169,870.333 460.836,870.5 484.5,871C 523.259,875.757 546.759,897.257 555,935.5C 560.196,964.204 554.196,990.204 537,1013.5C 525.814,1025.35 512.314,1033.52 496.5,1038C 468.849,1039.73 441.183,1039.9 413.5,1038.5C 413.5,982.5 413.5,926.5 413.5,870.5 Z"/></g>
<g><path style="opacity:0.985" fill="#fdfdfd" d="M 616.5,870.5 C 632.219,870.118 647.886,870.784 663.5,872.5C 666.358,883.91 669.525,895.243 673,906.5C 686.675,945.859 699.342,985.525 711,1025.5C 711.728,1029.54 712.561,1033.54 713.5,1037.5C 713.167,1037.83 712.833,1038.17 712.5,1038.5C 700.854,1040.47 689.188,1040.64 677.5,1039C 673.942,1037.11 671.442,1034.27 670,1030.5C 667.572,1022.61 665.072,1014.78 662.5,1007C 646.875,1003.67 631.208,1003.67 615.5,1007C 613.951,1008.21 612.785,1009.71 612,1011.5C 610.56,1021.32 607.06,1030.32 601.5,1038.5C 600,1038.83 598.5,1039.17 597,1039.5C 586.163,1038.94 575.329,1038.27 564.5,1037.5C 566.528,1027.72 569.028,1018.06 572,1008.5C 587.743,962.771 602.576,916.771 616.5,870.5 Z"/></g>
<g><path style="opacity:0.981" fill="#fdfdfd" d="M 730.5,870.5 C 747.867,870.323 765.2,870.99 782.5,872.5C 798.525,901.883 814.025,931.55 829,961.5C 830.019,962.687 831.186,963.687 832.5,964.5C 832.833,963.833 833.167,963.167 833.5,962.5C 832.667,942.021 832,921.521 831.5,901C 831.698,890.795 832.364,880.628 833.5,870.5C 845.167,870.5 856.833,870.5 868.5,870.5C 871.008,926.476 871.008,982.476 868.5,1038.5C 854.937,1039.63 841.437,1039.63 828,1038.5C 823.213,1026.93 817.88,1015.59 812,1004.5C 799.553,982.608 787.887,960.274 777,937.5C 774.814,933.802 772.147,930.468 769,927.5C 768.833,964.171 768.333,1000.84 767.5,1037.5C 755.586,1039.83 743.586,1040.16 731.5,1038.5C 730.921,982.502 730.587,926.502 730.5,870.5 Z"/></g>
<g><path style="opacity:0.985" fill="#fdfdfd" d="M 1235.5,870.5 C 1246.17,870.333 1256.84,870.5 1267.5,871C 1271.09,871.207 1274.59,871.707 1278,872.5C 1281.89,880.271 1285.22,888.271 1288,896.5C 1302.71,944.798 1317.88,992.798 1333.5,1040.5C 1318.88,1039.01 1304.21,1038.34 1289.5,1038.5C 1286.71,1027.45 1283.71,1016.45 1280.5,1005.5C 1264.16,1005.33 1247.83,1005.5 1231.5,1006C 1227.46,1016.97 1224.12,1028.13 1221.5,1039.5C 1207.51,1038.8 1193.51,1038.47 1179.5,1038.5C 1198.36,982.574 1217.03,926.574 1235.5,870.5 Z"/></g>
<g><path style="opacity:0.972" fill="#fdfdfd" d="M 1332.5,870.5 C 1376.83,870.5 1421.17,870.5 1465.5,870.5C 1465.5,881.833 1465.5,893.167 1465.5,904.5C 1450.17,904.5 1434.83,904.5 1419.5,904.5C 1419.5,949.167 1419.5,993.833 1419.5,1038.5C 1406.17,1038.5 1392.83,1038.5 1379.5,1038.5C 1379.5,994.167 1379.5,949.833 1379.5,905.5C 1363.84,905.087 1348.17,904.753 1332.5,904.5C 1329.88,893.172 1329.88,881.838 1332.5,870.5 Z"/></g>
<g><path style="opacity:0.98" fill="#fdfdfd" d="M 1653.5,870.5 C 1669.5,870.333 1685.5,870.5 1701.5,871C 1713.39,897.318 1724.89,923.818 1736,950.5C 1739.83,944.854 1743.16,938.854 1746,932.5C 1753.68,911.967 1761.84,891.634 1770.5,871.5C 1786.49,870.501 1802.49,870.167 1818.5,870.5C 1818.07,926.833 1817.74,983.166 1817.5,1039.5C 1804.17,1039.17 1790.83,1038.83 1777.5,1038.5C 1777.67,1004.5 1777.5,970.498 1777,936.5C 1766.95,957.262 1757.45,978.262 1748.5,999.5C 1740.67,1000.25 1732.83,1000.91 1725,1001.5C 1721.28,998.756 1718.62,995.089 1717,990.5C 1711.67,976.5 1706.33,962.5 1701,948.5C 1698.59,943.341 1695.92,938.341 1693,933.5C 1692.5,968.498 1692.33,1003.5 1692.5,1038.5C 1679.83,1038.5 1667.17,1038.5 1654.5,1038.5C 1654.78,982.491 1654.44,926.491 1653.5,870.5 Z"/></g>
<g><path style="opacity:0.98" fill="#fdfdfd" d="M 1849.5,870.5 C 1863.17,870.5 1876.83,870.5 1890.5,870.5C 1890.03,910.868 1890.53,951.201 1892,991.5C 1895.17,1004.59 1903.5,1010.92 1917,1010.5C 1933.09,1010.08 1941.76,1001.74 1943,985.5C 1943.52,947.836 1944.19,910.17 1945,872.5C 1950.42,871.192 1956.09,870.525 1962,870.5C 1967.5,870.667 1973,870.833 1978.5,871C 1980.29,871.785 1981.79,872.951 1983,874.5C 1983.93,914.854 1983.6,955.187 1982,995.5C 1978.68,1013.81 1968.84,1027.31 1952.5,1036C 1918.83,1052.85 1888.67,1048.02 1862,1021.5C 1852.8,1008.39 1848.47,993.725 1849,977.5C 1848.17,941.762 1848.34,906.095 1849.5,870.5 Z"/></g>
<g><path style="opacity:0.978" fill="#fdfdfd" d="M 2133.5,870.5 C 2162.83,870.5 2192.17,870.5 2221.5,870.5C 2221.69,880.194 2221.36,889.861 2220.5,899.5C 2213.58,899.188 2206.74,899.521 2200,900.5C 2199.05,911.478 2198.55,922.478 2198.5,933.5C 2199.08,957.498 2199.58,981.498 2200,1005.5C 2200.27,1007.33 2201.11,1008.83 2202.5,1010C 2208.49,1010.5 2214.49,1010.67 2220.5,1010.5C 2220.82,1019.75 2220.48,1028.92 2219.5,1038C 2190.84,1039.82 2162.18,1039.99 2133.5,1038.5C 2134.42,1029.21 2134.75,1019.87 2134.5,1010.5C 2140.84,1010.67 2147.18,1010.5 2153.5,1010C 2155.54,1008.76 2156.71,1006.93 2157,1004.5C 2156.98,969.503 2156.81,934.503 2156.5,899.5C 2149.25,899.813 2142.08,899.48 2135,898.5C 2134.17,889.181 2133.67,879.848 2133.5,870.5 Z"/></g>
<g><path style="opacity:0.983" fill="#fdfdfd" d="M 2383.5,1037.5 C 2383.5,1038.17 2383.5,1038.83 2383.5,1039.5C 2369.11,1039.88 2354.78,1039.21 2340.5,1037.5C 2336,1027.35 2332.67,1016.85 2330.5,1006C 2313.84,1005.5 2297.17,1005.33 2280.5,1005.5C 2278.9,1016.88 2275.9,1027.88 2271.5,1038.5C 2257.85,1039.5 2244.18,1039.83 2230.5,1039.5C 2245.15,992.381 2260.32,945.381 2276,898.5C 2278.81,889.234 2281.31,879.9 2283.5,870.5C 2296.51,870.151 2309.51,869.984 2322.5,870C 2325.74,870.232 2328.24,871.732 2330,874.5C 2344.07,917.366 2357.73,960.366 2371,1003.5C 2374.51,1015.2 2378.67,1026.53 2383.5,1037.5 Z"/></g>
<g><path style="opacity:0.954" fill="#fdfdfd" d="M 278.5,995.5 C 291.08,995.178 303.58,995.511 316,996.5C 316.375,1010.51 316.875,1024.51 317.5,1038.5C 304.587,1038.91 291.753,1038.91 279,1038.5C 277.238,1024.24 277.072,1009.91 278.5,995.5 Z"/></g>
<g><path style="opacity:0.964" fill="#d3833c" d="M 1929.5,1124.5 C 1932.67,1124.4 1935.67,1125.07 1938.5,1126.5C 1939.5,1167.49 1939.83,1208.49 1939.5,1249.5C 1933.12,1250.98 1927.62,1249.32 1923,1244.5C 1894.07,1261.3 1876.07,1253.3 1869,1220.5C 1866.63,1206.58 1867.63,1192.91 1872,1179.5C 1880.56,1163.3 1894.06,1156.13 1912.5,1158C 1916.15,1158.99 1919.81,1159.83 1923.5,1160.5C 1923.33,1149.49 1923.5,1138.49 1924,1127.5C 1925.72,1126.13 1927.55,1125.13 1929.5,1124.5 Z"/></g>
<g><path style="opacity:0.977" fill="#d58a53" d="M 1623.5,1125.5 C 1629.17,1125.5 1634.83,1125.5 1640.5,1125.5C 1640.5,1166.5 1640.5,1207.5 1640.5,1248.5C 1634.8,1248.92 1629.13,1249.59 1623.5,1250.5C 1623.5,1208.83 1623.5,1167.17 1623.5,1125.5 Z"/></g>
<g><path style="opacity:0.987" fill="#c78755" d="M 609.5,1125.5 C 615.203,1125.37 620.87,1125.71 626.5,1126.5C 627.362,1165.83 627.529,1205.16 627,1244.5C 626.065,1247.1 624.232,1248.6 621.5,1249C 617.507,1249.17 613.507,1249 609.5,1248.5C 609.5,1207.5 609.5,1166.5 609.5,1125.5 Z"/></g>
<g><path style="opacity:0.964" fill="#d68848" d="M 1521.5,1126.5 C 1547.72,1128.2 1564.22,1141.87 1571,1167.5C 1577.75,1192.77 1573.75,1216.11 1559,1237.5C 1540.29,1256.75 1519.46,1259.58 1496.5,1246C 1467.58,1215.19 1464.08,1181.69 1486,1145.5C 1490.58,1140.25 1495.74,1135.75 1501.5,1132C 1508.04,1129.2 1514.71,1127.37 1521.5,1126.5 Z M 1518.5,1144.5 C 1536.65,1142.8 1548.15,1150.8 1553,1168.5C 1557.44,1187.9 1555.44,1206.57 1547,1224.5C 1537.51,1237.58 1525.34,1240.75 1510.5,1234C 1498.47,1226.12 1491.97,1214.95 1491,1200.5C 1488.25,1184.75 1490.92,1170.08 1499,1156.5C 1504.54,1150.82 1511.04,1146.82 1518.5,1144.5 Z"/></g>
<g><path style="opacity:0.98" fill="#d28342" d="M 734.5,1127.5 C 748.323,1126.55 760.99,1129.89 772.5,1137.5C 773.814,1143.79 774.314,1150.12 774,1156.5C 724.869,1132.62 702.536,1147.95 707,1202.5C 710.201,1230.38 725.368,1240.88 752.5,1234C 759.348,1231.94 765.848,1229.11 772,1225.5C 773.248,1229.39 774.081,1233.39 774.5,1237.5C 774.61,1239.37 773.944,1240.87 772.5,1242C 745.806,1259.61 721.639,1256.77 700,1233.5C 683.682,1205.35 683.349,1177.01 699,1148.5C 708.058,1136.72 719.891,1129.72 734.5,1127.5 Z"/></g>
<g><path style="opacity:0.931" fill="#dd9c5e" d="M 2089.5,1155.5 C 2090.35,1148.05 2088.35,1141.55 2083.5,1136C 2071.79,1135.72 2060.12,1134.89 2048.5,1133.5C 2042.7,1133.7 2037.03,1134.7 2031.5,1136.5C 2030.58,1136.46 2029.92,1136.12 2029.5,1135.5C 2037.25,1129.64 2046.09,1126.64 2056,1126.5C 2065.91,1126.88 2075.41,1129.05 2084.5,1133C 2087.63,1135.13 2090.46,1137.63 2093,1140.5C 2095.15,1145.28 2094.98,1149.95 2092.5,1154.5C 2091.58,1155.13 2090.58,1155.46 2089.5,1155.5 Z"/></g>
<g><path style="opacity:0.982" fill="#d28342" d="M 210.5,1154.5 C 206.966,1157.49 203.966,1156.99 201.5,1153C 200.207,1152.51 198.873,1152.34 197.5,1152.5C 185.632,1145.36 172.966,1143.52 159.5,1147C 147.111,1152.91 139.945,1162.75 138,1176.5C 137.168,1188.21 137.501,1199.87 139,1211.5C 144.415,1228.72 156.248,1236.72 174.5,1235.5C 180.827,1234.99 187.16,1234.65 193.5,1234.5C 193.936,1225.13 193.936,1215.8 193.5,1206.5C 185.094,1205.69 176.761,1204.35 168.5,1202.5C 166.846,1198.46 167.179,1194.62 169.5,1191C 171.087,1190.14 172.754,1189.47 174.5,1189C 185.909,1188.11 197.242,1188.61 208.5,1190.5C 209.511,1207.16 210.011,1223.82 210,1240.5C 188.177,1256.06 165.343,1257.56 141.5,1245C 128.704,1234.59 121.204,1221.09 119,1204.5C 115.411,1182.76 120.078,1163.09 133,1145.5C 147.828,1130 165.661,1124.84 186.5,1130C 194.6,1132.09 202.266,1135.26 209.5,1139.5C 210.494,1144.46 210.827,1149.46 210.5,1154.5 Z"/></g>
<g><path style="opacity:0.938" fill="#d1a482" d="M 1605.5,1134.5 C 1602.28,1134.85 1599.11,1135.52 1596,1136.5C 1594.1,1136.39 1592.44,1135.72 1591,1134.5C 1590.17,1137.79 1589.67,1141.13 1589.5,1144.5C 1587.27,1143.18 1585.93,1141.18 1585.5,1138.5C 1586.07,1135.82 1586.74,1133.16 1587.5,1130.5C 1592.78,1129.38 1598.11,1129.22 1603.5,1130C 1604.27,1131.47 1604.93,1132.97 1605.5,1134.5 Z"/></g>
<g><path style="opacity:0.987" fill="#d28342" d="M 1228.5,1135.5 C 1228.39,1143.52 1228.72,1151.52 1229.5,1159.5C 1237.5,1160.83 1245.5,1162.17 1253.5,1163.5C 1253.83,1166.83 1254.17,1170.17 1254.5,1173.5C 1247.11,1173.2 1239.78,1173.53 1232.5,1174.5C 1231.75,1175.38 1231.25,1176.38 1231,1177.5C 1229.22,1194.85 1229.22,1212.18 1231,1229.5C 1231.36,1231.61 1232.03,1233.61 1233,1235.5C 1240.87,1236.05 1248.7,1237.05 1256.5,1238.5C 1256.31,1244.71 1253.31,1248.88 1247.5,1251C 1239.19,1252.25 1231.19,1251.25 1223.5,1248C 1219.39,1243.95 1216.73,1239.12 1215.5,1233.5C 1215.81,1214.14 1215.31,1194.81 1214,1175.5C 1212.07,1173.46 1209.91,1171.79 1207.5,1170.5C 1208.4,1169.84 1209.4,1169.18 1210.5,1168.5C 1209.44,1166.47 1208.44,1164.47 1207.5,1162.5C 1209.3,1161.76 1210.97,1160.76 1212.5,1159.5C 1213.19,1151.73 1214.35,1144.06 1216,1136.5C 1219.96,1132.87 1224.13,1132.54 1228.5,1135.5 Z"/></g>
<g><path style="opacity:0.983" fill="#c89567" d="M 1605.5,1134.5 C 1605.82,1138.23 1605.49,1141.89 1604.5,1145.5C 1599.22,1146.62 1593.89,1146.78 1588.5,1146C 1589.06,1145.62 1589.39,1145.12 1589.5,1144.5C 1589.67,1141.13 1590.17,1137.79 1591,1134.5C 1592.44,1135.72 1594.1,1136.39 1596,1136.5C 1599.11,1135.52 1602.28,1134.85 1605.5,1134.5 Z"/></g>
<g><path style="opacity:0.96" fill="#d2823b" d="M 2089.5,1155.5 C 2041.6,1132.23 2018.43,1147.23 2020,1200.5C 2020.66,1212.99 2025.5,1223.49 2034.5,1232C 2037.92,1233.9 2041.59,1234.74 2045.5,1234.5C 2045.5,1235.17 2045.5,1235.83 2045.5,1236.5C 2045.39,1237.12 2045.06,1237.62 2044.5,1238C 2049.64,1237.45 2051.3,1239.45 2049.5,1244C 2046.31,1244.76 2043.15,1245.59 2040,1246.5C 2036.69,1245.26 2033.52,1245.26 2030.5,1246.5C 2015.46,1239.26 2006.63,1227.26 2004,1210.5C 1999.01,1189.44 2001.68,1169.44 2012,1150.5C 2016.5,1143.82 2022.33,1138.82 2029.5,1135.5C 2029.92,1136.12 2030.58,1136.46 2031.5,1136.5C 2037.03,1134.7 2042.7,1133.7 2048.5,1133.5C 2060.12,1134.89 2071.79,1135.72 2083.5,1136C 2088.35,1141.55 2090.35,1148.05 2089.5,1155.5 Z"/></g>
<g><path style="opacity:0.975" fill="#d58a53" d="M 998.5,1164.5 C 989.118,1163.77 979.785,1162.94 970.5,1162C 971.554,1164.38 972.221,1166.88 972.5,1169.5C 981.167,1169.5 989.833,1169.5 998.5,1169.5C 997.977,1171.71 996.644,1173.21 994.5,1174C 990.81,1174.58 987.144,1174.41 983.5,1173.5C 978.078,1172.95 974.911,1175.28 974,1180.5C 971.987,1199.04 973.153,1217.37 977.5,1235.5C 985.119,1234.73 992.286,1236.06 999,1239.5C 997.501,1248.32 992.168,1252.99 983,1253.5C 967.369,1251.2 958.369,1242.2 956,1226.5C 955.254,1209.18 954.754,1191.85 954.5,1174.5C 958.583,1171.75 961.583,1168.08 963.5,1163.5C 961.908,1159.53 958.908,1157.87 954.5,1158.5C 955.118,1151.18 955.451,1143.85 955.5,1136.5C 961.189,1136.47 966.855,1136.13 972.5,1135.5C 973.313,1143.15 973.98,1150.82 974.5,1158.5C 981.508,1158.33 988.508,1158.5 995.5,1159C 996.971,1160.58 997.971,1162.42 998.5,1164.5 Z"/></g>
<g><path style="opacity:0.906" fill="#f2c6a1" d="M 1228.5,1135.5 C 1230.69,1137.22 1231.86,1139.55 1232,1142.5C 1232.17,1147.2 1232.67,1151.87 1233.5,1156.5C 1239.78,1157.53 1246.11,1158.19 1252.5,1158.5C 1252.63,1160.22 1252.96,1161.88 1253.5,1163.5C 1245.5,1162.17 1237.5,1160.83 1229.5,1159.5C 1228.72,1151.52 1228.39,1143.52 1228.5,1135.5 Z"/></g>
<g><path style="opacity:0.949" fill="#fcf2e0" d="M 197.5,1152.5 C 198.873,1152.34 200.207,1152.51 201.5,1153C 203.966,1156.99 206.966,1157.49 210.5,1154.5C 212.183,1161.69 209.517,1164.52 202.5,1163C 198.834,1160.59 197.167,1157.09 197.5,1152.5 Z"/></g>
<g><path style="opacity:0.948" fill="#d2823b" d="M 254.5,1157.5 C 267.725,1156.07 278.891,1160.07 288,1169.5C 290.977,1174.09 292.977,1179.09 294,1184.5C 295.262,1192.11 295.762,1199.78 295.5,1207.5C 276.5,1207.5 257.5,1207.5 238.5,1207.5C 237.362,1226.2 246.195,1235.86 265,1236.5C 271.01,1236.17 276.843,1235 282.5,1233C 285.434,1229.66 289.1,1228.66 293.5,1230C 295.801,1239.4 292.468,1246.06 283.5,1250C 271.175,1253.3 258.842,1253.3 246.5,1250C 229.142,1240.63 220.809,1225.97 221.5,1206C 220.789,1188.43 227.122,1174.1 240.5,1163C 245.017,1160.45 249.684,1158.61 254.5,1157.5 Z M 255.5,1172.5 C 271.913,1170.58 280.246,1177.91 280.5,1194.5C 266.5,1194.5 252.5,1194.5 238.5,1194.5C 238.283,1182.41 243.95,1175.07 255.5,1172.5 Z"/></g>
<g><path style="opacity:0.979" fill="#d28342" d="M 421.5,1157.5 C 444.192,1155.02 457.692,1165.02 462,1187.5C 463.21,1194.11 463.71,1200.78 463.5,1207.5C 443.833,1207.5 424.167,1207.5 404.5,1207.5C 403.28,1226.61 412.28,1235.95 431.5,1235.5C 441.106,1235.34 450.439,1233.68 459.5,1230.5C 460.989,1240.02 457.322,1246.85 448.5,1251C 411.178,1258.33 391.178,1243 388.5,1205C 388.333,1181.1 399.333,1165.27 421.5,1157.5 Z M 423.5,1172.5 C 439.146,1171.48 446.48,1178.81 445.5,1194.5C 432.167,1194.5 418.833,1194.5 405.5,1194.5C 405.403,1181.97 411.403,1174.63 423.5,1172.5 Z"/></g>
<g><path style="opacity:0.981" fill="#d18342" d="M 818.5,1156.5 C 837.402,1158.23 849.569,1168.23 855,1186.5C 859.647,1204.32 857.647,1221.32 849,1237.5C 833.919,1255.31 816.419,1258.15 796.5,1246C 784.653,1234.79 778.986,1220.96 779.5,1204.5C 778.667,1184.32 787.001,1169.48 804.5,1160C 809.184,1158.35 813.85,1157.18 818.5,1156.5 Z M 814.5,1172.5 C 827.19,1172.27 835.357,1178.27 839,1190.5C 841.348,1203.71 839.681,1216.37 834,1228.5C 823.972,1240.06 813.639,1240.39 803,1229.5C 795.849,1213.5 795.849,1197.5 803,1181.5C 806.045,1177.41 809.878,1174.41 814.5,1172.5 Z"/></g>
<g><path style="opacity:0.966" fill="#d68949" d="M 922.5,1249.5 C 922.667,1230.83 922.5,1212.16 922,1193.5C 921.216,1187.25 919.55,1181.25 917,1175.5C 915.902,1174.03 914.402,1173.2 912.5,1173C 906.621,1171.78 901.121,1172.61 896,1175.5C 894.906,1177.08 894.072,1178.74 893.5,1180.5C 890.94,1181.22 889.107,1182.89 888,1185.5C 886.987,1190.34 886.154,1195.17 885.5,1200C 886.491,1216.09 886.825,1232.26 886.5,1248.5C 882.476,1248.5 878.476,1248.84 874.5,1249.5C 872.68,1249.35 871.18,1248.68 870,1247.5C 867.752,1218.8 868.086,1190.13 871,1161.5C 873.121,1159.54 875.621,1159.04 878.5,1160C 882.164,1161 885.331,1162.84 888,1165.5C 898.341,1158.71 909.507,1156.54 921.5,1159C 932.549,1165.59 938.049,1175.42 938,1188.5C 938.797,1208.52 938.463,1228.52 937,1248.5C 932.263,1249.47 927.43,1249.8 922.5,1249.5 Z"/></g>
<g><path style="opacity:0.962" fill="#d58848" d="M 1076.5,1157.5 C 1086.22,1157.14 1095.89,1157.64 1105.5,1159C 1112.6,1161.1 1117.43,1165.6 1120,1172.5C 1125.23,1197.46 1125.57,1222.46 1121,1247.5C 1115.59,1248.92 1110.26,1248.59 1105,1246.5C 1099.34,1248.24 1093.84,1250.41 1088.5,1253C 1071.63,1255.16 1060.8,1247.99 1056,1231.5C 1052.76,1218.76 1055.93,1207.93 1065.5,1199C 1067.5,1198 1069.5,1197 1071.5,1196C 1081.05,1193.76 1090.72,1192.1 1100.5,1191C 1103.03,1189.97 1104.7,1188.13 1105.5,1185.5C 1104.73,1182.49 1103.9,1179.49 1103,1176.5C 1101.17,1174.93 1099.01,1174.09 1096.5,1174C 1090.83,1173.33 1085.17,1173.33 1079.5,1174C 1074.18,1175.61 1068.84,1177.11 1063.5,1178.5C 1063.52,1172.14 1063.19,1165.81 1062.5,1159.5C 1067.37,1159.31 1072.04,1158.64 1076.5,1157.5 Z M 1095.5,1204.5 C 1098.39,1205.4 1101.39,1205.74 1104.5,1205.5C 1105.39,1213.48 1105.56,1221.48 1105,1229.5C 1097.61,1235.04 1089.44,1236.88 1080.5,1235C 1069.45,1227.7 1068.78,1219.37 1078.5,1210C 1083.88,1206.82 1089.54,1204.98 1095.5,1204.5 Z"/></g>
<g><path style="opacity:0.958" fill="#d2823b" d="M 1199.5,1165.5 C 1198.6,1169.33 1198.6,1173.33 1199.5,1177.5C 1196.81,1177.66 1194.15,1177.5 1191.5,1177C 1182,1171.88 1172.33,1171.38 1162.5,1175.5C 1160.96,1177.24 1159.96,1179.24 1159.5,1181.5C 1155.72,1186.42 1153.55,1192.08 1153,1198.5C 1149.34,1229.69 1162.51,1241.36 1192.5,1233.5C 1196.88,1234.88 1198.88,1237.88 1198.5,1242.5C 1195.77,1248.38 1191.1,1251.54 1184.5,1252C 1159.54,1255.6 1144.04,1245.1 1138,1220.5C 1134.32,1202.55 1137.32,1185.88 1147,1170.5C 1158.85,1158.13 1173.01,1154.63 1189.5,1160C 1193.23,1161.26 1196.57,1163.1 1199.5,1165.5 Z"/></g>
<g><path style="opacity:0.952" fill="#d2823b" d="M 1291.5,1157.5 C 1317.15,1156.44 1331.32,1168.77 1334,1194.5C 1336.29,1210.11 1333.62,1224.78 1326,1238.5C 1311.06,1255.53 1293.9,1258.03 1274.5,1246C 1262.72,1235.18 1257.05,1221.68 1257.5,1205.5C 1257.73,1181.32 1269.06,1165.32 1291.5,1157.5 Z M 1290.5,1172.5 C 1307.68,1172.54 1317.18,1181.2 1319,1198.5C 1320.93,1211.67 1317.76,1223.34 1309.5,1233.5C 1295.02,1242.04 1284.52,1238.37 1278,1222.5C 1274.55,1209.41 1274.88,1196.41 1279,1183.5C 1281.44,1178.23 1285.27,1174.56 1290.5,1172.5 Z"/></g>
<g><path style="opacity:0.96" fill="#d58848" d="M 2106.5,1231.5 C 2107.25,1224.19 2107.58,1216.86 2107.5,1209.5C 2111.04,1203.47 2116.04,1198.97 2122.5,1196C 2133.89,1193.55 2145.22,1190.88 2156.5,1188C 2155.88,1178.59 2150.88,1173.42 2141.5,1172.5C 2131.74,1173.7 2122.08,1175.37 2112.5,1177.5C 2111.17,1172.5 2111.17,1167.5 2112.5,1162.5C 2129.31,1155.91 2145.98,1156.08 2162.5,1163C 2169.47,1168.73 2172.64,1176.23 2172,1185.5C 2174.13,1206.87 2173.96,1228.2 2171.5,1249.5C 2164.79,1250.59 2158.96,1248.93 2154,1244.5C 2143.65,1253.7 2132.15,1255.54 2119.5,1250C 2113.01,1245.35 2108.68,1239.18 2106.5,1231.5 Z M 2142.5,1205.5 C 2146.83,1205.5 2151.17,1205.5 2155.5,1205.5C 2155.81,1213.51 2155.98,1221.51 2156,1229.5C 2146.74,1236.97 2136.57,1238.47 2125.5,1234C 2119.51,1225.6 2120.18,1217.94 2127.5,1211C 2132.34,1208.39 2137.34,1206.55 2142.5,1205.5 Z"/></g>
<g><path style="opacity:0.979" fill="#d28342" d="M 342.5,1157.5 C 351.467,1157.11 359.8,1159.11 367.5,1163.5C 369.192,1165.36 370.692,1167.36 372,1169.5C 374.629,1177.27 375.962,1185.27 376,1193.5C 376.6,1211.51 376.433,1229.51 375.5,1247.5C 372.698,1247.98 369.865,1248.32 367,1248.5C 364.698,1248.4 362.698,1247.73 361,1246.5C 359.624,1233.87 359.457,1221.2 360.5,1208.5C 361.404,1198.1 359.904,1188.1 356,1178.5C 353.187,1174.51 349.354,1172.84 344.5,1173.5C 334.301,1173.53 328.134,1178.53 326,1188.5C 324.548,1208.45 324.048,1228.45 324.5,1248.5C 319.5,1248.5 314.5,1248.5 309.5,1248.5C 307.936,1219.13 308.269,1189.8 310.5,1160.5C 314.182,1160.33 317.848,1160.5 321.5,1161C 322.88,1162.93 324.38,1164.76 326,1166.5C 331.108,1162.53 336.608,1159.53 342.5,1157.5 Z"/></g>
<g><path style="opacity:0.947" fill="#d37a3a" d="M 954.5,1158.5 C 958.908,1157.87 961.908,1159.53 963.5,1163.5C 961.583,1168.08 958.583,1171.75 954.5,1174.5C 952.066,1171.56 949.399,1168.73 946.5,1166C 949.036,1163.3 951.703,1160.8 954.5,1158.5 Z"/></g>
<g><path style="opacity:0.984" fill="#d28342" d="M 1704.5,1239.5 C 1701.79,1231.38 1700.96,1223.04 1702,1214.5C 1702.81,1211.55 1704.14,1208.89 1706,1206.5C 1710.58,1202.46 1715.75,1199.29 1721.5,1197C 1732.19,1193.83 1742.86,1190.66 1753.5,1187.5C 1751.3,1174.39 1743.64,1169.23 1730.5,1172C 1723.74,1173.52 1717.07,1175.36 1710.5,1177.5C 1709.83,1172.68 1709.17,1168.02 1708.5,1163.5C 1710.73,1161.55 1713.4,1160.39 1716.5,1160C 1731.01,1156.06 1745.01,1157.4 1758.5,1164C 1765.85,1170.04 1769.35,1177.87 1769,1187.5C 1770.09,1200.49 1770.43,1213.49 1770,1226.5C 1769.93,1233.81 1769.1,1240.98 1767.5,1248C 1761.18,1248.87 1755.01,1248.37 1749,1246.5C 1741.64,1249.1 1734.47,1252.1 1727.5,1255.5C 1718.19,1252.52 1710.52,1247.18 1704.5,1239.5 Z M 1737.5,1205.5 C 1742.5,1205.5 1747.5,1205.5 1752.5,1205.5C 1753.98,1215.74 1751.65,1224.9 1745.5,1233C 1737.71,1237.31 1729.71,1237.65 1721.5,1234C 1712.85,1224.88 1713.85,1216.88 1724.5,1210C 1728.75,1207.86 1733.08,1206.36 1737.5,1205.5 Z"/></g>
<g><path style="opacity:0.959" fill="#d37a3a" d="M 1819.5,1158.5 C 1834.94,1155.03 1845.77,1160.36 1852,1174.5C 1855.29,1184.05 1856.79,1193.89 1856.5,1204C 1856.23,1218.94 1854.9,1233.78 1852.5,1248.5C 1848.13,1248.47 1843.8,1248.8 1839.5,1249.5C 1840.99,1230.14 1840.82,1210.81 1839,1191.5C 1836.35,1174.43 1827.19,1169.26 1811.5,1176C 1808.13,1178.36 1805.96,1181.53 1805,1185.5C 1803.94,1192.28 1803.44,1199.11 1803.5,1206C 1804.59,1220.18 1804.59,1234.34 1803.5,1248.5C 1797.85,1249.03 1792.18,1249.37 1786.5,1249.5C 1786.74,1219.83 1787.07,1190.17 1787.5,1160.5C 1791.18,1160.33 1794.85,1160.5 1798.5,1161C 1801.08,1163.21 1803.91,1165.04 1807,1166.5C 1811.07,1163.58 1815.24,1160.91 1819.5,1158.5 Z"/></g>
<g><path style="opacity:0.98" fill="#d18342" d="M 2243.5,1166.5 C 2243.5,1169.83 2243.5,1173.17 2243.5,1176.5C 2239.56,1175.51 2235.56,1174.85 2231.5,1174.5C 2224.86,1173.5 2218.19,1173.34 2211.5,1174C 2203.3,1177.3 2201.47,1182.8 2206,1190.5C 2207.56,1192.36 2209.39,1193.86 2211.5,1195C 2219.13,1197.16 2226.8,1199.16 2234.5,1201C 2245.87,1207.07 2250.37,1216.57 2248,1229.5C 2244.86,1240.64 2237.69,1247.81 2226.5,1251C 2215.65,1253.38 2204.98,1252.71 2194.5,1249C 2191.9,1248.12 2189.73,1246.62 2188,1244.5C 2186.61,1239.63 2186.11,1234.63 2186.5,1229.5C 2197.56,1232.8 2208.73,1235.8 2220,1238.5C 2227.6,1237.89 2231.44,1233.73 2231.5,1226C 2230.72,1222.22 2228.72,1219.22 2225.5,1217C 2217.23,1214.18 2208.89,1211.51 2200.5,1209C 2186.26,1199.26 2182.76,1186.43 2190,1170.5C 2195.78,1163.36 2203.28,1159.53 2212.5,1159C 2222.11,1157.78 2231.44,1158.78 2240.5,1162C 2242.14,1163.13 2243.14,1164.63 2243.5,1166.5 Z"/></g>
<g><path style="opacity:0.911" fill="#fcefd0" d="M 532.5,1159.5 C 531.498,1165.51 531.498,1171.51 532.5,1177.5C 544.748,1172.29 557.415,1171.12 570.5,1174C 575.004,1178.18 576.671,1183.18 575.5,1189C 565.715,1192.02 555.715,1193.85 545.5,1194.5C 545.511,1192.98 546.177,1191.82 547.5,1191C 554.995,1189.14 562.328,1186.97 569.5,1184.5C 568.627,1182.59 567.627,1180.75 566.5,1179C 554.118,1177.78 541.951,1178.61 530,1181.5C 527.2,1175.49 526.2,1169.16 527,1162.5C 528.174,1160.33 530.007,1159.33 532.5,1159.5 Z"/></g>
<g><path style="opacity:0.986" fill="#d28443" d="M 545.5,1194.5 C 555.715,1193.85 565.715,1192.02 575.5,1189C 576.671,1183.18 575.004,1178.18 570.5,1174C 557.415,1171.12 544.748,1172.29 532.5,1177.5C 531.498,1171.51 531.498,1165.51 532.5,1159.5C 541.174,1159.42 549.841,1159.08 558.5,1158.5C 567.622,1157.82 575.955,1159.99 583.5,1165C 588.694,1171.91 591.527,1179.74 592,1188.5C 593.945,1204.5 593.945,1220.5 592,1236.5C 591.373,1240.85 590.206,1245.01 588.5,1249C 585.833,1249.67 583.167,1249.67 580.5,1249C 578.487,1247.74 576.321,1246.91 574,1246.5C 567.366,1248.27 560.866,1250.43 554.5,1253C 536.821,1254.34 526.321,1246.18 523,1228.5C 521.426,1211.23 528.926,1199.9 545.5,1194.5 Z M 572.5,1227.5 C 571.694,1231.27 569.361,1233.77 565.5,1235C 547.937,1241.55 539.437,1235.71 540,1217.5C 541.868,1212.81 545.368,1210.48 550.5,1210.5C 558.218,1208.12 565.885,1208.12 573.5,1210.5C 572.708,1216.13 572.375,1221.8 572.5,1227.5 Z"/></g>
<g><path style="opacity:0.965" fill="#c98447" d="M 1010.5,1159.5 C 1014.18,1159.33 1017.85,1159.5 1021.5,1160C 1022.64,1162.78 1024.14,1165.28 1026,1167.5C 1030.18,1165.32 1034.34,1163.15 1038.5,1161C 1043.15,1160.5 1047.82,1160.33 1052.5,1160.5C 1052.5,1166.5 1052.5,1172.5 1052.5,1178.5C 1046.08,1178.63 1039.74,1179.47 1033.5,1181C 1029.84,1182 1026.67,1183.84 1024,1186.5C 1023.5,1198 1023.67,1209.5 1024.5,1221C 1024.45,1230.62 1023.45,1240.12 1021.5,1249.5C 1017.5,1249.5 1013.5,1249.5 1009.5,1249.5C 1006.66,1219.47 1006.99,1189.47 1010.5,1159.5 Z"/></g>
<g><path style="opacity:0.979" fill="#d28342" d="M 519.5,1160.5 C 519.828,1165.87 519.495,1171.21 518.5,1176.5C 515.046,1177.51 511.713,1178.51 508.5,1179.5C 503.424,1181.41 498.091,1182.74 492.5,1183.5C 492.408,1196.68 492.742,1209.84 493.5,1223C 493.591,1231.19 492.591,1239.19 490.5,1247C 487.068,1249.07 483.402,1249.74 479.5,1249C 477.462,1247.76 476.295,1245.93 476,1243.5C 475.333,1216.5 475.333,1189.5 476,1162.5C 479.256,1160.57 482.756,1160.07 486.5,1161C 490.174,1162.02 493.341,1163.85 496,1166.5C 503.194,1162.03 511.028,1160.03 519.5,1160.5 Z"/></g>
<g><path style="opacity:0.976" fill="#c98238" d="M 1361.5,1165.5 C 1360.79,1169.73 1362.45,1172.39 1366.5,1173.5C 1369.78,1172.37 1371.44,1170.03 1371.5,1166.5C 1377.79,1161.4 1384.79,1160.06 1392.5,1162.5C 1394.08,1167.69 1393.41,1172.52 1390.5,1177C 1382.17,1178.56 1374,1180.73 1366,1183.5C 1364.72,1205.15 1364.22,1226.81 1364.5,1248.5C 1359.5,1248.5 1354.5,1248.5 1349.5,1248.5C 1349.49,1219.16 1349.83,1189.83 1350.5,1160.5C 1353.85,1160.33 1357.18,1160.5 1360.5,1161C 1361.38,1162.36 1361.71,1163.86 1361.5,1165.5 Z"/></g>
<g><path style="opacity:0.826" fill="#e6c3a2" d="M 519.5,1160.5 C 520.708,1161.23 522.041,1161.57 523.5,1161.5C 523.625,1167.2 523.292,1172.87 522.5,1178.5C 517.833,1178.83 513.167,1179.17 508.5,1179.5C 511.713,1178.51 515.046,1177.51 518.5,1176.5C 519.495,1171.21 519.828,1165.87 519.5,1160.5 Z"/></g>
<g><path style="opacity:0.978" fill="#d47b3b" d="M 998.5,1164.5 C 998.5,1166.17 998.5,1167.83 998.5,1169.5C 989.833,1169.5 981.167,1169.5 972.5,1169.5C 972.221,1166.88 971.554,1164.38 970.5,1162C 979.785,1162.94 989.118,1163.77 998.5,1164.5 Z"/></g>
<g><path style="opacity:0.976" fill="#d58a53" d="M 1587.5,1160.5 C 1593.17,1160.5 1598.83,1160.5 1604.5,1160.5C 1604.99,1189.83 1605.33,1219.16 1605.5,1248.5C 1599.52,1249.16 1593.52,1249.5 1587.5,1249.5C 1587.5,1219.83 1587.5,1190.17 1587.5,1160.5 Z"/></g>
<g><path style="opacity:0.945" fill="#945833" d="M 1207.5,1162.5 C 1208.44,1164.47 1209.44,1166.47 1210.5,1168.5C 1209.4,1169.18 1208.4,1169.84 1207.5,1170.5C 1206.5,1170.5 1205.5,1170.5 1204.5,1170.5C 1204.5,1169.17 1204.5,1167.83 1204.5,1166.5C 1205.51,1165.13 1206.51,1163.8 1207.5,1162.5 Z"/></g>
<g><path style="opacity:0.979" fill="#fdf8e0" d="M 1708.5,1163.5 C 1709.17,1168.02 1709.83,1172.68 1710.5,1177.5C 1717.07,1175.36 1723.74,1173.52 1730.5,1172C 1743.64,1169.23 1751.3,1174.39 1753.5,1187.5C 1742.86,1190.66 1732.19,1193.83 1721.5,1197C 1715.75,1199.29 1710.58,1202.46 1706,1206.5C 1704.14,1208.89 1702.81,1211.55 1702,1214.5C 1700.96,1223.04 1701.79,1231.38 1704.5,1239.5C 1702.53,1239.74 1700.7,1239.41 1699,1238.5C 1698.33,1230.83 1698.33,1223.17 1699,1215.5C 1700.77,1207.97 1703.1,1200.64 1706,1193.5C 1706.56,1187.1 1706.06,1180.76 1704.5,1174.5C 1704.48,1170.2 1705.81,1166.54 1708.5,1163.5 Z"/></g>
<g><path style="opacity:0.95" fill="#fceecf" d="M 1199.5,1165.5 C 1201.22,1165.63 1202.88,1165.96 1204.5,1166.5C 1204.5,1167.83 1204.5,1169.17 1204.5,1170.5C 1205.5,1170.5 1206.5,1170.5 1207.5,1170.5C 1209.91,1171.79 1212.07,1173.46 1214,1175.5C 1215.31,1194.81 1215.81,1214.14 1215.5,1233.5C 1211.52,1232.7 1209.19,1230.37 1208.5,1226.5C 1211.04,1212.82 1211.04,1199.15 1208.5,1185.5C 1192.28,1180.68 1175.94,1179.34 1159.5,1181.5C 1159.96,1179.24 1160.96,1177.24 1162.5,1175.5C 1172.33,1171.38 1182,1171.88 1191.5,1177C 1194.15,1177.5 1196.81,1177.66 1199.5,1177.5C 1198.6,1173.33 1198.6,1169.33 1199.5,1165.5 Z"/></g>
<g><path style="opacity:0.973" fill="#dd9d5d" d="M 1361.5,1165.5 C 1364.83,1165.83 1368.17,1166.17 1371.5,1166.5C 1371.44,1170.03 1369.78,1172.37 1366.5,1173.5C 1362.45,1172.39 1360.79,1169.73 1361.5,1165.5 Z"/></g>
<g><path style="opacity:0.855" fill="#dfa76e" d="M 2243.5,1166.5 C 2248.11,1169.47 2249.11,1173.31 2246.5,1178C 2240.66,1180.41 2235.66,1179.24 2231.5,1174.5C 2235.56,1174.85 2239.56,1175.51 2243.5,1176.5C 2243.5,1173.17 2243.5,1169.83 2243.5,1166.5 Z"/></g>
<g><path style="opacity:0.939" fill="#fcf0d0" d="M 922.5,1249.5 C 919.617,1247.75 918.117,1245.08 918,1241.5C 917.325,1233.65 917.492,1225.82 918.5,1218C 917.54,1206.85 916.873,1195.68 916.5,1184.5C 908.974,1182.37 901.307,1181.04 893.5,1180.5C 894.072,1178.74 894.906,1177.08 896,1175.5C 901.121,1172.61 906.621,1171.78 912.5,1173C 914.402,1173.2 915.902,1174.03 917,1175.5C 919.55,1181.25 921.216,1187.25 922,1193.5C 922.5,1212.16 922.667,1230.83 922.5,1249.5 Z"/></g>
<g><path style="opacity:0.999" fill="#fdfbf7" d="M 1902.5,1172.5 C 1910.74,1171.1 1917.9,1173.1 1924,1178.5C 1925.12,1186.59 1925.62,1194.76 1925.5,1203C 1925.59,1211.88 1925.09,1220.72 1924,1229.5C 1897.2,1244.34 1883.7,1236.34 1883.5,1205.5C 1881.93,1189.61 1888.26,1178.61 1902.5,1172.5 Z"/></g>
<g><path style="opacity:0.972" fill="#d6894a" d="M 2092.5,1191.5 C 2092.98,1208.16 2093.31,1224.83 2093.5,1241.5C 2078.1,1252.24 2061.1,1256.07 2042.5,1253C 2037.99,1251.58 2033.99,1249.42 2030.5,1246.5C 2033.52,1245.26 2036.69,1245.26 2040,1246.5C 2043.15,1245.59 2046.31,1244.76 2049.5,1244C 2051.3,1239.45 2049.64,1237.45 2044.5,1238C 2045.06,1237.62 2045.39,1237.12 2045.5,1236.5C 2055.49,1237.84 2065.49,1237.68 2075.5,1236C 2076.52,1233.93 2077.36,1231.76 2078,1229.5C 2078.8,1221.45 2078.63,1213.45 2077.5,1205.5C 2069.19,1204.5 2060.86,1204.17 2052.5,1204.5C 2052.08,1199.51 2051.75,1194.51 2051.5,1189.5C 2062.14,1188.43 2072.81,1188.26 2083.5,1189C 2086.72,1189.2 2089.72,1190.03 2092.5,1191.5 Z"/></g>
<g><path style="opacity:0.972" fill="#fdf1d9" d="M 2092.5,1191.5 C 2094.39,1191.3 2095.89,1191.96 2097,1193.5C 2097.33,1199.5 2097.67,1205.5 2098,1211.5C 2098.4,1212.87 2098.9,1214.21 2099.5,1215.5C 2100,1216.52 2100.67,1216.69 2101.5,1216C 2103.73,1213.94 2105.73,1211.77 2107.5,1209.5C 2107.58,1216.86 2107.25,1224.19 2106.5,1231.5C 2105.07,1231.58 2103.74,1231.25 2102.5,1230.5C 2100.47,1233.37 2098.63,1236.37 2097,1239.5C 2095.89,1240.31 2094.72,1240.97 2093.5,1241.5C 2093.31,1224.83 2092.98,1208.16 2092.5,1191.5 Z"/></g>
<g><path style="opacity:0.962" fill="#fbe3c3" d="M 572.5,1227.5 C 572.375,1221.8 572.708,1216.13 573.5,1210.5C 565.885,1208.12 558.218,1208.12 550.5,1210.5C 557.496,1202.76 565.496,1201.6 574.5,1207C 580.019,1214.4 579.352,1221.23 572.5,1227.5 Z"/></g>
<g><path style="opacity:0.901" fill="#fce9d0" d="M 2052.5,1204.5 C 2060.86,1204.17 2069.19,1204.5 2077.5,1205.5C 2078.63,1213.45 2078.8,1221.45 2078,1229.5C 2077.36,1231.76 2076.52,1233.93 2075.5,1236C 2065.49,1237.68 2055.49,1237.84 2045.5,1236.5C 2045.5,1235.83 2045.5,1235.17 2045.5,1234.5C 2054.83,1234.17 2064.17,1233.83 2073.5,1233.5C 2073.72,1225.25 2074.39,1217.08 2075.5,1209C 2068.83,1208.67 2062.17,1208.33 2055.5,1208C 2053.94,1207.28 2052.94,1206.11 2052.5,1204.5 Z"/></g>
<g><path style="opacity:0.977" fill="#c98138" d="M 1393.5,1275.5 C 1389.5,1275.5 1385.5,1275.5 1381.5,1275.5C 1381.76,1271.15 1382.26,1266.81 1383,1262.5C 1386.17,1249.82 1389.34,1237.15 1392.5,1224.5C 1398.82,1225.09 1405.15,1225.59 1411.5,1226C 1408.52,1239.15 1403.68,1251.65 1397,1263.5C 1395.52,1267.45 1394.35,1271.45 1393.5,1275.5 Z"/></g>
<g><path style="opacity:0.893" fill="#e2a76f" d="M 1198.5,1242.5 C 1198.88,1237.88 1196.88,1234.88 1192.5,1233.5C 1193.79,1231.7 1195.29,1230.04 1197,1228.5C 1201.91,1231.09 1203.57,1235.09 1202,1240.5C 1201.18,1241.82 1200.02,1242.49 1198.5,1242.5 Z"/></g>
</svg>
