<?xml version="1.0" encoding="UTF-8"?>
<!DOCTYPE svg PUBLIC "-//W3C//DTD SVG 1.1//EN" "http://www.w3.org/Graphics/SVG/1.1/DTD/svg11.dtd">
<svg xmlns="http://www.w3.org/2000/svg" version="1.1" width="2384px" height="1277px" style="shape-rendering:geometricPrecision; text-rendering:geometricPrecision; image-rendering:optimizeQuality; fill-rule:evenodd; clip-rule:evenodd" xmlns:xlink="http://www.w3.org/1999/xlink">
<g><path style="opacity:1" fill="#d57130" d="M 1393.5,243.5 C 1393.13,258.511 1392.47,273.511 1391.5,288.5C 1381.68,279.851 1372.02,271.018 1362.5,262C 1341.93,247.271 1318.93,240.438 1293.5,241.5C 1268.84,214.838 1243.84,188.504 1218.5,162.5C 1218.5,144.833 1218.5,127.167 1218.5,109.5C 1202.84,110.217 1187.18,110.55 1171.5,110.5C 1170.88,110.611 1170.38,110.944 1170,111.5C 1151.35,91.349 1132.52,71.349 1113.5,51.5C 1129.32,35.1806 1145.32,19.0139 1161.5,3C 1162.17,2.33333 1162.83,2.33333 1163.5,3C 1239.67,83.6683 1316.34,163.835 1393.5,243.5 Z"/></g>
<g><path style="opacity:0.071" fill="#3c2e26" d="M 1161.5,-0.5 C 1161.83,-0.5 1162.17,-0.5 1162.5,-0.5C 1239.51,80.2086 1316.51,160.875 1393.5,241.5C 1393.5,242.167 1393.5,242.833 1393.5,243.5C 1316.34,163.835 1239.67,83.6683 1163.5,3C 1162.83,2.33333 1162.17,2.33333 1161.5,3C 1145.32,19.0139 1129.32,35.1806 1113.5,51.5C 1132.52,71.349 1151.35,91.349 1170,111.5C 1170.38,110.944 1170.88,110.611 1171.5,110.5C 1171.44,111.609 1171.11,112.609 1170.5,113.5C 1149.96,93.4567 1130.29,72.6233 1111.5,51C 1127.99,33.6727 1144.66,16.506 1161.5,-0.5 Z"/></g>
<g><path style="opacity:1" fill="#d57130" d="M 1170.5,162.5 C 1170.5,162.833 1170.5,163.167 1170.5,163.5C 1170.67,196.835 1170.5,230.168 1170,263.5C 1130.66,221.664 1090.83,180.331 1050.5,139.5C 1047.94,135.43 1044.77,131.764 1041,128.5C 1040.33,127.833 1040.33,127.167 1041,126.5C 1057.01,110.319 1073.18,94.3193 1089.5,78.5C 1116.52,106.521 1143.52,134.521 1170.5,162.5 Z"/></g>
<g><path style="opacity:0.965" fill="#453229" d="M 1170.5,159.5 C 1170.5,160.5 1170.5,161.5 1170.5,162.5C 1143.52,134.521 1116.52,106.521 1089.5,78.5C 1073.18,94.3193 1057.01,110.319 1041,126.5C 1040.33,127.167 1040.33,127.833 1041,128.5C 1044.77,131.764 1047.94,135.43 1050.5,139.5C 1050.17,139.5 1049.83,139.5 1049.5,139.5C 1046.02,135.908 1042.52,132.241 1039,128.5C 1038.33,127.833 1038.33,127.167 1039,126.5C 1055.73,109.767 1072.4,93.1003 1089,76.5C 1115.97,104.301 1143.13,131.968 1170.5,159.5 Z"/></g>
<g><path style="opacity:1" fill="#0d0b09" d="M 1218.5,162.5 C 1218.5,162.833 1218.5,163.167 1218.5,163.5C 1217.17,192.833 1217.17,222.167 1218.5,251.5C 1218.18,255.555 1218.51,259.555 1219.5,263.5C 1229.96,257.703 1240.62,252.37 1251.5,247.5C 1252.49,247.672 1253.16,247.338 1253.5,246.5C 1263.18,243.109 1273.18,241.443 1283.5,241.5C 1286.83,241.5 1290.17,241.5 1293.5,241.5C 1318.93,240.438 1341.93,247.271 1362.5,262C 1372.02,271.018 1381.68,279.851 1391.5,288.5C 1392.47,273.511 1393.13,258.511 1393.5,243.5C 1393.5,242.833 1393.5,242.167 1393.5,241.5C 1459.5,241.333 1525.5,241.5 1591.5,242C 1591.7,284.758 1591.7,327.592 1591.5,370.5C 1590.5,413.997 1590.17,457.663 1590.5,501.5C 1575.01,502.496 1559.34,502.83 1543.5,502.5C 1542.83,502.5 1542.17,502.5 1541.5,502.5C 1539.86,502.19 1538.86,501.19 1538.5,499.5C 1539.83,483.014 1540.5,466.18 1540.5,449C 1540.5,431.997 1540.17,415.163 1539.5,398.5C 1539.5,398.167 1539.5,397.833 1539.5,397.5C 1539.5,396.5 1539.5,395.5 1539.5,394.5C 1539.5,361.5 1539.5,328.5 1539.5,295.5C 1532.17,295.5 1524.83,295.5 1517.5,295.5C 1516.17,295.5 1514.83,295.5 1513.5,295.5C 1513.5,348.167 1513.5,400.833 1513.5,453.5C 1513.5,469.833 1513.5,486.167 1513.5,502.5C 1511.38,502.325 1509.38,502.659 1507.5,503.5C 1503.7,502.517 1499.7,502.183 1495.5,502.5C 1485.83,502.5 1476.17,502.5 1466.5,502.5C 1466.67,492.161 1466.5,481.828 1466,471.5C 1463.63,469.297 1461.46,466.963 1459.5,464.5C 1459.5,464.167 1459.5,463.833 1459.5,463.5C 1461.8,465.294 1463.96,467.294 1466,469.5C 1466.82,454.092 1466.65,438.759 1465.5,423.5C 1465.5,423.167 1465.5,422.833 1465.5,422.5C 1466.83,406.014 1467.5,389.18 1467.5,372C 1467.5,354.997 1467.17,338.163 1466.5,321.5C 1465.17,319.833 1463.83,318.167 1462.5,316.5C 1462.5,316.167 1462.5,315.833 1462.5,315.5C 1463.79,316.29 1464.96,317.29 1466,318.5C 1466.5,310.841 1466.67,303.174 1466.5,295.5C 1458.6,294.187 1450.6,294.187 1442.5,295.5C 1441.5,315.757 1441.17,336.757 1441.5,358.5C 1440.17,392.167 1440.17,425.833 1441.5,459.5C 1441.5,473.833 1441.5,488.167 1441.5,502.5C 1427.5,502.5 1413.5,502.5 1399.5,502.5C 1398.5,502.5 1397.5,502.5 1396.5,502.5C 1395.17,502.5 1393.83,502.5 1392.5,502.5C 1392.5,500.833 1392.5,499.167 1392.5,497.5C 1393.83,494.833 1393.83,492.167 1392.5,489.5C 1392.5,478.833 1392.5,468.167 1392.5,457.5C 1392.79,455.712 1392.45,454.045 1391.5,452.5C 1389.01,454.83 1387.01,457.497 1385.5,460.5C 1381.17,464.5 1376.83,468.5 1372.5,472.5C 1363.16,478.841 1353.83,485.174 1344.5,491.5C 1343.49,492.674 1342.15,493.34 1340.5,493.5C 1338.85,493.66 1337.51,494.326 1336.5,495.5C 1328.94,497.907 1321.28,499.907 1313.5,501.5C 1301.86,502.388 1290.19,502.721 1278.5,502.5C 1261.72,499.797 1246.05,494.13 1231.5,485.5C 1230.71,483.896 1229.38,483.229 1227.5,483.5C 1225.03,481.994 1222.36,480.661 1219.5,479.5C 1218.61,480.325 1218.28,481.325 1218.5,482.5C 1218.5,500.167 1218.5,517.833 1218.5,535.5C 1218.5,568.833 1218.5,602.167 1218.5,635.5C 1217.83,635.5 1217.5,635.833 1217.5,636.5C 1214.87,635.908 1212.21,635.575 1209.5,635.5C 1199.35,634.258 1189.35,634.258 1179.5,635.5C 1178.58,634.697 1177.58,634.53 1176.5,635C 1177.71,636.039 1178.71,637.206 1179.5,638.5C 1179.5,638.833 1179.5,639.167 1179.5,639.5C 1177.7,638.207 1176.04,636.707 1174.5,635C 1173.21,634.51 1171.87,634.343 1170.5,634.5C 1170.5,633.167 1170.5,631.833 1170.5,630.5C 1170.5,622.833 1170.5,615.167 1170.5,607.5C 1170.83,591.325 1170.5,575.325 1169.5,559.5C 1169.82,534.092 1169.49,508.759 1168.5,483.5C 1169.69,481.516 1169.69,479.516 1168.5,477.5C 1166.18,480.313 1163.51,482.646 1160.5,484.5C 1146.38,492.221 1131.38,497.721 1115.5,501C 1109.55,502.072 1103.55,502.572 1097.5,502.5C 1091.31,502.177 1085.31,502.51 1079.5,503.5C 1077.05,502.935 1074.71,502.268 1072.5,501.5C 1067.72,499.721 1062.72,498.387 1057.5,497.5C 1056.21,497.737 1055.21,497.404 1054.5,496.5C 1053.22,495.069 1051.55,494.402 1049.5,494.5C 1044.39,492.777 1039.39,490.777 1034.5,488.5C 1034.5,488.167 1034.5,487.833 1034.5,487.5C 1034.03,486.094 1033.03,485.427 1031.5,485.5C 1029.85,483.674 1027.85,482.34 1025.5,481.5C 1024.74,479.738 1023.4,478.738 1021.5,478.5C 1021.03,477.094 1020.03,476.427 1018.5,476.5C 1018.17,475.5 1017.5,474.833 1016.5,474.5C 1014.43,471.427 1011.76,469.094 1008.5,467.5C 1008.26,465.596 1007.26,464.262 1005.5,463.5C 1001.18,458.206 996.844,452.873 992.5,447.5C 991.66,445.147 990.326,443.147 988.5,441.5C 986.201,436.24 983.534,431.24 980.5,426.5C 974.787,411.983 971.121,396.983 969.5,381.5C 970.167,381.5 970.5,381.167 970.5,380.5C 969.216,359.423 972.383,339.09 980,319.5C 982.943,312.618 986.11,305.951 989.5,299.5C 989.5,299.167 989.5,298.833 989.5,298.5C 997.717,286.612 1007.38,275.945 1018.5,266.5C 1018.83,266.5 1019.17,266.5 1019.5,266.5C 1038.39,252.058 1059.73,243.725 1083.5,241.5C 1087.01,242.055 1090.01,241.388 1092.5,239.5C 1105.7,240.145 1118.7,242.312 1131.5,246C 1143.26,250.713 1154.59,256.213 1165.5,262.5C 1166.57,264.216 1168.24,265.216 1170.5,265.5C 1171.83,231.336 1171.83,197.336 1170.5,163.5C 1170.5,163.167 1170.5,162.833 1170.5,162.5C 1170.5,161.5 1170.5,160.5 1170.5,159.5C 1170.5,144.167 1170.5,128.833 1170.5,113.5C 1171.11,112.609 1171.44,111.609 1171.5,110.5C 1187.18,110.55 1202.84,110.217 1218.5,109.5C 1218.5,127.167 1218.5,144.833 1218.5,162.5 Z M 1298.5,293.5 C 1326.4,297.358 1346.24,312.025 1358,337.5C 1361.26,345.552 1363.43,353.885 1364.5,362.5C 1341.8,340.133 1319.8,317.133 1298.5,293.5 Z M 1466.5,295.5 C 1466.67,303.174 1466.5,310.841 1466,318.5C 1464.96,317.29 1463.79,316.29 1462.5,315.5C 1457.07,308.57 1451.07,302.07 1444.5,296C 1451.83,295.5 1459.16,295.334 1466.5,295.5 Z M 1517.5,295.5 C 1524.83,295.5 1532.17,295.5 1539.5,295.5C 1539.5,328.5 1539.5,361.5 1539.5,394.5C 1531.47,387.14 1523.81,379.473 1516.5,371.5C 1517.34,346.176 1517.67,320.843 1517.5,295.5 Z M 1056.5,306.5 C 1089.8,341.804 1123.47,376.804 1157.5,411.5C 1150.83,424.167 1141.17,433.833 1128.5,440.5C 1098.5,409.168 1068.17,378.168 1037.5,347.5C 1034.52,344.187 1031.52,340.853 1028.5,337.5C 1035.06,324.608 1044.4,314.274 1056.5,306.5 Z M 1241.5,339.5 C 1271.38,371.924 1301.71,403.924 1332.5,435.5C 1321.76,444.083 1309.43,448.75 1295.5,449.5C 1269.81,422.807 1244.14,396.14 1218.5,369.5C 1218.33,367.379 1218.66,365.379 1219.5,363.5C 1220.34,357.805 1221.34,352.139 1222.5,346.5C 1224.76,340.647 1227.59,334.98 1231,329.5C 1234.37,333.037 1237.87,336.371 1241.5,339.5 Z M 1465.5,423.5 C 1466.65,438.759 1466.82,454.092 1466,469.5C 1463.96,467.294 1461.8,465.294 1459.5,463.5C 1454.24,456.737 1448.41,450.403 1442,444.5C 1441.33,429.5 1441.33,414.5 1442,399.5C 1450.06,407.395 1457.9,415.395 1465.5,423.5 Z"/></g>
<g><path style="opacity:1" fill="#d8d2cb" d="M 1175.5,114.5 C 1182.17,114.5 1188.83,114.5 1195.5,114.5C 1201.5,114.5 1207.5,114.5 1213.5,114.5C 1213.5,166.167 1213.5,217.833 1213.5,269.5C 1214.79,269.737 1215.79,269.404 1216.5,268.5C 1227.54,264.146 1238.21,258.979 1248.5,253C 1278.49,243.047 1308.49,243.047 1338.5,253C 1355.85,261.525 1370.85,273.191 1383.5,288C 1386.88,291.015 1390.54,293.515 1394.5,295.5C 1394.56,296.043 1394.89,296.376 1395.5,296.5C 1396.5,290.872 1396.83,285.206 1396.5,279.5C 1396.6,268.491 1396.93,257.491 1397.5,246.5C 1460.83,246.5 1524.17,246.5 1587.5,246.5C 1587.5,330.5 1587.5,414.5 1587.5,498.5C 1573.17,498.5 1558.83,498.5 1544.5,498.5C 1544.5,429.167 1544.5,359.833 1544.5,290.5C 1532.99,290.172 1521.65,290.505 1510.5,291.5C 1509.5,360.331 1509.17,429.331 1509.5,498.5C 1496.83,498.5 1484.17,498.5 1471.5,498.5C 1471.5,429.167 1471.5,359.833 1471.5,290.5C 1459.99,290.172 1448.65,290.505 1437.5,291.5C 1436.5,359.998 1436.17,428.665 1436.5,497.5C 1423.5,497.5 1410.5,497.5 1397.5,497.5C 1397.82,492.968 1397.48,488.634 1396.5,484.5C 1396.5,471.833 1396.5,459.167 1396.5,446.5C 1393.58,446.46 1390.91,447.293 1388.5,449C 1385.26,452.821 1382.26,456.821 1379.5,461C 1369.78,469.05 1359.78,476.716 1349.5,484C 1325.17,497.562 1299.17,501.895 1271.5,497C 1255.46,493.148 1240.46,486.815 1226.5,478C 1222.55,476.516 1218.55,475.35 1214.5,474.5C 1214.5,526.833 1214.5,579.167 1214.5,631.5C 1201.16,631.23 1187.83,630.897 1174.5,630.5C 1173.69,587.505 1173.36,544.505 1173.5,501.5C 1173.5,491.833 1173.5,482.167 1173.5,472.5C 1172.21,472.263 1171.21,472.596 1170.5,473.5C 1168.71,473.215 1167.05,473.548 1165.5,474.5C 1158.33,480.589 1150.33,485.422 1141.5,489C 1089.53,508.548 1044.37,498.381 1006,458.5C 977.98,423.41 968.646,383.743 978,339.5C 994.698,281.3 1033.2,249.633 1093.5,244.5C 1108.71,244.695 1123.38,247.529 1137.5,253C 1149.17,259.669 1161.17,265.502 1173.5,270.5C 1173.56,271.043 1173.89,271.376 1174.5,271.5C 1175.5,219.171 1175.83,166.838 1175.5,114.5 Z M 1298.5,293.5 C 1326.4,297.358 1346.24,312.025 1358,337.5C 1361.26,345.552 1363.43,353.885 1364.5,362.5C 1341.8,340.133 1319.8,317.133 1298.5,293.5 Z M 1466.5,295.5 C 1466.67,303.174 1466.5,310.841 1466,318.5C 1464.96,317.29 1463.79,316.29 1462.5,315.5C 1457.07,308.57 1451.07,302.07 1444.5,296C 1451.83,295.5 1459.16,295.334 1466.5,295.5 Z M 1517.5,295.5 C 1524.83,295.5 1532.17,295.5 1539.5,295.5C 1539.5,328.5 1539.5,361.5 1539.5,394.5C 1531.47,387.14 1523.81,379.473 1516.5,371.5C 1517.34,346.176 1517.67,320.843 1517.5,295.5 Z M 1056.5,306.5 C 1089.8,341.804 1123.47,376.804 1157.5,411.5C 1150.83,424.167 1141.17,433.833 1128.5,440.5C 1098.5,409.168 1068.17,378.168 1037.5,347.5C 1034.52,344.187 1031.52,340.853 1028.5,337.5C 1035.06,324.608 1044.4,314.274 1056.5,306.5 Z M 1241.5,339.5 C 1271.38,371.924 1301.71,403.924 1332.5,435.5C 1321.76,444.083 1309.43,448.75 1295.5,449.5C 1269.81,422.807 1244.14,396.14 1218.5,369.5C 1218.33,367.379 1218.66,365.379 1219.5,363.5C 1220.34,357.805 1221.34,352.139 1222.5,346.5C 1224.76,340.647 1227.59,334.98 1231,329.5C 1234.37,333.037 1237.87,336.371 1241.5,339.5 Z M 1465.5,423.5 C 1466.65,438.759 1466.82,454.092 1466,469.5C 1463.96,467.294 1461.8,465.294 1459.5,463.5C 1454.24,456.737 1448.41,450.403 1442,444.5C 1441.33,429.5 1441.33,414.5 1442,399.5C 1450.06,407.395 1457.9,415.395 1465.5,423.5 Z"/></g>
<g><path style="opacity:1" fill="#8b8783" d="M 1175.5,114.5 C 1175.83,166.838 1175.5,219.171 1174.5,271.5C 1173.89,271.376 1173.56,271.043 1173.5,270.5C 1174.17,218.5 1174.83,166.5 1175.5,114.5 Z"/></g>
<g><path style="opacity:1" fill="#d57130" d="M 1083.5,241.5 C 1059.73,243.725 1038.39,252.058 1019.5,266.5C 1001.19,247.187 982.855,227.854 964.5,208.5C 980.5,191.833 996.833,175.5 1013.5,159.5C 1039.61,186.195 1065.61,213.028 1091.5,240C 1088.64,240.183 1085.97,240.683 1083.5,241.5 Z"/></g>
<g><path style="opacity:0.616" fill="#2d201a" d="M 1218.5,163.5 C 1218.5,163.833 1218.5,164.167 1218.5,164.5C 1218.33,180.17 1218.5,195.837 1219,211.5C 1230.52,223.242 1242.02,234.909 1253.5,246.5C 1253.16,247.338 1252.49,247.672 1251.5,247.5C 1240.51,236.339 1229.67,225.005 1219,213.5C 1218.5,226.162 1218.33,238.829 1218.5,251.5C 1217.17,222.167 1217.17,192.833 1218.5,163.5 Z"/></g>
<g><path style="opacity:0.169" fill="#392c25" d="M 1218.5,162.5 C 1243.84,188.504 1268.84,214.838 1293.5,241.5C 1290.17,241.5 1286.83,241.5 1283.5,241.5C 1285.63,240.686 1287.96,240.186 1290.5,240C 1266.63,214.635 1242.63,189.468 1218.5,164.5C 1218.5,164.167 1218.5,163.833 1218.5,163.5C 1218.5,163.167 1218.5,162.833 1218.5,162.5 Z"/></g>
<g><path style="opacity:0.965" fill="#362923" d="M 1049.5,139.5 C 1049.83,139.5 1050.17,139.5 1050.5,139.5C 1090.83,180.331 1130.66,221.664 1170,263.5C 1170.5,230.168 1170.67,196.835 1170.5,163.5C 1171.83,197.336 1171.83,231.336 1170.5,265.5C 1168.24,265.216 1166.57,264.216 1165.5,262.5C 1165.94,262.565 1166.27,262.399 1166.5,262C 1127.66,220.995 1088.66,180.161 1049.5,139.5 Z"/></g>
<g><path style="opacity:0.761" fill="#423027" d="M 1092.5,239.5 C 1090.01,241.388 1087.01,242.055 1083.5,241.5C 1085.97,240.683 1088.64,240.183 1091.5,240C 1065.61,213.028 1039.61,186.195 1013.5,159.5C 996.833,175.5 980.5,191.833 964.5,208.5C 982.855,227.854 1001.19,247.187 1019.5,266.5C 1019.17,266.5 1018.83,266.5 1018.5,266.5C 999.546,247.544 980.879,228.211 962.5,208.5C 978.288,191.21 994.622,174.377 1011.5,158C 1012.5,157.333 1013.5,157.333 1014.5,158C 1041.07,184.733 1067.07,211.899 1092.5,239.5 Z"/></g>
<g><path style="opacity:1" fill="#65625e" d="M 1195.5,114.5 C 1201.64,113.51 1207.98,113.177 1214.5,113.5C 1213.84,165.511 1214.5,217.177 1216.5,268.5C 1215.79,269.404 1214.79,269.737 1213.5,269.5C 1213.5,217.833 1213.5,166.167 1213.5,114.5C 1207.5,114.5 1201.5,114.5 1195.5,114.5 Z"/></g>
<g><path style="opacity:1" fill="#d37030" d="M 1251.5,247.5 C 1240.62,252.37 1229.96,257.703 1219.5,263.5C 1218.51,259.555 1218.18,255.555 1218.5,251.5C 1218.33,238.829 1218.5,226.162 1219,213.5C 1229.67,225.005 1240.51,236.339 1251.5,247.5 Z"/></g>
<g><path style="opacity:1" fill="#d47130" d="M 989.5,299.5 C 986.11,305.951 982.943,312.618 980,319.5C 972.383,339.09 969.216,359.423 970.5,380.5C 940.519,350.519 910.853,320.186 881.5,289.5C 897.5,272.833 913.833,256.5 930.5,240.5C 949.827,260.494 969.494,280.161 989.5,299.5 Z"/></g>
<g><path style="opacity:0.965" fill="#362a25" d="M 989.5,298.5 C 989.5,298.833 989.5,299.167 989.5,299.5C 969.494,280.161 949.827,260.494 930.5,240.5C 913.833,256.5 897.5,272.833 881.5,289.5C 910.853,320.186 940.519,350.519 970.5,380.5C 970.5,381.167 970.167,381.5 969.5,381.5C 939.186,351.186 909.186,320.519 879.5,289.5C 896.167,272.167 913.167,255.167 930.5,238.5C 950.885,257.884 970.551,277.884 989.5,298.5 Z"/></g>
<g><path style="opacity:1" fill="#55524f" d="M 1396.5,279.5 C 1396.83,285.206 1396.5,290.872 1395.5,296.5C 1394.89,296.376 1394.56,296.043 1394.5,295.5C 1395.17,290.167 1395.83,284.833 1396.5,279.5 Z"/></g>
<g><path style="opacity:1" fill="#100c0b" d="M 1090.5,288.5 C 1128.13,290.323 1153.8,308.823 1167.5,344C 1175.69,373.329 1171.19,400.495 1154,425.5C 1131.77,449.519 1104.61,458.019 1072.5,451C 1063.61,448.221 1055.61,443.888 1048.5,438C 1014.13,406.631 1007.3,370.131 1028,328.5C 1042.88,305.656 1063.71,292.323 1090.5,288.5 Z M 1056.5,306.5 C 1089.8,341.804 1123.47,376.804 1157.5,411.5C 1150.83,424.167 1141.17,433.833 1128.5,440.5C 1098.5,409.168 1068.17,378.168 1037.5,347.5C 1034.52,344.187 1031.52,340.853 1028.5,337.5C 1035.06,324.608 1044.4,314.274 1056.5,306.5 Z"/></g>
<g><path style="opacity:1" fill="#0f0c0a" d="M 1287.5,288.5 C 1330.4,290.355 1357.23,312.022 1368,353.5C 1375.48,396.695 1359.98,428.195 1321.5,448C 1279.98,461.656 1247.81,449.823 1225,412.5C 1202.25,357.156 1218.09,316.989 1272.5,292C 1277.51,290.292 1282.51,289.126 1287.5,288.5 Z M 1298.5,293.5 C 1326.4,297.358 1346.24,312.025 1358,337.5C 1361.26,345.552 1363.43,353.885 1364.5,362.5C 1341.8,340.133 1319.8,317.133 1298.5,293.5 Z M 1241.5,339.5 C 1271.38,371.924 1301.71,403.924 1332.5,435.5C 1321.76,444.083 1309.43,448.75 1295.5,449.5C 1269.81,422.807 1244.14,396.14 1218.5,369.5C 1218.33,367.379 1218.66,365.379 1219.5,363.5C 1220.34,357.805 1221.34,352.139 1222.5,346.5C 1224.76,340.647 1227.59,334.98 1231,329.5C 1234.37,333.037 1237.87,336.371 1241.5,339.5 Z"/></g>
<g><path style="opacity:1" fill="#7e7a76" d="M 1510.5,291.5 C 1521.65,290.505 1532.99,290.172 1544.5,290.5C 1544.5,359.833 1544.5,429.167 1544.5,498.5C 1543.5,429.669 1543.17,360.669 1543.5,291.5C 1532.5,291.5 1521.5,291.5 1510.5,291.5 Z"/></g>
<g><path style="opacity:1" fill="#d47130" d="M 1159.5,409.5 C 1152.26,403.762 1145.42,397.428 1139,390.5C 1111.63,361.964 1084.46,333.297 1057.5,304.5C 1090.6,285.765 1120.43,290.098 1147,317.5C 1169.31,345.541 1173.48,376.207 1159.5,409.5 Z"/></g>
<g><path style="opacity:1" fill="#d57130" d="M 1296.5,293.5 C 1319.14,318.141 1342.14,342.475 1365.5,366.5C 1367.17,388.718 1361,408.384 1347,425.5C 1343.29,428.715 1339.46,431.715 1335.5,434.5C 1328.26,428.762 1321.42,422.428 1315,415.5C 1290.63,389.635 1266.13,363.968 1241.5,338.5C 1238.37,334.869 1235.04,331.369 1231.5,328C 1246.25,308.23 1265.75,296.397 1290,292.5C 1292.22,292.653 1294.38,292.986 1296.5,293.5 Z"/></g>
<g><path style="opacity:0.459" fill="#312621" d="M 1466.5,295.5 C 1459.16,295.334 1451.83,295.5 1444.5,296C 1451.07,302.07 1457.07,308.57 1462.5,315.5C 1462.5,315.833 1462.5,316.167 1462.5,316.5C 1455.86,309.526 1449.19,302.526 1442.5,295.5C 1450.6,294.187 1458.6,294.187 1466.5,295.5 Z"/></g>
<g><path style="opacity:1" fill="#bdb2a8" d="M 1517.5,295.5 C 1517.67,320.843 1517.34,346.176 1516.5,371.5C 1516.5,372.5 1516.5,373.5 1516.5,374.5C 1515.75,407.161 1515.42,439.828 1515.5,472.5C 1514.83,466.167 1514.17,459.833 1513.5,453.5C 1513.5,400.833 1513.5,348.167 1513.5,295.5C 1514.83,295.5 1516.17,295.5 1517.5,295.5 Z"/></g>
<g><path style="opacity:1" fill="#d57333" d="M 1442.5,295.5 C 1449.19,302.526 1455.86,309.526 1462.5,316.5C 1463.83,318.167 1465.17,319.833 1466.5,321.5C 1466.83,355.004 1466.5,388.338 1465.5,421.5C 1457.51,413.338 1449.67,405.005 1442,396.5C 1441.5,383.838 1441.33,371.171 1441.5,358.5C 1441.17,336.757 1441.5,315.757 1442.5,295.5 Z"/></g>
<g><path style="opacity:0.965" fill="#392c25" d="M 1296.5,293.5 C 1297.17,293.5 1297.83,293.5 1298.5,293.5C 1319.8,317.133 1341.8,340.133 1364.5,362.5C 1364.83,363.833 1365.17,365.167 1365.5,366.5C 1342.14,342.475 1319.14,318.141 1296.5,293.5 Z"/></g>
<g><path style="opacity:1" fill="#d57130" d="M 992.5,447.5 C 996.844,452.873 1001.18,458.206 1005.5,463.5C 1005.74,465.404 1006.74,466.738 1008.5,467.5C 1010.57,470.573 1013.24,472.906 1016.5,474.5C 1017.5,474.833 1018.17,475.5 1018.5,476.5C 1018.97,477.906 1019.97,478.573 1021.5,478.5C 1022.26,480.262 1023.6,481.262 1025.5,481.5C 1026.5,483.167 1027.83,484.5 1029.5,485.5C 1076.16,534.164 1123.16,582.498 1170.5,630.5C 1170.5,631.833 1170.5,633.167 1170.5,634.5C 1171.87,634.343 1173.21,634.51 1174.5,635C 1176.04,636.707 1177.7,638.207 1179.5,639.5C 1203.45,665.449 1227.78,691.115 1252.5,716.5C 1236.68,732.819 1220.68,748.986 1204.5,765C 1202.61,765.163 1201.11,764.329 1200,762.5C 1071.33,629.833 942.667,497.167 814,364.5C 813.333,363.833 813.333,363.167 814,362.5C 830.014,346.319 846.181,330.319 862.5,314.5C 905.855,358.854 949.188,403.187 992.5,447.5 Z"/></g>
<g><path style="opacity:1" fill="#5d3216" d="M 1466.5,321.5 C 1467.17,338.163 1467.5,354.997 1467.5,372C 1467.5,389.18 1466.83,406.014 1465.5,422.5C 1465.5,422.167 1465.5,421.833 1465.5,421.5C 1466.5,388.338 1466.83,355.004 1466.5,321.5 Z"/></g>
<g><path style="opacity:0.169" fill="#362a24" d="M 1057.5,304.5 C 1084.46,333.297 1111.63,361.964 1139,390.5C 1145.42,397.428 1152.26,403.762 1159.5,409.5C 1159.17,410.5 1158.5,411.167 1157.5,411.5C 1123.47,376.804 1089.8,341.804 1056.5,306.5C 1056.33,305.508 1056.66,304.842 1057.5,304.5 Z"/></g>
<g><path style="opacity:1" fill="#d47130" d="M 1037.5,348.5 C 1037.37,349.239 1037.54,349.906 1038,350.5C 1064.9,377.307 1091.56,404.307 1118,431.5C 1121.07,435.061 1123.91,438.728 1126.5,442.5C 1086.14,458.123 1054.3,447.789 1031,411.5C 1019.34,389.73 1017.34,367.064 1025,343.5C 1025.58,341.998 1026.42,340.665 1027.5,339.5C 1030.85,342.522 1034.19,345.522 1037.5,348.5 Z"/></g>
<g><path style="opacity:0.769" fill="#a59282" d="M 1222.5,346.5 C 1221.34,352.139 1220.34,357.805 1219.5,363.5C 1218.71,357.624 1219.71,351.957 1222.5,346.5 Z"/></g>
<g><path style="opacity:1" fill="#392b24" d="M 1441.5,358.5 C 1441.33,371.171 1441.5,383.838 1442,396.5C 1449.67,405.005 1457.51,413.338 1465.5,421.5C 1465.5,421.833 1465.5,422.167 1465.5,422.5C 1465.5,422.833 1465.5,423.167 1465.5,423.5C 1457.9,415.395 1450.06,407.395 1442,399.5C 1441.33,414.5 1441.33,429.5 1442,444.5C 1448.41,450.403 1454.24,456.737 1459.5,463.5C 1459.5,463.833 1459.5,464.167 1459.5,464.5C 1453.45,458.768 1447.62,452.768 1442,446.5C 1441.5,450.821 1441.33,455.154 1441.5,459.5C 1440.17,425.833 1440.17,392.167 1441.5,358.5 Z"/></g>
<g><path style="opacity:0.965" fill="#382b25" d="M 1241.5,338.5 C 1266.13,363.968 1290.63,389.635 1315,415.5C 1321.42,422.428 1328.26,428.762 1335.5,434.5C 1334.79,435.404 1333.79,435.737 1332.5,435.5C 1301.71,403.924 1271.38,371.924 1241.5,339.5C 1241.5,339.167 1241.5,338.833 1241.5,338.5 Z"/></g>
<g><path style="opacity:1" fill="#d27030" d="M 1286.5,449.5 C 1262.5,446.581 1244,434.915 1231,414.5C 1227.73,408.288 1224.73,401.954 1222,395.5C 1219.86,388.656 1218.7,381.656 1218.5,374.5C 1218.37,373.761 1218.54,373.094 1219,372.5C 1243.68,397.681 1268.18,423.015 1292.5,448.5C 1290.6,449.466 1288.6,449.799 1286.5,449.5 Z"/></g>
<g><path style="opacity:1" fill="#d57231" d="M 1516.5,374.5 C 1524.53,381.86 1532.19,389.527 1539.5,397.5C 1539.5,397.833 1539.5,398.167 1539.5,398.5C 1539.67,431.835 1539.5,465.168 1539,498.5C 1530.94,490.605 1523.1,482.605 1515.5,474.5C 1515.5,473.833 1515.5,473.167 1515.5,472.5C 1515.42,439.828 1515.75,407.161 1516.5,374.5 Z"/></g>
<g><path style="opacity:0.965" fill="#3a2c25" d="M 1516.5,371.5 C 1523.81,379.473 1531.47,387.14 1539.5,394.5C 1539.5,395.5 1539.5,396.5 1539.5,397.5C 1532.19,389.527 1524.53,381.86 1516.5,374.5C 1516.5,373.5 1516.5,372.5 1516.5,371.5 Z"/></g>
<g><path style="opacity:1" fill="#d57130" d="M 842.5,451.5 C 854.135,464.802 866.468,477.469 879.5,489.5C 895.833,506.167 912.167,522.833 928.5,539.5C 940.14,551.806 952.14,563.806 964.5,575.5C 981.167,592.833 998.167,609.833 1015.5,626.5C 1026.78,639.448 1038.78,651.781 1051.5,663.5C 1069.68,681.849 1087.68,700.349 1105.5,719C 1089.67,735.994 1073.34,752.494 1056.5,768.5C 1048.83,760.167 1040.83,752.167 1032.5,744.5C 1012.83,724.5 993.167,704.5 973.5,684.5C 964.5,674.833 955.167,665.5 945.5,656.5C 926.167,636.5 906.5,616.833 886.5,597.5C 877.888,587.22 868.555,577.553 858.5,568.5C 839.167,548.833 819.833,529.167 800.5,509.5C 791.833,500.167 782.833,491.167 773.5,482.5C 761.035,469.535 748.369,456.702 735.5,444C 752,427.5 768.5,411 785,394.5C 804.035,413.702 823.201,432.702 842.5,451.5 Z"/></g>
<g><path style="opacity:0.965" fill="#3a2c25" d="M 1037.5,347.5 C 1068.17,378.168 1098.5,409.168 1128.5,440.5C 1127.83,441.167 1127.17,441.833 1126.5,442.5C 1123.91,438.728 1121.07,435.061 1118,431.5C 1091.56,404.307 1064.9,377.307 1038,350.5C 1037.54,349.906 1037.37,349.239 1037.5,348.5C 1037.5,348.167 1037.5,347.833 1037.5,347.5 Z"/></g>
<g><path style="opacity:0.965" fill="#423229" d="M 1591.5,370.5 C 1592.16,397.494 1592.66,424.494 1593,451.5C 1678.56,540.975 1763.9,630.642 1849,720.5C 1846.53,725.153 1843.03,729.153 1838.5,732.5C 1837.83,732.5 1837.17,732.5 1836.5,732.5C 1839.96,728.536 1843.63,724.702 1847.5,721C 1762.6,632.271 1677.93,543.438 1593.5,454.5C 1593.22,453.711 1592.72,453.044 1592,452.5C 1591.5,468.83 1591.33,485.163 1591.5,501.5C 1591.17,501.5 1590.83,501.5 1590.5,501.5C 1590.17,457.663 1590.5,413.997 1591.5,370.5 Z"/></g>
<g><path style="opacity:0.443" fill="#bfab98" d="M 980.5,426.5 C 983.534,431.24 986.201,436.24 988.5,441.5C 986.937,440.055 985.604,438.389 984.5,436.5C 984.5,435.833 984.167,435.5 983.5,435.5C 983.5,434.833 983.167,434.5 982.5,434.5C 981.833,431.833 981.167,429.167 980.5,426.5 Z"/></g>
<g><path style="opacity:0.965" fill="#3a2b24" d="M 1218.5,369.5 C 1244.14,396.14 1269.81,422.807 1295.5,449.5C 1292.5,450.833 1289.5,450.833 1286.5,449.5C 1288.6,449.799 1290.6,449.466 1292.5,448.5C 1268.18,423.015 1243.68,397.681 1219,372.5C 1218.54,373.094 1218.37,373.761 1218.5,374.5C 1217.76,372.595 1217.76,370.928 1218.5,369.5 Z"/></g>
<g><path style="opacity:0.965" fill="#302723" d="M 842.5,450.5 C 842.5,450.833 842.5,451.167 842.5,451.5C 823.201,432.702 804.035,413.702 785,394.5C 768.5,411 752,427.5 735.5,444C 748.369,456.702 761.035,469.535 773.5,482.5C 773.5,482.833 773.5,483.167 773.5,483.5C 760.035,470.535 746.701,457.369 733.5,444C 750.667,426.833 767.833,409.667 785,392.5C 804.368,411.701 823.535,431.035 842.5,450.5 Z"/></g>
<g><path style="opacity:1" fill="#d57131" d="M 1459.5,464.5 C 1461.46,466.963 1463.63,469.297 1466,471.5C 1466.5,481.828 1466.67,492.161 1466.5,502.5C 1476.17,502.5 1485.83,502.5 1495.5,502.5C 1563.86,573.86 1632.19,645.193 1700.5,716.5C 1701.8,717.601 1702.3,718.934 1702,720.5C 1686.17,736.333 1670.33,752.167 1654.5,768C 1653.83,768.667 1653.17,768.667 1652.5,768C 1649.96,765.295 1647.3,762.795 1644.5,760.5C 1644.63,759.761 1644.46,759.094 1644,758.5C 1561.93,673.601 1480.43,588.267 1399.5,502.5C 1413.5,502.5 1427.5,502.5 1441.5,502.5C 1441.5,488.167 1441.5,473.833 1441.5,459.5C 1441.33,455.154 1441.5,450.821 1442,446.5C 1447.62,452.768 1453.45,458.768 1459.5,464.5 Z"/></g>
<g><path style="opacity:1" fill="#bcb5ad" d="M 1392.5,457.5 C 1389.98,458.011 1387.65,459.011 1385.5,460.5C 1387.01,457.497 1389.01,454.83 1391.5,452.5C 1392.45,454.045 1392.79,455.712 1392.5,457.5 Z"/></g>
<g><path style="opacity:1" fill="#d57131" d="M 1593.5,454.5 C 1677.93,543.438 1762.6,632.271 1847.5,721C 1843.63,724.702 1839.96,728.536 1836.5,732.5C 1823.5,744.833 1810.83,757.5 1798.5,770.5C 1712.8,681.798 1627.8,592.465 1543.5,502.5C 1559.34,502.83 1575.01,502.496 1590.5,501.5C 1590.83,501.5 1591.17,501.5 1591.5,501.5C 1592.17,485.833 1592.83,470.167 1593.5,454.5 Z"/></g>
<g><path style="opacity:1" fill="#d37131" d="M 1392.5,457.5 C 1392.5,468.167 1392.5,478.833 1392.5,489.5C 1392.66,491.527 1392.5,493.527 1392,495.5C 1384.94,488.605 1378.1,481.605 1371.5,474.5C 1371.83,473.833 1372.17,473.167 1372.5,472.5C 1376.83,468.5 1381.17,464.5 1385.5,460.5C 1387.65,459.011 1389.98,458.011 1392.5,457.5 Z"/></g>
<g><path style="opacity:1" fill="#d58a53" d="M 1593.5,454.5 C 1592.83,470.167 1592.17,485.833 1591.5,501.5C 1591.33,485.163 1591.5,468.83 1592,452.5C 1592.72,453.044 1593.22,453.711 1593.5,454.5 Z"/></g>
<g><path style="opacity:1" fill="#c1b2a5" d="M 1513.5,453.5 C 1514.17,459.833 1514.83,466.167 1515.5,472.5C 1515.5,473.167 1515.5,473.833 1515.5,474.5C 1515.5,475.167 1515.5,475.833 1515.5,476.5C 1516.14,485.565 1515.47,494.231 1513.5,502.5C 1513.5,486.167 1513.5,469.833 1513.5,453.5 Z"/></g>
<g><path style="opacity:1" fill="#948a83" d="M 1005.5,463.5 C 1007.26,464.262 1008.26,465.596 1008.5,467.5C 1006.74,466.738 1005.74,465.404 1005.5,463.5 Z"/></g>
<g><path style="opacity:0.071" fill="#483327" d="M 842.5,450.5 C 855.532,462.531 867.865,475.198 879.5,488.5C 879.5,488.833 879.5,489.167 879.5,489.5C 866.468,477.469 854.135,464.802 842.5,451.5C 842.5,451.167 842.5,450.833 842.5,450.5 Z"/></g>
<g><path style="opacity:1" fill="#9c928a" d="M 1008.5,467.5 C 1011.76,469.094 1014.43,471.427 1016.5,474.5C 1013.24,472.906 1010.57,470.573 1008.5,467.5 Z"/></g>
<g><path style="opacity:1" fill="#d57130" d="M 868.5,735.5 C 847.5,713.833 826.167,692.5 804.5,671.5C 795.221,660.553 785.221,650.22 774.5,640.5C 736.34,602.174 698.34,563.674 660.5,525C 677,508.5 693.5,492 710,475.5C 792.528,558.361 874.695,641.528 956.5,725C 940.293,741.541 923.793,757.708 907,773.5C 894.364,760.698 881.531,748.032 868.5,735.5 Z"/></g>
<g><path style="opacity:1" fill="#a79c93" d="M 1018.5,476.5 C 1020.03,476.427 1021.03,477.094 1021.5,478.5C 1019.97,478.573 1018.97,477.906 1018.5,476.5 Z"/></g>
<g><path style="opacity:1" fill="#ccbcad" d="M 1372.5,472.5 C 1372.17,473.167 1371.83,473.833 1371.5,474.5C 1370.83,474.5 1370.5,474.833 1370.5,475.5C 1365.57,480.928 1359.91,485.428 1353.5,489C 1350.65,490.43 1347.65,491.263 1344.5,491.5C 1353.83,485.174 1363.16,478.841 1372.5,472.5 Z"/></g>
<g><path style="opacity:1" fill="#9c938b" d="M 1021.5,478.5 C 1023.4,478.738 1024.74,479.738 1025.5,481.5C 1023.6,481.262 1022.26,480.262 1021.5,478.5 Z"/></g>
<g><path style="opacity:1" fill="#b4aaa1" d="M 1168.5,483.5 C 1167.88,483.389 1167.38,483.056 1167,482.5C 1164.91,483.397 1162.75,484.064 1160.5,484.5C 1163.51,482.646 1166.18,480.313 1168.5,477.5C 1169.69,479.516 1169.69,481.516 1168.5,483.5 Z"/></g>
<g><path style="opacity:1" fill="#c9b19e" d="M 1227.5,483.5 C 1224.83,483.5 1222.17,483.5 1219.5,483.5C 1219.5,482.833 1219.17,482.5 1218.5,482.5C 1218.28,481.325 1218.61,480.325 1219.5,479.5C 1222.36,480.661 1225.03,481.994 1227.5,483.5 Z"/></g>
<g><path style="opacity:1" fill="#877c74" d="M 1025.5,481.5 C 1027.85,482.34 1029.85,483.674 1031.5,485.5C 1030.83,485.5 1030.17,485.5 1029.5,485.5C 1027.83,484.5 1026.5,483.167 1025.5,481.5 Z"/></g>
<g><path style="opacity:0.965" fill="#3d332e" d="M 1170.5,473.5 C 1171.21,472.596 1172.21,472.263 1173.5,472.5C 1173.5,482.167 1173.5,491.833 1173.5,501.5C 1173.16,491.955 1172.16,482.622 1170.5,473.5 Z"/></g>
<g><path style="opacity:0.761" fill="#4f382a" d="M 773.5,482.5 C 782.833,491.167 791.833,500.167 800.5,509.5C 799.833,509.5 799.5,509.833 799.5,510.5C 790.133,502.134 781.466,493.134 773.5,483.5C 773.5,483.167 773.5,482.833 773.5,482.5 Z"/></g>
<g><path style="opacity:1" fill="#d47130" d="M 1168.5,483.5 C 1169.49,508.759 1169.82,534.092 1169.5,559.5C 1169.67,567.84 1169.5,576.173 1169,584.5C 1142.83,557.667 1116.67,530.833 1090.5,504C 1093.04,503.814 1095.37,503.314 1097.5,502.5C 1103.55,502.572 1109.55,502.072 1115.5,501C 1131.38,497.721 1146.38,492.221 1160.5,484.5C 1162.75,484.064 1164.91,483.397 1167,482.5C 1167.38,483.056 1167.88,483.389 1168.5,483.5 Z"/></g>
<g><path style="opacity:0.965" fill="#3b2b22" d="M 1370.5,475.5 C 1370.5,474.833 1370.83,474.5 1371.5,474.5C 1378.1,481.605 1384.94,488.605 1392,495.5C 1392.5,493.527 1392.66,491.527 1392.5,489.5C 1393.83,492.167 1393.83,494.833 1392.5,497.5C 1384.81,490.473 1377.47,483.14 1370.5,475.5 Z"/></g>
<g><path style="opacity:0.753" fill="#d1ac8c" d="M 1031.5,485.5 C 1033.03,485.427 1034.03,486.094 1034.5,487.5C 1034.17,487.5 1033.83,487.5 1033.5,487.5C 1032.5,487.167 1031.83,486.5 1031.5,485.5 Z"/></g>
<g><path style="opacity:0.965" fill="#36281f" d="M 1539.5,398.5 C 1540.17,415.163 1540.5,431.997 1540.5,449C 1540.5,466.18 1539.83,483.014 1538.5,499.5C 1530.47,492.14 1522.81,484.473 1515.5,476.5C 1515.5,475.833 1515.5,475.167 1515.5,474.5C 1523.1,482.605 1530.94,490.605 1539,498.5C 1539.5,465.168 1539.67,431.835 1539.5,398.5 Z"/></g>
<g><path style="opacity:1" fill="#d57130" d="M 1231.5,485.5 C 1246.05,494.13 1261.72,499.797 1278.5,502.5C 1283.26,503.942 1288.26,504.608 1293.5,504.5C 1300.47,504.601 1307.14,503.601 1313.5,501.5C 1321.28,499.907 1328.94,497.907 1336.5,495.5C 1340.4,497.893 1343.9,500.893 1347,504.5C 1417,577.167 1487,649.833 1557,722.5C 1557.67,723.5 1557.67,724.5 1557,725.5C 1541,741.5 1525,757.5 1509,773.5C 1416.3,677.631 1323.8,581.631 1231.5,485.5 Z"/></g>
<g><path style="opacity:0.965" fill="#2d2523" d="M 879.5,488.5 C 896.5,504.833 913.167,521.5 929.5,538.5C 929.5,539.167 929.167,539.5 928.5,539.5C 912.167,522.833 895.833,506.167 879.5,489.5C 879.5,489.167 879.5,488.833 879.5,488.5 Z"/></g>
<g><path style="opacity:0.071" fill="#7c6a5c" d="M 1049.5,494.5 C 1051.55,494.402 1053.22,495.069 1054.5,496.5C 1052.45,496.598 1050.78,495.931 1049.5,494.5 Z"/></g>
<g><path style="opacity:0.965" fill="#3e2e27" d="M 868.5,736.5 C 868.5,736.167 868.5,735.833 868.5,735.5C 881.531,748.032 894.364,760.698 907,773.5C 923.793,757.708 940.293,741.541 956.5,725C 874.695,641.528 792.528,558.361 710,475.5C 693.5,492 677,508.5 660.5,525C 698.34,563.674 736.34,602.174 774.5,640.5C 774.5,640.833 774.5,641.167 774.5,641.5C 735.34,603.174 696.674,564.34 658.5,525C 675.708,507.959 692.708,490.793 709.5,473.5C 792.834,556.834 875.834,640.501 958.5,724.5C 941.473,741.86 924.473,759.193 907.5,776.5C 893.78,763.782 880.78,750.448 868.5,736.5 Z"/></g>
<g><path style="opacity:1" fill="#a29080" d="M 1057.5,497.5 C 1062.72,498.387 1067.72,499.721 1072.5,501.5C 1067.11,501.238 1062.11,499.905 1057.5,497.5 Z"/></g>
<g><path style="opacity:1" fill="#958c84" d="M 1437.5,291.5 C 1437.5,360.5 1437.5,429.5 1437.5,498.5C 1423.83,498.5 1410.17,498.5 1396.5,498.5C 1396.5,493.833 1396.5,489.167 1396.5,484.5C 1397.48,488.634 1397.82,492.968 1397.5,497.5C 1410.5,497.5 1423.5,497.5 1436.5,497.5C 1436.17,428.665 1436.5,359.998 1437.5,291.5 Z"/></g>
<g><path style="opacity:0.169" fill="#3b2d26" d="M 1396.5,502.5 C 1397.5,502.5 1398.5,502.5 1399.5,502.5C 1480.43,588.267 1561.93,673.601 1644,758.5C 1644.46,759.094 1644.63,759.761 1644.5,760.5C 1644.17,760.5 1643.83,760.5 1643.5,760.5C 1561.19,674.526 1478.86,588.526 1396.5,502.5 Z"/></g>
<g><path style="opacity:0.071" fill="#3a2c25" d="M 1029.5,485.5 C 1030.17,485.5 1030.83,485.5 1031.5,485.5C 1031.83,486.5 1032.5,487.167 1033.5,487.5C 1033.5,488.167 1033.83,488.5 1034.5,488.5C 1079.13,534.965 1123.96,581.298 1169,627.5C 1169.5,620.842 1169.67,614.175 1169.5,607.5C 1169.83,607.5 1170.17,607.5 1170.5,607.5C 1170.5,615.167 1170.5,622.833 1170.5,630.5C 1123.16,582.498 1076.16,534.164 1029.5,485.5 Z"/></g>
<g><path style="opacity:0.965" fill="#3a2c25" d="M 1541.5,502.5 C 1542.17,502.5 1542.83,502.5 1543.5,502.5C 1627.8,592.465 1712.8,681.798 1798.5,770.5C 1799.17,770.5 1799.5,770.833 1799.5,771.5C 1799.1,772.525 1798.44,772.692 1797.5,772C 1711.58,682.58 1626.24,592.746 1541.5,502.5 Z"/></g>
<g><path style="opacity:0.965" fill="#3d2e27" d="M 1495.5,502.5 C 1499.7,502.183 1503.7,502.517 1507.5,503.5C 1504.75,503.187 1502.09,503.52 1499.5,504.5C 1566.89,574.551 1633.89,644.884 1700.5,715.5C 1700.5,715.833 1700.5,716.167 1700.5,716.5C 1632.19,645.193 1563.86,573.86 1495.5,502.5 Z"/></g>
<g><path style="opacity:0.965" fill="#2f2623" d="M 800.5,509.5 C 819.833,529.167 839.167,548.833 858.5,568.5C 858.5,568.833 858.5,569.167 858.5,569.5C 838.473,550.14 818.806,530.473 799.5,510.5C 799.5,509.833 799.833,509.5 800.5,509.5 Z"/></g>
<g><path style="opacity:0.871" fill="#40332c" d="M 1079.5,503.5 C 1085.31,502.51 1091.31,502.177 1097.5,502.5C 1095.37,503.314 1093.04,503.814 1090.5,504C 1116.67,530.833 1142.83,557.667 1169,584.5C 1169.5,576.173 1169.67,567.84 1169.5,559.5C 1170.5,575.325 1170.83,591.325 1170.5,607.5C 1170.17,607.5 1169.83,607.5 1169.5,607.5C 1169.67,600.492 1169.5,593.492 1169,586.5C 1142.17,559 1115.33,531.5 1088.5,504C 1085.52,503.502 1082.52,503.335 1079.5,503.5 Z"/></g>
<g><path style="opacity:0.871" fill="#372b25" d="M 1227.5,483.5 C 1229.38,483.229 1230.71,483.896 1231.5,485.5C 1323.8,581.631 1416.3,677.631 1509,773.5C 1525,757.5 1541,741.5 1557,725.5C 1557.67,724.5 1557.67,723.5 1557,722.5C 1487,649.833 1417,577.167 1347,504.5C 1343.9,500.893 1340.4,497.893 1336.5,495.5C 1337.51,494.326 1338.85,493.66 1340.5,493.5C 1340.39,494.117 1340.06,494.617 1339.5,495C 1412.67,570.833 1485.83,646.667 1559,722.5C 1559.67,723.5 1559.67,724.5 1559,725.5C 1542.32,742.347 1525.49,759.014 1508.5,775.5C 1414.87,678.199 1321.2,580.866 1227.5,483.5 Z"/></g>
<g><path style="opacity:1" fill="#b9b0a8" d="M 1313.5,501.5 C 1307.14,503.601 1300.47,504.601 1293.5,504.5C 1288.26,504.608 1283.26,503.942 1278.5,502.5C 1290.19,502.721 1301.86,502.388 1313.5,501.5 Z"/></g>
<g><path style="opacity:1" fill="#d57130" d="M 1218.5,535.5 C 1279.17,597.167 1339.83,658.833 1400.5,720.5C 1401.88,723.394 1403.88,725.894 1406.5,728C 1390.5,744 1374.5,760 1358.5,776C 1357.5,776.667 1356.5,776.667 1355.5,776C 1309.97,728.967 1264.3,682.134 1218.5,635.5C 1218.5,602.167 1218.5,568.833 1218.5,535.5 Z"/></g>
<g><path style="opacity:1" fill="#2e2522" d="M 760.5,773.5 C 760.5,773.167 760.5,772.833 760.5,772.5C 776.132,756.368 791.965,740.368 808,724.5C 808.667,723.833 808.667,723.167 808,722.5C 750.667,665.167 693.333,607.833 636,550.5C 619.5,567 603,583.5 586.5,600C 614.035,627.368 641.368,654.868 668.5,682.5C 668.5,682.833 668.5,683.167 668.5,683.5C 640.368,655.868 612.368,628.035 584.5,600C 601.667,582.833 618.833,565.667 636,548.5C 694,606.5 752,664.5 810,722.5C 810.667,723.167 810.667,723.833 810,724.5C 793.632,741.035 777.132,757.368 760.5,773.5 Z"/></g>
<g><path style="opacity:1" fill="#d57130" d="M 760.5,772.5 C 759.761,772.631 759.094,772.464 758.5,772C 728.632,741.965 698.632,712.132 668.5,682.5C 641.368,654.868 614.035,627.368 586.5,600C 603,583.5 619.5,567 636,550.5C 693.333,607.833 750.667,665.167 808,722.5C 808.667,723.167 808.667,723.833 808,724.5C 791.965,740.368 776.132,756.368 760.5,772.5 Z"/></g>
<g><path style="opacity:0.071" fill="#483327" d="M 929.5,538.5 C 941.865,549.865 953.532,561.865 964.5,574.5C 964.5,574.833 964.5,575.167 964.5,575.5C 952.14,563.806 940.14,551.806 928.5,539.5C 929.167,539.5 929.5,539.167 929.5,538.5 Z"/></g>
<g><path style="opacity:0.761" fill="#4e372a" d="M 858.5,568.5 C 868.555,577.553 877.888,587.22 886.5,597.5C 886.167,597.5 885.833,597.5 885.5,597.5C 875.8,588.801 866.8,579.467 858.5,569.5C 858.5,569.167 858.5,568.833 858.5,568.5 Z"/></g>
<g><path style="opacity:0.965" fill="#352924" d="M 1218.5,482.5 C 1219.17,482.5 1219.5,482.833 1219.5,483.5C 1219.33,500.503 1219.5,517.503 1220,534.5C 1280.37,596.035 1340.54,657.702 1400.5,719.5C 1400.5,719.833 1400.5,720.167 1400.5,720.5C 1339.83,658.833 1279.17,597.167 1218.5,535.5C 1218.5,517.833 1218.5,500.167 1218.5,482.5 Z"/></g>
<g><path style="opacity:0.965" fill="#2d2523" d="M 964.5,574.5 C 981.833,591.167 998.833,608.167 1015.5,625.5C 1015.5,625.833 1015.5,626.167 1015.5,626.5C 998.167,609.833 981.167,592.833 964.5,575.5C 964.5,575.167 964.5,574.833 964.5,574.5 Z"/></g>
<g><path style="opacity:0.965" fill="#2e2622" d="M 885.5,597.5 C 885.833,597.5 886.167,597.5 886.5,597.5C 906.5,616.833 926.167,636.5 945.5,656.5C 945.5,656.833 945.5,657.167 945.5,657.5C 925.167,637.833 905.167,617.833 885.5,597.5 Z"/></g>
<g><path style="opacity:1" fill="#d57130" d="M 612.5,778.5 C 578.584,746.085 545.084,713.085 512,679.5C 511.333,678.833 511.333,678.167 512,677.5C 518.097,671.909 523.597,665.909 528.5,659.5C 538.632,649.869 548.632,640.036 558.5,630C 559.5,629.333 560.5,629.333 561.5,630C 594.333,662.833 627.167,695.667 660,728.5C 660.667,729.167 660.667,729.833 660,730.5C 643.965,746.368 628.132,762.368 612.5,778.5 Z"/></g>
<g><path style="opacity:0.871" fill="#2e2623" d="M 612.5,779.5 C 612.5,779.167 612.5,778.833 612.5,778.5C 628.132,762.368 643.965,746.368 660,730.5C 660.667,729.833 660.667,729.167 660,728.5C 627.167,695.667 594.333,662.833 561.5,630C 560.5,629.333 559.5,629.333 558.5,630C 548.632,640.036 538.632,649.869 528.5,659.5C 528.167,659.5 527.833,659.5 527.5,659.5C 537.631,648.868 547.965,638.368 558.5,628C 559.5,627.333 560.5,627.333 561.5,628C 595,661.5 628.5,695 662,728.5C 662.667,729.167 662.667,729.833 662,730.5C 645.632,747.035 629.132,763.368 612.5,779.5 Z"/></g>
<g><path style="opacity:1" fill="#cec3b8" d="M 1209.5,635.5 C 1205.43,639.447 1200.43,641.114 1194.5,640.5C 1188.66,640.999 1183.66,639.332 1179.5,635.5C 1189.35,634.258 1199.35,634.258 1209.5,635.5 Z"/></g>
<g><path style="opacity:0.761" fill="#4e372a" d="M 774.5,640.5 C 785.221,650.22 795.221,660.553 804.5,671.5C 804.167,671.5 803.833,671.5 803.5,671.5C 793.134,662.134 783.467,652.134 774.5,641.5C 774.5,641.167 774.5,640.833 774.5,640.5 Z"/></g>
<g><path style="opacity:0.071" fill="#493428" d="M 1015.5,625.5 C 1028.2,637.198 1040.2,649.531 1051.5,662.5C 1051.5,662.833 1051.5,663.167 1051.5,663.5C 1038.78,651.781 1026.78,639.448 1015.5,626.5C 1015.5,626.167 1015.5,625.833 1015.5,625.5 Z"/></g>
<g><path style="opacity:0.965" fill="#3e2f26" d="M 1217.5,636.5 C 1217.5,635.833 1217.83,635.5 1218.5,635.5C 1264.3,682.134 1309.97,728.967 1355.5,776C 1356.5,776.667 1357.5,776.667 1358.5,776C 1374.5,760 1390.5,744 1406.5,728C 1403.88,725.894 1401.88,723.394 1400.5,720.5C 1400.5,720.167 1400.5,719.833 1400.5,719.5C 1404.05,721.857 1406.55,724.857 1408,728.5C 1391.68,745.985 1374.85,762.985 1357.5,779.5C 1310.81,731.813 1264.15,684.146 1217.5,636.5 Z"/></g>
<g><path style="opacity:0.761" fill="#4f382a" d="M 945.5,656.5 C 955.167,665.5 964.5,674.833 973.5,684.5C 972.833,684.5 972.5,684.833 972.5,685.5C 962.8,676.801 953.8,667.467 945.5,657.5C 945.5,657.167 945.5,656.833 945.5,656.5 Z"/></g>
<g><path style="opacity:0.965" fill="#2e2623" d="M 1051.5,662.5 C 1070.67,680.839 1089.34,699.673 1107.5,719C 1091.21,736.293 1074.54,753.293 1057.5,770C 1056.56,770.692 1055.9,770.525 1055.5,769.5C 1055.5,768.833 1055.83,768.5 1056.5,768.5C 1073.34,752.494 1089.67,735.994 1105.5,719C 1087.68,700.349 1069.68,681.849 1051.5,663.5C 1051.5,663.167 1051.5,662.833 1051.5,662.5 Z"/></g>
<g><path style="opacity:0.965" fill="#2f2623" d="M 803.5,671.5 C 803.833,671.5 804.167,671.5 804.5,671.5C 826.167,692.5 847.5,713.833 868.5,735.5C 868.5,735.833 868.5,736.167 868.5,736.5C 846.5,715.167 824.833,693.5 803.5,671.5 Z"/></g>
<g><path style="opacity:0.761" fill="#4c362a" d="M 668.5,682.5 C 698.632,712.132 728.632,741.965 758.5,772C 759.094,772.464 759.761,772.631 760.5,772.5C 760.5,772.833 760.5,773.167 760.5,773.5C 760.217,774.289 759.717,774.956 759,775.5C 728.966,744.633 698.799,713.966 668.5,683.5C 668.5,683.167 668.5,682.833 668.5,682.5 Z"/></g>
<g><path style="opacity:0.965" fill="#2e2622" d="M 973.5,684.5 C 993.167,704.5 1012.83,724.5 1032.5,744.5C 1032.5,744.833 1032.5,745.167 1032.5,745.5C 1012.17,725.833 992.167,705.833 972.5,685.5C 972.5,684.833 972.833,684.5 973.5,684.5 Z"/></g>
<g><path style="opacity:0.965" fill="#372b25" d="M 982.5,434.5 C 983.167,434.5 983.5,434.833 983.5,435.5C 984.167,435.5 984.5,435.833 984.5,436.5C 985.604,438.389 986.937,440.055 988.5,441.5C 990.326,443.147 991.66,445.147 992.5,447.5C 949.188,403.187 905.855,358.854 862.5,314.5C 846.181,330.319 830.014,346.319 814,362.5C 813.333,363.167 813.333,363.833 814,364.5C 942.667,497.167 1071.33,629.833 1200,762.5C 1201.11,764.329 1202.61,765.163 1204.5,765C 1220.68,748.986 1236.68,732.819 1252.5,716.5C 1227.78,691.115 1203.45,665.449 1179.5,639.5C 1179.5,639.167 1179.5,638.833 1179.5,638.5C 1205.01,663.842 1230.01,689.676 1254.5,716C 1238.21,733.293 1221.54,750.293 1204.5,767C 1203.83,767.667 1203.17,767.667 1202.5,767C 1072.33,632.833 942.167,498.667 812,364.5C 811.333,363.833 811.333,363.167 812,362.5C 828.681,345.653 845.514,328.986 862.5,312.5C 902.159,353.493 942.159,394.159 982.5,434.5 Z"/></g>
<g><path style="opacity:0.071" fill="#483328" d="M 527.5,659.5 C 527.833,659.5 528.167,659.5 528.5,659.5C 523.597,665.909 518.097,671.909 512,677.5C 511.333,678.167 511.333,678.833 512,679.5C 545.084,713.085 578.584,746.085 612.5,778.5C 612.5,778.833 612.5,779.167 612.5,779.5C 612.103,780.525 611.437,780.692 610.5,780C 576.972,746.139 543.139,712.639 509,679.5C 514.151,672.171 520.318,665.504 527.5,659.5 Z"/></g>
<g><path style="opacity:0.286" fill="#292221" d="M 1700.5,715.5 C 1702.76,716.562 1703.92,718.228 1704,720.5C 1687.5,737 1671,753.5 1654.5,770C 1650.18,767.869 1646.52,764.702 1643.5,760.5C 1643.83,760.5 1644.17,760.5 1644.5,760.5C 1647.3,762.795 1649.96,765.295 1652.5,768C 1653.17,768.667 1653.83,768.667 1654.5,768C 1670.33,752.167 1686.17,736.333 1702,720.5C 1702.3,718.934 1701.8,717.601 1700.5,716.5C 1700.5,716.167 1700.5,715.833 1700.5,715.5 Z"/></g>
<g><path style="opacity:0.761" fill="#4e372a" d="M 1032.5,744.5 C 1040.83,752.167 1048.83,760.167 1056.5,768.5C 1055.83,768.5 1055.5,768.833 1055.5,769.5C 1047.13,762.133 1039.47,754.133 1032.5,745.5C 1032.5,745.167 1032.5,744.833 1032.5,744.5 Z"/></g>
<g><path style="opacity:0.871" fill="#4c362a" d="M 1836.5,732.5 C 1837.17,732.5 1837.83,732.5 1838.5,732.5C 1825.83,745.833 1812.83,758.833 1799.5,771.5C 1799.5,770.833 1799.17,770.5 1798.5,770.5C 1810.83,757.5 1823.5,744.833 1836.5,732.5 Z"/></g>
<g><path style="opacity:1" fill="#0d0c0d" d="M 942.5,870.5 C 954.895,870.082 967.228,870.582 979.5,872C 980.728,872.779 981.728,873.779 982.5,875C 1001.19,929.405 1018.86,984.072 1035.5,1039C 1024.23,1040.58 1012.89,1040.91 1001.5,1040C 997.509,1039.59 994.342,1037.75 992,1034.5C 991.204,1024.15 988.037,1014.65 982.5,1006C 966.201,1006.35 949.867,1006.85 933.5,1007.5C 931.039,1018.22 928.373,1028.88 925.5,1039.5C 912.163,1039.67 898.829,1039.5 885.5,1039C 902.727,983.15 920.061,927.317 937.5,871.5C 939.415,871.784 941.081,871.451 942.5,870.5 Z M 957.5,924.5 C 958.376,924.369 959.043,924.702 959.5,925.5C 966.808,941.066 971.475,957.399 973.5,974.5C 963.494,974.666 953.494,974.5 943.5,974C 948.553,957.621 953.22,941.121 957.5,924.5 Z"/></g>
<g><path style="opacity:1" fill="#0d0c0d" d="M 1083.5,869.5 C 1097.88,869.574 1112.21,870.408 1126.5,872C 1163.16,876.996 1179,897.83 1174,934.5C 1171.25,960.246 1157.41,976.412 1132.5,983C 1119.91,985.129 1107.25,986.629 1094.5,987.5C 1093.79,989.776 1093.29,992.109 1093,994.5C 1092.5,1009.16 1092.33,1023.83 1092.5,1038.5C 1078.83,1041.1 1065.16,1041.1 1051.5,1038.5C 1051.89,982.834 1052.22,927.167 1052.5,871.5C 1063.01,871.145 1073.34,870.478 1083.5,869.5 Z M 1093.5,904.5 C 1101.17,904.334 1108.84,904.5 1116.5,905C 1123.28,905.959 1128.11,909.459 1131,915.5C 1134.58,924.614 1134.25,933.614 1130,942.5C 1126.39,948.063 1121.22,951.23 1114.5,952C 1107.51,952.5 1100.51,952.666 1093.5,952.5C 1093.5,936.5 1093.5,920.5 1093.5,904.5 Z"/></g>
<g><path style="opacity:1" fill="#0f0d0e" d="M -0.5,987.5 C -0.5,955.5 -0.5,923.5 -0.5,891.5C 0.382643,884.998 1.04931,878.332 1.5,871.5C 20.4896,870.493 39.4896,870.326 58.5,871C 108.309,871.463 128.975,896.13 120.5,945C 110.516,970.957 91.5162,984.624 63.5,986C 56.5,986.333 49.5,986.667 42.5,987C 41.6919,987.308 41.0253,987.808 40.5,988.5C 39.5143,1005.45 39.181,1022.45 39.5,1039.5C 28.9199,1039.77 18.4199,1040.43 8,1041.5C 5.66667,1040.83 3.33333,1040.17 1,1039.5C 0.831598,1022 0.331598,1004.66 -0.5,987.5 Z M 44.5,904.5 C 51.8086,905.184 59.1419,905.684 66.5,906C 78.9341,910.568 83.4341,919.401 80,932.5C 77.342,946.84 68.6753,953.84 54,953.5C 49.3618,953.73 45.0285,952.73 41,950.5C 39.3743,938.263 39.0409,925.929 40,913.5C 40.3333,911.167 40.6667,908.833 41,906.5C 42.3024,905.915 43.469,905.249 44.5,904.5 Z"/></g>
<g><path style="opacity:1" fill="#0d0c0d" d="M 414.5,870.5 C 436.168,870.495 459.501,870.995 484.5,872C 522.482,876.313 545.648,897.147 554,934.5C 559.669,962.825 554.335,988.825 538,1012.5C 526.545,1025.49 512.379,1034.32 495.5,1039C 488.534,1039.15 481.7,1039.98 475,1041.5C 454.585,1040.08 434.085,1039.41 413.5,1039.5C 413.171,983.095 413.504,926.762 414.5,870.5 Z M 453.5,904.5 C 492.507,899.525 512.84,916.525 514.5,955.5C 513.565,995.254 493.565,1012.59 454.5,1007.5C 452.94,973.169 452.607,938.836 453.5,904.5 Z"/></g>
<g><path style="opacity:0.997" fill="#0a0a0a" d="M 1330.5,1035.5 C 1330.5,1036.83 1330.5,1038.17 1330.5,1039.5C 1328.83,1039.5 1327.17,1039.5 1325.5,1039.5C 1313.5,1039.5 1301.5,1039.5 1289.5,1039.5C 1286.34,1028.54 1283.34,1017.54 1280.5,1006.5C 1263.83,1006.5 1247.17,1006.5 1230.5,1006.5C 1226.89,1017.33 1223.89,1028.33 1221.5,1039.5C 1207.5,1039.5 1193.5,1039.5 1179.5,1039.5C 1197.69,984.097 1216.19,928.764 1235,873.5C 1241.6,872.187 1248.43,871.52 1255.5,871.5C 1262.17,871.667 1268.83,871.833 1275.5,872C 1278.28,875.044 1280.45,878.544 1282,882.5C 1298.51,933.51 1314.67,984.51 1330.5,1035.5 Z M 1255.5,924.5 C 1256.59,924.62 1257.25,925.287 1257.5,926.5C 1261.68,942.216 1266.01,957.883 1270.5,973.5C 1260.52,974.666 1250.52,974.832 1240.5,974C 1242.1,964.088 1244.27,954.255 1247,944.5C 1249.04,937.43 1251.87,930.763 1255.5,924.5 Z"/></g>
<g><path style="opacity:0.995" fill="#0a0a0a" d="M 1332.5,871.5 C 1376.83,871.5 1421.17,871.5 1465.5,871.5C 1465.59,882.85 1465.26,894.183 1464.5,905.5C 1449.5,905.5 1434.5,905.5 1419.5,905.5C 1419.5,950.167 1419.5,994.833 1419.5,1039.5C 1406.17,1039.5 1392.83,1039.5 1379.5,1039.5C 1379.5,994.833 1379.5,950.167 1379.5,905.5C 1363.83,905.5 1348.17,905.5 1332.5,905.5C 1329.83,894.162 1329.83,882.829 1332.5,871.5 Z"/></g>
<g><path style="opacity:1" fill="#0d0d0d" d="M 2020.5,870.5 C 2031.52,870.381 2042.52,870.714 2053.5,871.5C 2053.5,916.833 2053.5,962.167 2053.5,1007.5C 2075.49,1008.19 2097.49,1008.52 2119.5,1008.5C 2120.34,1018.81 2120.67,1029.14 2120.5,1039.5C 2085.17,1039.5 2049.83,1039.5 2014.5,1039.5C 2014.33,984.499 2014.5,929.499 2015,874.5C 2016.5,872.531 2018.33,871.198 2020.5,870.5 Z"/></g>
<g><path style="opacity:1" fill="#0f0d0e" d="M 2383.5,1039.5 C 2383.5,1039.83 2383.5,1040.17 2383.5,1040.5C 2369.15,1040.42 2354.82,1039.92 2340.5,1039C 2336.07,1028.88 2332.74,1018.38 2330.5,1007.5C 2313.84,1006.33 2297.18,1006.17 2280.5,1007C 2278.41,1018.37 2275.07,1029.37 2270.5,1040C 2256.82,1040.53 2243.15,1040.19 2229.5,1039C 2248.33,984.181 2266.16,929.015 2283,873.5C 2285.38,872.234 2288.05,871.568 2291,871.5C 2301.49,870.542 2311.99,870.375 2322.5,871C 2326.02,871.504 2328.52,873.337 2330,876.5C 2345.2,923.772 2360.2,971.105 2375,1018.5C 2377.76,1025.64 2380.6,1032.64 2383.5,1039.5 Z M 2305.5,924.5 C 2310.77,940.813 2315.77,957.313 2320.5,974C 2310.84,974.5 2301.17,974.666 2291.5,974.5C 2293.99,957.192 2298.66,940.525 2305.5,924.5 Z"/></g>
<g><path style="opacity:1" fill="#0e0d0e" d="M 128.5,871.5 C 173.5,871.5 218.5,871.5 263.5,871.5C 263.5,882.833 263.5,894.167 263.5,905.5C 247.5,905.5 231.5,905.5 215.5,905.5C 215.5,950.167 215.5,994.833 215.5,1039.5C 202.167,1039.5 188.833,1039.5 175.5,1039.5C 175.667,995.499 175.5,951.499 175,907.5C 174.5,907 174,906.5 173.5,906C 158.76,905.915 144.093,905.082 129.5,903.5C 128.501,892.854 128.168,882.187 128.5,871.5 Z"/></g>
<g><path style="opacity:1" fill="#0d0c0d" d="M 616.5,871.5 C 632.195,871.229 647.862,871.563 663.5,872.5C 665.611,883.671 668.445,894.671 672,905.5C 683.736,940.042 695.07,974.709 706,1009.5C 709.12,1019.31 711.286,1029.31 712.5,1039.5C 703.94,1040.02 695.44,1040.68 687,1041.5C 680.541,1041.68 675.207,1039.35 671,1034.5C 667.545,1025.34 664.711,1016.01 662.5,1006.5C 654.508,1006.07 646.508,1005.74 638.5,1005.5C 630.377,1005.24 622.377,1006.08 614.5,1008C 613.667,1008.83 612.833,1009.67 612,1010.5C 610.368,1020.57 606.868,1029.9 601.5,1038.5C 589.185,1039.5 576.851,1039.83 564.5,1039.5C 565.897,1028.91 568.397,1018.58 572,1008.5C 587.547,963.028 602.38,917.361 616.5,871.5 Z M 637.5,927.5 C 640.234,930.756 642.4,934.423 644,938.5C 648.034,950.139 651.201,961.973 653.5,974C 643.506,974.5 633.506,974.666 623.5,974.5C 626.155,958.211 630.821,942.544 637.5,927.5 Z"/></g>
<g><path style="opacity:1" fill="#0f0d0e" d="M 730.5,871.5 C 747.526,871.206 764.526,871.706 781.5,873C 797.715,902.596 813.549,932.429 829,962.5C 830,963.5 831,964.5 832,965.5C 832.439,945.332 832.272,925.165 831.5,905C 831.33,893.761 831.997,882.595 833.5,871.5C 845.167,871.5 856.833,871.5 868.5,871.5C 869.968,893.801 870.635,916.134 870.5,938.5C 870.202,972.176 869.535,1005.84 868.5,1039.5C 854.918,1039.84 841.418,1039.84 828,1039.5C 824.214,1029.93 819.88,1020.59 815,1011.5C 801.157,986.483 787.824,961.149 775,935.5C 773.374,932.872 771.374,930.539 769,928.5C 767.912,965.159 767.412,1001.83 767.5,1038.5C 755.303,1041.15 743.137,1041.15 731,1038.5C 730.5,982.834 730.333,927.168 730.5,871.5 Z"/></g>
<g><path style="opacity:1" fill="#0f0d0e" d="M 1477.5,871.5 C 1505.84,871.287 1534.18,871.621 1562.5,872.5C 1562.94,881.942 1562.27,891.276 1560.5,900.5C 1553.83,900.5 1547.17,900.5 1540.5,900.5C 1538.18,937.591 1538.51,974.591 1541.5,1011.5C 1548.51,1011.33 1555.51,1011 1562.5,1010.5C 1562.5,1020.17 1562.5,1029.83 1562.5,1039.5C 1534.16,1039.57 1505.83,1039.24 1477.5,1038.5C 1477.5,1029.5 1477.5,1020.5 1477.5,1011.5C 1484.84,1011.28 1492.17,1010.94 1499.5,1010.5C 1499.5,973.833 1499.5,937.167 1499.5,900.5C 1492.5,900.227 1485.5,899.894 1478.5,899.5C 1478.69,890.139 1478.35,880.805 1477.5,871.5 Z"/></g>
<g><path style="opacity:1" fill="#0f0d0e" d="M 1653.5,871.5 C 1669.51,871.167 1685.51,871.501 1701.5,872.5C 1713.02,898.864 1724.52,925.197 1736,951.5C 1738.84,947.828 1741.17,943.828 1743,939.5C 1751.61,916.939 1760.78,894.605 1770.5,872.5C 1786.15,871.501 1801.82,871.167 1817.5,871.5C 1817.5,927.833 1817.5,984.167 1817.5,1040.5C 1804.18,1039.86 1790.84,1039.53 1777.5,1039.5C 1777.67,1005.5 1777.5,971.498 1777,937.5C 1767.39,954.732 1759.39,972.732 1753,991.5C 1751.33,994.5 1749.67,997.5 1748,1000.5C 1739.58,1001.65 1731.08,1001.82 1722.5,1001C 1721.79,999.745 1720.96,998.579 1720,997.5C 1712.78,981.059 1706.11,964.392 1700,947.5C 1697.92,943.007 1695.59,938.674 1693,934.5C 1692.5,969.498 1692.33,1004.5 1692.5,1039.5C 1679.83,1039.5 1667.17,1039.5 1654.5,1039.5C 1654.3,983.499 1653.96,927.499 1653.5,871.5 Z"/></g>
<g><path style="opacity:1" fill="#0d0c0d" d="M 1848.5,871.5 C 1862.5,871.5 1876.5,871.5 1890.5,871.5C 1890.74,903.341 1890.41,935.174 1889.5,967C 1889.47,977.324 1890.64,987.49 1893,997.5C 1897.71,1007.53 1905.71,1012.2 1917,1011.5C 1931.2,1010.97 1939.54,1003.64 1942,989.5C 1943.19,950.19 1944.03,910.856 1944.5,871.5C 1955.84,871.333 1967.17,871.5 1978.5,872C 1981.1,872.935 1982.6,874.768 1983,877.5C 1982.39,903.656 1982.55,929.822 1983.5,956C 1983.78,970.239 1982.94,984.405 1981,998.5C 1975.9,1019.6 1963.07,1033.77 1942.5,1041C 1911,1052.39 1883.83,1045.89 1861,1021.5C 1854.37,1012.63 1850.71,1002.63 1850,991.5C 1849.02,981.856 1848.35,972.19 1848,962.5C 1848.12,932.171 1848.29,901.838 1848.5,871.5 Z"/></g>
<g><path style="opacity:1" fill="#0d0c0d" d="M 2133.5,871.5 C 2162.84,871.167 2192.17,871.5 2221.5,872.5C 2220.53,881.446 2220.19,890.446 2220.5,899.5C 2213.5,899.773 2206.5,900.106 2199.5,900.5C 2198.4,934.822 2198.23,969.155 2199,1003.5C 2198.95,1006.61 2200.11,1009.11 2202.5,1011C 2208.49,1011.5 2214.49,1011.67 2220.5,1011.5C 2220.44,1020.51 2220.11,1029.51 2219.5,1038.5C 2190.88,1040.79 2162.22,1041.12 2133.5,1039.5C 2133.38,1029.78 2134.05,1020.11 2135.5,1010.5C 2141.11,1011.62 2146.78,1011.79 2152.5,1011C 2154.33,1010.5 2155.5,1009.33 2156,1007.5C 2156.5,971.835 2156.67,936.168 2156.5,900.5C 2148.82,900.477 2141.15,900.143 2133.5,899.5C 2133.5,890.167 2133.5,880.833 2133.5,871.5 Z"/></g>
<g><path style="opacity:0.995" fill="#0a090a" d="M 315.5,997.5 C 316.496,1010.99 316.829,1024.66 316.5,1038.5C 305.342,1039.15 294.175,1039.82 283,1040.5C 281.615,1040.49 280.449,1040.15 279.5,1039.5C 279.238,1025.47 279.571,1011.47 280.5,997.5C 292.167,997.5 303.833,997.5 315.5,997.5 Z"/></g>
<g><path style="opacity:1" fill="#988a81" d="M 315.5,997.5 C 303.833,997.5 292.167,997.5 280.5,997.5C 279.571,1011.47 279.238,1025.47 279.5,1039.5C 278.883,1039.39 278.383,1039.06 278,1038.5C 277.219,1024.47 277.386,1010.47 278.5,996.5C 291.011,996.171 303.345,996.505 315.5,997.5 Z"/></g>
<g><path style="opacity:1" fill="#a08470" d="M 1330.5,1035.5 C 1332.31,1036.92 1332.97,1038.92 1332.5,1041.5C 1329.93,1041.28 1327.6,1040.61 1325.5,1039.5C 1327.17,1039.5 1328.83,1039.5 1330.5,1039.5C 1330.5,1038.17 1330.5,1036.83 1330.5,1035.5 Z"/></g>
<g><path style="opacity:1" fill="#d2823d" d="M 1928.5,1125.5 C 1931.88,1125.26 1935.05,1125.92 1938,1127.5C 1938.77,1168.77 1939.27,1209.77 1939.5,1250.5C 1932.95,1251.62 1927.28,1249.96 1922.5,1245.5C 1894.46,1261.57 1876.63,1253.9 1869,1222.5C 1866.57,1208.99 1867.23,1195.66 1871,1182.5C 1878.93,1164.45 1892.77,1156.61 1912.5,1159C 1916.15,1159.99 1919.81,1160.83 1923.5,1161.5C 1923.17,1150.15 1923.5,1138.81 1924.5,1127.5C 1926.03,1127.01 1927.36,1126.34 1928.5,1125.5 Z M 1905.5,1173.5 C 1912.23,1173.07 1918.06,1175.07 1923,1179.5C 1925.78,1196.16 1925.78,1212.83 1923,1229.5C 1897.32,1244.57 1884.15,1237.07 1883.5,1207C 1882.62,1195.47 1886.29,1185.8 1894.5,1178C 1898.05,1175.88 1901.72,1174.38 1905.5,1173.5 Z"/></g>
<g><path style="opacity:1" fill="#c88750" d="M 608.5,1126.5 C 614.5,1126.5 620.5,1126.5 626.5,1126.5C 626.44,1165.18 626.607,1203.84 627,1242.5C 626.058,1248.1 622.725,1250.77 617,1250.5C 614.876,1249.77 612.709,1249.11 610.5,1248.5C 609.812,1242.95 609.146,1237.45 608.5,1232C 608.552,1197.59 608.552,1162.43 608.5,1126.5 Z"/></g>
<g><path style="opacity:1" fill="#d48a52" d="M 1623.5,1126.5 C 1628.83,1126.5 1634.17,1126.5 1639.5,1126.5C 1639.5,1167.5 1639.5,1208.5 1639.5,1249.5C 1633.84,1249.91 1628.17,1250.24 1622.5,1250.5C 1622.35,1208.67 1622.68,1167.33 1623.5,1126.5 Z"/></g>
<g><path style="opacity:0.992" fill="#d28343" d="M 733.5,1128.5 C 747.574,1127.25 760.408,1130.58 772,1138.5C 773.696,1144.44 773.862,1150.44 772.5,1156.5C 759.161,1148.75 744.828,1145.58 729.5,1147C 717.935,1150.23 710.768,1157.73 708,1169.5C 704.18,1186.81 705.18,1203.81 711,1220.5C 717.065,1233.45 727.232,1238.95 741.5,1237C 752.143,1235.4 762.143,1231.9 771.5,1226.5C 772.825,1231.1 773.825,1235.77 774.5,1240.5C 758.681,1253.16 741.015,1256.66 721.5,1251C 701.537,1240.61 690.37,1224.11 688,1201.5C 685.628,1182.02 689.628,1164.02 700,1147.5C 708.831,1136.84 719.998,1130.51 733.5,1128.5 Z"/></g>
<g><path style="opacity:0.997" fill="#d58848" d="M 1519.5,1127.5 C 1545.84,1128.1 1562.67,1141.1 1570,1166.5C 1577.68,1192.05 1574.02,1215.72 1559,1237.5C 1541.99,1256.24 1522.15,1260.07 1499.5,1249C 1481.56,1233.58 1472.23,1213.91 1471.5,1190C 1471.73,1166.58 1481.06,1147.91 1499.5,1134C 1505.89,1130.58 1512.56,1128.41 1519.5,1127.5 Z M 1522.5,1144.5 C 1538.46,1145.61 1548.62,1153.95 1553,1169.5C 1556.27,1184.34 1555.93,1199.01 1552,1213.5C 1546,1233.91 1532.83,1241.41 1512.5,1236C 1502.79,1231.29 1496.29,1223.79 1493,1213.5C 1488.88,1199.25 1488.55,1184.91 1492,1170.5C 1497.13,1155.86 1507.3,1147.19 1522.5,1144.5 Z"/></g>
<g><path style="opacity:1" fill="#d28a54" d="M 2089.5,1156.5 C 2090.62,1148.71 2088.46,1142.04 2083,1136.5C 2082,1136.83 2081,1137.17 2080,1137.5C 2079.26,1136.43 2078.26,1135.76 2077,1135.5C 2075.58,1136.21 2074.24,1136.54 2073,1136.5C 2062.49,1134.83 2051.66,1134.33 2040.5,1135C 2037.37,1135.39 2034.37,1136.23 2031.5,1137.5C 2030.82,1137.14 2030.15,1136.8 2029.5,1136.5C 2037.11,1130.38 2045.94,1127.38 2056,1127.5C 2069.74,1127.3 2081.74,1131.63 2092,1140.5C 2094.49,1145.25 2094.99,1150.25 2093.5,1155.5C 2092.04,1155.43 2090.71,1155.77 2089.5,1156.5 Z"/></g>
<g><path style="opacity:0.994" fill="#d28343" d="M 167.5,1128.5 C 182.093,1128.97 195.76,1132.81 208.5,1140C 209.93,1145.37 210.597,1150.87 210.5,1156.5C 208.418,1156.47 206.584,1157.14 205,1158.5C 191.974,1147.87 177.141,1144.03 160.5,1147C 148.261,1152.24 140.761,1161.41 138,1174.5C 135.622,1188.98 136.288,1203.31 140,1217.5C 143.514,1227.18 150.347,1233.01 160.5,1235C 171.141,1236.72 181.808,1236.89 192.5,1235.5C 193.236,1225.84 193.903,1216.18 194.5,1206.5C 185.693,1206.41 177.026,1205.24 168.5,1203C 167.383,1199.93 167.216,1196.76 168,1193.5C 169.319,1191.51 171.152,1190.35 173.5,1190C 185.249,1189.07 196.915,1189.57 208.5,1191.5C 209.292,1208.16 209.458,1224.83 209,1241.5C 184.892,1258.55 160.726,1258.72 136.5,1242C 120.618,1222.98 114.784,1201.14 119,1176.5C 124.524,1149.47 140.691,1133.47 167.5,1128.5 Z"/></g>
<g><path style="opacity:1" fill="#d2a583" d="M 1604.5,1134.5 C 1603.77,1135.81 1602.93,1137.14 1602,1138.5C 1600.68,1138.2 1599.18,1138.03 1597.5,1138C 1596.64,1135.27 1595.81,1135.1 1595,1137.5C 1594.67,1136.83 1594.33,1136.17 1594,1135.5C 1592.57,1136.21 1591.07,1136.38 1589.5,1136C 1589.62,1137.27 1589.95,1138.6 1590.5,1140C 1588.88,1140.85 1588.54,1141.85 1589.5,1143C 1588.91,1143.46 1588.24,1143.63 1587.5,1143.5C 1584.99,1139.46 1584.99,1135.29 1587.5,1131C 1592.83,1129.49 1598.16,1129.33 1603.5,1130.5C 1603.43,1131.96 1603.77,1133.29 1604.5,1134.5 Z"/></g>
<g><path style="opacity:0.993" fill="#d28343" d="M 1228.5,1136.5 C 1227.84,1137.62 1227.51,1138.95 1227.5,1140.5C 1228.15,1146.82 1228.65,1153.15 1229,1159.5C 1236.68,1161.53 1244.51,1162.86 1252.5,1163.5C 1253.48,1166.62 1253.81,1169.96 1253.5,1173.5C 1245.86,1174.31 1238.2,1174.65 1230.5,1174.5C 1229.51,1191.82 1229.35,1209.16 1230,1226.5C 1230.35,1229.58 1231.01,1232.58 1232,1235.5C 1238.01,1237.11 1244.17,1237.94 1250.5,1238C 1252.63,1238.54 1254.63,1239.38 1256.5,1240.5C 1255.04,1246.46 1251.37,1250.3 1245.5,1252C 1235.38,1253.76 1226.55,1251.26 1219,1244.5C 1217.2,1240.93 1215.7,1237.26 1214.5,1233.5C 1215.05,1229.71 1215.38,1226.21 1215.5,1223C 1214.67,1207.57 1214.17,1192.07 1214,1176.5C 1211.52,1174.36 1209.02,1172.36 1206.5,1170.5C 1207.87,1170.66 1209.21,1170.49 1210.5,1170C 1209.51,1167.83 1208.18,1166 1206.5,1164.5C 1208.09,1162.69 1210.09,1161.36 1212.5,1160.5C 1213.07,1152.75 1214.07,1145.08 1215.5,1137.5C 1219.6,1133.91 1223.93,1133.58 1228.5,1136.5 Z"/></g>
<g><path style="opacity:1" fill="#d2823d" d="M 2089.5,1156.5 C 2080.73,1152.45 2071.73,1148.95 2062.5,1146C 2037.56,1143.25 2023.39,1154.42 2020,1179.5C 2018.73,1192.37 2019.73,1205.04 2023,1217.5C 2025.51,1224.72 2030.01,1230.22 2036.5,1234C 2039.39,1235.15 2042.39,1235.65 2045.5,1235.5C 2045.5,1236.17 2045.5,1236.83 2045.5,1237.5C 2043.03,1237.95 2042.86,1238.95 2045,1240.5C 2046.3,1240.03 2047.8,1240.03 2049.5,1240.5C 2049.33,1241.82 2049.66,1242.99 2050.5,1244C 2047.83,1244.67 2045.17,1245.33 2042.5,1246C 2037.85,1246 2033.19,1245.84 2028.5,1245.5C 2018.55,1241.71 2011.71,1234.71 2008,1224.5C 1998.51,1200.03 1999.51,1176.03 2011,1152.5C 2015.83,1145.49 2022,1140.16 2029.5,1136.5C 2030.15,1136.8 2030.82,1137.14 2031.5,1137.5C 2034.37,1136.23 2037.37,1135.39 2040.5,1135C 2051.66,1134.33 2062.49,1134.83 2073,1136.5C 2074.24,1136.54 2075.58,1136.21 2077,1135.5C 2078.26,1135.76 2079.26,1136.43 2080,1137.5C 2081,1137.17 2082,1136.83 2083,1136.5C 2088.46,1142.04 2090.62,1148.71 2089.5,1156.5 Z"/></g>
<g><path style="opacity:1" fill="#d58b52" d="M 997.5,1163.5 C 994.913,1165.54 992.08,1165.54 989,1163.5C 986.333,1164.17 983.667,1164.83 981,1165.5C 978.208,1163.61 975.041,1162.61 971.5,1162.5C 971.337,1164.86 971.503,1167.19 972,1169.5C 974,1170.17 976,1170.83 978,1171.5C 983.305,1171.44 988.972,1171.44 995,1171.5C 996.883,1170.35 997.716,1168.68 997.5,1166.5C 998.843,1170.33 997.509,1173.16 993.5,1175C 988.184,1174.74 982.851,1174.74 977.5,1175C 974.527,1177.45 973.027,1180.61 973,1184.5C 971.763,1201.02 972.93,1217.35 976.5,1233.5C 976.818,1234.65 977.484,1235.48 978.5,1236C 982.5,1236.33 986.5,1236.67 990.5,1237C 993.874,1237.52 996.874,1238.85 999.5,1241C 992.015,1255.54 981.349,1258.2 967.5,1249C 959.701,1241.96 955.534,1233.13 955,1222.5C 954.667,1206.83 954.333,1191.17 954,1175.5C 952.955,1174.63 952.122,1173.63 951.5,1172.5C 957.735,1173.65 961.735,1170.98 963.5,1164.5C 962.015,1161.55 959.682,1159.55 956.5,1158.5C 955.833,1155.36 955.166,1152.36 954.5,1149.5C 955.272,1145.55 955.605,1141.55 955.5,1137.5C 961.065,1136.52 966.565,1136.52 972,1137.5C 972.798,1144.85 973.631,1152.18 974.5,1159.5C 981.508,1159.33 988.508,1159.5 995.5,1160C 996.305,1161.11 996.972,1162.28 997.5,1163.5 Z"/></g>
<g><path style="opacity:1" fill="#ce8c5a" d="M 1604.5,1134.5 C 1604.5,1138.5 1604.5,1142.5 1604.5,1146.5C 1599.2,1147.27 1593.87,1147.61 1588.5,1147.5C 1588.57,1146.04 1588.23,1144.71 1587.5,1143.5C 1588.24,1143.63 1588.91,1143.46 1589.5,1143C 1588.54,1141.85 1588.88,1140.85 1590.5,1140C 1589.95,1138.6 1589.62,1137.27 1589.5,1136C 1591.07,1136.38 1592.57,1136.21 1594,1135.5C 1594.33,1136.17 1594.67,1136.83 1595,1137.5C 1595.81,1135.1 1596.64,1135.27 1597.5,1138C 1599.18,1138.03 1600.68,1138.2 1602,1138.5C 1602.93,1137.14 1603.77,1135.81 1604.5,1134.5 Z"/></g>
<g><path style="opacity:1" fill="#d8bfaa" d="M 1228.5,1136.5 C 1229.5,1137.68 1230.34,1139.02 1231,1140.5C 1231.05,1146.32 1231.88,1151.99 1233.5,1157.5C 1239.51,1158.16 1245.51,1158.99 1251.5,1160C 1252.34,1161.01 1252.67,1162.18 1252.5,1163.5C 1244.51,1162.86 1236.68,1161.53 1229,1159.5C 1228.65,1153.15 1228.15,1146.82 1227.5,1140.5C 1227.51,1138.95 1227.84,1137.62 1228.5,1136.5 Z"/></g>
<g><path style="opacity:0.994" fill="#d18343" d="M 428.5,1157.5 C 446.249,1158.75 457.082,1168.08 461,1185.5C 462.503,1192.84 463.003,1200.17 462.5,1207.5C 442.88,1208.49 423.213,1208.82 403.5,1208.5C 402.404,1227.9 411.571,1237.24 431,1236.5C 440.439,1236.29 449.606,1234.62 458.5,1231.5C 460.111,1243.07 455.111,1250.24 443.5,1253C 412.877,1257.46 394.71,1244.63 389,1214.5C 385.492,1192.65 392.658,1175.48 410.5,1163C 416.34,1160.21 422.34,1158.38 428.5,1157.5 Z M 420.5,1173.5 C 437.618,1170.96 445.951,1178.29 445.5,1195.5C 431.833,1195.5 418.167,1195.5 404.5,1195.5C 404.999,1184.37 410.333,1177.04 420.5,1173.5 Z"/></g>
<g><path style="opacity:0.992" fill="#d28343" d="M 816.5,1157.5 C 836.131,1157.97 848.631,1167.63 854,1186.5C 857.571,1200.93 857.238,1215.27 853,1229.5C 841.956,1251.77 824.789,1258.61 801.5,1250C 792.027,1244.23 785.527,1236.07 782,1225.5C 776.063,1206.66 778.397,1188.99 789,1172.5C 796.474,1164.18 805.641,1159.18 816.5,1157.5 Z M 812.5,1173.5 C 826.754,1172.25 835.588,1178.59 839,1192.5C 841.156,1205.89 839.156,1218.56 833,1230.5C 823.908,1240.26 814.241,1240.93 804,1232.5C 800.216,1227.48 798.216,1221.82 798,1215.5C 796.218,1203.61 797.885,1192.28 803,1181.5C 805.772,1178.22 808.939,1175.55 812.5,1173.5 Z"/></g>
<g><path style="opacity:0.997" fill="#d58848" d="M 1086.5,1157.5 C 1095.28,1157.49 1103.61,1159.32 1111.5,1163C 1115.46,1165.96 1118.29,1169.8 1120,1174.5C 1124.38,1199.5 1124.55,1224.5 1120.5,1249.5C 1114.88,1249.72 1109.38,1249.06 1104,1247.5C 1098.11,1248.7 1092.61,1250.86 1087.5,1254C 1069.42,1254.94 1058.59,1246.44 1055,1228.5C 1052.84,1214.32 1058.01,1203.82 1070.5,1197C 1081.11,1194.67 1091.77,1192.67 1102.5,1191C 1104.01,1189.53 1104.67,1187.69 1104.5,1185.5C 1104.04,1182.11 1103.37,1178.78 1102.5,1175.5C 1089.23,1172.47 1076.39,1173.8 1064,1179.5C 1062.99,1173.2 1062.49,1166.87 1062.5,1160.5C 1070.64,1159.49 1078.64,1158.49 1086.5,1157.5 Z M 1092.5,1205.5 C 1096.52,1205.65 1100.52,1205.98 1104.5,1206.5C 1105.17,1214.53 1105.17,1222.53 1104.5,1230.5C 1096.18,1236.78 1087.18,1238.28 1077.5,1235C 1069.58,1227.03 1069.58,1219.03 1077.5,1211C 1082.3,1208.24 1087.3,1206.4 1092.5,1205.5 Z"/></g>
<g><path style="opacity:1" fill="#d2823d" d="M 253.5,1158.5 C 265.903,1157.01 276.736,1160.34 286,1168.5C 289.28,1172.66 291.613,1177.32 293,1182.5C 294.739,1190.74 295.572,1199.08 295.5,1207.5C 276.177,1208.27 256.843,1208.6 237.5,1208.5C 236.468,1227.47 245.468,1237.14 264.5,1237.5C 272.284,1237.63 279.284,1235.46 285.5,1231C 288.146,1230.5 290.813,1230.34 293.5,1230.5C 295.089,1240.48 291.089,1247.31 281.5,1251C 240.768,1258.94 220.602,1242.11 221,1200.5C 222.103,1186.84 227.603,1175.34 237.5,1166C 242.557,1162.63 247.89,1160.13 253.5,1158.5 Z M 253.5,1173.5 C 270.424,1170.43 279.424,1177.43 280.5,1194.5C 266.516,1195.5 252.516,1195.83 238.5,1195.5C 237.608,1183.9 242.608,1176.57 253.5,1173.5 Z"/></g>
<g><path style="opacity:0.994" fill="#d28343" d="M 341.5,1158.5 C 349.062,1158.26 356.395,1159.43 363.5,1162C 367.388,1164.22 370.221,1167.39 372,1171.5C 373.512,1176.39 374.512,1181.39 375,1186.5C 375.5,1207.16 375.667,1227.83 375.5,1248.5C 370.507,1248.92 365.507,1249.25 360.5,1249.5C 359.267,1235.34 359.267,1221.17 360.5,1207C 361.069,1196.96 359.236,1187.46 355,1178.5C 349.967,1173.52 344.134,1172.35 337.5,1175C 330.622,1177.89 326.455,1183.06 325,1190.5C 324.219,1194.97 323.719,1199.47 323.5,1204C 324.778,1219.17 324.778,1234.34 323.5,1249.5C 318.833,1249.5 314.167,1249.5 309.5,1249.5C 308.058,1220.5 308.225,1191.5 310,1162.5C 316.584,1159.42 321.751,1161.08 325.5,1167.5C 330.408,1163.56 335.741,1160.56 341.5,1158.5 Z"/></g>
<g><path style="opacity:0.997" fill="#d58748" d="M 905.5,1158.5 C 924.218,1157.04 934.718,1165.71 937,1184.5C 937.832,1192.48 938.332,1200.48 938.5,1208.5C 937.776,1222.16 937.443,1235.82 937.5,1249.5C 932.195,1250.19 926.862,1250.53 921.5,1250.5C 921.301,1238.48 921.634,1226.48 922.5,1214.5C 922.598,1201.42 920.431,1188.75 916,1176.5C 910.46,1173.33 904.627,1172.83 898.5,1175C 894.946,1179.22 891.112,1183.05 887,1186.5C 885.936,1207.48 885.436,1228.48 885.5,1249.5C 880.167,1249.5 874.833,1249.5 869.5,1249.5C 867.912,1219.81 868.246,1190.14 870.5,1160.5C 877.19,1159.73 882.856,1161.73 887.5,1166.5C 893.317,1163.24 899.317,1160.57 905.5,1158.5 Z"/></g>
<g><path style="opacity:1" fill="#d2823d" d="M 1198.5,1166.5 C 1198.21,1170.44 1198.54,1174.27 1199.5,1178C 1197.17,1178.67 1194.83,1178.67 1192.5,1178C 1183.07,1173.03 1173.4,1172.03 1163.5,1175C 1160.85,1176.78 1159.85,1178.94 1160.5,1181.5C 1155.93,1185.3 1153.43,1190.3 1153,1196.5C 1151.1,1206.31 1151.77,1215.98 1155,1225.5C 1161.31,1235.73 1170.48,1239.56 1182.5,1237C 1185.69,1236.24 1188.85,1235.41 1192,1234.5C 1199.12,1236.74 1200.45,1241.07 1196,1247.5C 1185.55,1253.57 1174.38,1255.07 1162.5,1252C 1149.01,1246.22 1140.84,1236.06 1138,1221.5C 1133.11,1200.59 1137.61,1182.09 1151.5,1166C 1163.26,1158.17 1175.93,1156.5 1189.5,1161C 1192.9,1162.36 1195.9,1164.19 1198.5,1166.5 Z"/></g>
<g><path style="opacity:1" fill="#d2823d" d="M 1290.5,1158.5 C 1310.59,1156.29 1324.09,1164.62 1331,1183.5C 1336.66,1202.54 1334.99,1220.87 1326,1238.5C 1311.27,1255.65 1294.1,1258.49 1274.5,1247C 1264.34,1238.18 1258.84,1227.02 1258,1213.5C 1255.34,1193.78 1261.51,1177.62 1276.5,1165C 1281.03,1162.33 1285.7,1160.17 1290.5,1158.5 Z M 1292.5,1172.5 C 1305.06,1173.19 1313.23,1179.53 1317,1191.5C 1320.43,1204.97 1319.1,1217.97 1313,1230.5C 1302.26,1242.43 1291.59,1242.43 1281,1230.5C 1278.55,1226.47 1276.88,1222.14 1276,1217.5C 1274.97,1206.72 1275.64,1196.05 1278,1185.5C 1280.55,1178.44 1285.38,1174.11 1292.5,1172.5 Z"/></g>
<g><path style="opacity:0.997" fill="#d28343" d="M 1704.5,1240.5 C 1695.63,1220.75 1700.96,1206.58 1720.5,1198C 1730.36,1194.83 1740.36,1192.16 1750.5,1190C 1753.16,1183.64 1751.5,1178.3 1745.5,1174C 1742.31,1173.11 1739.15,1172.28 1736,1171.5C 1727.25,1173.73 1718.42,1175.73 1709.5,1177.5C 1709.56,1172.92 1708.9,1168.59 1707.5,1164.5C 1722.07,1157.98 1737.07,1157.14 1752.5,1162C 1760.2,1165.03 1765.03,1170.53 1767,1178.5C 1770.1,1202.15 1770.27,1225.82 1767.5,1249.5C 1761.08,1249.67 1754.74,1249.01 1748.5,1247.5C 1742.43,1249.13 1736.76,1251.63 1731.5,1255C 1725.55,1256.13 1720.21,1254.79 1715.5,1251C 1711.76,1247.48 1708.09,1243.98 1704.5,1240.5 Z"/></g>
<g><path style="opacity:0.996" fill="#d58848" d="M 2105.5,1232.5 C 2107.37,1225.21 2107.7,1217.88 2106.5,1210.5C 2110.21,1204.63 2115.21,1200.13 2121.5,1197C 2132.12,1194.45 2142.78,1192.12 2153.5,1190C 2154.62,1189.16 2155.29,1187.99 2155.5,1186.5C 2154.88,1180.05 2151.54,1175.89 2145.5,1174C 2134.08,1174.18 2122.75,1175.35 2111.5,1177.5C 2111.33,1172.82 2111.5,1168.15 2112,1163.5C 2128.94,1156.81 2145.78,1156.98 2162.5,1164C 2169.54,1170.95 2172.7,1179.45 2172,1189.5C 2172.72,1209.51 2172.55,1229.51 2171.5,1249.5C 2164.84,1251.28 2158.84,1249.95 2153.5,1245.5C 2132.26,1260.19 2116.26,1255.86 2105.5,1232.5 Z M 2139.5,1206.5 C 2144.54,1206.17 2149.54,1206.51 2154.5,1207.5C 2155.44,1215.15 2155.94,1222.82 2156,1230.5C 2146.69,1237.69 2136.52,1239.19 2125.5,1235C 2121.77,1229.76 2120.61,1223.92 2122,1217.5C 2123.12,1215.38 2124.62,1213.54 2126.5,1212C 2130.74,1209.65 2135.07,1207.82 2139.5,1206.5 Z"/></g>
<g><path style="opacity:0.992" fill="#d18343" d="M 2242.5,1166.5 C 2243.38,1170.16 2243.71,1173.66 2243.5,1177C 2239.97,1177.39 2236.8,1176.55 2234,1174.5C 2233.28,1175.04 2232.78,1175.71 2232.5,1176.5C 2224.98,1173.98 2217.31,1173.48 2209.5,1175C 2203.98,1177.92 2202.14,1182.42 2204,1188.5C 2205.46,1190.96 2207.29,1193.13 2209.5,1195C 2217.69,1197.8 2226.03,1200.13 2234.5,1202C 2246.27,1208.97 2250.44,1219.14 2247,1232.5C 2238.84,1248.66 2225.68,1255.5 2207.5,1253C 2201.6,1252.11 2195.93,1250.44 2190.5,1248C 2187.32,1245.65 2185.66,1242.49 2185.5,1238.5C 2186.24,1235.56 2186.74,1232.56 2187,1229.5C 2197.13,1233.43 2207.46,1236.76 2218,1239.5C 2228.55,1238.6 2232.55,1232.93 2230,1222.5C 2228.5,1221 2227,1219.5 2225.5,1218C 2217.62,1215.03 2209.62,1212.36 2201.5,1210C 2187.37,1201.96 2182.87,1190.12 2188,1174.5C 2193.29,1165.76 2201.12,1160.93 2211.5,1160C 2220.64,1159.01 2229.64,1159.67 2238.5,1162C 2240.75,1162.75 2242.08,1164.25 2242.5,1166.5 Z"/></g>
<g><path style="opacity:0.991" fill="#d28343" d="M 544.5,1159.5 C 554.224,1159.14 563.891,1159.64 573.5,1161C 579.457,1162.62 583.957,1166.12 587,1171.5C 591.617,1185.1 593.45,1199.1 592.5,1213.5C 592.333,1220.17 592.167,1226.83 592,1233.5C 591.606,1239.08 590.272,1244.41 588,1249.5C 586.769,1250.11 585.436,1250.44 584,1250.5C 580.333,1249.5 576.667,1248.5 573,1247.5C 564.906,1250.14 556.739,1252.48 548.5,1254.5C 536.046,1253.22 527.879,1246.56 524,1234.5C 519.22,1215.89 525.72,1203.06 543.5,1196C 553.5,1194 563.5,1192 573.5,1190C 574.516,1189.48 575.182,1188.65 575.5,1187.5C 574.967,1182.6 572.967,1178.43 569.5,1175C 562.208,1173.65 554.875,1173.31 547.5,1174C 541.792,1175.4 536.125,1176.9 530.5,1178.5C 531.165,1172.52 531.498,1166.52 531.5,1160.5C 536.032,1160.82 540.366,1160.48 544.5,1159.5 Z M 558.5,1205.5 C 562.182,1205.33 565.848,1205.5 569.5,1206C 576.8,1209.44 578.967,1214.94 576,1222.5C 574.999,1225.17 573.499,1227.51 571.5,1229.5C 571.709,1230.09 572.043,1230.59 572.5,1231C 563.684,1237.69 554.018,1239.19 543.5,1235.5C 539.977,1229.59 538.81,1223.26 540,1216.5C 542.336,1212.51 545.836,1210.67 550.5,1211C 553.059,1208.9 555.726,1207.06 558.5,1205.5 Z"/></g>
<g><path style="opacity:1" fill="#cb8549" d="M 1016.5,1159.5 C 1021.4,1160.92 1024.24,1164.25 1025,1169.5C 1029.12,1166.86 1033.28,1164.36 1037.5,1162C 1042.49,1161.5 1047.49,1161.33 1052.5,1161.5C 1052.83,1167.21 1052.5,1172.87 1051.5,1178.5C 1046.21,1179.5 1040.88,1180.33 1035.5,1181C 1031.19,1181.9 1027.36,1183.74 1024,1186.5C 1023.92,1206.2 1023.26,1225.87 1022,1245.5C 1021.6,1246.87 1021.1,1248.21 1020.5,1249.5C 1010.57,1253.66 1006.41,1250.33 1008,1239.5C 1007.33,1218.83 1007.33,1198.17 1008,1177.5C 1008.67,1172.17 1009.33,1166.83 1010,1161.5C 1012.28,1160.88 1014.44,1160.22 1016.5,1159.5 Z"/></g>
<g><path style="opacity:0.993" fill="#d28343" d="M 477.5,1161.5 C 480.518,1161.34 483.518,1161.5 486.5,1162C 489.657,1163.82 492.823,1165.65 496,1167.5C 503.175,1162.91 511.008,1160.91 519.5,1161.5C 519.5,1167.17 519.5,1172.83 519.5,1178.5C 510.63,1179.61 501.964,1181.61 493.5,1184.5C 492.667,1203.16 492.167,1221.82 492,1240.5C 491.433,1243.17 490.933,1245.83 490.5,1248.5C 486.913,1249.76 483.246,1250.26 479.5,1250C 477.741,1248.99 476.574,1247.49 476,1245.5C 475.722,1224.49 475.222,1203.49 474.5,1182.5C 474.369,1175.18 475.369,1168.18 477.5,1161.5 Z"/></g>
<g><path style="opacity:1" fill="#cf803e" d="M 1350.5,1161.5 C 1353.52,1161.34 1356.52,1161.5 1359.5,1162C 1361.04,1163.11 1361.7,1164.61 1361.5,1166.5C 1364.4,1166.32 1367.23,1166.65 1370,1167.5C 1376.74,1162.89 1384.07,1161.22 1392,1162.5C 1392.67,1166.83 1392.67,1171.17 1392,1175.5C 1391.17,1176.33 1390.33,1177.17 1389.5,1178C 1381.17,1179.83 1372.84,1181.67 1364.5,1183.5C 1364.56,1205.17 1364.22,1226.84 1363.5,1248.5C 1358.87,1249.23 1354.2,1249.56 1349.5,1249.5C 1349.18,1220.09 1349.51,1190.76 1350.5,1161.5 Z"/></g>
<g><path style="opacity:1" fill="#d58b52" d="M 1587.5,1161.5 C 1593.17,1161.5 1598.83,1161.5 1604.5,1161.5C 1604.5,1190.83 1604.5,1220.17 1604.5,1249.5C 1598.49,1249.7 1592.49,1250.03 1586.5,1250.5C 1587.19,1220.84 1587.53,1191.17 1587.5,1161.5 Z"/></g>
<g><path style="opacity:0.996" fill="#8f5835" d="M 1206.5,1164.5 C 1208.18,1166 1209.51,1167.83 1210.5,1170C 1209.21,1170.49 1207.87,1170.66 1206.5,1170.5C 1205.88,1170.61 1205.38,1170.94 1205,1171.5C 1204.59,1170.1 1204.09,1168.77 1203.5,1167.5C 1204.73,1166.69 1205.73,1165.69 1206.5,1164.5 Z"/></g>
<g><path style="opacity:1" fill="#fcf3db" d="M 1707.5,1164.5 C 1708.9,1168.59 1709.56,1172.92 1709.5,1177.5C 1718.42,1175.73 1727.25,1173.73 1736,1171.5C 1739.15,1172.28 1742.31,1173.11 1745.5,1174C 1751.5,1178.3 1753.16,1183.64 1750.5,1190C 1740.36,1192.16 1730.36,1194.83 1720.5,1198C 1700.96,1206.58 1695.63,1220.75 1704.5,1240.5C 1698.07,1240.66 1695.74,1237.5 1697.5,1231C 1697.8,1224.1 1698.63,1217.27 1700,1210.5C 1702.29,1204.93 1704.29,1199.26 1706,1193.5C 1706.06,1187.48 1705.56,1181.48 1704.5,1175.5C 1704.49,1171.53 1705.49,1167.86 1707.5,1164.5 Z"/></g>
<g><path style="opacity:1" fill="#d37d3b" d="M 1824.5,1158.5 C 1839.52,1158.02 1849.02,1165.02 1853,1179.5C 1854.97,1187.55 1856.14,1195.71 1856.5,1204C 1855.74,1218.9 1854.4,1233.73 1852.5,1248.5C 1848.27,1248.99 1844.11,1249.65 1840,1250.5C 1840.37,1234.18 1840.37,1217.84 1840,1201.5C 1840.2,1191.08 1836.7,1182.25 1829.5,1175C 1822.93,1172.94 1816.59,1173.6 1810.5,1177C 1807.89,1178.94 1806.06,1181.44 1805,1184.5C 1803.54,1206.11 1803.04,1227.78 1803.5,1249.5C 1798.1,1249.22 1792.77,1249.55 1787.5,1250.5C 1786.33,1221.17 1786.17,1191.84 1787,1162.5C 1790.74,1161.37 1794.58,1161.21 1798.5,1162C 1801.03,1164.03 1803.7,1165.86 1806.5,1167.5C 1812.09,1163.37 1818.09,1160.37 1824.5,1158.5 Z"/></g>
<g><path style="opacity:1" fill="#d47f3c" d="M 997.5,1163.5 C 997.5,1164.5 997.5,1165.5 997.5,1166.5C 997.716,1168.68 996.883,1170.35 995,1171.5C 988.972,1171.44 983.305,1171.44 978,1171.5C 976,1170.83 974,1170.17 972,1169.5C 971.503,1167.19 971.337,1164.86 971.5,1162.5C 975.041,1162.61 978.208,1163.61 981,1165.5C 983.667,1164.83 986.333,1164.17 989,1163.5C 992.08,1165.54 994.913,1165.54 997.5,1163.5 Z"/></g>
<g><path style="opacity:1" fill="#faefd6" d="M 1198.5,1166.5 C 1200.22,1166.63 1201.88,1166.96 1203.5,1167.5C 1204.09,1168.77 1204.59,1170.1 1205,1171.5C 1205.38,1170.94 1205.88,1170.61 1206.5,1170.5C 1209.02,1172.36 1211.52,1174.36 1214,1176.5C 1214.17,1192.07 1214.67,1207.57 1215.5,1223C 1215.38,1226.21 1215.05,1229.71 1214.5,1233.5C 1211.88,1232.52 1209.55,1231.02 1207.5,1229C 1209.8,1214.6 1210.13,1200.1 1208.5,1185.5C 1192.68,1181.69 1176.68,1180.35 1160.5,1181.5C 1159.85,1178.94 1160.85,1176.78 1163.5,1175C 1173.4,1172.03 1183.07,1173.03 1192.5,1178C 1194.83,1178.67 1197.17,1178.67 1199.5,1178C 1198.54,1174.27 1198.21,1170.44 1198.5,1166.5 Z"/></g>
<g><path style="opacity:1" fill="#d37f3c" d="M 954.5,1149.5 C 955.166,1152.36 955.833,1155.36 956.5,1158.5C 959.682,1159.55 962.015,1161.55 963.5,1164.5C 961.735,1170.98 957.735,1173.65 951.5,1172.5C 949.856,1170.52 948.19,1168.52 946.5,1166.5C 948.522,1163.64 951.022,1161.31 954,1159.5C 954.498,1156.18 954.665,1152.85 954.5,1149.5 Z"/></g>
<g><path style="opacity:1" fill="#d49260" d="M 2242.5,1166.5 C 2246.2,1169.24 2247.7,1172.91 2247,1177.5C 2242.09,1180.92 2237.25,1180.59 2232.5,1176.5C 2232.78,1175.71 2233.28,1175.04 2234,1174.5C 2236.8,1176.55 2239.97,1177.39 2243.5,1177C 2243.71,1173.66 2243.38,1170.16 2242.5,1166.5 Z"/></g>
<g><path style="opacity:0.996" fill="#d68848" d="M 2092.5,1192.5 C 2091.8,1194.07 2091.47,1195.57 2091.5,1197C 2092.16,1211.93 2092.83,1226.76 2093.5,1241.5C 2081.74,1249.81 2068.57,1254.48 2054,1255.5C 2044.09,1255.37 2035.59,1252.04 2028.5,1245.5C 2033.19,1245.84 2037.85,1246 2042.5,1246C 2045.17,1245.33 2047.83,1244.67 2050.5,1244C 2049.66,1242.99 2049.33,1241.82 2049.5,1240.5C 2047.8,1240.03 2046.3,1240.03 2045,1240.5C 2042.86,1238.95 2043.03,1237.95 2045.5,1237.5C 2055.76,1238.99 2065.93,1238.66 2076,1236.5C 2078.79,1225.97 2079.29,1215.3 2077.5,1204.5C 2068.88,1204.64 2060.55,1204.97 2052.5,1205.5C 2052.16,1200.58 2051.49,1195.75 2050.5,1191C 2051.5,1190.67 2052.5,1190.33 2053.5,1190C 2063.83,1189.33 2074.17,1189.33 2084.5,1190C 2087.38,1190.27 2090.05,1191.11 2092.5,1192.5 Z"/></g>
<g><path style="opacity:1" fill="#fbefd6" d="M 2092.5,1192.5 C 2095.07,1192.59 2096.57,1193.93 2097,1196.5C 2097.08,1203.27 2097.74,1209.94 2099,1216.5C 2099.33,1216.83 2099.67,1217.17 2100,1217.5C 2103.05,1215.95 2105.22,1213.62 2106.5,1210.5C 2107.7,1217.88 2107.37,1225.21 2105.5,1232.5C 2103.83,1231.33 2102.17,1231.33 2100.5,1232.5C 2099.33,1234.83 2098.17,1237.17 2097,1239.5C 2096.18,1240.82 2095.02,1241.49 2093.5,1241.5C 2092.83,1226.76 2092.16,1211.93 2091.5,1197C 2091.47,1195.57 2091.8,1194.07 2092.5,1192.5 Z"/></g>
<g><path style="opacity:1" fill="#fef6de" d="M 1736.5,1205.5 C 1741.83,1205.5 1747.17,1205.5 1752.5,1205.5C 1753.64,1214.04 1752.47,1222.37 1749,1230.5C 1739.5,1239.81 1729.16,1240.81 1718,1233.5C 1712.25,1224.53 1713.75,1217.03 1722.5,1211C 1727.02,1208.45 1731.68,1206.61 1736.5,1205.5 Z"/></g>
<g><path style="opacity:1" fill="#f7e7ce" d="M 2045.5,1237.5 C 2045.5,1236.83 2045.5,1236.17 2045.5,1235.5C 2054.5,1235.12 2063.5,1234.62 2072.5,1234C 2073.7,1225.93 2074.36,1217.76 2074.5,1209.5C 2068.16,1209.67 2061.82,1209.5 2055.5,1209C 2053.94,1208.28 2052.94,1207.11 2052.5,1205.5C 2060.55,1204.97 2068.88,1204.64 2077.5,1204.5C 2079.29,1215.3 2078.79,1225.97 2076,1236.5C 2065.93,1238.66 2055.76,1238.99 2045.5,1237.5 Z"/></g>
<g><path style="opacity:1" fill="#ce7f3d" d="M 1393.5,1276.5 C 1389.5,1276.5 1385.5,1276.5 1381.5,1276.5C 1383.27,1259.43 1386.93,1242.76 1392.5,1226.5C 1398.45,1225.96 1404.45,1225.96 1410.5,1226.5C 1410.12,1231.67 1408.96,1236.67 1407,1241.5C 1400.81,1252.56 1396.31,1264.23 1393.5,1276.5 Z"/></g>
</svg>
