<?xml version="1.0" encoding="UTF-8"?>
<!DOCTYPE svg PUBLIC "-//W3C//DTD SVG 1.1//EN" "http://www.w3.org/Graphics/SVG/1.1/DTD/svg11.dtd">
<svg xmlns="http://www.w3.org/2000/svg" version="1.1" width="3525px" height="782px" style="shape-rendering:geometricPrecision; text-rendering:geometricPrecision; image-rendering:optimizeQuality; fill-rule:evenodd; clip-rule:evenodd" xmlns:xlink="http://www.w3.org/1999/xlink">
<g><path style="opacity:1" fill="#d57130" d="M 884.5,243.5 C 884.099,258.522 883.266,273.522 882,288.5C 872.5,279.667 863,270.833 853.5,262C 833.005,247.105 810.005,240.272 784.5,241.5C 760.171,215.171 735.504,189.171 710.5,163.5C 709.514,145.577 709.181,127.577 709.5,109.5C 693.829,109.661 678.162,109.994 662.5,110.5C 661.883,110.611 661.383,110.944 661,111.5C 642.35,91.349 623.516,71.349 604.5,51.5C 620.319,35.1806 636.319,19.0139 652.5,3C 653.167,2.33333 653.833,2.33333 654.5,3C 730.669,83.6683 807.336,163.835 884.5,243.5 Z"/></g>
<g><path style="opacity:0.804" fill="#413027" d="M 652.5,-0.5 C 652.833,-0.5 653.167,-0.5 653.5,-0.5C 730.528,80.1931 807.528,160.86 884.5,241.5C 884.5,242.167 884.5,242.833 884.5,243.5C 807.336,163.835 730.669,83.6683 654.5,3C 653.833,2.33333 653.167,2.33333 652.5,3C 636.319,19.0139 620.319,35.1806 604.5,51.5C 623.516,71.349 642.35,91.349 661,111.5C 661.383,110.944 661.883,110.611 662.5,110.5C 662.5,111.833 661.833,112.5 660.5,112.5C 655.5,108.167 650.833,103.5 646.5,98.5C 631.687,82.8514 617.02,67.0181 602.5,51C 618.994,33.6727 635.661,16.506 652.5,-0.5 Z"/></g>
<g><path style="opacity:1" fill="#d57130" d="M 661.5,162.5 C 661.5,162.833 661.5,163.167 661.5,163.5C 661.667,196.835 661.5,230.168 661,263.5C 621.997,221.997 582.497,180.997 542.5,140.5C 539.582,136.076 536.082,132.076 532,128.5C 531.333,127.833 531.333,127.167 532,126.5C 548.014,110.319 564.181,94.3193 580.5,78.5C 607.521,106.521 634.521,134.521 661.5,162.5 Z"/></g>
<g><path style="opacity:0.804" fill="#4a3528" d="M 661.5,159.5 C 661.5,160.5 661.5,161.5 661.5,162.5C 634.521,134.521 607.521,106.521 580.5,78.5C 564.181,94.3193 548.014,110.319 532,126.5C 531.333,127.167 531.333,127.833 532,128.5C 536.082,132.076 539.582,136.076 542.5,140.5C 542.167,140.5 541.833,140.5 541.5,140.5C 537.806,137.473 534.473,134.14 531.5,130.5C 529.089,127.549 529.589,124.883 533,122.5C 548.347,106.819 564.014,91.4858 580,76.5C 606.967,104.301 634.134,131.968 661.5,159.5 Z"/></g>
<g><path style="opacity:0.039" fill="#734e2d" d="M 646.5,98.5 C 645.833,99.1667 645.833,99.1667 646.5,98.5 Z"/></g>
<g><path style="opacity:1" fill="#0d0b0a" d="M 710.5,163.5 C 710.167,164.167 709.833,164.833 709.5,165.5C 709.183,181.244 709.516,196.911 710.5,212.5C 709.169,220.639 708.502,229.139 708.5,238C 708.5,246.673 708.834,255.173 709.5,263.5C 720.653,258.423 731.653,253.09 742.5,247.5C 743.492,247.672 744.158,247.338 744.5,246.5C 753.854,243.219 763.521,241.552 773.5,241.5C 777.167,241.5 780.833,241.5 784.5,241.5C 810.005,240.272 833.005,247.105 853.5,262C 863,270.833 872.5,279.667 882,288.5C 883.266,273.522 884.099,258.522 884.5,243.5C 884.5,242.833 884.5,242.167 884.5,241.5C 950.501,241.333 1016.5,241.5 1082.5,242C 1082.77,285.426 1082.77,328.926 1082.5,372.5C 1081.18,415.627 1081.18,458.627 1082.5,501.5C 1066.68,502.496 1050.68,502.83 1034.5,502.5C 1033.83,502.5 1033.17,502.5 1032.5,502.5C 1031.17,502.5 1030.5,501.833 1030.5,500.5C 1031.83,466.402 1031.83,432.402 1030.5,398.5C 1030.5,398.167 1030.5,397.833 1030.5,397.5C 1030.5,396.5 1030.5,395.5 1030.5,394.5C 1030.5,361.5 1030.5,328.5 1030.5,295.5C 1023.17,295.5 1015.83,295.5 1008.5,295.5C 1007.17,295.5 1005.83,295.5 1004.5,295.5C 1004.5,364.5 1004.5,433.5 1004.5,502.5C 1003.17,502.5 1001.83,502.5 1000.5,502.5C 995.833,502.5 991.167,502.5 986.5,502.5C 976.833,502.5 967.167,502.5 957.5,502.5C 957.666,492.161 957.5,481.828 957,471.5C 954.628,469.297 952.461,466.963 950.5,464.5C 950.5,464.167 950.5,463.833 950.5,463.5C 952.797,465.294 954.963,467.294 957,469.5C 957.5,454.504 957.667,439.504 957.5,424.5C 958.829,390.069 958.829,355.736 957.5,321.5C 957.5,321.167 957.5,320.833 957.5,320.5C 958.47,311.918 958.803,303.251 958.5,294.5C 950.082,294.198 941.748,294.531 933.5,295.5C 932.501,316.424 932.167,338.091 932.5,360.5C 931.501,407.664 931.168,454.997 931.5,502.5C 921.5,502.5 911.5,502.5 901.5,502.5C 896.833,502.5 892.167,502.5 887.5,502.5C 886.167,502.5 884.833,502.5 883.5,502.5C 883.5,500.833 883.5,499.167 883.5,497.5C 884.833,492.5 884.833,487.5 883.5,482.5C 883.5,474.167 883.5,465.833 883.5,457.5C 883.662,455.473 883.495,453.473 883,451.5C 880.324,454.206 878.158,457.206 876.5,460.5C 872.167,464.5 867.833,468.5 863.5,472.5C 854.162,478.841 844.828,485.174 835.5,491.5C 833.9,492.644 832.233,493.811 830.5,495C 833.039,497.37 835.372,499.87 837.5,502.5C 837.5,502.833 837.5,503.167 837.5,503.5C 834.448,500.445 831.115,497.778 827.5,495.5C 819.65,498.129 811.65,500.129 803.5,501.5C 792.527,502.38 781.527,502.713 770.5,502.5C 753.239,500.194 737.239,494.528 722.5,485.5C 721.713,483.896 720.38,483.229 718.5,483.5C 716.025,481.994 713.358,480.661 710.5,479.5C 709.571,480.689 709.238,482.022 709.5,483.5C 709.5,500.833 709.5,518.167 709.5,535.5C 709.5,568.833 709.5,602.167 709.5,635.5C 708.167,635.5 706.833,635.5 705.5,635.5C 703.833,635.5 702.167,635.5 700.5,635.5C 690.352,634.258 680.352,634.258 670.5,635.5C 669.577,634.697 668.577,634.53 667.5,635C 668.71,636.039 669.71,637.206 670.5,638.5C 670.5,638.833 670.5,639.167 670.5,639.5C 668.704,638.207 667.037,636.707 665.5,635C 664.207,634.51 662.873,634.343 661.5,634.5C 661.5,633.167 661.5,631.833 661.5,630.5C 661.5,622.5 661.5,614.5 661.5,606.5C 661.83,590.658 661.496,574.991 660.5,559.5C 660.823,534.092 660.49,508.759 659.5,483.5C 660.793,481.636 660.793,479.636 659.5,477.5C 658.893,477.624 658.56,477.957 658.5,478.5C 656.353,480.737 654.02,482.737 651.5,484.5C 632.104,495.934 611.104,501.934 588.5,502.5C 580.149,502.518 571.816,502.185 563.5,501.5C 558.722,499.721 553.722,498.387 548.5,497.5C 547.209,497.737 546.209,497.404 545.5,496.5C 544.22,495.069 542.553,494.402 540.5,494.5C 538.574,492.707 536.241,491.707 533.5,491.5C 530.833,490.5 528.167,489.5 525.5,488.5C 525.5,488.167 525.5,487.833 525.5,487.5C 525.027,486.094 524.027,485.427 522.5,485.5C 520.853,483.674 518.853,482.34 516.5,481.5C 515.738,479.738 514.404,478.738 512.5,478.5C 511.738,476.738 510.404,475.738 508.5,475.5C 506.1,472.097 503.1,469.43 499.5,467.5C 493.855,461.177 488.522,454.51 483.5,447.5C 482.331,444.489 480.664,441.822 478.5,439.5C 476.158,434.789 473.825,430.123 471.5,425.5C 465.497,411.818 462.163,397.484 461.5,382.5C 461.5,381.833 461.5,381.167 461.5,380.5C 460.134,351.635 466.467,324.635 480.5,299.5C 480.5,299.167 480.5,298.833 480.5,298.5C 488.389,286.608 498.056,276.274 509.5,267.5C 510.167,267.5 510.5,267.167 510.5,266.5C 530.415,250.884 553.082,242.551 578.5,241.5C 580.621,241.675 582.621,241.341 584.5,240.5C 599.618,240.298 614.285,242.798 628.5,248C 637.974,252.661 647.308,257.494 656.5,262.5C 657.574,264.216 659.241,265.216 661.5,265.5C 662.83,231.336 662.83,197.336 661.5,163.5C 661.5,163.167 661.5,162.833 661.5,162.5C 661.5,161.5 661.5,160.5 661.5,159.5C 661.817,143.756 661.484,128.089 660.5,112.5C 661.833,112.5 662.5,111.833 662.5,110.5C 678.162,109.994 693.829,109.661 709.5,109.5C 709.181,127.577 709.514,145.577 710.5,163.5 Z M 789.5,293.5 C 827.927,300.625 849.927,323.625 855.5,362.5C 832.798,340.133 810.798,317.133 789.5,293.5 Z M 935.5,296.5 C 942.648,295.508 949.981,295.175 957.5,295.5C 957.666,303.174 957.5,310.841 957,318.5C 950.329,310.662 943.162,303.329 935.5,296.5 Z M 1008.5,295.5 C 1015.83,295.5 1023.17,295.5 1030.5,295.5C 1030.5,328.5 1030.5,361.5 1030.5,394.5C 1022.47,387.14 1014.81,379.473 1007.5,371.5C 1008.37,346.178 1008.71,320.845 1008.5,295.5 Z M 547.5,306.5 C 553.167,312.5 558.833,318.5 564.5,324.5C 590.112,351.114 615.778,377.78 641.5,404.5C 644.07,406.614 646.403,408.947 648.5,411.5C 641.833,424.167 632.167,433.833 619.5,440.5C 589.168,408.835 558.502,377.502 527.5,346.5C 524.856,343.52 522.189,340.52 519.5,337.5C 526.062,324.608 535.395,314.274 547.5,306.5 Z M 721.5,330.5 C 738.455,346.456 754.788,363.122 770.5,380.5C 788.62,398.742 806.287,417.409 823.5,436.5C 812.28,443.797 799.947,448.13 786.5,449.5C 760.806,422.807 735.139,396.14 709.5,369.5C 709.325,367.379 709.659,365.379 710.5,363.5C 711.34,357.805 712.34,352.139 713.5,346.5C 715.607,340.953 718.273,335.62 721.5,330.5 Z M 951.5,418.5 C 953.167,420.833 955.167,422.833 957.5,424.5C 957.667,439.504 957.5,454.504 957,469.5C 954.963,467.294 952.797,465.294 950.5,463.5C 945.241,456.737 939.407,450.403 933,444.5C 932.333,429.5 932.333,414.5 933,399.5C 939.424,405.755 945.591,412.089 951.5,418.5 Z"/></g>
<g><path style="opacity:1" fill="#d7d1ca" d="M 686.5,114.5 C 692.5,114.5 698.5,114.5 704.5,114.5C 704.5,166.167 704.5,217.833 704.5,269.5C 705.791,269.737 706.791,269.404 707.5,268.5C 719.178,263.828 730.512,258.328 741.5,252C 770.946,243.172 800.28,243.505 829.5,253C 846.852,261.525 861.852,273.191 874.5,288C 877.878,291.015 881.544,293.515 885.5,295.5C 885.56,296.043 885.893,296.376 886.5,296.5C 887.495,290.872 887.829,285.206 887.5,279.5C 887.457,268.486 887.791,257.486 888.5,246.5C 951.833,246.5 1015.17,246.5 1078.5,246.5C 1078.5,330.5 1078.5,414.5 1078.5,498.5C 1064.83,498.5 1051.17,498.5 1037.5,498.5C 1035.84,429.545 1034.84,360.545 1034.5,291.5C 1023.63,290.179 1012.63,290.179 1001.5,291.5C 1000.5,360.497 1000.17,429.497 1000.5,498.5C 987.833,498.5 975.167,498.5 962.5,498.5C 962.5,429.167 962.5,359.833 962.5,290.5C 951.167,290.5 939.833,290.5 928.5,290.5C 928.5,359.833 928.5,429.167 928.5,498.5C 914.833,498.5 901.167,498.5 887.5,498.5C 887.5,481.167 887.5,463.833 887.5,446.5C 884.575,446.46 881.909,447.293 879.5,449C 876.257,452.821 873.257,456.821 870.5,461C 860.785,469.05 850.785,476.716 840.5,484C 816.156,497.338 790.156,501.672 762.5,497C 746.462,493.148 731.462,486.815 717.5,478C 713.553,476.516 709.553,475.35 705.5,474.5C 705.5,526.833 705.5,579.167 705.5,631.5C 692.165,631.23 678.831,630.897 665.5,630.5C 664.691,587.172 664.358,543.838 664.5,500.5C 664.5,491.167 664.5,481.833 664.5,472.5C 662.901,472.232 661.568,472.566 660.5,473.5C 641.723,486.825 620.723,494.991 597.5,498C 539.573,500.379 498.739,475.213 475,422.5C 457.587,374.283 463.921,329.617 494,288.5C 531.141,247.673 575.974,235.839 628.5,253C 640.143,259.655 652.143,265.489 664.5,270.5C 665.5,218.504 665.833,166.504 665.5,114.5C 672.5,114.5 679.5,114.5 686.5,114.5 Z M 789.5,293.5 C 827.927,300.625 849.927,323.625 855.5,362.5C 832.798,340.133 810.798,317.133 789.5,293.5 Z M 935.5,296.5 C 943.162,303.329 950.329,310.662 957,318.5C 957.5,310.841 957.666,303.174 957.5,295.5C 949.981,295.175 942.648,295.508 935.5,296.5 Z M 1008.5,295.5 C 1015.83,295.5 1023.17,295.5 1030.5,295.5C 1030.5,328.5 1030.5,361.5 1030.5,394.5C 1022.47,387.14 1014.81,379.473 1007.5,371.5C 1008.37,346.178 1008.71,320.845 1008.5,295.5 Z M 547.5,306.5 C 553.167,312.5 558.833,318.5 564.5,324.5C 590.112,351.114 615.778,377.78 641.5,404.5C 644.07,406.614 646.403,408.947 648.5,411.5C 641.833,424.167 632.167,433.833 619.5,440.5C 589.168,408.835 558.502,377.502 527.5,346.5C 524.856,343.52 522.189,340.52 519.5,337.5C 526.062,324.608 535.395,314.274 547.5,306.5 Z M 721.5,330.5 C 738.455,346.456 754.788,363.122 770.5,380.5C 788.62,398.742 806.287,417.409 823.5,436.5C 812.28,443.797 799.947,448.13 786.5,449.5C 760.806,422.807 735.139,396.14 709.5,369.5C 709.325,367.379 709.659,365.379 710.5,363.5C 711.34,357.805 712.34,352.139 713.5,346.5C 715.607,340.953 718.273,335.62 721.5,330.5 Z M 951.5,418.5 C 953.167,420.833 955.167,422.833 957.5,424.5C 957.667,439.504 957.5,454.504 957,469.5C 954.963,467.294 952.797,465.294 950.5,463.5C 945.241,456.737 939.407,450.403 933,444.5C 932.333,429.5 932.333,414.5 933,399.5C 939.424,405.755 945.591,412.089 951.5,418.5 Z"/></g>
<g><path style="opacity:0.039" fill="#734e2d" d="M 531.5,130.5 C 530.833,131.167 530.833,131.167 531.5,130.5 Z"/></g>
<g><path style="opacity:1" fill="#d57130" d="M 578.5,241.5 C 553.082,242.551 530.415,250.884 510.5,266.5C 497.865,252.198 484.531,238.531 470.5,225.5C 466.243,219.738 461.41,214.405 456,209.5C 455.333,208.833 455.333,208.167 456,207.5C 472.014,191.319 488.181,175.319 504.5,159.5C 530.606,186.195 556.606,213.028 582.5,240C 580.942,240.21 579.609,240.71 578.5,241.5 Z"/></g>
<g><path style="opacity:1" fill="#0e0c0d" d="M 2099.5,159.5 C 2107.41,159.279 2115.08,160.446 2122.5,163C 2142.22,217.98 2160.22,273.48 2176.5,329.5C 2165.52,330.518 2154.52,330.684 2143.5,330C 2138.67,329.849 2135.17,327.683 2133,323.5C 2132.09,314.274 2129.42,305.608 2125,297.5C 2123.53,295.993 2121.69,295.326 2119.5,295.5C 2104.82,296.084 2090.15,296.917 2075.5,298C 2072.27,308.076 2069.27,318.242 2066.5,328.5C 2053.52,329.499 2040.52,329.832 2027.5,329.5C 2028.7,321.367 2030.53,313.367 2033,305.5C 2048.79,257.669 2063.96,209.669 2078.5,161.5C 2085.66,160.986 2092.66,160.319 2099.5,159.5 Z M 2098.5,214.5 C 2099.5,214.414 2100.33,214.748 2101,215.5C 2108.15,231.101 2112.65,247.435 2114.5,264.5C 2104.83,264.5 2095.17,264.5 2085.5,264.5C 2089.84,247.827 2094.17,231.161 2098.5,214.5 Z"/></g>
<g><path style="opacity:1" fill="#0d0c0d" d="M 2221.5,159.5 C 2237.24,159.083 2252.9,159.916 2268.5,162C 2306.04,167.906 2321.54,189.739 2315,227.5C 2311.57,250.542 2298.74,265.375 2276.5,272C 2263.02,275.096 2249.35,276.596 2235.5,276.5C 2233.66,293.759 2232.99,311.092 2233.5,328.5C 2219.83,331.056 2206.16,331.056 2192.5,328.5C 2193.34,272.838 2193.67,217.171 2193.5,161.5C 2203,161.095 2212.34,160.428 2221.5,159.5 Z M 2234.5,194.5 C 2242.17,194.334 2249.84,194.5 2257.5,195C 2264.58,195.453 2269.42,198.953 2272,205.5C 2275.31,214.627 2274.98,223.627 2271,232.5C 2267.13,238.354 2261.63,241.521 2254.5,242C 2248.18,242.5 2241.84,242.666 2235.5,242.5C 2234.9,226.507 2234.57,210.507 2234.5,194.5 Z"/></g>
<g><path style="opacity:1" fill="#0e0d0d" d="M 1148.5,160.5 C 1166.5,160.333 1184.5,160.5 1202.5,161C 1229.49,158.949 1248.99,169.783 1261,193.5C 1269.26,220.622 1263.1,243.789 1242.5,263C 1224.43,273.884 1204.77,278.551 1183.5,277C 1182.69,277.308 1182.03,277.808 1181.5,278.5C 1180.51,295.453 1180.18,312.453 1180.5,329.5C 1168.22,329.106 1156.05,329.773 1144,331.5C 1143.67,331.167 1143.33,330.833 1143,330.5C 1141.16,314.067 1140.66,297.733 1141.5,281.5C 1139.49,241.614 1139.82,201.614 1142.5,161.5C 1144.74,161.795 1146.74,161.461 1148.5,160.5 Z M 1185.5,194.5 C 1192.86,194.558 1200.19,195.058 1207.5,196C 1218.81,199.782 1223.64,207.615 1222,219.5C 1217.94,239.792 1205.77,247.292 1185.5,242C 1184.07,241.535 1182.9,240.701 1182,239.5C 1180.15,225.206 1180.15,210.872 1182,196.5C 1183.3,195.915 1184.47,195.249 1185.5,194.5 Z"/></g>
<g><path style="opacity:1" fill="#0d0c0d" d="M 1320.5,329.5 C 1319.79,328.596 1318.79,328.263 1317.5,328.5C 1317.83,284.663 1317.5,240.997 1316.5,197.5C 1316.08,196.778 1315.42,196.278 1314.5,196C 1309.51,195.501 1304.51,195.334 1299.5,195.5C 1296.38,194.521 1293.04,194.187 1289.5,194.5C 1282.8,194.664 1276.13,194.331 1269.5,193.5C 1269.24,182.795 1269.57,172.128 1270.5,161.5C 1315.17,161.5 1359.83,161.5 1404.5,161.5C 1404.5,172.5 1404.5,183.5 1404.5,194.5C 1388.5,194.5 1372.5,194.5 1356.5,194.5C 1356.5,239.5 1356.5,284.5 1356.5,329.5C 1344.5,329.5 1332.5,329.5 1320.5,329.5 Z"/></g>
<g><path style="opacity:1" fill="#0d0c0d" d="M 1615.5,161.5 C 1663.36,163.182 1690.52,187.848 1697,235.5C 1700.13,266.792 1690.3,292.958 1667.5,314C 1646.4,328.531 1623.07,334.031 1597.5,330.5C 1588.87,329.557 1580.2,329.224 1571.5,329.5C 1566.36,328.512 1561.03,328.179 1555.5,328.5C 1555.5,272.833 1555.5,217.167 1555.5,161.5C 1575.5,161.5 1595.5,161.5 1615.5,161.5 Z M 1594.5,194.5 C 1634.35,188.863 1654.68,206.03 1655.5,246C 1654.68,284.891 1635.01,302.224 1596.5,298C 1595.87,297.25 1595.37,296.416 1595,295.5C 1594.5,261.835 1594.33,228.168 1594.5,194.5 Z"/></g>
<g><path style="opacity:1" fill="#0e0c0d" d="M 1910.5,218.5 C 1910.22,217.711 1909.72,217.044 1909,216.5C 1908.5,253.832 1908.33,291.165 1908.5,328.5C 1896.63,331.152 1884.8,331.152 1873,328.5C 1872.02,310.179 1871.52,291.845 1871.5,273.5C 1872.5,236.337 1872.83,199.004 1872.5,161.5C 1887.84,161.333 1903.17,161.5 1918.5,162C 1920.26,162.202 1921.92,162.702 1923.5,163.5C 1939.53,192.883 1955.03,222.55 1970,252.5C 1970.69,253.357 1971.52,254.023 1972.5,254.5C 1973.7,234.183 1973.7,213.683 1972.5,193C 1972.43,182.441 1973.1,171.941 1974.5,161.5C 1986.21,161.457 1997.71,161.457 2009,161.5C 2010.07,167.449 2010.74,173.449 2011,179.5C 2011.85,229.517 2011.35,279.517 2009.5,329.5C 1996.07,329.58 1982.73,329.58 1969.5,329.5C 1953.03,295.91 1935.87,262.243 1918,228.5C 1916.05,224.724 1913.55,221.39 1910.5,218.5 Z"/></g>
<g><path style="opacity:0.996" fill="#0b0a0b" d="M 2471.5,325.5 C 2471.5,326.833 2471.5,328.167 2471.5,329.5C 2469.83,329.5 2468.17,329.5 2466.5,329.5C 2454.5,329.5 2442.5,329.5 2430.5,329.5C 2427.63,318.5 2424.63,307.167 2421.5,295.5C 2404.83,295.885 2388.17,296.218 2371.5,296.5C 2368.29,307.46 2365.29,318.46 2362.5,329.5C 2348.5,329.5 2334.5,329.5 2320.5,329.5C 2338.97,273.426 2357.64,217.426 2376.5,161.5C 2390.17,161.333 2403.84,161.5 2417.5,162C 2424.22,174.143 2429.38,186.977 2433,200.5C 2446.15,242.109 2458.98,283.776 2471.5,325.5 Z M 2397.5,213.5 C 2402.61,230.27 2407.28,247.27 2411.5,264.5C 2401.83,264.5 2392.17,264.5 2382.5,264.5C 2383.95,246.372 2388.95,229.372 2397.5,213.5 Z"/></g>
<g><path style="opacity:0.996" fill="#09090a" d="M 2605.5,161.5 C 2605.5,172.5 2605.5,183.5 2605.5,194.5C 2590.17,194.5 2574.83,194.5 2559.5,194.5C 2559.5,239.167 2559.5,283.833 2559.5,328.5C 2546.83,328.5 2534.17,328.5 2521.5,328.5C 2521.83,283.997 2521.5,239.664 2520.5,195.5C 2504.83,195.5 2489.17,195.5 2473.5,195.5C 2470.83,184.166 2470.83,172.832 2473.5,161.5C 2517.5,161.5 2561.5,161.5 2605.5,161.5 Z"/></g>
<g><path style="opacity:1" fill="#0e0c0d" d="M 3100.5,160.5 C 3107.13,161.214 3113.8,161.714 3120.5,162C 3122.05,163.214 3123.22,164.714 3124,166.5C 3124.39,202.146 3124.39,237.813 3124,273.5C 3122.59,305.916 3106.09,326.082 3074.5,334C 3047.11,340.314 3023.61,333.481 3004,313.5C 2994.14,300.578 2989.47,285.911 2990,269.5C 2989.5,233.502 2989.33,197.502 2989.5,161.5C 3003.5,161.5 3017.5,161.5 3031.5,161.5C 3031.03,202.201 3031.53,242.868 3033,283.5C 3036.69,295.852 3045.02,301.852 3058,301.5C 3073.92,300.251 3082.58,291.584 3084,275.5C 3086.11,257.916 3085.95,240.416 3083.5,223C 3084.83,207.667 3084.83,192.333 3083.5,177C 3084.98,172.097 3085.98,167.097 3086.5,162C 3091.35,161.826 3096.02,161.326 3100.5,160.5 Z"/></g>
<g><path style="opacity:1" fill="#0d0c0d" d="M 3194.5,283.5 C 3194.5,288.5 3194.5,293.5 3194.5,298.5C 3207.17,298.5 3219.83,298.5 3232.5,298.5C 3242.17,298.5 3251.83,298.5 3261.5,298.5C 3261.5,308.5 3261.5,318.5 3261.5,328.5C 3226.17,329.771 3190.84,329.771 3155.5,328.5C 3155.26,325.681 3155.26,322.681 3155.5,319.5C 3156.5,268.336 3156.83,217.003 3156.5,165.5C 3157.02,162.812 3158.69,161.312 3161.5,161C 3172.52,160.316 3183.52,160.482 3194.5,161.5C 3194.5,202.167 3194.5,242.833 3194.5,283.5 Z"/></g>
<g><path style="opacity:1" fill="#0e0d0d" d="M 3524.5,328.5 C 3524.5,329.167 3524.5,329.833 3524.5,330.5C 3510.6,329.668 3496.76,329.668 3483,330.5C 3480.05,326.471 3478.22,322.305 3477.5,318C 3475.19,311.085 3473.19,304.085 3471.5,297C 3454.82,296.167 3438.16,296.334 3421.5,297.5C 3419.47,308.761 3416.13,319.594 3411.5,330C 3397.86,329.782 3384.19,329.448 3370.5,329C 3389.73,274.316 3407.56,219.149 3424,163.5C 3425.53,162.28 3427.36,161.613 3429.5,161.5C 3441.15,160.445 3452.82,160.278 3464.5,161C 3467.2,161.69 3469.36,163.19 3471,165.5C 3486.2,212.772 3501.2,260.105 3516,307.5C 3518.76,314.64 3521.6,321.64 3524.5,328.5 Z M 3446.5,213.5 C 3451.87,230.118 3456.87,246.952 3461.5,264C 3451.84,264.5 3442.17,264.666 3432.5,264.5C 3435.54,247.04 3440.21,230.04 3446.5,213.5 Z"/></g>
<g><path style="opacity:1" fill="#0e0c0d" d="M 1757.5,161.5 C 1773.17,161.5 1788.83,161.5 1804.5,161.5C 1806.61,172.672 1809.45,183.672 1813,194.5C 1824.33,229.167 1835.67,263.833 1847,298.5C 1849.82,308.438 1852.32,318.438 1854.5,328.5C 1842.91,330.466 1831.25,330.966 1819.5,330C 1815.36,328.526 1812.53,325.693 1811,321.5C 1808.43,313.125 1805.93,305.125 1803.5,297.5C 1787.46,294.69 1771.46,294.856 1755.5,298C 1754.3,298.903 1753.47,300.069 1753,301.5C 1751.56,311.322 1748.06,320.322 1742.5,328.5C 1731.18,329.666 1719.85,329.832 1708.5,329C 1707.38,328.751 1706.38,328.251 1705.5,327.5C 1707.02,320.1 1708.85,312.767 1711,305.5C 1727.42,257.756 1742.92,209.756 1757.5,161.5 Z M 1778.5,217.5 C 1782,221.148 1784.5,225.481 1786,230.5C 1789.46,241.009 1792.29,251.675 1794.5,262.5C 1784.52,263.666 1774.52,263.832 1764.5,263C 1767.86,247.426 1772.52,232.26 1778.5,217.5 Z"/></g>
<g><path style="opacity:1" fill="#0e0c0d" d="M 2703.5,300.5 C 2703.5,309.833 2703.5,319.167 2703.5,328.5C 2693.99,328.173 2684.65,328.506 2675.5,329.5C 2675.17,329.5 2674.83,329.5 2674.5,329.5C 2669.69,328.513 2664.69,328.179 2659.5,328.5C 2645.83,328.5 2632.17,328.5 2618.5,328.5C 2618.79,324.563 2618.46,320.73 2617.5,317C 2619.12,311.996 2619.78,306.829 2619.5,301.5C 2626.49,301.001 2633.49,300.668 2640.5,300.5C 2640.5,263.833 2640.5,227.167 2640.5,190.5C 2633.59,190.162 2626.75,189.495 2620,188.5C 2619.5,179.506 2619.33,170.506 2619.5,161.5C 2647.5,161.5 2675.5,161.5 2703.5,161.5C 2703.88,170.568 2703.38,179.568 2702,188.5C 2695.43,190.037 2688.76,191.037 2682,191.5C 2680.49,221.818 2680.15,252.151 2681,282.5C 2681.28,288.216 2681.95,293.883 2683,299.5C 2684.01,300.658 2685.34,301.325 2687,301.5C 2692.47,300.682 2697.97,300.348 2703.5,300.5 Z"/></g>
<g><path style="opacity:1" fill="#0e0c0d" d="M 2794.5,161.5 C 2810.5,161.333 2826.5,161.5 2842.5,162C 2854,188.483 2865.5,214.983 2877,241.5C 2880.17,237.159 2882.84,232.492 2885,227.5C 2893.34,205.632 2902.18,183.966 2911.5,162.5C 2927.15,161.501 2942.82,161.167 2958.5,161.5C 2958.5,217.833 2958.5,274.167 2958.5,330.5C 2945.14,330.005 2931.81,329.339 2918.5,328.5C 2918.21,295.248 2918.05,261.582 2918,227.5C 2916.17,229.156 2914.84,231.156 2914,233.5C 2906.14,251.418 2898.47,269.418 2891,287.5C 2890.04,288.579 2889.21,289.745 2888.5,291C 2879.92,291.816 2871.42,291.649 2863,290.5C 2854.84,274.018 2847.84,257.018 2842,239.5C 2839.89,234.159 2837.23,229.159 2834,224.5C 2833.5,259.498 2833.33,294.498 2833.5,329.5C 2824.44,329.699 2815.61,330.032 2807,330.5C 2803.33,329.833 2799.67,329.167 2796,328.5C 2795.81,322.584 2795.31,316.751 2794.5,311C 2795.64,261.51 2795.64,211.677 2794.5,161.5 Z"/></g>
<g><path style="opacity:1" fill="#0e0c0d" d="M 3274.5,161.5 C 3303.83,161.5 3333.17,161.5 3362.5,161.5C 3362.26,170.837 3361.92,180.171 3361.5,189.5C 3354.46,189.28 3347.46,189.614 3340.5,190.5C 3339.58,218.359 3339.25,246.192 3339.5,274C 3339.58,281.861 3340.08,289.694 3341,297.5C 3341.5,299.333 3342.67,300.5 3344.5,301C 3350.16,301.499 3355.82,301.666 3361.5,301.5C 3361.75,310.54 3361.41,319.54 3360.5,328.5C 3347.72,329.953 3334.89,330.62 3322,330.5C 3306.17,330.153 3290.33,329.819 3274.5,329.5C 3275.25,319.852 3275.58,310.185 3275.5,300.5C 3281.48,301.409 3287.48,301.575 3293.5,301C 3294.93,300.535 3296.1,299.701 3297,298.5C 3298.04,292.387 3298.54,286.221 3298.5,280C 3297.62,250.174 3297.29,220.34 3297.5,190.5C 3290.16,190.277 3282.83,189.944 3275.5,189.5C 3274.77,180.185 3274.43,170.852 3274.5,161.5 Z"/></g>
<g><path style="opacity:0.204" fill="#241e1c" d="M 3156.5,165.5 C 3156.83,217.003 3156.5,268.336 3155.5,319.5C 3155.71,284.66 3155.38,251.16 3154.5,219C 3155.16,201.069 3155.83,183.236 3156.5,165.5 Z"/></g>
<g><path style="opacity:0.804" fill="#483428" d="M 584.5,240.5 C 582.621,241.341 580.621,241.675 578.5,241.5C 579.609,240.71 580.942,240.21 582.5,240C 556.606,213.028 530.606,186.195 504.5,159.5C 488.181,175.319 472.014,191.319 456,207.5C 455.333,208.167 455.333,208.833 456,209.5C 461.41,214.405 466.243,219.738 470.5,225.5C 470.167,225.5 469.833,225.5 469.5,225.5C 465.655,222.508 462.655,219.341 460.5,216C 458,214.167 455.833,212 454,209.5C 453.333,208.5 453.333,207.5 454,206.5C 470.667,189.833 487.333,173.167 504,156.5C 531.401,184.066 558.235,212.066 584.5,240.5 Z"/></g>
<g><path style="opacity:0.957" fill="#3d2e25" d="M 710.5,163.5 C 735.504,189.171 760.171,215.171 784.5,241.5C 780.833,241.5 777.167,241.5 773.5,241.5C 775.969,240.683 778.635,240.183 781.5,240C 757.969,214.637 733.969,189.804 709.5,165.5C 709.833,164.833 710.167,164.167 710.5,163.5 Z"/></g>
<g><path style="opacity:0.291" fill="#211c1a" d="M 1615.5,161.5 C 1595.5,161.5 1575.5,161.5 1555.5,161.5C 1555.5,217.167 1555.5,272.833 1555.5,328.5C 1561.03,328.179 1566.36,328.512 1571.5,329.5C 1565.83,330.833 1560.17,330.833 1554.5,329.5C 1554.2,273.611 1554.2,217.277 1554.5,160.5C 1575.01,160.17 1595.34,160.503 1615.5,161.5 Z"/></g>
<g><path style="opacity:0.039" fill="#734e2d" d="M 575.5,176.5 C 574.833,177.167 574.833,177.167 575.5,176.5 Z"/></g>
<g><path style="opacity:0.272" fill="#231d1b" d="M 1872.5,161.5 C 1872.83,199.004 1872.5,236.337 1871.5,273.5C 1871.71,244.902 1871.38,216.069 1870.5,187C 1871.15,178.402 1871.82,169.902 1872.5,161.5 Z"/></g>
<g><path style="opacity:0.086" fill="#593d29" d="M 1289.5,194.5 C 1293.04,194.187 1296.38,194.521 1299.5,195.5C 1296.41,196.345 1293.08,196.011 1289.5,194.5 Z"/></g>
<g><path style="opacity:0.345" fill="#1f1a19" d="M 2605.5,161.5 C 2606.49,172.654 2606.83,183.988 2606.5,195.5C 2591.02,195.693 2575.69,195.693 2560.5,195.5C 2560.5,240.167 2560.5,284.833 2560.5,329.5C 2547.15,329.915 2533.82,329.915 2520.5,329.5C 2520.5,284.833 2520.5,240.167 2520.5,195.5C 2521.5,239.664 2521.83,283.997 2521.5,328.5C 2534.17,328.5 2546.83,328.5 2559.5,328.5C 2559.5,283.833 2559.5,239.167 2559.5,194.5C 2574.83,194.5 2590.17,194.5 2605.5,194.5C 2605.5,183.5 2605.5,172.5 2605.5,161.5 Z"/></g>
<g><path style="opacity:0.996" fill="#64615f" d="M 686.5,114.5 C 692.645,113.51 698.978,113.177 705.5,113.5C 704.838,165.511 705.504,217.177 707.5,268.5C 706.791,269.404 705.791,269.737 704.5,269.5C 704.5,217.833 704.5,166.167 704.5,114.5C 698.5,114.5 692.5,114.5 686.5,114.5 Z"/></g>
<g><path style="opacity:0.957" fill="#3c2c23" d="M 541.5,140.5 C 541.833,140.5 542.167,140.5 542.5,140.5C 582.497,180.997 621.997,221.997 661,263.5C 661.5,230.168 661.667,196.835 661.5,163.5C 662.83,197.336 662.83,231.336 661.5,265.5C 659.241,265.216 657.574,264.216 656.5,262.5C 656.938,262.565 657.272,262.399 657.5,262C 645.022,248.688 632.355,235.521 619.5,222.5C 604.92,207.183 590.254,191.85 575.5,176.5C 563.829,164.828 552.495,152.828 541.5,140.5 Z"/></g>
<g><path style="opacity:1" fill="#3a2a21" d="M 710.5,212.5 C 722.194,223.527 733.527,234.86 744.5,246.5C 744.158,247.338 743.492,247.672 742.5,247.5C 731.506,236.339 720.672,225.005 710,213.5C 709.5,230.163 709.333,246.83 709.5,263.5C 708.834,255.173 708.5,246.673 708.5,238C 708.502,229.139 709.169,220.639 710.5,212.5 Z"/></g>
<g><path style="opacity:1" fill="#d37030" d="M 742.5,247.5 C 731.653,253.09 720.653,258.423 709.5,263.5C 709.333,246.83 709.5,230.163 710,213.5C 720.672,225.005 731.506,236.339 742.5,247.5 Z"/></g>
<g><path style="opacity:0.251" fill="#221d1b" d="M 1910.5,218.5 C 1909.83,255.167 1909.17,291.833 1908.5,328.5C 1908.33,291.165 1908.5,253.832 1909,216.5C 1909.72,217.044 1910.22,217.711 1910.5,218.5 Z"/></g>
<g><path style="opacity:0.039" fill="#734e2d" d="M 619.5,222.5 C 618.833,223.167 618.833,223.167 619.5,222.5 Z"/></g>
<g><path style="opacity:0.957" fill="#372a24" d="M 469.5,225.5 C 469.833,225.5 470.167,225.5 470.5,225.5C 484.531,238.531 497.865,252.198 510.5,266.5C 510.5,267.167 510.167,267.5 509.5,267.5C 502.167,259.833 494.833,252.167 487.5,244.5C 481.528,238.193 475.528,231.86 469.5,225.5 Z"/></g>
<g><path style="opacity:1" fill="#d47130" d="M 480.5,299.5 C 466.467,324.635 460.134,351.635 461.5,380.5C 431.519,350.519 401.853,320.186 372.5,289.5C 388.5,272.833 404.833,256.5 421.5,240.5C 440.827,260.494 460.494,280.161 480.5,299.5 Z"/></g>
<g><path style="opacity:0.347" fill="#221c1a" d="M 1316.5,197.5 C 1317.5,240.997 1317.83,284.663 1317.5,328.5C 1318.79,328.263 1319.79,328.596 1320.5,329.5C 1319.17,329.5 1317.83,329.5 1316.5,329.5C 1316.04,284.544 1316.04,240.544 1316.5,197.5 Z"/></g>
<g><path style="opacity:0.039" fill="#734e2d" d="M 487.5,244.5 C 486.833,245.167 486.833,245.167 487.5,244.5 Z"/></g>
<g><path style="opacity:0.957" fill="#382b25" d="M 480.5,298.5 C 480.5,298.833 480.5,299.167 480.5,299.5C 460.494,280.161 440.827,260.494 421.5,240.5C 404.833,256.5 388.5,272.833 372.5,289.5C 401.853,320.186 431.519,350.519 461.5,380.5C 461.5,381.167 461.5,381.833 461.5,382.5C 435.851,356.585 410.184,330.585 384.5,304.5C 380.231,299.729 375.731,295.062 371,290.5C 370.333,289.833 370.333,289.167 371,288.5C 387.681,271.653 404.514,254.986 421.5,238.5C 441.885,257.884 461.551,277.884 480.5,298.5 Z"/></g>
<g><path style="opacity:1" fill="#54504e" d="M 887.5,279.5 C 887.829,285.206 887.495,290.872 886.5,296.5C 885.893,296.376 885.56,296.043 885.5,295.5C 886.167,290.167 886.833,284.833 887.5,279.5 Z"/></g>
<g><path style="opacity:0.993" fill="#090909" d="M 1456.5,287.5 C 1457.5,300.99 1457.83,314.656 1457.5,328.5C 1445.82,329.039 1434.15,329.706 1422.5,330.5C 1421.58,330.457 1420.92,330.124 1420.5,329.5C 1421.13,315.509 1421.46,301.509 1421.5,287.5C 1433.17,287.5 1444.83,287.5 1456.5,287.5 Z"/></g>
<g><path style="opacity:1" fill="#110d0c" d="M 577.5,288.5 C 616.234,288.73 643.067,306.73 658,342.5C 666.818,372.307 662.485,399.974 645,425.5C 619.71,452.294 589.543,459.794 554.5,448C 515.089,424.439 500.589,390.272 511,345.5C 523.035,314.436 545.202,295.436 577.5,288.5 Z M 547.5,306.5 C 553.167,312.5 558.833,318.5 564.5,324.5C 590.112,351.114 615.778,377.78 641.5,404.5C 644.07,406.614 646.403,408.947 648.5,411.5C 641.833,424.167 632.167,433.833 619.5,440.5C 589.168,408.835 558.502,377.502 527.5,346.5C 524.856,343.52 522.189,340.52 519.5,337.5C 526.062,324.608 535.395,314.274 547.5,306.5 Z"/></g>
<g><path style="opacity:1" fill="#0e0c0a" d="M 774.5,288.5 C 822.318,288.983 850.818,312.649 860,359.5C 864.183,411.355 841.016,442.855 790.5,454C 757.507,454.918 732.674,441.085 716,412.5C 693.248,357.165 709.081,316.999 763.5,292C 767.254,290.691 770.921,289.525 774.5,288.5 Z M 789.5,293.5 C 827.927,300.625 849.927,323.625 855.5,362.5C 832.798,340.133 810.798,317.133 789.5,293.5 Z M 721.5,330.5 C 738.455,346.456 754.788,363.122 770.5,380.5C 788.62,398.742 806.287,417.409 823.5,436.5C 812.28,443.797 799.947,448.13 786.5,449.5C 760.806,422.807 735.139,396.14 709.5,369.5C 709.325,367.379 709.659,365.379 710.5,363.5C 711.34,357.805 712.34,352.139 713.5,346.5C 715.607,340.953 718.273,335.62 721.5,330.5 Z"/></g>
<g><path style="opacity:1" fill="#8d827b" d="M 1456.5,287.5 C 1444.83,287.5 1433.17,287.5 1421.5,287.5C 1421.46,301.509 1421.13,315.509 1420.5,329.5C 1419.78,329.082 1419.28,328.416 1419,327.5C 1418.28,313.482 1418.45,299.482 1419.5,285.5C 1432,285.985 1444.33,286.652 1456.5,287.5 Z"/></g>
<g><path style="opacity:1" fill="#d47130" d="M 650.5,409.5 C 643.256,403.762 636.423,397.428 630,390.5C 602.629,361.964 575.462,333.297 548.5,304.5C 581.596,285.682 611.429,290.015 638,317.5C 660.498,345.544 664.665,376.21 650.5,409.5 Z"/></g>
<g><path style="opacity:1" fill="#d57130" d="M 787.5,293.5 C 810.141,318.141 833.141,342.475 856.5,366.5C 857.778,388.069 851.945,407.402 839,424.5C 835.077,428.202 830.91,431.536 826.5,434.5C 819.256,428.762 812.423,422.428 806,415.5C 778.3,386.301 750.466,357.301 722.5,328.5C 737.304,308.595 756.971,296.595 781.5,292.5C 783.548,292.672 785.548,293.005 787.5,293.5 Z"/></g>
<g><path style="opacity:0.616" fill="#2f241f" d="M 957.5,320.5 C 949.279,312.401 941.279,304.067 933.5,295.5C 941.748,294.531 950.082,294.198 958.5,294.5C 958.803,303.251 958.47,311.918 957.5,320.5 Z M 935.5,296.5 C 943.162,303.329 950.329,310.662 957,318.5C 957.5,310.841 957.666,303.174 957.5,295.5C 949.981,295.175 942.648,295.508 935.5,296.5 Z"/></g>
<g><path style="opacity:1" fill="#bbb1a7" d="M 1008.5,295.5 C 1008.71,320.845 1008.37,346.178 1007.5,371.5C 1007.5,372.5 1007.5,373.5 1007.5,374.5C 1006.61,407.824 1006.28,441.157 1006.5,474.5C 1006.5,475.167 1006.5,475.833 1006.5,476.5C 1007.14,485.565 1006.47,494.231 1004.5,502.5C 1004.5,433.5 1004.5,364.5 1004.5,295.5C 1005.83,295.5 1007.17,295.5 1008.5,295.5 Z"/></g>
<g><path style="opacity:0.252" fill="#362820" d="M 3194.5,283.5 C 3195.49,287.97 3195.82,292.637 3195.5,297.5C 3208.01,297.171 3220.34,297.505 3232.5,298.5C 3219.83,298.5 3207.17,298.5 3194.5,298.5C 3194.5,293.5 3194.5,288.5 3194.5,283.5 Z"/></g>
<g><path style="opacity:1" fill="#d57333" d="M 933.5,295.5 C 941.279,304.067 949.279,312.401 957.5,320.5C 957.5,320.833 957.5,321.167 957.5,321.5C 957.667,354.835 957.5,388.168 957,421.5C 955.629,419.959 954.129,418.625 952.5,417.5C 945.838,410.671 939.338,403.671 933,396.5C 932.5,384.505 932.333,372.505 932.5,360.5C 932.167,338.091 932.501,316.424 933.5,295.5 Z"/></g>
<g><path style="opacity:0.957" fill="#3c2d25" d="M 787.5,293.5 C 788.167,293.5 788.833,293.5 789.5,293.5C 810.798,317.133 832.798,340.133 855.5,362.5C 855.833,363.833 856.167,365.167 856.5,366.5C 833.141,342.475 810.141,318.141 787.5,293.5 Z"/></g>
<g><path style="opacity:0.039" fill="#734e2d" d="M 384.5,304.5 C 383.833,305.167 383.833,305.167 384.5,304.5 Z"/></g>
<g><path style="opacity:1" fill="#d57130" d="M 483.5,447.5 C 488.522,454.51 493.855,461.177 499.5,467.5C 501.9,470.903 504.9,473.57 508.5,475.5C 509.262,477.262 510.596,478.262 512.5,478.5C 513.262,480.262 514.596,481.262 516.5,481.5C 517.5,483.167 518.833,484.5 520.5,485.5C 525.5,491.167 530.833,496.5 536.5,501.5C 540.461,507.129 545.127,512.129 550.5,516.5C 586.802,555.135 623.802,593.135 661.5,630.5C 661.5,631.833 661.5,633.167 661.5,634.5C 662.873,634.343 664.207,634.51 665.5,635C 667.037,636.707 668.704,638.207 670.5,639.5C 674.461,645.129 679.127,650.129 684.5,654.5C 690.5,661.167 696.833,667.5 703.5,673.5C 716.812,687.813 730.145,702.146 743.5,716.5C 727.681,732.819 711.681,748.986 695.5,765C 693.613,765.163 692.113,764.329 691,762.5C 562.333,629.833 433.667,497.167 305,364.5C 304.333,363.833 304.333,363.167 305,362.5C 321.014,346.319 337.181,330.319 353.5,314.5C 396.855,358.854 440.188,403.187 483.5,447.5 Z"/></g>
<g><path style="opacity:1" fill="#9c826f" d="M 2471.5,325.5 C 2473.61,326.784 2474.61,328.784 2474.5,331.5C 2471.57,331.435 2468.91,330.768 2466.5,329.5C 2468.17,329.5 2469.83,329.5 2471.5,329.5C 2471.5,328.167 2471.5,326.833 2471.5,325.5 Z"/></g>
<g><path style="opacity:0.086" fill="#593d29" d="M 2659.5,328.5 C 2664.69,328.179 2669.69,328.513 2674.5,329.5C 2673.88,329.611 2673.38,329.944 2673,330.5C 2668.4,329.858 2663.9,329.191 2659.5,328.5 Z"/></g>
<g><path style="opacity:0.227" fill="#342720" d="M 2703.5,300.5 C 2704.49,309.986 2704.83,319.652 2704.5,329.5C 2694.58,330.031 2684.91,330.031 2675.5,329.5C 2684.65,328.506 2693.99,328.173 2703.5,328.5C 2703.5,319.167 2703.5,309.833 2703.5,300.5 Z"/></g>
<g><path style="opacity:0.957" fill="#3c2d25" d="M 473.5,434.5 C 473.5,435.167 473.833,435.5 474.5,435.5C 475.833,436.833 477.167,438.167 478.5,439.5C 480.664,441.822 482.331,444.489 483.5,447.5C 440.188,403.187 396.855,358.854 353.5,314.5C 337.181,330.319 321.014,346.319 305,362.5C 304.333,363.167 304.333,363.833 305,364.5C 433.667,497.167 562.333,629.833 691,762.5C 692.113,764.329 693.613,765.163 695.5,765C 711.681,748.986 727.681,732.819 743.5,716.5C 730.145,702.146 716.812,687.813 703.5,673.5C 703.5,673.167 703.5,672.833 703.5,672.5C 717.104,686.605 730.938,700.605 745,714.5C 745.667,715.5 745.667,716.5 745,717.5C 728.319,734.347 711.486,751.014 694.5,767.5C 686.59,759.951 678.924,752.284 671.5,744.5C 661.806,734.473 652.139,724.473 642.5,714.5C 632.778,704.447 623.112,694.447 613.5,684.5C 567.918,636.916 521.918,589.582 475.5,542.5C 474.5,540.833 473.167,539.5 471.5,538.5C 415.833,481.167 360.167,423.833 304.5,366.5C 303.2,365.399 302.7,364.066 303,362.5C 319.681,345.653 336.514,328.986 353.5,312.5C 393.883,352.882 433.883,393.549 473.5,434.5 Z"/></g>
<g><path style="opacity:0.957" fill="#3c2d25" d="M 548.5,304.5 C 575.462,333.297 602.629,361.964 630,390.5C 636.423,397.428 643.256,403.762 650.5,409.5C 650.167,410.5 649.5,411.167 648.5,411.5C 646.403,408.947 644.07,406.614 641.5,404.5C 615.778,377.78 590.112,351.114 564.5,324.5C 558.833,318.5 553.167,312.5 547.5,306.5C 547.328,305.508 547.662,304.842 548.5,304.5 Z"/></g>
<g><path style="opacity:1" fill="#d47130" d="M 527.5,347.5 C 554.797,375.965 582.297,404.298 610,432.5C 612.741,435.729 615.241,439.062 617.5,442.5C 571.744,458.859 538.244,445.193 517,401.5C 509.692,381.48 509.692,361.48 517,341.5C 517.423,340.044 518.256,339.544 519.5,340C 522.036,342.705 524.703,345.205 527.5,347.5 Z"/></g>
<g><path style="opacity:0.698" fill="#a39081" d="M 713.5,346.5 C 712.34,352.139 711.34,357.805 710.5,363.5C 709.712,357.624 710.712,351.957 713.5,346.5 Z"/></g>
<g><path style="opacity:0.039" fill="#734e2d" d="M 304.5,366.5 C 303.833,367.167 303.833,367.167 304.5,366.5 Z"/></g>
<g><path style="opacity:0.957" fill="#3d2e25" d="M 527.5,346.5 C 558.502,377.502 589.168,408.835 619.5,440.5C 618.833,441.167 618.167,441.833 617.5,442.5C 615.241,439.062 612.741,435.729 610,432.5C 582.297,404.298 554.797,375.965 527.5,347.5C 527.5,347.167 527.5,346.833 527.5,346.5 Z"/></g>
<g><path style="opacity:0.973" fill="#5d3b28" d="M 957.5,321.5 C 958.829,355.736 958.829,390.069 957.5,424.5C 955.167,422.833 953.167,420.833 951.5,418.5C 952.167,418.5 952.5,418.167 952.5,417.5C 954.129,418.625 955.629,419.959 957,421.5C 957.5,388.168 957.667,354.835 957.5,321.5 Z"/></g>
<g><path style="opacity:1" fill="#d27030" d="M 776.5,449.5 C 747.762,444.936 727.596,429.269 716,402.5C 712.075,393.562 709.909,384.229 709.5,374.5C 709.369,373.761 709.536,373.094 710,372.5C 734.682,397.681 759.182,423.015 783.5,448.5C 781.257,449.474 778.924,449.808 776.5,449.5 Z"/></g>
<g><path style="opacity:1" fill="#d57231" d="M 1007.5,374.5 C 1015.53,381.86 1023.19,389.527 1030.5,397.5C 1030.5,397.833 1030.5,398.167 1030.5,398.5C 1030.67,431.835 1030.5,465.168 1030,498.5C 1021.94,490.605 1014.1,482.605 1006.5,474.5C 1006.28,441.157 1006.61,407.824 1007.5,374.5 Z"/></g>
<g><path style="opacity:0.957" fill="#3c2d26" d="M 1007.5,371.5 C 1014.81,379.473 1022.47,387.14 1030.5,394.5C 1030.5,395.5 1030.5,396.5 1030.5,397.5C 1023.19,389.527 1015.53,381.86 1007.5,374.5C 1007.5,373.5 1007.5,372.5 1007.5,371.5 Z"/></g>
<g><path style="opacity:0.957" fill="#412f26" d="M 709.5,369.5 C 735.139,396.14 760.806,422.807 786.5,449.5C 783.064,450.782 779.731,450.782 776.5,449.5C 778.924,449.808 781.257,449.474 783.5,448.5C 759.182,423.015 734.682,397.681 710,372.5C 709.536,373.094 709.369,373.761 709.5,374.5C 708.506,373.001 708.506,371.334 709.5,369.5 Z"/></g>
<g><path style="opacity:1" fill="#312723" d="M 332.5,449.5 C 332.5,449.833 332.5,450.167 332.5,450.5C 313.535,432.035 294.701,413.368 276,394.5C 259.632,411.035 243.132,427.368 226.5,443.5C 226.167,443.5 225.833,443.5 225.5,443.5C 242.159,426.341 258.992,409.341 276,392.5C 295.035,411.368 313.868,430.368 332.5,449.5 Z"/></g>
<g><path style="opacity:0.957" fill="#3e2e25" d="M 722.5,328.5 C 750.466,357.301 778.3,386.301 806,415.5C 812.423,422.428 819.256,428.762 826.5,434.5C 825.71,435.401 824.71,436.068 823.5,436.5C 806.287,417.409 788.62,398.742 770.5,380.5C 754.788,363.122 738.455,346.456 721.5,330.5C 721.833,329.833 722.167,329.167 722.5,328.5 Z"/></g>
<g><path style="opacity:1" fill="#d57130" d="M 332.5,450.5 C 344.135,463.802 356.468,476.469 369.5,488.5C 385.5,505.167 401.833,521.5 418.5,537.5C 430.135,550.802 442.468,563.469 455.5,575.5C 471.833,592.5 488.5,609.167 505.5,625.5C 516.774,638.442 528.774,650.775 541.5,662.5C 559.132,680.632 576.965,698.632 595,716.5C 595.5,717.5 596,718.5 596.5,719.5C 580.479,736.188 564.146,752.521 547.5,768.5C 491.195,710.861 434.528,653.528 377.5,596.5C 370.5,588.833 363.167,581.5 355.5,574.5C 312.271,531.026 269.271,487.36 226.5,443.5C 243.132,427.368 259.632,411.035 276,394.5C 294.701,413.368 313.535,432.035 332.5,450.5 Z"/></g>
<g><path style="opacity:1" fill="#36261e" d="M 1030.5,398.5 C 1031.83,432.402 1031.83,466.402 1030.5,500.5C 1022.17,492.833 1014.17,484.833 1006.5,476.5C 1006.5,475.833 1006.5,475.167 1006.5,474.5C 1014.1,482.605 1021.94,490.605 1030,498.5C 1030.5,465.168 1030.67,431.835 1030.5,398.5 Z"/></g>
<g><path style="opacity:0.936" fill="#412f26" d="M 932.5,360.5 C 932.333,372.505 932.5,384.505 933,396.5C 939.338,403.671 945.838,410.671 952.5,417.5C 952.5,418.167 952.167,418.5 951.5,418.5C 945.591,412.089 939.424,405.755 933,399.5C 932.333,414.5 932.333,429.5 933,444.5C 939.407,450.403 945.241,456.737 950.5,463.5C 950.5,463.833 950.5,464.167 950.5,464.5C 944.453,458.768 938.619,452.768 933,446.5C 932.832,465.338 932.332,484.004 931.5,502.5C 931.168,454.997 931.501,407.664 932.5,360.5 Z"/></g>
<g><path style="opacity:1" fill="#d1813c" d="M 3082.5,402.5 C 3085.48,402.62 3088.31,403.287 3091,404.5C 3092.41,445.483 3092.91,486.483 3092.5,527.5C 3086.14,528.992 3080.64,527.326 3076,522.5C 3047.3,539.362 3029.3,531.362 3022,498.5C 3019.35,484.554 3020.35,470.887 3025,457.5C 3033.55,441.305 3047.05,434.139 3065.5,436C 3069.07,437.31 3072.74,438.143 3076.5,438.5C 3076.17,427.147 3076.5,415.814 3077.5,404.5C 3079.34,403.972 3081,403.306 3082.5,402.5 Z M 3054.5,451.5 C 3059.18,451.334 3063.85,451.501 3068.5,452C 3071.55,452.606 3074.05,454.106 3076,456.5C 3079.04,469.341 3079.2,482.174 3076.5,495C 3077.63,498.744 3077.79,502.577 3077,506.5C 3050.45,521.974 3037.29,514.308 3037.5,483.5C 3035.39,468.372 3041.06,457.705 3054.5,451.5 Z"/></g>
<g><path style="opacity:1" fill="#c8864f" d="M 1762.5,403.5 C 1768.13,404.292 1773.8,404.625 1779.5,404.5C 1779.51,443.508 1779.67,482.508 1780,521.5C 1778.68,525.782 1775.68,527.782 1771,527.5C 1768.24,527.082 1765.57,526.416 1763,525.5C 1762.83,493.595 1762.33,461.762 1761.5,430C 1761.2,421.293 1761.53,412.459 1762.5,403.5 Z"/></g>
<g><path style="opacity:1" fill="#d28951" d="M 2776.5,403.5 C 2781.83,403.5 2787.17,403.5 2792.5,403.5C 2793.39,444.492 2793.73,485.492 2793.5,526.5C 2788.11,526.803 2782.77,527.469 2777.5,528.5C 2776.91,528.291 2776.41,527.957 2776,527.5C 2776.44,486.184 2776.61,444.851 2776.5,403.5 Z"/></g>
<g><path style="opacity:1" fill="#d58748" d="M 2674.5,404.5 C 2699.53,405.775 2715.7,418.442 2723,442.5C 2730.33,467.212 2727.33,490.545 2714,512.5C 2695.58,534.488 2674.08,538.321 2649.5,524C 2627.45,501.983 2620.29,475.816 2628,445.5C 2635.09,421.886 2650.59,408.22 2674.5,404.5 Z M 2671.5,422.5 C 2689.65,420.803 2701.15,428.803 2706,446.5C 2709.46,461.579 2709.13,476.579 2705,491.5C 2698.79,511.687 2685.62,518.854 2665.5,513C 2655.84,507.862 2649.34,500.028 2646,489.5C 2640.99,472.917 2641.65,456.584 2648,440.5C 2653.26,430.974 2661.09,424.974 2671.5,422.5 Z"/></g>
<g><path style="opacity:1" fill="#d5905a" d="M 3243.5,432.5 C 3243.46,425.564 3241.13,419.397 3236.5,414C 3227.85,413.419 3219.02,412.586 3210,411.5C 3202.45,411.114 3194.78,411.78 3187,413.5C 3185.93,413.472 3185.1,413.139 3184.5,412.5C 3187.06,409.463 3190.39,407.629 3194.5,407C 3209.72,403.445 3224.38,405.112 3238.5,412C 3246.59,416.692 3249.26,423.525 3246.5,432.5C 3245.5,432.5 3244.5,432.5 3243.5,432.5 Z"/></g>
<g><path style="opacity:0.985" fill="#d08242" d="M 1321.5,405.5 C 1336.52,406.12 1350.36,410.453 1363,418.5C 1363.83,423.533 1363.66,428.533 1362.5,433.5C 1361.17,434.167 1359.83,434.833 1358.5,435.5C 1345.5,425.445 1330.83,421.612 1314.5,424C 1301.09,429.284 1293.26,439.117 1291,453.5C 1290.13,465.543 1290.47,477.543 1292,489.5C 1295.48,503.308 1304.31,511.141 1318.5,513C 1327.84,513.463 1337.18,513.296 1346.5,512.5C 1346.79,508.563 1346.46,504.73 1345.5,501C 1347.1,495.627 1347.6,490.127 1347,484.5C 1338.93,483.879 1330.93,482.546 1323,480.5C 1319.83,476.904 1319.66,473.071 1322.5,469C 1324.09,468.138 1325.75,467.471 1327.5,467C 1338.91,466.114 1350.24,466.614 1361.5,468.5C 1362.33,485.17 1362.83,501.837 1363,518.5C 1341.11,534.004 1318.28,535.504 1294.5,523C 1287.54,517.372 1282.04,510.539 1278,502.5C 1269.12,482.378 1268.45,461.711 1276,440.5C 1284.72,420.266 1299.88,408.6 1321.5,405.5 Z"/></g>
<g><path style="opacity:0.984" fill="#d18342" d="M 1888.5,405.5 C 1901.92,404.938 1914.25,408.271 1925.5,415.5C 1926.36,421.489 1927.02,427.489 1927.5,433.5C 1876.93,410.89 1854.43,427.223 1860,482.5C 1861.3,492.769 1865.47,501.602 1872.5,509C 1879.49,513.662 1887.15,515.329 1895.5,514C 1906.05,512.483 1915.89,508.983 1925,503.5C 1926.41,508.436 1927.08,513.436 1927,518.5C 1900.14,537.625 1875.48,535.292 1853,511.5C 1837.53,485.402 1836.19,458.735 1849,431.5C 1857.85,416.164 1871.02,407.498 1888.5,405.5 Z"/></g>
<g><path style="opacity:0.906" fill="#d8a57c" d="M 2757.5,412.5 C 2756.14,413.007 2755.14,414.007 2754.5,415.5C 2753.3,415.154 2753.3,414.654 2754.5,414C 2753.18,414.148 2752.01,413.982 2751,413.5C 2750.54,414.744 2751.04,415.577 2752.5,416C 2751.87,416.75 2751.37,417.584 2751,418.5C 2750.33,417.167 2749.67,415.833 2749,414.5C 2747.98,415.634 2747.32,415.301 2747,413.5C 2745.99,413.982 2744.82,414.148 2743.5,414C 2742.38,415.875 2742.38,418.042 2743.5,420.5C 2742.5,420.5 2741.5,420.5 2740.5,420.5C 2739.57,419.228 2738.9,417.728 2738.5,416C 2738.77,412.968 2739.77,410.301 2741.5,408C 2746.53,407.171 2751.53,407.338 2756.5,408.5C 2757.25,409.736 2757.58,411.07 2757.5,412.5 Z"/></g>
<g><path style="opacity:0.985" fill="#d28443" d="M 2382.5,414.5 C 2381.5,421.927 2381.67,429.261 2383,436.5C 2388.34,436.825 2394.17,438.158 2400.5,440.5C 2402.3,439.854 2403.97,439.521 2405.5,439.5C 2406.2,442.897 2406.86,446.397 2407.5,450C 2407.17,450.333 2406.83,450.667 2406.5,451C 2399.5,451.333 2392.5,451.667 2385.5,452C 2385,452.5 2384.5,453 2384,453.5C 2382.61,469.479 2382.28,485.479 2383,501.5C 2383.07,506.052 2384.24,510.218 2386.5,514C 2394.27,514.13 2401.94,514.964 2409.5,516.5C 2408.82,522.356 2405.82,526.523 2400.5,529C 2383.49,532.98 2372.49,526.813 2367.5,510.5C 2368.23,505.034 2368.57,499.867 2368.5,495C 2367.68,481.242 2367.18,467.408 2367,453.5C 2364.49,451.137 2361.66,449.47 2358.5,448.5C 2359.95,447.698 2361.62,447.198 2363.5,447C 2362.72,444.882 2361.38,443.382 2359.5,442.5C 2360.99,440.395 2362.99,438.728 2365.5,437.5C 2366.1,429.713 2367.27,422.046 2369,414.5C 2373.56,410.72 2378.06,410.72 2382.5,414.5 Z"/></g>
<g><path style="opacity:1" fill="#d2823d" d="M 3243.5,432.5 C 3242,433.494 3240.33,433.494 3238.5,432.5C 3230.75,427.987 3222.75,424.82 3214.5,423C 3192.05,420.482 3178.55,430.315 3174,452.5C 3170.57,469.868 3172.57,486.535 3180,502.5C 3184.49,509.661 3190.99,512.994 3199.5,512.5C 3199.17,513.167 3198.83,513.833 3198.5,514.5C 3197.71,514.783 3197.04,515.283 3196.5,516C 3199.42,516.408 3201.75,517.741 3203.5,520C 3199.9,522.4 3195.9,523.567 3191.5,523.5C 3187.31,521.6 3182.97,520.933 3178.5,521.5C 3172.24,518.404 3167.4,513.737 3164,507.5C 3151.6,484.452 3150.6,460.452 3161,435.5C 3166.11,424.89 3173.94,417.223 3184.5,412.5C 3185.1,413.139 3185.93,413.472 3187,413.5C 3194.78,411.78 3202.45,411.114 3210,411.5C 3219.02,412.586 3227.85,413.419 3236.5,414C 3241.13,419.397 3243.46,425.564 3243.5,432.5 Z"/></g>
<g><path style="opacity:1" fill="#d48a52" d="M 2150.5,442.5 C 2141.57,441.581 2132.73,440.248 2124,438.5C 2124.13,441.095 2123.96,443.595 2123.5,446C 2125.22,447.434 2127.22,448.267 2129.5,448.5C 2131.54,447.99 2133.37,447.99 2135,448.5C 2135.67,447.833 2136.33,447.167 2137,446.5C 2141.89,447.743 2146.73,448.077 2151.5,447.5C 2150.52,449.291 2149.18,450.791 2147.5,452C 2143.81,452.581 2140.14,452.415 2136.5,451.5C 2134.13,451.842 2131.8,452.342 2129.5,453C 2127.33,456.506 2126.17,460.339 2126,464.5C 2125.15,480.35 2126.49,496.017 2130,511.5C 2135.57,513.245 2141.41,514.411 2147.5,515C 2149.55,515.687 2151.22,516.854 2152.5,518.5C 2150.2,525.3 2145.7,529.967 2139,532.5C 2126.87,531.683 2117.87,526.017 2112,515.5C 2109.81,508.018 2107.97,500.518 2106.5,493C 2106.75,486.638 2107.42,479.138 2108.5,470.5C 2108.23,467.483 2107.9,464.483 2107.5,461.5C 2108.32,458.359 2108.82,455.025 2109,451.5C 2112.54,448.814 2115.04,445.481 2116.5,441.5C 2116.43,440.228 2116.1,439.062 2115.5,438C 2112.99,436.748 2110.32,436.248 2107.5,436.5C 2107.94,429.173 2108.28,421.84 2108.5,414.5C 2114.2,414.553 2119.86,414.22 2125.5,413.5C 2126.1,421.173 2126.77,428.84 2127.5,436.5C 2134.17,436.334 2140.84,436.5 2147.5,437C 2150.04,437.928 2151.04,439.762 2150.5,442.5 Z"/></g>
<g><path style="opacity:1" fill="#d9c2ae" d="M 2382.5,414.5 C 2383.22,414.918 2383.72,415.584 2384,416.5C 2384.74,422.515 2385.58,428.515 2386.5,434.5C 2392.48,435.303 2398.48,436.136 2404.5,437C 2405.25,437.671 2405.59,438.504 2405.5,439.5C 2403.97,439.521 2402.3,439.854 2400.5,440.5C 2394.17,438.158 2388.34,436.825 2383,436.5C 2381.67,429.261 2381.5,421.927 2382.5,414.5 Z"/></g>
<g><path style="opacity:1" fill="#ce8d59" d="M 2757.5,412.5 C 2757.21,416.106 2757.54,419.606 2758.5,423C 2753,424.036 2747.5,424.87 2742,425.5C 2741.38,424.551 2741.55,423.718 2742.5,423C 2741.62,422.292 2740.95,421.458 2740.5,420.5C 2741.5,420.5 2742.5,420.5 2743.5,420.5C 2742.38,418.042 2742.38,415.875 2743.5,414C 2744.82,414.148 2745.99,413.982 2747,413.5C 2747.32,415.301 2747.98,415.634 2749,414.5C 2749.67,415.833 2750.33,417.167 2751,418.5C 2751.37,417.584 2751.87,416.75 2752.5,416C 2751.04,415.577 2750.54,414.744 2751,413.5C 2752.01,413.982 2753.18,414.148 2754.5,414C 2753.3,414.654 2753.3,415.154 2754.5,415.5C 2755.14,414.007 2756.14,413.007 2757.5,412.5 Z"/></g>
<g><path style="opacity:0.996" fill="#777370" d="M 1034.5,291.5 C 1034.84,360.545 1035.84,429.545 1037.5,498.5C 1036.5,498.5 1035.5,498.5 1034.5,498.5C 1034.5,429.5 1034.5,360.5 1034.5,291.5 Z"/></g>
<g><path style="opacity:0.039" fill="#734e2d" d="M 3238.5,432.5 C 3237.83,433.167 3237.83,433.167 3238.5,432.5 Z"/></g>
<g><path style="opacity:0.979" fill="#d18342" d="M 1575.5,435.5 C 1595.67,433.334 1608.51,442.001 1614,461.5C 1615.93,469.387 1616.76,477.387 1616.5,485.5C 1596.88,485.771 1577.22,485.771 1557.5,485.5C 1555.68,505.176 1564.68,514.509 1584.5,513.5C 1594.11,513.343 1603.44,511.676 1612.5,508.5C 1613.46,516.743 1610.46,523.243 1603.5,528C 1587.75,533.084 1572.75,531.417 1558.5,523C 1546.57,512.454 1540.9,499.121 1541.5,483C 1541.27,458.552 1552.6,442.718 1575.5,435.5 Z M 1575.5,450.5 C 1591.66,448.989 1599.32,456.322 1598.5,472.5C 1584.83,472.667 1571.16,472.5 1557.5,472C 1558.35,460.331 1564.35,453.164 1575.5,450.5 Z"/></g>
<g><path style="opacity:0.986" fill="#d18342" d="M 1972.5,434.5 C 1991.26,436.756 2003.1,447.089 2008,465.5C 2011.01,477.523 2011.01,489.523 2008,501.5C 1999.16,526.669 1982,535.502 1956.5,528C 1945.44,522.397 1938.27,513.564 1935,501.5C 1930.35,484.464 1932.01,468.131 1940,452.5C 1948.08,441.38 1958.91,435.38 1972.5,434.5 Z M 1966.5,450.5 C 1978.81,449.697 1986.98,454.697 1991,465.5C 1994.42,479.569 1993.08,493.235 1987,506.5C 1976.29,518.492 1965.62,518.492 1955,506.5C 1948.4,489.852 1949.07,473.519 1957,457.5C 1959.82,454.524 1962.99,452.191 1966.5,450.5 Z"/></g>
<g><path style="opacity:1" fill="#d58848" d="M 2229.5,435.5 C 2237.51,435.334 2245.51,435.5 2253.5,436C 2263.06,437.507 2269.56,442.673 2273,451.5C 2277.01,472.356 2278.01,493.356 2276,514.5C 2275.77,518.314 2274.93,521.981 2273.5,525.5C 2271.83,525.833 2270.17,526.167 2268.5,526.5C 2263.86,525.447 2259.19,524.947 2254.5,525C 2233.2,537.391 2218.04,532.225 2209,509.5C 2204.89,489.871 2212.39,477.371 2231.5,472C 2239.62,471.221 2247.62,469.888 2255.5,468C 2258.33,465.09 2258.83,461.59 2257,457.5C 2256.73,455.671 2255.89,454.171 2254.5,453C 2241.77,450.188 2229.44,451.355 2217.5,456.5C 2216.35,450.215 2215.69,443.882 2215.5,437.5C 2220.37,437.31 2225.04,436.644 2229.5,435.5 Z M 2248.5,482.5 C 2251.43,483.299 2254.43,483.632 2257.5,483.5C 2258.33,491.488 2258.5,499.488 2258,507.5C 2249.56,513.907 2240.39,515.407 2230.5,512C 2221.73,501.921 2223.07,493.254 2234.5,486C 2239.18,484.347 2243.85,483.181 2248.5,482.5 Z"/></g>
<g><path style="opacity:1" fill="#bdb0a2" d="M 471.5,425.5 C 473.825,430.123 476.158,434.789 478.5,439.5C 477.167,438.167 475.833,436.833 474.5,435.5C 473.833,435.5 473.5,435.167 473.5,434.5C 472.677,431.539 472.01,428.539 471.5,425.5 Z"/></g>
<g><path style="opacity:1" fill="#d1813c" d="M 1407.5,435.5 C 1435.89,434.892 1449.56,448.892 1448.5,477.5C 1448.47,480.089 1448.14,482.589 1447.5,485C 1428.82,485.167 1410.16,485.667 1391.5,486.5C 1390.76,504.603 1399.6,513.936 1418,514.5C 1424.02,514.247 1429.86,513.08 1435.5,511C 1438.7,507.451 1442.53,506.618 1447,508.5C 1448.17,517.987 1444.34,524.487 1435.5,528C 1397.7,536.94 1377.03,522.107 1373.5,483.5C 1373.62,467.075 1379.95,453.242 1392.5,442C 1397.14,438.74 1402.14,436.573 1407.5,435.5 Z M 1408.5,450.5 C 1424.91,448.578 1433.25,455.911 1433.5,472.5C 1419.5,472.5 1405.5,472.5 1391.5,472.5C 1391.31,460.381 1396.98,453.047 1408.5,450.5 Z"/></g>
<g><path style="opacity:0.979" fill="#d18343" d="M 1506.5,454.5 C 1505.94,453.21 1504.94,452.377 1503.5,452C 1489.12,449.019 1480.62,454.852 1478,469.5C 1477.5,488.497 1477.33,507.497 1477.5,526.5C 1472.5,526.5 1467.5,526.5 1462.5,526.5C 1460.91,497.125 1461.24,467.792 1463.5,438.5C 1467.18,438.335 1470.85,438.501 1474.5,439C 1475.64,440.973 1476.97,442.807 1478.5,444.5C 1482.24,442.924 1485.57,440.757 1488.5,438C 1497.92,434.819 1507.26,435.152 1516.5,439C 1524.28,443.948 1528.11,451.114 1528,460.5C 1529.64,482.152 1529.8,503.818 1528.5,525.5C 1525.52,525.898 1522.52,526.232 1519.5,526.5C 1517.36,526.387 1515.53,525.72 1514,524.5C 1513.13,519.538 1512.63,514.538 1512.5,509.5C 1513.49,496.509 1513.66,483.509 1513,470.5C 1512.62,466.347 1511.62,462.347 1510,458.5C 1509.34,456.676 1508.17,455.343 1506.5,454.5 Z"/></g>
<g><path style="opacity:1" fill="#d58748" d="M 2059.5,435.5 C 2076.82,434.312 2086.99,442.312 2090,459.5C 2092,481.844 2091.83,504.177 2089.5,526.5C 2084.9,527.443 2080.23,527.777 2075.5,527.5C 2075.67,512.163 2075.5,496.83 2075,481.5C 2074.46,471.567 2072.62,461.9 2069.5,452.5C 2063.86,450.499 2058.19,450.332 2052.5,452C 2049,455.796 2045.17,459.296 2041,462.5C 2039.51,468.9 2038.68,475.4 2038.5,482C 2039.53,496.49 2039.69,510.99 2039,525.5C 2033.61,526.777 2028.11,527.444 2022.5,527.5C 2022.67,511.628 2022.01,496.128 2020.5,481C 2021.98,466.915 2023.15,452.749 2024,438.5C 2030.44,436.812 2035.94,438.479 2040.5,443.5C 2046.77,440.418 2053.1,437.751 2059.5,435.5 Z"/></g>
<g><path style="opacity:1" fill="#d1823c" d="M 2351.5,443.5 C 2351.5,447.534 2351.84,451.534 2352.5,455.5C 2345.82,455.551 2339.48,454.051 2333.5,451C 2326.45,449.621 2319.95,450.788 2314,454.5C 2313.69,455.766 2313.19,456.933 2312.5,458C 2313.09,458.464 2313.76,458.631 2314.5,458.5C 2313.47,459.249 2312.3,459.915 2311,460.5C 2304.95,473.762 2303.95,487.428 2308,501.5C 2313.96,513.171 2323.46,517.338 2336.5,514C 2339.39,513.369 2342.23,512.536 2345,511.5C 2352.86,513.004 2354.52,517.004 2350,523.5C 2348.83,524.667 2347.67,525.833 2346.5,527C 2314.3,536.731 2295.47,525.231 2290,492.5C 2288.34,478.455 2290.68,465.121 2297,452.5C 2308.25,437.082 2323.09,432.249 2341.5,438C 2345.35,439.086 2348.68,440.919 2351.5,443.5 Z"/></g>
<g><path style="opacity:1" fill="#d1813c" d="M 2412.5,500.5 C 2408.76,484.488 2410.6,469.155 2418,454.5C 2431.78,435.347 2449.28,430.847 2470.5,441C 2480.37,449.578 2485.87,460.411 2487,473.5C 2489.29,489.847 2485.96,504.847 2477,518.5C 2462.03,533.614 2445.53,535.448 2427.5,524C 2419.83,517.806 2414.83,509.973 2412.5,500.5 Z M 2442.5,450.5 C 2457.61,449.81 2467.11,456.81 2471,471.5C 2473.47,482.801 2472.47,493.801 2468,504.5C 2461.13,516.459 2451.63,519.292 2439.5,513C 2433.52,507.877 2430.02,501.377 2429,493.5C 2427.29,480.983 2428.95,468.983 2434,457.5C 2436.44,454.546 2439.27,452.213 2442.5,450.5 Z"/></g>
<g><path style="opacity:0.993" fill="#d28443" d="M 2857.5,517.5 C 2848.43,492.371 2857.1,477.204 2883.5,472C 2890.17,470.333 2896.83,468.667 2903.5,467C 2906.44,458.557 2903.44,452.891 2894.5,450C 2883.84,449.746 2873.5,451.58 2863.5,455.5C 2862.57,450.863 2861.9,446.196 2861.5,441.5C 2863.86,439.871 2866.52,438.705 2869.5,438C 2883.96,434.198 2897.96,435.532 2911.5,442C 2915.93,445.092 2918.76,449.259 2920,454.5C 2921.78,466.317 2922.95,478.15 2923.5,490C 2923.01,501.851 2922.01,513.685 2920.5,525.5C 2914.09,526.771 2907.75,526.438 2901.5,524.5C 2894.21,527.403 2887.04,530.403 2880,533.5C 2870.98,530.314 2863.48,524.98 2857.5,517.5 Z"/></g>
<g><path style="opacity:1" fill="#d48748" d="M 3259.5,509.5 C 3260.12,502.183 3260.45,494.849 3260.5,487.5C 3264.04,481.465 3269.04,476.965 3275.5,474C 3286.92,471.702 3298.26,469.035 3309.5,466C 3308.81,458.262 3304.81,453.262 3297.5,451C 3286.81,452.188 3275.97,453.688 3265,455.5C 3264.17,450.467 3264.34,445.467 3265.5,440.5C 3282.31,433.911 3298.98,434.078 3315.5,441C 3322.36,447.234 3325.53,455.067 3325,464.5C 3325.52,474.666 3326.02,484.833 3326.5,495C 3326.34,505.802 3325.34,516.468 3323.5,527C 3317.16,528.52 3311.66,527.02 3307,522.5C 3289.68,536.172 3274.68,534.172 3262,516.5C 3261.15,514.146 3260.32,511.812 3259.5,509.5 Z M 3294.5,483.5 C 3299.17,483.5 3303.83,483.5 3308.5,483.5C 3308.67,491.521 3308.84,499.521 3309,507.5C 3299.77,514.942 3289.6,516.442 3278.5,512C 3272.51,503.604 3273.18,495.937 3280.5,489C 3285.02,486.445 3289.68,484.612 3294.5,483.5 Z"/></g>
<g><path style="opacity:0.983" fill="#d18342" d="M 1702.5,436.5 C 1728.94,431.426 1743.1,442.093 1745,468.5C 1747,483.5 1747,498.5 1745,513.5C 1744.3,517.965 1743.13,522.298 1741.5,526.5C 1738.89,527.652 1736.23,527.818 1733.5,527C 1731.36,525.596 1729.03,524.763 1726.5,524.5C 1720.08,526.363 1713.74,528.53 1707.5,531C 1691.93,533.119 1681.77,526.619 1677,511.5C 1672.7,494.259 1678.54,481.759 1694.5,474C 1705.53,471.562 1716.53,469.062 1727.5,466.5C 1728.56,460.835 1726.89,456.002 1722.5,452C 1715.86,450.881 1709.19,450.547 1702.5,451C 1696.4,452.2 1690.4,453.7 1684.5,455.5C 1684.5,449.5 1684.5,443.5 1684.5,437.5C 1690.69,437.823 1696.69,437.49 1702.5,436.5 Z M 1712.5,482.5 C 1726.69,480.847 1732.19,486.847 1729,500.5C 1726.78,502.723 1725.44,505.389 1725,508.5C 1722.92,510.123 1720.75,511.623 1718.5,513C 1711.2,515.116 1704.03,514.95 1697,512.5C 1692.77,506.266 1691.77,499.599 1694,492.5C 1700.59,489.793 1706.75,486.46 1712.5,482.5 Z"/></g>
<g><path style="opacity:0.982" fill="#d08342" d="M 3397.5,445.5 C 3396.52,448.287 3396.19,451.287 3396.5,454.5C 3393.26,454.232 3390.09,453.566 3387,452.5C 3386.24,452.57 3385.74,452.903 3385.5,453.5C 3382.33,452.209 3379,451.542 3375.5,451.5C 3371.59,452.171 3367.59,452.338 3363.5,452C 3354.52,457.984 3354.18,464.651 3362.5,472C 3370.69,474.798 3379.02,477.131 3387.5,479C 3402.29,488.398 3405.46,500.898 3397,516.5C 3387.15,528.168 3374.65,532.668 3359.5,530C 3352.55,529.273 3346.39,526.773 3341,522.5C 3339.61,517.628 3339.11,512.628 3339.5,507.5C 3350.57,510.801 3361.74,513.801 3373,516.5C 3380.59,516.08 3384.09,512.08 3383.5,504.5C 3383.85,500.331 3382.18,497.164 3378.5,495C 3371.27,492.359 3363.94,490.026 3356.5,488C 3342.22,481.165 3336.72,469.998 3340,454.5C 3343.23,446.937 3348.73,441.771 3356.5,439C 3368.16,435.708 3379.83,435.708 3391.5,439C 3394.3,440.451 3396.3,442.618 3397.5,445.5 Z"/></g>
<g><path style="opacity:0.976" fill="#d18342" d="M 1631.5,438.5 C 1635.27,438.263 1638.94,438.763 1642.5,440C 1644.13,442.295 1646.29,443.795 1649,444.5C 1652.37,443.379 1655.54,441.879 1658.5,440C 1663.11,438.71 1667.78,438.376 1672.5,439C 1673.47,444.407 1673.81,449.907 1673.5,455.5C 1664.09,457.185 1654.76,459.185 1645.5,461.5C 1645.25,475.018 1645.58,488.518 1646.5,502C 1646.13,509.613 1645.13,517.113 1643.5,524.5C 1639.19,528.575 1634.85,528.909 1630.5,525.5C 1629.9,524.205 1629.4,522.872 1629,521.5C 1628.5,494.169 1628.33,466.835 1628.5,439.5C 1629.79,439.737 1630.79,439.404 1631.5,438.5 Z"/></g>
<g><path style="opacity:1" fill="#ca8449" d="M 2163.5,437.5 C 2171.78,435.12 2176.61,438.12 2178,446.5C 2182.52,443.967 2187.02,441.467 2191.5,439C 2196.15,438.501 2200.82,438.334 2205.5,438.5C 2205.5,444.5 2205.5,450.5 2205.5,456.5C 2194.92,455.664 2185.42,458.33 2177,464.5C 2176.32,476.344 2176.48,488.178 2177.5,500C 2177.08,507.884 2176.25,515.717 2175,523.5C 2174.8,525.904 2173.64,527.571 2171.5,528.5C 2168.22,527.746 2164.89,527.246 2161.5,527C 2161.83,526.667 2162.17,526.333 2162.5,526C 2161.62,518.985 2160.62,511.985 2159.5,505C 2160.83,492.333 2160.83,479.667 2159.5,467C 2161.08,457.238 2162.41,447.404 2163.5,437.5 Z"/></g>
<g><path style="opacity:1" fill="#ce7f3e" d="M 2502.5,526.5 C 2502.44,510.071 2502.1,493.571 2501.5,477C 2502.81,464.257 2503.48,451.423 2503.5,438.5C 2506.52,438.335 2509.52,438.502 2512.5,439C 2514.04,440.11 2514.7,441.61 2514.5,443.5C 2516.85,443.67 2519.18,444.003 2521.5,444.5C 2527.43,441.785 2533.6,439.785 2540,438.5C 2541.7,439.406 2543.53,439.739 2545.5,439.5C 2547.11,444.962 2546.44,450.129 2543.5,455C 2540.46,455.798 2537.62,456.965 2535,458.5C 2531.26,457.116 2527.92,457.782 2525,460.5C 2522.97,460.014 2520.81,460.014 2518.5,460.5C 2517.87,482.504 2517.21,504.504 2516.5,526.5C 2511.85,526.628 2507.18,526.628 2502.5,526.5 Z"/></g>
<g><path style="opacity:1" fill="#d48b52" d="M 2740.5,438.5 C 2746.17,438.5 2751.83,438.5 2757.5,438.5C 2757.46,467.839 2757.8,497.172 2758.5,526.5C 2752.52,527.074 2746.52,527.407 2740.5,527.5C 2740.42,497.684 2740.42,468.017 2740.5,438.5 Z"/></g>
<g><path style="opacity:1" fill="#d47e3c" d="M 2150.5,442.5 C 2151.45,443.919 2151.78,445.585 2151.5,447.5C 2146.73,448.077 2141.89,447.743 2137,446.5C 2136.33,447.167 2135.67,447.833 2135,448.5C 2133.37,447.99 2131.54,447.99 2129.5,448.5C 2127.22,448.267 2125.22,447.434 2123.5,446C 2123.96,443.595 2124.13,441.095 2124,438.5C 2132.73,440.248 2141.57,441.581 2150.5,442.5 Z"/></g>
<g><path style="opacity:0.992" fill="#8f542e" d="M 2359.5,442.5 C 2361.38,443.382 2362.72,444.882 2363.5,447C 2361.62,447.198 2359.95,447.698 2358.5,448.5C 2357.66,447.329 2356.99,445.995 2356.5,444.5C 2357.5,443.833 2358.5,443.167 2359.5,442.5 Z"/></g>
<g><path style="opacity:1" fill="#fdf4dd" d="M 2861.5,441.5 C 2861.9,446.196 2862.57,450.863 2863.5,455.5C 2873.5,451.58 2883.84,449.746 2894.5,450C 2903.44,452.891 2906.44,458.557 2903.5,467C 2896.83,468.667 2890.17,470.333 2883.5,472C 2857.1,477.204 2848.43,492.371 2857.5,517.5C 2855.53,517.739 2853.7,517.406 2852,516.5C 2851.33,508.833 2851.33,501.167 2852,493.5C 2854.13,486.11 2856.46,478.777 2859,471.5C 2859.56,465.097 2859.06,458.763 2857.5,452.5C 2857.48,448.203 2858.81,444.536 2861.5,441.5 Z"/></g>
<g><path style="opacity:1" fill="#f9eed6" d="M 2351.5,443.5 C 2353.22,443.629 2354.88,443.962 2356.5,444.5C 2356.99,445.995 2357.66,447.329 2358.5,448.5C 2361.66,449.47 2364.49,451.137 2367,453.5C 2367.18,467.408 2367.68,481.242 2368.5,495C 2368.57,499.867 2368.23,505.034 2367.5,510.5C 2363.81,510.139 2361.81,508.139 2361.5,504.5C 2364.04,490.814 2364.04,477.148 2361.5,463.5C 2346.09,459.022 2330.42,457.356 2314.5,458.5C 2313.76,458.631 2313.09,458.464 2312.5,458C 2313.19,456.933 2313.69,455.766 2314,454.5C 2319.95,450.788 2326.45,449.621 2333.5,451C 2339.48,454.051 2345.82,455.551 2352.5,455.5C 2351.84,451.534 2351.5,447.534 2351.5,443.5 Z"/></g>
<g><path style="opacity:1" fill="#d17e3c" d="M 2107.5,436.5 C 2110.32,436.248 2112.99,436.748 2115.5,438C 2116.1,439.062 2116.43,440.228 2116.5,441.5C 2115.04,445.481 2112.54,448.814 2109,451.5C 2108.82,455.025 2108.32,458.359 2107.5,461.5C 2107.66,458.482 2107.5,455.482 2107,452.5C 2104.69,449.354 2102.19,446.354 2099.5,443.5C 2102.19,441.144 2104.85,438.811 2107.5,436.5 Z"/></g>
<g><path style="opacity:0.906" fill="#d69c6d" d="M 3397.5,445.5 C 3400.52,448.255 3401.18,451.589 3399.5,455.5C 3394.38,458.344 3389.71,457.677 3385.5,453.5C 3385.74,452.903 3386.24,452.57 3387,452.5C 3390.09,453.566 3393.26,454.232 3396.5,454.5C 3396.19,451.287 3396.52,448.287 3397.5,445.5 Z"/></g>
<g><path style="opacity:1" fill="#d57131" d="M 950.5,464.5 C 952.461,466.963 954.628,469.297 957,471.5C 957.5,481.828 957.666,492.161 957.5,502.5C 967.167,502.5 976.833,502.5 986.5,502.5C 1054.86,573.86 1123.19,645.193 1191.5,716.5C 1192.8,717.601 1193.3,718.934 1193,720.5C 1177.17,736.333 1161.33,752.167 1145.5,768C 1144.83,768.667 1144.17,768.667 1143.5,768C 1141.3,765.628 1138.96,763.461 1136.5,761.5C 1055.04,675.536 973.371,589.702 891.5,504C 895.025,503.821 898.359,503.321 901.5,502.5C 911.5,502.5 921.5,502.5 931.5,502.5C 932.332,484.004 932.832,465.338 933,446.5C 938.619,452.768 944.453,458.768 950.5,464.5 Z"/></g>
<g><path style="opacity:0.957" fill="#4f3728" d="M 332.5,449.5 C 345.532,461.531 357.865,474.198 369.5,487.5C 369.5,487.833 369.5,488.167 369.5,488.5C 356.468,476.469 344.135,463.802 332.5,450.5C 332.5,450.167 332.5,449.833 332.5,449.5 Z"/></g>
<g><path style="opacity:1" fill="#bab4ad" d="M 883.5,457.5 C 880.978,458.011 878.645,459.011 876.5,460.5C 878.158,457.206 880.324,454.206 883,451.5C 883.495,453.473 883.662,455.473 883.5,457.5 Z"/></g>
<g><path style="opacity:1" fill="#d57131" d="M 1084.5,454.5 C 1168.93,543.438 1253.6,632.271 1338.5,721C 1322,737.5 1305.5,754 1289,770.5C 1203.6,681.6 1118.76,592.267 1034.5,502.5C 1050.68,502.83 1066.68,502.496 1082.5,501.5C 1083.17,485.833 1083.83,470.167 1084.5,454.5 Z"/></g>
<g><path style="opacity:0.039" fill="#734e2d" d="M 1506.5,454.5 C 1505.83,455.167 1505.83,455.167 1506.5,454.5 Z"/></g>
<g><path style="opacity:1" fill="#d27131" d="M 883.5,457.5 C 883.5,465.833 883.5,474.167 883.5,482.5C 883.666,486.846 883.499,491.179 883,495.5C 875.937,488.605 869.103,481.605 862.5,474.5C 862.833,473.833 863.167,473.167 863.5,472.5C 867.833,468.5 872.167,464.5 876.5,460.5C 878.645,459.011 880.978,458.011 883.5,457.5 Z"/></g>
<g><path style="opacity:1" fill="#d37c3a" d="M 2973.5,436.5 C 2994.36,434.186 3005.86,443.519 3008,464.5C 3009.81,485.255 3008.97,505.922 3005.5,526.5C 3001.12,526.372 2996.79,526.705 2992.5,527.5C 2993.25,508.292 2993.25,489.459 2992.5,471C 2988.84,450.747 2978.34,445.913 2961,456.5C 2960,458.5 2959,460.5 2958,462.5C 2956.56,483.788 2956.06,505.121 2956.5,526.5C 2950.84,526.907 2945.17,527.24 2939.5,527.5C 2939.02,515.43 2938.69,503.263 2938.5,491C 2939.91,473.588 2940.58,456.088 2940.5,438.5C 2944.18,438.335 2947.85,438.501 2951.5,439C 2954.03,441.029 2956.7,442.862 2959.5,444.5C 2964.26,441.792 2968.93,439.126 2973.5,436.5 Z"/></g>
<g><path style="opacity:0.039" fill="#734e2d" d="M 244.5,464.5 C 243.833,465.167 243.833,465.167 244.5,464.5 Z"/></g>
<g><path style="opacity:1" fill="#9a938d" d="M 499.5,467.5 C 503.1,469.43 506.1,472.097 508.5,475.5C 504.9,473.57 501.9,470.903 499.5,467.5 Z"/></g>
<g><path style="opacity:1" fill="#d68849" d="M 3245.5,469.5 C 3245.5,486.671 3245.83,503.337 3246.5,519.5C 3230.06,530.942 3212.06,534.442 3192.5,530C 3188.71,529.207 3185.71,527.207 3183.5,524C 3181.85,523.392 3180.18,522.892 3178.5,522.5C 3178.5,522.167 3178.5,521.833 3178.5,521.5C 3182.97,520.933 3187.31,521.6 3191.5,523.5C 3195.9,523.567 3199.9,522.4 3203.5,520C 3201.75,517.741 3199.42,516.408 3196.5,516C 3197.04,515.283 3197.71,514.783 3198.5,514.5C 3208.51,515.894 3218.51,515.728 3228.5,514C 3229.71,511.649 3230.55,509.149 3231,506.5C 3231.66,498.477 3231.49,490.477 3230.5,482.5C 3222.32,482.174 3214.32,482.508 3206.5,483.5C 3205.04,478.402 3204.38,473.069 3204.5,467.5C 3214.81,466.433 3225.14,466.267 3235.5,467C 3239,467.303 3242.34,468.137 3245.5,469.5 Z"/></g>
<g><path style="opacity:1" fill="#faf0d8" d="M 3245.5,469.5 C 3247.58,469.624 3249.08,470.624 3250,472.5C 3250.07,479.606 3250.74,486.606 3252,493.5C 3252.72,494.451 3253.55,494.617 3254.5,494C 3256.73,491.937 3258.73,489.771 3260.5,487.5C 3260.45,494.849 3260.12,502.183 3259.5,509.5C 3257.77,509.185 3256.11,509.019 3254.5,509C 3252.89,513.418 3250.23,516.918 3246.5,519.5C 3245.83,503.337 3245.5,486.671 3245.5,469.5 Z"/></g>
<g><path style="opacity:0.957" fill="#2c2523" d="M 201.5,474.5 C 215.5,487.833 229.167,501.5 242.5,515.5C 242.5,515.833 242.5,516.167 242.5,516.5C 228.5,503.167 214.833,489.5 201.5,475.5C 201.5,475.167 201.5,474.833 201.5,474.5 Z"/></g>
<g><path style="opacity:1" fill="#d57130" d="M 201.5,475.5 C 214.833,489.5 228.5,503.167 242.5,516.5C 255.135,530.802 268.469,544.469 282.5,557.5C 300.167,575.833 318.167,593.833 336.5,611.5C 348.802,625.469 361.802,638.802 375.5,651.5C 393.167,669.833 411.167,687.833 429.5,705.5C 434.926,712.43 440.926,718.93 447.5,725C 431.5,741 415.5,757 399.5,773C 398.5,773.667 397.5,773.667 396.5,773C 386.661,761.995 376.328,751.495 365.5,741.5C 344.167,719.5 322.5,697.833 300.5,676.5C 291.533,665.866 281.866,655.866 271.5,646.5C 250.5,624.833 229.167,603.5 207.5,582.5C 189.399,562.897 170.732,543.731 151.5,525C 168.035,508.298 184.701,491.798 201.5,475.5 Z"/></g>
<g><path style="opacity:1" fill="#9b928a" d="M 508.5,475.5 C 510.404,475.738 511.738,476.738 512.5,478.5C 510.596,478.262 509.262,477.262 508.5,475.5 Z"/></g>
<g><path style="opacity:0.996" fill="#656260" d="M 658.5,478.5 C 658.56,477.957 658.893,477.624 659.5,477.5C 660.793,479.636 660.793,481.636 659.5,483.5C 659.167,483.5 658.833,483.5 658.5,483.5C 659.72,481.716 659.72,480.05 658.5,478.5 Z"/></g>
<g><path style="opacity:0.039" fill="#734e2d" d="M 859.5,477.5 C 860.833,478.167 860.833,478.167 859.5,477.5 Z"/></g>
<g><path style="opacity:1" fill="#d0bfb1" d="M 658.5,478.5 C 659.72,480.05 659.72,481.716 658.5,483.5C 656.097,483.448 653.764,483.781 651.5,484.5C 654.02,482.737 656.353,480.737 658.5,478.5 Z"/></g>
<g><path style="opacity:1" fill="#c6b7a9" d="M 863.5,472.5 C 863.167,473.167 862.833,473.833 862.5,474.5C 861.833,474.5 861.5,474.833 861.5,475.5C 860.833,476.167 860.167,476.833 859.5,477.5C 855.563,481.471 851.23,484.971 846.5,488C 843.107,490.076 839.44,491.242 835.5,491.5C 844.828,485.174 854.162,478.841 863.5,472.5 Z"/></g>
<g><path style="opacity:1" fill="#9e958d" d="M 512.5,478.5 C 514.404,478.738 515.738,479.738 516.5,481.5C 514.596,481.262 513.262,480.262 512.5,478.5 Z"/></g>
<g><path style="opacity:1" fill="#c5ae9c" d="M 718.5,483.5 C 715.833,483.5 713.167,483.5 710.5,483.5C 710.167,483.5 709.833,483.5 709.5,483.5C 709.238,482.022 709.571,480.689 710.5,479.5C 713.358,480.661 716.025,481.994 718.5,483.5 Z"/></g>
<g><path style="opacity:1" fill="#817c78" d="M 516.5,481.5 C 518.853,482.34 520.853,483.674 522.5,485.5C 521.833,485.5 521.167,485.5 520.5,485.5C 518.833,484.5 517.5,483.167 516.5,481.5 Z"/></g>
<g><path style="opacity:1" fill="#f7ebd3" d="M 3198.5,514.5 C 3198.83,513.833 3199.17,513.167 3199.5,512.5C 3208.5,512.214 3217.5,511.881 3226.5,511.5C 3226.98,503.174 3227.31,494.84 3227.5,486.5C 3221.16,486.666 3214.82,486.5 3208.5,486C 3207.24,485.583 3206.58,484.75 3206.5,483.5C 3214.32,482.508 3222.32,482.174 3230.5,482.5C 3231.49,490.477 3231.66,498.477 3231,506.5C 3230.55,509.149 3229.71,511.649 3228.5,514C 3218.51,515.728 3208.51,515.894 3198.5,514.5 Z"/></g>
<g><path style="opacity:1" fill="#d47130" d="M 658.5,483.5 C 658.833,483.5 659.167,483.5 659.5,483.5C 660.49,508.759 660.823,534.092 660.5,559.5C 660.666,567.84 660.5,576.173 660,584.5C 633.63,557.631 607.464,530.631 581.5,503.5C 584.059,503.802 586.393,503.468 588.5,502.5C 611.104,501.934 632.104,495.934 651.5,484.5C 653.764,483.781 656.097,483.448 658.5,483.5 Z"/></g>
<g><path style="opacity:1" fill="#fef6df" d="M 2892.5,482.5 C 2896.83,482.5 2901.17,482.5 2905.5,482.5C 2906.65,490.671 2905.81,498.671 2903,506.5C 2899.08,512.63 2893.41,515.63 2886,515.5C 2874.02,515.85 2868.02,510.183 2868,498.5C 2870.54,491.626 2875.38,487.126 2882.5,485C 2885.99,484.262 2889.32,483.429 2892.5,482.5 Z"/></g>
<g><path style="opacity:0.494" fill="#2c2522" d="M 520.5,485.5 C 521.167,485.5 521.833,485.5 522.5,485.5C 522.833,486.5 523.5,487.167 524.5,487.5C 524.5,488.167 524.833,488.5 525.5,488.5C 529.167,492.5 532.833,496.5 536.5,500.5C 536.5,500.833 536.5,501.167 536.5,501.5C 530.833,496.5 525.5,491.167 520.5,485.5 Z"/></g>
<g><path style="opacity:0.957" fill="#3b2c23" d="M 861.5,475.5 C 861.5,474.833 861.833,474.5 862.5,474.5C 869.103,481.605 875.937,488.605 883,495.5C 883.499,491.179 883.666,486.846 883.5,482.5C 884.833,487.5 884.833,492.5 883.5,497.5C 875.833,490.5 868.5,483.167 861.5,475.5 Z"/></g>
<g><path style="opacity:0.765" fill="#d6b99c" d="M 522.5,485.5 C 524.027,485.427 525.027,486.094 525.5,487.5C 525.167,487.5 524.833,487.5 524.5,487.5C 523.5,487.167 522.833,486.5 522.5,485.5 Z"/></g>
<g><path style="opacity:0.957" fill="#2d2522" d="M 369.5,487.5 C 386.167,503.5 402.5,519.833 418.5,536.5C 418.5,536.833 418.5,537.167 418.5,537.5C 401.833,521.5 385.5,505.167 369.5,488.5C 369.5,488.167 369.5,487.833 369.5,487.5 Z"/></g>
<g><path style="opacity:1" fill="#d57131" d="M 722.5,485.5 C 737.239,494.528 753.239,500.194 770.5,502.5C 781.586,505.317 792.586,504.984 803.5,501.5C 811.65,500.129 819.65,498.129 827.5,495.5C 831.115,497.778 834.448,500.445 837.5,503.5C 840.458,508.126 844.124,512.126 848.5,515.5C 911.194,580.527 973.861,645.527 1036.5,710.5C 1040.13,714.631 1043.96,718.631 1048,722.5C 1048.67,723.5 1048.67,724.5 1048,725.5C 1031.96,741.368 1016.13,757.368 1000.5,773.5C 907.497,677.83 814.83,581.83 722.5,485.5 Z"/></g>
<g><path style="opacity:1" fill="#3b302a" d="M 660.5,473.5 C 661.568,472.566 662.901,472.232 664.5,472.5C 664.5,481.833 664.5,491.167 664.5,500.5C 663.67,492.01 663.17,483.343 663,474.5C 662.329,473.748 661.496,473.414 660.5,473.5 Z"/></g>
<g><path style="opacity:0.996" fill="#8f7c6e" d="M 533.5,491.5 C 536.241,491.707 538.574,492.707 540.5,494.5C 537.759,494.293 535.426,493.293 533.5,491.5 Z"/></g>
<g><path style="opacity:0.086" fill="#7b685b" d="M 540.5,494.5 C 542.553,494.402 544.22,495.069 545.5,496.5C 543.447,496.598 541.78,495.931 540.5,494.5 Z"/></g>
<g><path style="opacity:1" fill="#a38f7f" d="M 548.5,497.5 C 553.722,498.387 558.722,499.721 563.5,501.5C 558.112,501.238 553.112,499.905 548.5,497.5 Z"/></g>
<g><path style="opacity:0.039" fill="#734e2d" d="M 2412.5,500.5 C 2411.83,501.167 2411.83,501.167 2412.5,500.5 Z"/></g>
<g><path style="opacity:0.957" fill="#503728" d="M 536.5,500.5 C 541.873,504.871 546.539,509.871 550.5,515.5C 550.5,515.833 550.5,516.167 550.5,516.5C 545.127,512.129 540.461,507.129 536.5,501.5C 536.5,501.167 536.5,500.833 536.5,500.5 Z"/></g>
<g><path style="opacity:1" fill="#948376" d="M 563.5,501.5 C 571.816,502.185 580.149,502.518 588.5,502.5C 586.393,503.468 584.059,503.802 581.5,503.5C 580.833,503.5 580.167,503.5 579.5,503.5C 574.065,504.016 568.732,503.35 563.5,501.5 Z"/></g>
<g><path style="opacity:1" fill="#b8b2ac" d="M 803.5,501.5 C 792.586,504.984 781.586,505.317 770.5,502.5C 781.527,502.713 792.527,502.38 803.5,501.5 Z"/></g>
<g><path style="opacity:0.957" fill="#503729" d="M 837.5,502.5 C 841.876,505.874 845.542,509.874 848.5,514.5C 848.5,514.833 848.5,515.167 848.5,515.5C 844.124,512.126 840.458,508.126 837.5,503.5C 837.5,503.167 837.5,502.833 837.5,502.5 Z"/></g>
<g><path style="opacity:1" fill="#ce7f3d" d="M 2545.5,502.5 C 2551.46,503.307 2557.46,503.64 2563.5,503.5C 2563.48,509.067 2562.31,514.4 2560,519.5C 2554.55,529.737 2550.21,540.404 2547,551.5C 2545.13,552.743 2542.96,553.41 2540.5,553.5C 2534.37,554.05 2532.53,552.05 2535,547.5C 2537.81,531.954 2541.31,516.954 2545.5,502.5 Z"/></g>
<g><path style="opacity:0.957" fill="#403027" d="M 986.5,502.5 C 991.167,502.5 995.833,502.5 1000.5,502.5C 997.359,503.321 994.025,503.821 990.5,504C 1057.7,574.369 1124.7,644.869 1191.5,715.5C 1191.5,715.833 1191.5,716.167 1191.5,716.5C 1123.19,645.193 1054.86,573.86 986.5,502.5 Z"/></g>
<g><path style="opacity:0.173" fill="#3a2c24" d="M 225.5,443.5 C 225.833,443.5 226.167,443.5 226.5,443.5C 269.271,487.36 312.271,531.026 355.5,574.5C 355.5,575.167 355.167,575.5 354.5,575.5C 317.498,538.168 280.832,501.168 244.5,464.5C 238.036,457.535 231.369,450.702 224.5,444C 224.728,443.601 225.062,443.435 225.5,443.5 Z"/></g>
<g><path style="opacity:0.957" fill="#4f3728" d="M 242.5,515.5 C 256.531,528.531 269.865,542.198 282.5,556.5C 282.5,556.833 282.5,557.167 282.5,557.5C 268.469,544.469 255.135,530.802 242.5,516.5C 242.5,516.167 242.5,515.833 242.5,515.5 Z"/></g>
<g><path style="opacity:0.039" fill="#734e2d" d="M 1046.5,518.5 C 1045.83,519.167 1045.83,519.167 1046.5,518.5 Z"/></g>
<g><path style="opacity:0.039" fill="#734e2d" d="M 3178.5,522.5 C 3177.83,523.167 3177.83,523.167 3178.5,522.5 Z"/></g>
<g><path style="opacity:1" fill="#483326" d="M 201.5,474.5 C 201.5,474.833 201.5,475.167 201.5,475.5C 184.701,491.798 168.035,508.298 151.5,525C 170.732,543.731 189.399,562.897 207.5,582.5C 207.5,582.833 207.5,583.167 207.5,583.5C 189.521,564.854 171.188,546.521 152.5,528.5C 151.365,527.526 150.365,526.359 149.5,525C 166.124,508.008 182.79,491.008 199.5,474C 200.437,473.308 201.103,473.475 201.5,474.5 Z"/></g>
<g><path style="opacity:0.039" fill="#734e2d" d="M 2502.5,526.5 C 2501.83,527.167 2501.83,527.167 2502.5,526.5 Z"/></g>
<g><path style="opacity:0.039" fill="#734e2d" d="M 152.5,528.5 C 151.833,529.167 151.833,529.167 152.5,528.5 Z"/></g>
<g><path style="opacity:0.957" fill="#403128" d="M 579.5,503.5 C 580.167,503.5 580.833,503.5 581.5,503.5C 607.464,530.631 633.63,557.631 660,584.5C 660.5,576.173 660.666,567.84 660.5,559.5C 661.496,574.991 661.83,590.658 661.5,606.5C 661.167,606.5 660.833,606.5 660.5,606.5C 660.666,599.825 660.5,593.158 660,586.5C 632.915,558.917 606.082,531.251 579.5,503.5 Z"/></g>
<g><path style="opacity:0.957" fill="#3f2f26" d="M 848.5,514.5 C 911.867,578.866 974.534,643.866 1036.5,709.5C 1036.5,709.833 1036.5,710.167 1036.5,710.5C 973.861,645.527 911.194,580.527 848.5,515.5C 848.5,515.167 848.5,514.833 848.5,514.5 Z"/></g>
<g><path style="opacity:0.957" fill="#3d2d25" d="M 550.5,515.5 C 587.495,552.329 623.995,589.662 660,627.5C 660.5,620.508 660.666,613.508 660.5,606.5C 660.833,606.5 661.167,606.5 661.5,606.5C 661.5,614.5 661.5,622.5 661.5,630.5C 623.802,593.135 586.802,555.135 550.5,516.5C 550.5,516.167 550.5,515.833 550.5,515.5 Z"/></g>
<g><path style="opacity:0.957" fill="#4f3728" d="M 418.5,536.5 C 431.532,548.531 443.865,561.198 455.5,574.5C 455.5,574.833 455.5,575.167 455.5,575.5C 442.468,563.469 430.135,550.802 418.5,537.5C 418.5,537.167 418.5,536.833 418.5,536.5 Z"/></g>
<g><path style="opacity:1" fill="#d57130" d="M 709.5,535.5 C 769.833,596.833 830.167,658.167 890.5,719.5C 892.243,722.75 894.577,725.584 897.5,728C 881.5,744 865.5,760 849.5,776C 848.5,776.667 847.5,776.667 846.5,776C 842.664,770.997 838.33,766.497 833.5,762.5C 792.139,720.14 750.806,677.807 709.5,635.5C 709.5,602.167 709.5,568.833 709.5,535.5 Z"/></g>
<g><path style="opacity:0.039" fill="#734e2d" d="M 471.5,538.5 C 470.833,539.167 470.833,539.167 471.5,538.5 Z"/></g>
<g><path style="opacity:0.039" fill="#734e2d" d="M 475.5,542.5 C 474.833,543.167 474.833,543.167 475.5,542.5 Z"/></g>
<g><path style="opacity:0.039" fill="#734e2d" d="M 778.5,546.5 C 777.833,547.167 777.833,547.167 778.5,546.5 Z"/></g>
<g><path style="opacity:1" fill="#2c2522" d="M 251.5,773.5 C 251.5,773.167 251.5,772.833 251.5,772.5C 267.132,756.368 282.965,740.368 299,724.5C 299.667,723.833 299.667,723.167 299,722.5C 241.667,665.167 184.333,607.833 127,550.5C 110.632,567.035 94.1319,583.368 77.5,599.5C 77.1667,599.5 76.8333,599.5 76.5,599.5C 93.1316,582.368 109.965,565.368 127,548.5C 185,606.5 243,664.5 301,722.5C 301.667,723.167 301.667,723.833 301,724.5C 284.632,741.035 268.132,757.368 251.5,773.5 Z"/></g>
<g><path style="opacity:1" fill="#d57130" d="M 251.5,772.5 C 192.882,715.549 134.882,657.882 77.5,599.5C 94.1319,583.368 110.632,567.035 127,550.5C 184.333,607.833 241.667,665.167 299,722.5C 299.667,723.167 299.667,723.833 299,724.5C 282.965,740.368 267.132,756.368 251.5,772.5 Z"/></g>
<g><path style="opacity:0.957" fill="#2d2522" d="M 282.5,556.5 C 300.833,574.167 318.833,592.167 336.5,610.5C 336.5,610.833 336.5,611.167 336.5,611.5C 318.167,593.833 300.167,575.833 282.5,557.5C 282.5,557.167 282.5,556.833 282.5,556.5 Z"/></g>
<g><path style="opacity:0.957" fill="#382b24" d="M 709.5,483.5 C 709.833,483.5 710.167,483.5 710.5,483.5C 710.333,500.503 710.5,517.503 711,534.5C 771.036,595.702 830.869,657.035 890.5,718.5C 890.5,718.833 890.5,719.167 890.5,719.5C 830.167,658.167 769.833,596.833 709.5,535.5C 709.5,518.167 709.5,500.833 709.5,483.5 Z"/></g>
<g><path style="opacity:0.039" fill="#734e2d" d="M 805.5,574.5 C 804.833,575.167 804.833,575.167 805.5,574.5 Z"/></g>
<g><path style="opacity:0.957" fill="#2d2522" d="M 455.5,574.5 C 472.5,590.833 489.167,607.5 505.5,624.5C 505.5,624.833 505.5,625.167 505.5,625.5C 488.5,609.167 471.833,592.5 455.5,575.5C 455.5,575.167 455.5,574.833 455.5,574.5 Z"/></g>
<g><path style="opacity:0.173" fill="#352923" d="M 207.5,582.5 C 229.167,603.5 250.5,624.833 271.5,646.5C 271.5,647.167 271.167,647.5 270.5,647.5C 249.527,626.194 228.527,604.86 207.5,583.5C 207.5,583.167 207.5,582.833 207.5,582.5 Z"/></g>
<g><path style="opacity:0.039" fill="#734e2d" d="M 1109.5,584.5 C 1108.83,585.167 1108.83,585.167 1109.5,584.5 Z"/></g>
<g><path style="opacity:0.086" fill="#553b2a" d="M 355.5,574.5 C 363.167,581.5 370.5,588.833 377.5,596.5C 376.833,596.5 376.5,596.833 376.5,597.5C 368.833,590.5 361.5,583.167 354.5,575.5C 355.167,575.5 355.5,575.167 355.5,574.5 Z"/></g>
<g><path style="opacity:0.957" fill="#483326" d="M 76.5,599.5 C 76.8333,599.5 77.1667,599.5 77.5,599.5C 134.882,657.882 192.882,715.549 251.5,772.5C 251.5,772.833 251.5,773.167 251.5,773.5C 251.217,774.289 250.717,774.956 250,775.5C 192.14,717.305 133.974,658.805 75.5,600C 75.7284,599.601 76.0618,599.435 76.5,599.5 Z"/></g>
<g><path style="opacity:0.957" fill="#503728" d="M 336.5,610.5 C 350.198,623.198 363.198,636.531 375.5,650.5C 375.5,650.833 375.5,651.167 375.5,651.5C 361.802,638.802 348.802,625.469 336.5,611.5C 336.5,611.167 336.5,610.833 336.5,610.5 Z"/></g>
<g><path style="opacity:0.957" fill="#503728" d="M 505.5,624.5 C 518.199,636.198 530.199,648.531 541.5,661.5C 541.5,661.833 541.5,662.167 541.5,662.5C 528.774,650.775 516.774,638.442 505.5,625.5C 505.5,625.167 505.5,624.833 505.5,624.5 Z"/></g>
<g><path style="opacity:0.039" fill="#734e2d" d="M 855.5,626.5 C 854.833,627.167 854.833,627.167 855.5,626.5 Z"/></g>
<g><path style="opacity:1" fill="#d57130" d="M 103.5,778.5 C 69.5838,746.085 36.0838,713.085 3,679.5C 2.33333,678.833 2.33333,678.167 3,677.5C 7.10421,673.905 10.6042,669.905 13.5,665.5C 25.6318,653.869 37.6318,642.035 49.5,630C 50.5,629.333 51.5,629.333 52.5,630C 85.3333,662.833 118.167,695.667 151,728.5C 151.667,729.167 151.667,729.833 151,730.5C 134.965,746.368 119.132,762.368 103.5,778.5 Z"/></g>
<g><path style="opacity:1" fill="#ccc1b6" d="M 700.5,635.5 C 700.141,637.485 699.308,638.151 698,637.5C 695.325,639.054 692.492,640.387 689.5,641.5C 682.493,641.944 676.16,639.944 670.5,635.5C 680.352,634.258 690.352,634.258 700.5,635.5 Z"/></g>
<g><path style="opacity:0.957" fill="#443228" d="M 1082.5,372.5 C 1083.33,398.663 1083.83,424.997 1084,451.5C 1170.05,541.046 1255.55,631.046 1340.5,721.5C 1323.83,738.833 1306.83,755.833 1289.5,772.5C 1263.78,745.786 1238.12,719.12 1212.5,692.5C 1178.11,656.447 1143.78,620.447 1109.5,584.5C 1088.44,562.447 1067.44,540.447 1046.5,518.5C 1041.44,513.443 1036.77,508.11 1032.5,502.5C 1033.17,502.5 1033.83,502.5 1034.5,502.5C 1118.76,592.267 1203.6,681.6 1289,770.5C 1305.5,754 1322,737.5 1338.5,721C 1253.6,632.271 1168.93,543.438 1084.5,454.5C 1084.22,453.711 1083.72,453.044 1083,452.5C 1082.5,468.83 1082.33,485.163 1082.5,501.5C 1081.18,458.627 1081.18,415.627 1082.5,372.5 Z"/></g>
<g><path style="opacity:1" fill="#d58a52" d="M 1084.5,454.5 C 1083.83,470.167 1083.17,485.833 1082.5,501.5C 1082.33,485.163 1082.5,468.83 1083,452.5C 1083.72,453.044 1084.22,453.711 1084.5,454.5 Z"/></g>
<g><path style="opacity:0.957" fill="#302723" d="M 103.5,779.5 C 103.5,779.167 103.5,778.833 103.5,778.5C 119.132,762.368 134.965,746.368 151,730.5C 151.667,729.833 151.667,729.167 151,728.5C 118.167,695.667 85.3333,662.833 52.5,630C 51.5,629.333 50.5,629.333 49.5,630C 37.6318,642.035 25.6318,653.869 13.5,665.5C 13.1667,665.5 12.8333,665.5 12.5,665.5C 24.6314,652.868 36.9647,640.368 49.5,628C 50.5,627.333 51.5,627.333 52.5,628C 86,661.5 119.5,695 153,728.5C 153.667,729.167 153.667,729.833 153,730.5C 136.632,747.035 120.132,763.368 103.5,779.5 Z"/></g>
<g><path style="opacity:0.957" fill="#503728" d="M 670.5,638.5 C 675.873,642.871 680.539,647.871 684.5,653.5C 684.5,653.833 684.5,654.167 684.5,654.5C 679.127,650.129 674.461,645.129 670.5,639.5C 670.5,639.167 670.5,638.833 670.5,638.5 Z"/></g>
<g><path style="opacity:0.957" fill="#3d2d25" d="M 718.5,483.5 C 720.38,483.229 721.713,483.896 722.5,485.5C 814.83,581.83 907.497,677.83 1000.5,773.5C 1000.5,773.833 1000.5,774.167 1000.5,774.5C 999.811,775.774 998.977,775.774 998,774.5C 950.688,725.021 903.188,675.687 855.5,626.5C 839.17,608.837 822.503,591.503 805.5,574.5C 796.5,565.167 787.5,555.833 778.5,546.5C 758.135,525.803 738.135,504.803 718.5,483.5 Z"/></g>
<g><path style="opacity:0.957" fill="#2d2522" d="M 375.5,650.5 C 393.833,668.167 411.833,686.167 429.5,704.5C 429.5,704.833 429.5,705.167 429.5,705.5C 411.167,687.833 393.167,669.833 375.5,651.5C 375.5,651.167 375.5,650.833 375.5,650.5 Z"/></g>
<g><path style="opacity:0.957" fill="#2d2523" d="M 684.5,653.5 C 691.167,659.5 697.5,665.833 703.5,672.5C 703.5,672.833 703.5,673.167 703.5,673.5C 696.833,667.5 690.5,661.167 684.5,654.5C 684.5,654.167 684.5,653.833 684.5,653.5 Z"/></g>
<g><path style="opacity:0.957" fill="#2d2522" d="M 541.5,661.5 C 561.006,680.173 580.006,699.339 598.5,719C 582.208,736.293 565.541,753.293 548.5,770C 547.563,770.692 546.897,770.525 546.5,769.5C 546.5,768.833 546.833,768.5 547.5,768.5C 564.146,752.521 580.479,736.188 596.5,719.5C 596,718.5 595.5,717.5 595,716.5C 576.965,698.632 559.132,680.632 541.5,662.5C 541.5,662.167 541.5,661.833 541.5,661.5 Z"/></g>
<g><path style="opacity:0.086" fill="#53392a" d="M 271.5,646.5 C 281.866,655.866 291.533,665.866 300.5,676.5C 300.5,676.833 300.5,677.167 300.5,677.5C 290.188,667.854 280.188,657.854 270.5,647.5C 271.167,647.5 271.5,647.167 271.5,646.5 Z"/></g>
<g><path style="opacity:0.039" fill="#734e2d" d="M 741.5,670.5 C 740.833,671.167 740.833,671.167 741.5,670.5 Z"/></g>
<g><path style="opacity:0.173" fill="#352923" d="M 300.5,676.5 C 322.5,697.833 344.167,719.5 365.5,741.5C 365.5,742.167 365.167,742.5 364.5,742.5C 343.221,720.887 321.888,699.22 300.5,677.5C 300.5,677.167 300.5,676.833 300.5,676.5 Z"/></g>
<g><path style="opacity:0.039" fill="#734e2d" d="M 613.5,684.5 C 612.833,685.167 612.833,685.167 613.5,684.5 Z"/></g>
<g><path style="opacity:0.957" fill="#3f2e25" d="M 377.5,596.5 C 434.528,653.528 491.195,710.861 547.5,768.5C 546.833,768.5 546.5,768.833 546.5,769.5C 489.499,712.499 432.832,655.166 376.5,597.5C 376.5,596.833 376.833,596.5 377.5,596.5 Z"/></g>
<g><path style="opacity:0.957" fill="#403128" d="M 887.5,502.5 C 892.167,502.5 896.833,502.5 901.5,502.5C 898.359,503.321 895.025,503.821 891.5,504C 973.371,589.702 1055.04,675.536 1136.5,761.5C 1136.17,761.5 1135.83,761.5 1135.5,761.5C 1052.62,675.442 969.954,589.109 887.5,502.5 Z"/></g>
<g><path style="opacity:0.039" fill="#734e2d" d="M 1212.5,692.5 C 1211.83,693.167 1211.83,693.167 1212.5,692.5 Z"/></g>
<g><path style="opacity:0.039" fill="#734e2d" d="M 642.5,714.5 C 641.833,715.167 641.833,715.167 642.5,714.5 Z"/></g>
<g><path style="opacity:0.973" fill="#4f3628" d="M 12.5,665.5 C 12.8333,665.5 13.1667,665.5 13.5,665.5C 10.6042,669.905 7.10421,673.905 3,677.5C 2.33333,678.167 2.33333,678.833 3,679.5C 36.0838,713.085 69.5838,746.085 103.5,778.5C 103.5,778.833 103.5,779.167 103.5,779.5C 103.103,780.525 102.437,780.692 101.5,780C 67.6855,746.352 33.6855,712.852 -0.5,679.5C -0.5,678.833 -0.5,678.167 -0.5,677.5C 3.83333,673.5 8.16667,669.5 12.5,665.5 Z"/></g>
<g><path style="opacity:0.039" fill="#734e2d" d="M 445.5,729.5 C 446.833,730.167 446.833,730.167 445.5,729.5 Z"/></g>
<g><path style="opacity:0.039" fill="#734e2d" d="M 443.5,731.5 C 444.833,732.167 444.833,732.167 443.5,731.5 Z"/></g>
<g><path style="opacity:0.039" fill="#734e2d" d="M 441.5,733.5 C 442.833,734.167 442.833,734.167 441.5,733.5 Z"/></g>
<g><path style="opacity:0.039" fill="#734e2d" d="M 439.5,735.5 C 440.833,736.167 440.833,736.167 439.5,735.5 Z"/></g>
<g><path style="opacity:0.957" fill="#3c2d25" d="M 705.5,635.5 C 706.833,635.5 708.167,635.5 709.5,635.5C 750.806,677.807 792.139,720.14 833.5,762.5C 833.5,763.167 833.167,763.5 832.5,763.5C 802.221,732.554 771.888,701.554 741.5,670.5C 730.052,658.049 718.052,646.382 705.5,635.5 Z"/></g>
<g><path style="opacity:0.173" fill="#292221" d="M 1036.5,709.5 C 1041.13,713.63 1045.63,717.963 1050,722.5C 1050.67,723.5 1050.67,724.5 1050,725.5C 1033.63,742.035 1017.13,758.368 1000.5,774.5C 1000.5,774.167 1000.5,773.833 1000.5,773.5C 1016.13,757.368 1031.96,741.368 1048,725.5C 1048.67,724.5 1048.67,723.5 1048,722.5C 1043.96,718.631 1040.13,714.631 1036.5,710.5C 1036.5,710.167 1036.5,709.833 1036.5,709.5 Z"/></g>
<g><path style="opacity:0.039" fill="#734e2d" d="M 671.5,744.5 C 670.833,745.167 670.833,745.167 671.5,744.5 Z"/></g>
<g><path style="opacity:0.804" fill="#4e3729" d="M 429.5,704.5 C 437.014,710.837 443.514,717.837 449,725.5C 447.624,726.705 446.458,728.038 445.5,729.5C 444.5,729.833 443.833,730.5 443.5,731.5C 442.5,731.833 441.833,732.5 441.5,733.5C 440.5,733.833 439.833,734.5 439.5,735.5C 426.215,749.452 412.548,763.119 398.5,776.5C 386.713,765.564 375.379,754.23 364.5,742.5C 365.167,742.5 365.5,742.167 365.5,741.5C 376.328,751.495 386.661,761.995 396.5,773C 397.5,773.667 398.5,773.667 399.5,773C 415.5,757 431.5,741 447.5,725C 440.926,718.93 434.926,712.43 429.5,705.5C 429.5,705.167 429.5,704.833 429.5,704.5 Z"/></g>
<g><path style="opacity:0.369" fill="#28211f" d="M 1191.5,715.5 C 1193.76,716.562 1194.92,718.228 1195,720.5C 1178.5,737 1162,753.5 1145.5,770C 1141.52,768.206 1138.19,765.373 1135.5,761.5C 1135.83,761.5 1136.17,761.5 1136.5,761.5C 1138.96,763.461 1141.3,765.628 1143.5,768C 1144.17,768.667 1144.83,768.667 1145.5,768C 1161.33,752.167 1177.17,736.333 1193,720.5C 1193.3,718.934 1192.8,717.601 1191.5,716.5C 1191.5,716.167 1191.5,715.833 1191.5,715.5 Z"/></g>
<g><path style="opacity:0.804" fill="#533a2b" d="M 890.5,718.5 C 893.464,720.962 896.297,723.629 899,726.5C 899.667,727.5 899.667,728.5 899,729.5C 882.5,746 866,762.5 849.5,779C 847.953,779.333 846.62,778.833 845.5,777.5C 841.117,772.787 836.783,768.12 832.5,763.5C 833.167,763.5 833.5,763.167 833.5,762.5C 838.33,766.497 842.664,770.997 846.5,776C 847.5,776.667 848.5,776.667 849.5,776C 865.5,760 881.5,744 897.5,728C 894.577,725.584 892.243,722.75 890.5,719.5C 890.5,719.167 890.5,718.833 890.5,718.5 Z"/></g>
</svg>
